<?xml version="1.0" encoding="UTF-8" standalone="no"?>
<!DOCTYPE svg PUBLIC "-//W3C//DTD SVG 1.1//EN"
 "http://www.w3.org/Graphics/SVG/1.1/DTD/svg11.dtd">
<!-- Generated by graphviz version 2.38.0 (20140413.2041)
 -->
<!-- Title: 1 Pages: 1 -->
<svg width="559pt" height="583pt"
 viewBox="0.00 0.00 558.65 582.54" xmlns="http://www.w3.org/2000/svg" xmlns:xlink="http://www.w3.org/1999/xlink">
<g id="graph0" class="graph" transform="scale(1 1) rotate(0) translate(280.215 303.055)">
<title>1</title>
<polygon fill="white" stroke="none" points="-280.215,279.488 -280.215,-303.055 278.436,-303.055 278.436,279.488 -280.215,279.488"/>
<!-- n22 -->
<g id="node1" class="node"><title>n22</title>
<ellipse fill="none" stroke="black" cx="106.824" cy="95.0322" rx="24.0958" ry="24.0958"/>
<text text-anchor="middle" x="106.824" y="98.7322" font-family="Times,serif" font-size="14.00">n22</text>
</g>
<!-- n23 -->
<g id="node2" class="node"><title>n23</title>
<ellipse fill="none" stroke="black" cx="190.375" cy="177.951" rx="24.0958" ry="24.0958"/>
<text text-anchor="middle" x="190.375" y="181.651" font-family="Times,serif" font-size="14.00">n23</text>
</g>
<!-- n22&#45;&#45;n23 -->
<g id="edge1" class="edge"><title>n22&#45;&#45;n23</title>
<path fill="none" stroke="black" d="M124.136,112.213C138.475,126.444 158.752,146.567 173.085,160.792"/>
</g>
<!-- n20 -->
<g id="node3" class="node"><title>n20</title>
<ellipse fill="none" stroke="black" cx="26.0987" cy="36.5652" rx="24.0958" ry="24.0958"/>
<text text-anchor="middle" x="26.0987" y="40.2652" font-family="Times,serif" font-size="14.00">n20</text>
</g>
<!-- n20&#45;&#45;n22 -->
<g id="edge2" class="edge"><title>n20&#45;&#45;n22</title>
<path fill="none" stroke="black" d="M45.64,50.7185C58.2387,59.8433 74.5644,71.6676 87.1826,80.8067"/>
</g>
<!-- n21 -->
<g id="node4" class="node"><title>n21</title>
<ellipse fill="none" stroke="black" cx="-45.2041" cy="11.1015" rx="24.0958" ry="24.0958"/>
<text text-anchor="middle" x="-45.2041" y="14.8015" font-family="Times,serif" font-size="14.00">n21</text>
</g>
<!-- n20&#45;&#45;n21 -->
<g id="edge3" class="edge"><title>n20&#45;&#45;n21</title>
<path fill="none" stroke="black" d="M3.14558,28.3682C-4.99665,25.4604 -14.1553,22.1896 -22.294,19.2832"/>
</g>
<!-- n16 -->
<g id="node5" class="node"><title>n16</title>
<ellipse fill="none" stroke="black" cx="-66.2168" cy="139.254" rx="24.0958" ry="24.0958"/>
<text text-anchor="middle" x="-66.2168" y="142.954" font-family="Times,serif" font-size="14.00">n16</text>
</g>
<!-- n16&#45;&#45;n20 -->
<g id="edge4" class="edge"><title>n16&#45;&#45;n20</title>
<path fill="none" stroke="black" d="M-50.1366,121.367C-33.296,102.634 -6.99425,73.3766 9.89314,54.5917"/>
</g>
<!-- n19 -->
<g id="node6" class="node"><title>n19</title>
<ellipse fill="none" stroke="black" cx="-180.115" cy="148.39" rx="24.0958" ry="24.0958"/>
<text text-anchor="middle" x="-180.115" y="152.09" font-family="Times,serif" font-size="14.00">n19</text>
</g>
<!-- n16&#45;&#45;n19 -->
<g id="edge5" class="edge"><title>n16&#45;&#45;n19</title>
<path fill="none" stroke="black" d="M-90.3716,141.191C-109.7,142.742 -136.675,144.905 -155.995,146.455"/>
</g>
<!-- n18 -->
<g id="node7" class="node"><title>n18</title>
<ellipse fill="none" stroke="black" cx="-135.374" cy="222.405" rx="24.0958" ry="24.0958"/>
<text text-anchor="middle" x="-135.374" y="226.105" font-family="Times,serif" font-size="14.00">n18</text>
</g>
<!-- n16&#45;&#45;n18 -->
<g id="edge6" class="edge"><title>n16&#45;&#45;n18</title>
<path fill="none" stroke="black" d="M-81.9097,158.122C-93.3074,171.826 -108.654,190.278 -119.982,203.898"/>
</g>
<!-- n17 -->
<g id="node8" class="node"><title>n17</title>
<ellipse fill="none" stroke="black" cx="-52.1409" cy="251.44" rx="24.0958" ry="24.0958"/>
<text text-anchor="middle" x="-52.1409" y="255.14" font-family="Times,serif" font-size="14.00">n17</text>
</g>
<!-- n16&#45;&#45;n17 -->
<g id="edge7" class="edge"><title>n16&#45;&#45;n17</title>
<path fill="none" stroke="black" d="M-63.1971,163.32C-60.8222,182.249 -57.5292,208.495 -55.1556,227.413"/>
</g>
<!-- n15 -->
<g id="node9" class="node"><title>n15</title>
<ellipse fill="none" stroke="black" cx="-51.1048" cy="67.1972" rx="24.0958" ry="24.0958"/>
<text text-anchor="middle" x="-51.1048" y="70.8972" font-family="Times,serif" font-size="14.00">n15</text>
</g>
<!-- n15&#45;&#45;n20 -->
<g id="edge8" class="edge"><title>n15&#45;&#45;n20</title>
<path fill="none" stroke="black" d="M-28.3588,58.1723C-18.3066,54.1839 -6.51809,49.5066 3.51528,45.5257"/>
</g>
<!-- n13 -->
<g id="node10" class="node"><title>n13</title>
<ellipse fill="none" stroke="black" cx="49.1958" cy="140.638" rx="24.0958" ry="24.0958"/>
<text text-anchor="middle" x="49.1958" y="144.338" font-family="Times,serif" font-size="14.00">n13</text>
</g>
<!-- n13&#45;&#45;n20 -->
<g id="edge9" class="edge"><title>n13&#45;&#45;n20</title>
<path fill="none" stroke="black" d="M43.9547,117.022C40.1747,99.9902 35.0943,77.0982 31.3191,60.0875"/>
</g>
<!-- n14 -->
<g id="node11" class="node"><title>n14</title>
<ellipse fill="none" stroke="black" cx="89.2479" cy="249.335" rx="24.0958" ry="24.0958"/>
<text text-anchor="middle" x="89.2479" y="253.035" font-family="Times,serif" font-size="14.00">n14</text>
</g>
<!-- n13&#45;&#45;n14 -->
<g id="edge10" class="edge"><title>n13&#45;&#45;n14</title>
<path fill="none" stroke="black" d="M57.592,163.425C64.4277,181.976 74.03,208.035 80.8627,226.579"/>
</g>
<!-- n9 -->
<g id="node12" class="node"><title>n9</title>
<ellipse fill="none" stroke="black" cx="141.411" cy="2.76397" rx="19.4965" ry="19.4965"/>
<text text-anchor="middle" x="141.411" y="6.46397" font-family="Times,serif" font-size="14.00">n9</text>
</g>
<!-- n9&#45;&#45;n20 -->
<g id="edge11" class="edge"><title>n9&#45;&#45;n20</title>
<path fill="none" stroke="black" d="M122.627,8.26996C102.588,14.144 70.8227,23.4554 49.2508,29.7787"/>
</g>
<!-- n12 -->
<g id="node13" class="node"><title>n12</title>
<ellipse fill="none" stroke="black" cx="239.471" cy="65.2707" rx="24.0958" ry="24.0958"/>
<text text-anchor="middle" x="239.471" y="68.9707" font-family="Times,serif" font-size="14.00">n12</text>
</g>
<!-- n9&#45;&#45;n12 -->
<g id="edge12" class="edge"><title>n9&#45;&#45;n12</title>
<path fill="none" stroke="black" d="M158.046,13.3674C174.875,24.0953 200.923,40.6988 219.008,52.2267"/>
</g>
<!-- n11 -->
<g id="node14" class="node"><title>n11</title>
<ellipse fill="none" stroke="black" cx="250.388" cy="-15.6595" rx="24.0958" ry="24.0958"/>
<text text-anchor="middle" x="250.388" y="-11.9595" font-family="Times,serif" font-size="14.00">n11</text>
</g>
<!-- n9&#45;&#45;n11 -->
<g id="edge13" class="edge"><title>n9&#45;&#45;n11</title>
<path fill="none" stroke="black" d="M160.643,-0.487372C178.974,-3.58641 206.635,-8.26271 226.399,-11.6039"/>
</g>
<!-- n10 -->
<g id="node15" class="node"><title>n10</title>
<ellipse fill="none" stroke="black" cx="208.038" cy="-84.2242" rx="24.0958" ry="24.0958"/>
<text text-anchor="middle" x="208.038" y="-80.5242" font-family="Times,serif" font-size="14.00">n10</text>
</g>
<!-- n9&#45;&#45;n10 -->
<g id="edge14" class="edge"><title>n9&#45;&#45;n10</title>
<path fill="none" stroke="black" d="M153.322,-12.7878C164.477,-27.3507 181.182,-49.1613 193.198,-64.8495"/>
</g>
<!-- n7 -->
<g id="node16" class="node"><title>n7</title>
<ellipse fill="none" stroke="black" cx="56.9162" cy="-174.979" rx="19.4965" ry="19.4965"/>
<text text-anchor="middle" x="56.9162" y="-171.279" font-family="Times,serif" font-size="14.00">n7</text>
</g>
<!-- n8 -->
<g id="node17" class="node"><title>n8</title>
<ellipse fill="none" stroke="black" cx="95.9506" cy="-279.557" rx="19.4965" ry="19.4965"/>
<text text-anchor="middle" x="95.9506" y="-275.857" font-family="Times,serif" font-size="14.00">n8</text>
</g>
<!-- n7&#45;&#45;n8 -->
<g id="edge15" class="edge"><title>n7&#45;&#45;n8</title>
<path fill="none" stroke="black" d="M63.8948,-193.676C70.9998,-212.711 81.9493,-242.046 89.0325,-261.023"/>
</g>
<!-- n4 -->
<g id="node18" class="node"><title>n4</title>
<ellipse fill="none" stroke="black" cx="-151.547" cy="-126.017" rx="19.4965" ry="19.4965"/>
<text text-anchor="middle" x="-151.547" y="-122.317" font-family="Times,serif" font-size="14.00">n4</text>
</g>
<!-- n6 -->
<g id="node19" class="node"><title>n6</title>
<ellipse fill="none" stroke="black" cx="-242.511" cy="-180.935" rx="19.4965" ry="19.4965"/>
<text text-anchor="middle" x="-242.511" y="-177.235" font-family="Times,serif" font-size="14.00">n6</text>
</g>
<!-- n4&#45;&#45;n6 -->
<g id="edge16" class="edge"><title>n4&#45;&#45;n6</title>
<path fill="none" stroke="black" d="M-168.657,-136.347C-185.023,-146.227 -209.549,-161.035 -225.785,-170.838"/>
</g>
<!-- n5 -->
<g id="node20" class="node"><title>n5</title>
<ellipse fill="none" stroke="black" cx="-170.299" cy="-242.999" rx="19.4965" ry="19.4965"/>
<text text-anchor="middle" x="-170.299" y="-239.299" font-family="Times,serif" font-size="14.00">n5</text>
</g>
<!-- n4&#45;&#45;n5 -->
<g id="edge17" class="edge"><title>n4&#45;&#45;n5</title>
<path fill="none" stroke="black" d="M-154.644,-145.334C-158.118,-167.009 -163.722,-201.967 -167.198,-223.653"/>
</g>
<!-- n3 -->
<g id="node21" class="node"><title>n3</title>
<ellipse fill="none" stroke="black" cx="-256.716" cy="-90.2373" rx="19.4965" ry="19.4965"/>
<text text-anchor="middle" x="-256.716" y="-86.5373" font-family="Times,serif" font-size="14.00">n3</text>
</g>
<!-- n3&#45;&#45;n4 -->
<g id="edge18" class="edge"><title>n3&#45;&#45;n4</title>
<path fill="none" stroke="black" d="M-237.914,-96.6339C-218.771,-103.146 -189.271,-113.183 -170.187,-119.676"/>
</g>
<!-- n0 -->
<g id="node22" class="node"><title>n0</title>
<ellipse fill="none" stroke="black" cx="-27.1142" cy="-82.0875" rx="19.4965" ry="19.4965"/>
<text text-anchor="middle" x="-27.1142" y="-78.3875" font-family="Times,serif" font-size="14.00">n0</text>
</g>
<!-- n0&#45;&#45;n20 -->
<g id="edge19" class="edge"><title>n0&#45;&#45;n20</title>
<path fill="none" stroke="black" d="M-19.0323,-64.0667C-9.61215,-43.0619 5.95842,-8.34307 16.123,14.3216"/>
</g>
<!-- n0&#45;&#45;n7 -->
<g id="edge20" class="edge"><title>n0&#45;&#45;n7</title>
<path fill="none" stroke="black" d="M-13.9844,-96.6018C1.70972,-113.951 27.8258,-142.821 43.6014,-160.26"/>
</g>
<!-- n0&#45;&#45;n4 -->
<g id="edge21" class="edge"><title>n0&#45;&#45;n4</title>
<path fill="none" stroke="black" d="M-45.7431,-88.6641C-69.2013,-96.9457 -109.273,-111.092 -132.791,-119.395"/>
</g>
<!-- n2 -->
<g id="node23" class="node"><title>n2</title>
<ellipse fill="none" stroke="black" cx="-69.9681" cy="-154.776" rx="19.4965" ry="19.4965"/>
<text text-anchor="middle" x="-69.9681" y="-151.076" font-family="Times,serif" font-size="14.00">n2</text>
</g>
<!-- n0&#45;&#45;n2 -->
<g id="edge22" class="edge"><title>n0&#45;&#45;n2</title>
<path fill="none" stroke="black" d="M-37.0535,-98.9464C-43.9272,-110.606 -53.0402,-126.063 -59.9343,-137.757"/>
</g>
<!-- n1 -->
<g id="node24" class="node"><title>n1</title>
<ellipse fill="none" stroke="black" cx="-5.60429" cy="-175.87" rx="19.4965" ry="19.4965"/>
<text text-anchor="middle" x="-5.60429" y="-172.17" font-family="Times,serif" font-size="14.00">n1</text>
</g>
<!-- n0&#45;&#45;n1 -->
<g id="edge23" class="edge"><title>n0&#45;&#45;n1</title>
<path fill="none" stroke="black" d="M-22.6573,-101.519C-18.9411,-117.722 -13.6758,-140.679 -9.98185,-156.784"/>
</g>
</g>
</svg>
