<?xml version="1.0" encoding="UTF-8" standalone="no"?>
<!DOCTYPE svg PUBLIC "-//W3C//DTD SVG 1.1//EN"
 "http://www.w3.org/Graphics/SVG/1.1/DTD/svg11.dtd">
<!-- Generated by graphviz version 2.38.0 (20140413.2041)
 -->
<!-- Title: 1 Pages: 1 -->
<svg width="886pt" height="909pt"
 viewBox="0.00 0.00 886.40 909.10" xmlns="http://www.w3.org/2000/svg" xmlns:xlink="http://www.w3.org/1999/xlink">
<g id="graph0" class="graph" transform="scale(1 1) rotate(0) translate(473.984 549.563)">
<title>1</title>
<polygon fill="white" stroke="none" points="-473.984,359.535 -473.984,-549.563 412.416,-549.563 412.416,359.535 -473.984,359.535"/>
<!-- n30 -->
<g id="node1" class="node"><title>n30</title>
<ellipse fill="none" stroke="black" cx="123.073" cy="87.4254" rx="24.0958" ry="24.0958"/>
<text text-anchor="middle" x="123.073" y="91.1254" font-family="Times,serif" font-size="14.00">n30</text>
</g>
<!-- n25 -->
<g id="node2" class="node"><title>n25</title>
<ellipse fill="none" stroke="black" cx="185.704" cy="169.648" rx="24.0958" ry="24.0958"/>
<text text-anchor="middle" x="185.704" y="173.348" font-family="Times,serif" font-size="14.00">n25</text>
</g>
<!-- n30&#45;&#45;n25 -->
<g id="edge1" class="edge"><title>n30&#45;&#45;n25</title>
<path fill="none" stroke="black" d="M137.916,106.911C147.9,120.018 161.006,137.225 170.968,150.302"/>
</g>
<!-- n23 -->
<g id="node3" class="node"><title>n23</title>
<ellipse fill="none" stroke="black" cx="162.414" cy="-10.3101" rx="24.0958" ry="24.0958"/>
<text text-anchor="middle" x="162.414" y="-6.61008" font-family="Times,serif" font-size="14.00">n23</text>
</g>
<!-- n30&#45;&#45;n23 -->
<g id="edge2" class="edge"><title>n30&#45;&#45;n23</title>
<path fill="none" stroke="black" d="M126.498,63.5988C131.705,47.005 140.491,25.1589 148.244,9.51327"/>
</g>
<!-- n16 -->
<g id="node4" class="node"><title>n16</title>
<ellipse fill="none" stroke="black" cx="18.0699" cy="-87.5687" rx="24.0958" ry="24.0958"/>
<text text-anchor="middle" x="18.0699" y="-83.8687" font-family="Times,serif" font-size="14.00">n16</text>
</g>
<!-- n30&#45;&#45;n16 -->
<g id="edge3" class="edge"><title>n30&#45;&#45;n16</title>
<path fill="none" stroke="black" d="M110.615,66.6641C90.4066,32.9849 50.7096,-33.1726 30.5113,-66.8344"/>
</g>
<!-- n25&#45;&#45;n23 -->
<g id="edge31" class="edge"><title>n25&#45;&#45;n23</title>
<path fill="none" stroke="black" d="M182.612,145.751C178.157,111.331 169.982,48.1602 165.52,13.6858"/>
</g>
<!-- n29 -->
<g id="node5" class="node"><title>n29</title>
<ellipse fill="none" stroke="black" cx="3.521" cy="215.971" rx="24.0958" ry="24.0958"/>
<text text-anchor="middle" x="3.521" y="219.671" font-family="Times,serif" font-size="14.00">n29</text>
</g>
<!-- n25&#45;&#45;n29 -->
<g id="edge28" class="edge"><title>n25&#45;&#45;n29</title>
<path fill="none" stroke="black" d="M162.26,175.609C127.278,184.504 61.8045,201.152 26.8753,210.033"/>
</g>
<!-- n28 -->
<g id="node6" class="node"><title>n28</title>
<ellipse fill="none" stroke="black" cx="-57.6944" cy="245.283" rx="24.0958" ry="24.0958"/>
<text text-anchor="middle" x="-57.6944" y="248.983" font-family="Times,serif" font-size="14.00">n28</text>
</g>
<!-- n25&#45;&#45;n28 -->
<g id="edge29" class="edge"><title>n25&#45;&#45;n28</title>
<path fill="none" stroke="black" d="M162.366,176.9C115.843,191.357 12.0384,223.614 -34.4269,238.053"/>
</g>
<!-- n26 -->
<g id="node7" class="node"><title>n26</title>
<ellipse fill="none" stroke="black" cx="160.539" cy="331.487" rx="24.0958" ry="24.0958"/>
<text text-anchor="middle" x="160.539" y="335.187" font-family="Times,serif" font-size="14.00">n26</text>
</g>
<!-- n25&#45;&#45;n26 -->
<g id="edge30" class="edge"><title>n25&#45;&#45;n26</title>
<path fill="none" stroke="black" d="M181.991,193.528C177.233,224.126 169.033,276.864 164.267,307.509"/>
</g>
<!-- n23&#45;&#45;n30 -->
<g id="edge32" class="edge"><title>n23&#45;&#45;n30</title>
<path fill="none" stroke="black" d="M158.99,13.5165C153.782,30.1104 144.997,51.9565 137.244,67.6021"/>
</g>
<!-- n23&#45;&#45;n29 -->
<g id="edge33" class="edge"><title>n23&#45;&#45;n29</title>
<path fill="none" stroke="black" d="M148.592,9.37505C118.541,52.17 47.549,153.271 17.425,196.17"/>
</g>
<!-- n23&#45;&#45;n26 -->
<g id="edge34" class="edge"><title>n23&#45;&#45;n26</title>
<path fill="none" stroke="black" d="M162.281,13.9971C161.936,76.8325 161.018,244.124 160.673,307.075"/>
</g>
<!-- n24 -->
<g id="node8" class="node"><title>n24</title>
<ellipse fill="none" stroke="black" cx="156.029" cy="225.744" rx="24.0958" ry="24.0958"/>
<text text-anchor="middle" x="156.029" y="229.444" font-family="Times,serif" font-size="14.00">n24</text>
</g>
<!-- n23&#45;&#45;n24 -->
<g id="edge35" class="edge"><title>n23&#45;&#45;n24</title>
<path fill="none" stroke="black" d="M161.755,14.0627C160.528,59.414 157.909,156.253 156.685,201.503"/>
</g>
<!-- n16&#45;&#45;n25 -->
<g id="edge64" class="edge"><title>n16&#45;&#45;n25</title>
<path fill="none" stroke="black" d="M31.2239,-67.3854C62.4834,-19.421 140.949,100.975 172.379,149.202"/>
</g>
<!-- n16&#45;&#45;n23 -->
<g id="edge66" class="edge"><title>n16&#45;&#45;n23</title>
<path fill="none" stroke="black" d="M39.3684,-76.169C66.6591,-61.5619 113.696,-36.3862 141.028,-21.7566"/>
</g>
<!-- n16&#45;&#45;n24 -->
<g id="edge65" class="edge"><title>n16&#45;&#45;n24</title>
<path fill="none" stroke="black" d="M27.771,-65.5372C53.0402,-8.14969 120.692,145.491 146.154,203.317"/>
</g>
<!-- n11 -->
<g id="node21" class="node"><title>n11</title>
<ellipse fill="none" stroke="black" cx="-185.294" cy="-99.1098" rx="24.0958" ry="24.0958"/>
<text text-anchor="middle" x="-185.294" y="-95.4098" font-family="Times,serif" font-size="14.00">n11</text>
</g>
<!-- n16&#45;&#45;n11 -->
<g id="edge67" class="edge"><title>n16&#45;&#45;n11</title>
<path fill="none" stroke="black" d="M-6.05724,-88.938C-45.1965,-91.1592 -122.08,-95.5223 -161.199,-97.7424"/>
</g>
<!-- n10 -->
<g id="node22" class="node"><title>n10</title>
<ellipse fill="none" stroke="black" cx="-324.582" cy="-8.43345" rx="24.0958" ry="24.0958"/>
<text text-anchor="middle" x="-324.582" y="-4.73345" font-family="Times,serif" font-size="14.00">n10</text>
</g>
<!-- n16&#45;&#45;n10 -->
<g id="edge68" class="edge"><title>n16&#45;&#45;n10</title>
<path fill="none" stroke="black" d="M-5.48195,-82.1295C-68.0791,-67.6727 -238.08,-28.411 -300.865,-13.9108"/>
</g>
<!-- n2 -->
<g id="node23" class="node"><title>n2</title>
<ellipse fill="none" stroke="black" cx="-185.475" cy="-217.726" rx="19.4965" ry="19.4965"/>
<text text-anchor="middle" x="-185.475" y="-214.026" font-family="Times,serif" font-size="14.00">n2</text>
</g>
<!-- n16&#45;&#45;n2 -->
<g id="edge69" class="edge"><title>n16&#45;&#45;n2</title>
<path fill="none" stroke="black" d="M-4.47693,-96.9495C-46.7668,-119.879 -136.633,-177.496 -171.407,-204.148"/>
</g>
<!-- n29&#45;&#45;n30 -->
<g id="edge4" class="edge"><title>n29&#45;&#45;n30</title>
<path fill="none" stroke="black" d="M20.1442,198.097C42.9849,173.538 83.8246,129.626 106.591,105.147"/>
</g>
<!-- n29&#45;&#45;n28 -->
<g id="edge5" class="edge"><title>n29&#45;&#45;n28</title>
<path fill="none" stroke="black" d="M-18.2336,226.388C-23.8695,229.087 -29.9436,231.995 -35.5969,234.702"/>
</g>
<!-- n29&#45;&#45;n26 -->
<g id="edge6" class="edge"><title>n29&#45;&#45;n26</title>
<path fill="none" stroke="black" d="M23.0899,230.368C53.1787,252.504 110.487,294.664 140.723,316.909"/>
</g>
<!-- n29&#45;&#45;n24 -->
<g id="edge7" class="edge"><title>n29&#45;&#45;n24</title>
<path fill="none" stroke="black" d="M27.6864,217.52C56.2432,219.349 103.47,222.376 131.977,224.202"/>
</g>
<!-- n8 -->
<g id="node9" class="node"><title>n8</title>
<ellipse fill="none" stroke="black" cx="-192.729" cy="75.5876" rx="19.4965" ry="19.4965"/>
<text text-anchor="middle" x="-192.729" y="79.2876" font-family="Times,serif" font-size="14.00">n8</text>
</g>
<!-- n29&#45;&#45;n8 -->
<g id="edge8" class="edge"><title>n29&#45;&#45;n8</title>
<path fill="none" stroke="black" d="M-16.3765,201.738C-55.355,173.855 -141.067,112.543 -176.7,87.0534"/>
</g>
<!-- n0 -->
<g id="node10" class="node"><title>n0</title>
<ellipse fill="none" stroke="black" cx="-186.782" cy="-16.6502" rx="19.4965" ry="19.4965"/>
<text text-anchor="middle" x="-186.782" y="-12.9502" font-family="Times,serif" font-size="14.00">n0</text>
</g>
<!-- n29&#45;&#45;n0 -->
<g id="edge9" class="edge"><title>n29&#45;&#45;n0</title>
<path fill="none" stroke="black" d="M-11.7306,197.328C-48.3334,152.586 -140.606,39.7941 -174.255,-1.33741"/>
</g>
<!-- n28&#45;&#45;n30 -->
<g id="edge10" class="edge"><title>n28&#45;&#45;n30</title>
<path fill="none" stroke="black" d="M-39.3666,229.279C-4.71992,199.023 70.0125,133.761 104.697,103.473"/>
</g>
<!-- n28&#45;&#45;n23 -->
<g id="edge12" class="edge"><title>n28&#45;&#45;n23</title>
<path fill="none" stroke="black" d="M-41.8647,226.902C-1.35152,179.857 105.753,55.4861 146.432,8.24845"/>
</g>
<!-- n28&#45;&#45;n26 -->
<g id="edge11" class="edge"><title>n28&#45;&#45;n26</title>
<path fill="none" stroke="black" d="M-35.1615,254.184C6.76601,270.746 96.294,306.11 138.129,322.635"/>
</g>
<!-- n28&#45;&#45;n8 -->
<g id="edge13" class="edge"><title>n28&#45;&#45;n8</title>
<path fill="none" stroke="black" d="M-72.9221,226.147C-99.9601,192.169 -155.825,121.965 -180.526,90.9228"/>
</g>
<!-- n28&#45;&#45;n0 -->
<g id="edge16" class="edge"><title>n28&#45;&#45;n0</title>
<path fill="none" stroke="black" d="M-68.4783,223.402C-93.5042,172.621 -155.133,47.5695 -178.03,1.10832"/>
</g>
<!-- n6 -->
<g id="node11" class="node"><title>n6</title>
<ellipse fill="none" stroke="black" cx="-92.5985" cy="-32.6997" rx="19.4965" ry="19.4965"/>
<text text-anchor="middle" x="-92.5985" y="-28.9997" font-family="Times,serif" font-size="14.00">n6</text>
</g>
<!-- n28&#45;&#45;n6 -->
<g id="edge14" class="edge"><title>n28&#45;&#45;n6</title>
<path fill="none" stroke="black" d="M-60.7308,221.101C-67.5476,166.81 -83.9553,36.137 -90.1633,-13.3052"/>
</g>
<!-- n5 -->
<g id="node12" class="node"><title>n5</title>
<ellipse fill="none" stroke="black" cx="-272.832" cy="121.874" rx="19.4965" ry="19.4965"/>
<text text-anchor="middle" x="-272.832" y="125.574" font-family="Times,serif" font-size="14.00">n5</text>
</g>
<!-- n28&#45;&#45;n5 -->
<g id="edge15" class="edge"><title>n28&#45;&#45;n5</title>
<path fill="none" stroke="black" d="M-78.7144,233.226C-121.218,208.844 -216.646,154.104 -255.688,131.708"/>
</g>
<!-- n26&#45;&#45;n30 -->
<g id="edge26" class="edge"><title>n26&#45;&#45;n30</title>
<path fill="none" stroke="black" d="M156.878,307.641C149.716,260.982 133.923,158.105 126.748,111.368"/>
</g>
<!-- n26&#45;&#45;n24 -->
<g id="edge27" class="edge"><title>n26&#45;&#45;n24</title>
<path fill="none" stroke="black" d="M159.504,307.227C158.771,290.033 157.791,267.06 157.059,249.89"/>
</g>
<!-- n8&#45;&#45;n16 -->
<g id="edge97" class="edge"><title>n8&#45;&#45;n16</title>
<path fill="none" stroke="black" d="M-177.228,63.5903C-139.386,34.3008 -42.3652,-40.7925 -1.03659,-72.7805"/>
</g>
<!-- n9 -->
<g id="node20" class="node"><title>n9</title>
<ellipse fill="none" stroke="black" cx="-310.63" cy="-77.8354" rx="19.4965" ry="19.4965"/>
<text text-anchor="middle" x="-310.63" y="-74.1354" font-family="Times,serif" font-size="14.00">n9</text>
</g>
<!-- n8&#45;&#45;n9 -->
<g id="edge98" class="edge"><title>n8&#45;&#45;n9</title>
<path fill="none" stroke="black" d="M-204.683,60.0323C-227.28,30.6265 -276.023,-32.8014 -298.645,-62.2389"/>
</g>
<!-- n8&#45;&#45;n2 -->
<g id="edge99" class="edge"><title>n8&#45;&#45;n2</title>
<path fill="none" stroke="black" d="M-195.812,56.2545C-198.748,3.00276 -195.08,-145.372 -189.517,-198.498"/>
</g>
<!-- n0&#45;&#45;n8 -->
<g id="edge151" class="edge"><title>n0&#45;&#45;n8</title>
<path fill="none" stroke="black" d="M-188.043,2.91105C-189.052,18.5641 -190.461,40.4089 -191.47,56.0545"/>
</g>
<!-- n0&#45;&#45;n6 -->
<g id="edge152" class="edge"><title>n0&#45;&#45;n6</title>
<path fill="none" stroke="black" d="M-167.267,-19.9757C-151.103,-22.7302 -128.246,-26.6252 -112.088,-29.3785"/>
</g>
<!-- n0&#45;&#45;n9 -->
<g id="edge150" class="edge"><title>n0&#45;&#45;n9</title>
<path fill="none" stroke="black" d="M-204.264,-25.2868C-227.734,-36.882 -269.208,-57.3712 -292.836,-69.0447"/>
</g>
<!-- n0&#45;&#45;n2 -->
<g id="edge153" class="edge"><title>n0&#45;&#45;n2</title>
<path fill="none" stroke="black" d="M-186.654,-36.2963C-186.404,-74.7372 -185.853,-159.495 -185.603,-198"/>
</g>
<!-- n15 -->
<g id="node24" class="node"><title>n15</title>
<ellipse fill="none" stroke="black" cx="100.205" cy="-231.786" rx="24.0958" ry="24.0958"/>
<text text-anchor="middle" x="100.205" y="-228.086" font-family="Times,serif" font-size="14.00">n15</text>
</g>
<!-- n0&#45;&#45;n15 -->
<g id="edge149" class="edge"><title>n0&#45;&#45;n15</title>
<path fill="none" stroke="black" d="M-170.943,-28.5233C-121.943,-65.2557 27.1021,-176.985 80.7248,-217.183"/>
</g>
<!-- n6&#45;&#45;n16 -->
<g id="edge104" class="edge"><title>n6&#45;&#45;n16</title>
<path fill="none" stroke="black" d="M-74.8177,-41.5153C-55.51,-51.0881 -24.6525,-66.3871 -3.8566,-76.6976"/>
</g>
<!-- n6&#45;&#45;n29 -->
<g id="edge102" class="edge"><title>n6&#45;&#45;n29</title>
<path fill="none" stroke="black" d="M-85.5306,-14.4143C-68.2755,30.2266 -24.036,144.678 -5.19113,193.432"/>
</g>
<!-- n6&#45;&#45;n8 -->
<g id="edge107" class="edge"><title>n6&#45;&#45;n8</title>
<path fill="none" stroke="black" d="M-106.103,-18.0956C-125.32,2.68725 -160.34,40.5598 -179.439,61.2149"/>
</g>
<!-- n27 -->
<g id="node13" class="node"><title>n27</title>
<ellipse fill="none" stroke="black" cx="20.0058" cy="52.8111" rx="24.0958" ry="24.0958"/>
<text text-anchor="middle" x="20.0058" y="56.5111" font-family="Times,serif" font-size="14.00">n27</text>
</g>
<!-- n6&#45;&#45;n27 -->
<g id="edge103" class="edge"><title>n6&#45;&#45;n27</title>
<path fill="none" stroke="black" d="M-74.5162,-24.9809C-52.735,-11.5351 -16.6931,15.6565 4.08348,34.1723"/>
</g>
<!-- n6&#45;&#45;n11 -->
<g id="edge105" class="edge"><title>n6&#45;&#45;n11</title>
<path fill="none" stroke="black" d="M-110.914,-39.4662C-127.996,-49.2943 -153.086,-67.0955 -169.361,-80.8172"/>
</g>
<!-- n6&#45;&#45;n10 -->
<g id="edge106" class="edge"><title>n6&#45;&#45;n10</title>
<path fill="none" stroke="black" d="M-111.568,-26.748C-153.551,-18.7127 -254.256,-8.06667 -300.557,-6.64331"/>
</g>
<!-- n6&#45;&#45;n2 -->
<g id="edge108" class="edge"><title>n6&#45;&#45;n2</title>
<path fill="none" stroke="black" d="M-101.504,-50.4407C-119.256,-85.8068 -158.866,-164.716 -176.596,-200.038"/>
</g>
<!-- n5&#45;&#45;n8 -->
<g id="edge111" class="edge"><title>n5&#45;&#45;n8</title>
<path fill="none" stroke="black" d="M-255.844,112.057C-242.251,104.203 -223.28,93.2406 -209.692,85.3895"/>
</g>
<!-- n5&#45;&#45;n0 -->
<g id="edge113" class="edge"><title>n5&#45;&#45;n0</title>
<path fill="none" stroke="black" d="M-262.452,105.164C-245.913,78.5394 -213.761,26.7804 -197.198,0.118236"/>
</g>
<!-- n5&#45;&#45;n6 -->
<g id="edge112" class="edge"><title>n5&#45;&#45;n6</title>
<path fill="none" stroke="black" d="M-257.775,108.961C-223.765,79.7919 -141.335,9.09783 -107.486,-19.9322"/>
</g>
<!-- n5&#45;&#45;n27 -->
<g id="edge109" class="edge"><title>n5&#45;&#45;n27</title>
<path fill="none" stroke="black" d="M-253.618,117.342C-201.957,105.159 -60.1728,71.7203 -3.67935,58.397"/>
</g>
<!-- n5&#45;&#45;n9 -->
<g id="edge110" class="edge"><title>n5&#45;&#45;n9</title>
<path fill="none" stroke="black" d="M-276.525,102.361C-283.77,64.0831 -299.766,-20.4336 -306.978,-58.5377"/>
</g>
<!-- n27&#45;&#45;n30 -->
<g id="edge17" class="edge"><title>n27&#45;&#45;n30</title>
<path fill="none" stroke="black" d="M42.8797,60.4932C59.9597,66.2294 83.1983,74.0339 100.263,79.7649"/>
</g>
<!-- n27&#45;&#45;n25 -->
<g id="edge20" class="edge"><title>n27&#45;&#45;n25</title>
<path fill="none" stroke="black" d="M39.6643,66.6727C71.4687,89.0985 133.861,133.092 165.814,155.623"/>
</g>
<!-- n27&#45;&#45;n23 -->
<g id="edge21" class="edge"><title>n27&#45;&#45;n23</title>
<path fill="none" stroke="black" d="M42.2572,42.9485C69.0109,31.0901 113.635,11.3108 140.319,-0.516642"/>
</g>
<!-- n27&#45;&#45;n29 -->
<g id="edge18" class="edge"><title>n27&#45;&#45;n29</title>
<path fill="none" stroke="black" d="M17.5734,76.886C14.4567,107.734 9.08491,160.902 5.96338,191.798"/>
</g>
<!-- n27&#45;&#45;n28 -->
<g id="edge19" class="edge"><title>n27&#45;&#45;n28</title>
<path fill="none" stroke="black" d="M10.9406,75.2669C-4.03147,112.354 -33.7528,185.978 -48.6868,222.971"/>
</g>
<!-- n27&#45;&#45;n8 -->
<g id="edge23" class="edge"><title>n27&#45;&#45;n8</title>
<path fill="none" stroke="black" d="M-3.98404,55.3796C-46.4714,59.9285 -134.141,69.3149 -173.206,73.4973"/>
</g>
<!-- n27&#45;&#45;n0 -->
<g id="edge25" class="edge"><title>n27&#45;&#45;n0</title>
<path fill="none" stroke="black" d="M-2.91417,45.1122C-44.1352,31.2657 -130.016,2.41768 -168.009,-10.3442"/>
</g>
<!-- n27&#45;&#45;n6 -->
<g id="edge24" class="edge"><title>n27&#45;&#45;n6</title>
<path fill="none" stroke="black" d="M-1.98147,42.6332C-25.3507,27.6501 -61.3223,0.169979 -80.2132,-17.266"/>
</g>
<!-- n22 -->
<g id="node14" class="node"><title>n22</title>
<ellipse fill="none" stroke="black" cx="330.592" cy="58.5888" rx="24.0958" ry="24.0958"/>
<text text-anchor="middle" x="330.592" y="62.2888" font-family="Times,serif" font-size="14.00">n22</text>
</g>
<!-- n27&#45;&#45;n22 -->
<g id="edge22" class="edge"><title>n27&#45;&#45;n22</title>
<path fill="none" stroke="black" d="M44.1185,53.2597C101.984,54.3361 248.213,57.0563 306.28,58.1365"/>
</g>
<!-- n22&#45;&#45;n30 -->
<g id="edge36" class="edge"><title>n22&#45;&#45;n30</title>
<path fill="none" stroke="black" d="M306.381,61.9532C266.394,67.5097 187.015,78.5401 147.13,84.0825"/>
</g>
<!-- n22&#45;&#45;n25 -->
<g id="edge37" class="edge"><title>n22&#45;&#45;n25</title>
<path fill="none" stroke="black" d="M311.352,73.3366C283.64,94.5782 232.78,133.564 205.024,154.839"/>
</g>
<!-- n22&#45;&#45;n23 -->
<g id="edge38" class="edge"><title>n22&#45;&#45;n23</title>
<path fill="none" stroke="black" d="M308.259,49.4396C276.093,36.2617 217.057,12.0759 184.839,-1.123"/>
</g>
<!-- n21 -->
<g id="node15" class="node"><title>n21</title>
<ellipse fill="none" stroke="black" cx="318.964" cy="-3.84339" rx="24.0958" ry="24.0958"/>
<text text-anchor="middle" x="318.964" y="-0.143388" font-family="Times,serif" font-size="14.00">n21</text>
</g>
<!-- n21&#45;&#45;n30 -->
<g id="edge39" class="edge"><title>n21&#45;&#45;n30</title>
<path fill="none" stroke="black" d="M296.874,6.44889C259.151,24.0244 182.75,59.621 145.083,77.1708"/>
</g>
<!-- n21&#45;&#45;n25 -->
<g id="edge41" class="edge"><title>n21&#45;&#45;n25</title>
<path fill="none" stroke="black" d="M304.194,15.3861C278.579,48.7347 226.202,116.924 200.541,150.332"/>
</g>
<!-- n21&#45;&#45;n23 -->
<g id="edge42" class="edge"><title>n21&#45;&#45;n23</title>
<path fill="none" stroke="black" d="M294.847,-4.83964C265.428,-6.05485 215.991,-8.09697 186.56,-9.3127"/>
</g>
<!-- n21&#45;&#45;n27 -->
<g id="edge40" class="edge"><title>n21&#45;&#45;n27</title>
<path fill="none" stroke="black" d="M295.256,0.649554C239.323,11.2492 99.6521,37.7177 43.7169,48.3177"/>
</g>
<!-- n21&#45;&#45;n22 -->
<g id="edge43" class="edge"><title>n21&#45;&#45;n22</title>
<path fill="none" stroke="black" d="M323.427,20.116C324.323,24.9302 325.265,29.9881 326.161,34.7966"/>
</g>
<!-- n20 -->
<g id="node16" class="node"><title>n20</title>
<ellipse fill="none" stroke="black" cx="384.368" cy="329.884" rx="24.0958" ry="24.0958"/>
<text text-anchor="middle" x="384.368" y="333.584" font-family="Times,serif" font-size="14.00">n20</text>
</g>
<!-- n20&#45;&#45;n25 -->
<g id="edge44" class="edge"><title>n20&#45;&#45;n25</title>
<path fill="none" stroke="black" d="M365.319,314.52C327.347,283.892 242.621,215.555 204.695,184.965"/>
</g>
<!-- n20&#45;&#45;n24 -->
<g id="edge45" class="edge"><title>n20&#45;&#45;n24</title>
<path fill="none" stroke="black" d="M362.474,319.898C318.941,300.044 221.945,255.806 178.193,235.852"/>
</g>
<!-- n20&#45;&#45;n21 -->
<g id="edge46" class="edge"><title>n20&#45;&#45;n21</title>
<path fill="none" stroke="black" d="M379.717,306.151C367.693,244.799 335.682,81.4571 323.636,19.9922"/>
</g>
<!-- n19 -->
<g id="node17" class="node"><title>n19</title>
<ellipse fill="none" stroke="black" cx="370.258" cy="177.283" rx="24.0958" ry="24.0958"/>
<text text-anchor="middle" x="370.258" y="180.983" font-family="Times,serif" font-size="14.00">n19</text>
</g>
<!-- n19&#45;&#45;n30 -->
<g id="edge47" class="edge"><title>n19&#45;&#45;n30</title>
<path fill="none" stroke="black" d="M347.447,168.99C300.357,151.872 192.872,112.799 145.829,95.6979"/>
</g>
<!-- n19&#45;&#45;n25 -->
<g id="edge49" class="edge"><title>n19&#45;&#45;n25</title>
<path fill="none" stroke="black" d="M346.131,176.285C310.761,174.822 245.21,172.11 209.837,170.646"/>
</g>
<!-- n19&#45;&#45;n23 -->
<g id="edge51" class="edge"><title>n19&#45;&#45;n23</title>
<path fill="none" stroke="black" d="M352.177,160.963C312.77,125.396 219.539,41.2488 180.306,5.8381"/>
</g>
<!-- n19&#45;&#45;n26 -->
<g id="edge48" class="edge"><title>n19&#45;&#45;n26</title>
<path fill="none" stroke="black" d="M350.528,191.79C310.456,221.255 219.963,287.793 180.064,317.131"/>
</g>
<!-- n19&#45;&#45;n24 -->
<g id="edge50" class="edge"><title>n19&#45;&#45;n24</title>
<path fill="none" stroke="black" d="M346.514,182.654C305.225,191.994 220.688,211.117 179.554,220.422"/>
</g>
<!-- n19&#45;&#45;n22 -->
<g id="edge52" class="edge"><title>n19&#45;&#45;n22</title>
<path fill="none" stroke="black" d="M362.61,154.398C355.586,133.38 345.233,102.4 338.216,81.404"/>
</g>
<!-- n19&#45;&#45;n21 -->
<g id="edge53" class="edge"><title>n19&#45;&#45;n21</title>
<path fill="none" stroke="black" d="M363.657,153.975C353.808,119.196 335.374,54.102 325.54,19.3755"/>
</g>
<!-- n18 -->
<g id="node18" class="node"><title>n18</title>
<ellipse fill="none" stroke="black" cx="51.4923" cy="-291.867" rx="24.0958" ry="24.0958"/>
<text text-anchor="middle" x="51.4923" y="-288.167" font-family="Times,serif" font-size="14.00">n18</text>
</g>
<!-- n18&#45;&#45;n23 -->
<g id="edge54" class="edge"><title>n18&#45;&#45;n23</title>
<path fill="none" stroke="black" d="M60.382,-269.302C81.1512,-216.583 132.671,-85.8075 153.482,-32.9826"/>
</g>
<!-- n18&#45;&#45;n16 -->
<g id="edge56" class="edge"><title>n18&#45;&#45;n16</title>
<path fill="none" stroke="black" d="M47.5929,-268.031C41.17,-228.77 28.4366,-150.936 21.9961,-111.568"/>
</g>
<!-- n17 -->
<g id="node19" class="node"><title>n17</title>
<ellipse fill="none" stroke="black" cx="-76.483" cy="-117.443" rx="24.0958" ry="24.0958"/>
<text text-anchor="middle" x="-76.483" y="-113.743" font-family="Times,serif" font-size="14.00">n17</text>
</g>
<!-- n18&#45;&#45;n17 -->
<g id="edge55" class="edge"><title>n18&#45;&#45;n17</title>
<path fill="none" stroke="black" d="M37.0606,-272.197C12.4166,-238.608 -37.4962,-170.58 -62.1041,-137.04"/>
</g>
<!-- n17&#45;&#45;n30 -->
<g id="edge57" class="edge"><title>n17&#45;&#45;n30</title>
<path fill="none" stroke="black" d="M-59.469,-99.9756C-21.7673,-61.2703 68.4402,31.3385 106.102,70.0027"/>
</g>
<!-- n17&#45;&#45;n23 -->
<g id="edge58" class="edge"><title>n17&#45;&#45;n23</title>
<path fill="none" stroke="black" d="M-54.4363,-107.556C-8.92541,-87.1467 94.9557,-40.5616 140.421,-20.1729"/>
</g>
<!-- n17&#45;&#45;n16 -->
<g id="edge59" class="edge"><title>n17&#45;&#45;n16</title>
<path fill="none" stroke="black" d="M-53.1104,-110.058C-38.4542,-105.427 -19.6388,-99.4827 -5.03387,-94.8683"/>
</g>
<!-- n17&#45;&#45;n8 -->
<g id="edge61" class="edge"><title>n17&#45;&#45;n8</title>
<path fill="none" stroke="black" d="M-88.9234,-96.785C-112.059,-58.3677 -161.281,23.367 -182.569,58.7162"/>
</g>
<!-- n17&#45;&#45;n0 -->
<g id="edge63" class="edge"><title>n17&#45;&#45;n0</title>
<path fill="none" stroke="black" d="M-94.6966,-100.799C-116.357,-81.0053 -152.086,-48.3559 -172.074,-30.09"/>
</g>
<!-- n17&#45;&#45;n5 -->
<g id="edge62" class="edge"><title>n17&#45;&#45;n5</title>
<path fill="none" stroke="black" d="M-91.8902,-98.6638C-129.589,-52.7152 -225.905,64.6773 -260.349,106.659"/>
</g>
<!-- n17&#45;&#45;n9 -->
<g id="edge60" class="edge"><title>n17&#45;&#45;n9</title>
<path fill="none" stroke="black" d="M-100.223,-113.427C-146.612,-105.58 -248.481,-88.3483 -291.186,-81.1245"/>
</g>
<!-- n9&#45;&#45;n16 -->
<g id="edge92" class="edge"><title>n9&#45;&#45;n16</title>
<path fill="none" stroke="black" d="M-291.053,-78.4151C-234.111,-80.1013 -68.6461,-85.0009 -6.18359,-86.8506"/>
</g>
<!-- n9&#45;&#45;n6 -->
<g id="edge95" class="edge"><title>n9&#45;&#45;n6</title>
<path fill="none" stroke="black" d="M-291.281,-73.8299C-249.906,-65.2646 -153.241,-45.2535 -111.904,-36.6962"/>
</g>
<!-- n9&#45;&#45;n11 -->
<g id="edge93" class="edge"><title>n9&#45;&#45;n11</title>
<path fill="none" stroke="black" d="M-291.321,-81.1129C-269.21,-84.866 -232.975,-91.0166 -209.126,-95.0646"/>
</g>
<!-- n9&#45;&#45;n10 -->
<g id="edge94" class="edge"><title>n9&#45;&#45;n10</title>
<path fill="none" stroke="black" d="M-314.517,-58.5031C-316.162,-50.321 -318.094,-40.7103 -319.823,-32.1084"/>
</g>
<!-- n9&#45;&#45;n2 -->
<g id="edge96" class="edge"><title>n9&#45;&#45;n2</title>
<path fill="none" stroke="black" d="M-297.473,-92.5417C-273.499,-119.339 -222.954,-175.834 -198.832,-202.795"/>
</g>
<!-- n11&#45;&#45;n30 -->
<g id="edge79" class="edge"><title>n11&#45;&#45;n30</title>
<path fill="none" stroke="black" d="M-164.583,-86.581C-108.407,-52.5994 46.3809,41.0335 102.451,74.9512"/>
</g>
<!-- n11&#45;&#45;n8 -->
<g id="edge82" class="edge"><title>n11&#45;&#45;n8</title>
<path fill="none" stroke="black" d="M-186.328,-74.8189C-187.816,-39.8486 -190.533,23.9949 -191.899,56.0824"/>
</g>
<!-- n11&#45;&#45;n0 -->
<g id="edge85" class="edge"><title>n11&#45;&#45;n0</title>
<path fill="none" stroke="black" d="M-185.733,-74.8152C-185.954,-62.5584 -186.218,-47.8848 -186.427,-36.3424"/>
</g>
<!-- n11&#45;&#45;n6 -->
<g id="edge83" class="edge"><title>n11&#45;&#45;n6</title>
<path fill="none" stroke="black" d="M-162.831,-89.896C-144.678,-78.9419 -119.891,-61.0187 -105.075,-48.0224"/>
</g>
<!-- n11&#45;&#45;n5 -->
<g id="edge84" class="edge"><title>n11&#45;&#45;n5</title>
<path fill="none" stroke="black" d="M-194.17,-76.7046C-211.513,-32.9234 -249.597,63.2179 -265.563,103.523"/>
</g>
<!-- n11&#45;&#45;n17 -->
<g id="edge80" class="edge"><title>n11&#45;&#45;n17</title>
<path fill="none" stroke="black" d="M-161.415,-103.133C-143.273,-106.19 -118.435,-110.374 -100.306,-113.429"/>
</g>
<!-- n11&#45;&#45;n10 -->
<g id="edge81" class="edge"><title>n11&#45;&#45;n10</title>
<path fill="none" stroke="black" d="M-202.577,-82.0111C-227.71,-62.706 -274.184,-32.4529 -301.991,-17.297"/>
</g>
<!-- n10&#45;&#45;n8 -->
<g id="edge88" class="edge"><title>n10&#45;&#45;n8</title>
<path fill="none" stroke="black" d="M-304.269,4.51071C-278.263,21.0824 -233.684,49.4895 -209.508,64.8956"/>
</g>
<!-- n10&#45;&#45;n0 -->
<g id="edge91" class="edge"><title>n10&#45;&#45;n0</title>
<path fill="none" stroke="black" d="M-300.263,-9.88353C-273.53,-11.4776 -231.103,-14.0074 -206.403,-15.4803"/>
</g>
<!-- n10&#45;&#45;n6 -->
<g id="edge89" class="edge"><title>n10&#45;&#45;n6</title>
<path fill="none" stroke="black" d="M-301.078,-15.2229C-255.239,-23.4148 -154.689,-33.8057 -112.184,-34.6009"/>
</g>
<!-- n10&#45;&#45;n5 -->
<g id="edge90" class="edge"><title>n10&#45;&#45;n5</title>
<path fill="none" stroke="black" d="M-315.686,13.9671C-305.629,39.29 -289.446,80.0397 -280.11,103.547"/>
</g>
<!-- n10&#45;&#45;n17 -->
<g id="edge86" class="edge"><title>n10&#45;&#45;n17</title>
<path fill="none" stroke="black" d="M-302.565,-18.1073C-255.603,-38.7415 -146.042,-86.8801 -98.8075,-107.634"/>
</g>
<!-- n10&#45;&#45;n11 -->
<g id="edge87" class="edge"><title>n10&#45;&#45;n11</title>
<path fill="none" stroke="black" d="M-307.299,-25.5321C-282.167,-44.8372 -235.693,-75.0903 -207.886,-90.2463"/>
</g>
<!-- n2&#45;&#45;n16 -->
<g id="edge129" class="edge"><title>n2&#45;&#45;n16</title>
<path fill="none" stroke="black" d="M-167.073,-210.561C-128.192,-190.095 -38.385,-132.813 0.107072,-104.091"/>
</g>
<!-- n2&#45;&#45;n8 -->
<g id="edge132" class="edge"><title>n2&#45;&#45;n8</title>
<path fill="none" stroke="black" d="M-182.392,-198.393C-179.456,-145.141 -183.124,3.23369 -188.687,56.3598"/>
</g>
<!-- n2&#45;&#45;n27 -->
<g id="edge128" class="edge"><title>n2&#45;&#45;n27</title>
<path fill="none" stroke="black" d="M-173.539,-202.011C-138.079,-155.324 -33.4201,-17.5297 5.34536,33.5091"/>
</g>
<!-- n2&#45;&#45;n11 -->
<g id="edge130" class="edge"><title>n2&#45;&#45;n11</title>
<path fill="none" stroke="black" d="M-185.445,-198.139C-185.414,-177.609 -185.365,-145.326 -185.331,-123.239"/>
</g>
<!-- n2&#45;&#45;n10 -->
<g id="edge131" class="edge"><title>n2&#45;&#45;n10</title>
<path fill="none" stroke="black" d="M-196.39,-201.303C-221.562,-163.432 -283.619,-70.0646 -311.106,-28.7093"/>
</g>
<!-- n15&#45;&#45;n23 -->
<g id="edge70" class="edge"><title>n15&#45;&#45;n23</title>
<path fill="none" stroke="black" d="M106.745,-208.502C118.693,-165.966 143.917,-76.1649 155.869,-33.6136"/>
</g>
<!-- n15&#45;&#45;n16 -->
<g id="edge73" class="edge"><title>n15&#45;&#45;n16</title>
<path fill="none" stroke="black" d="M88.2616,-210.815C72.6894,-183.473 45.6067,-135.919 30.0274,-108.564"/>
</g>
<!-- n15&#45;&#45;n6 -->
<g id="edge74" class="edge"><title>n15&#45;&#45;n6</title>
<path fill="none" stroke="black" d="M83.4319,-214.466C45.869,-175.679 -44.4142,-82.4542 -78.8956,-46.8491"/>
</g>
<!-- n15&#45;&#45;n18 -->
<g id="edge71" class="edge"><title>n15&#45;&#45;n18</title>
<path fill="none" stroke="black" d="M85.0588,-250.466C79.2496,-257.631 72.6205,-265.807 66.7966,-272.991"/>
</g>
<!-- n15&#45;&#45;n17 -->
<g id="edge72" class="edge"><title>n15&#45;&#45;n17</title>
<path fill="none" stroke="black" d="M79.9364,-218.669C45.9445,-196.671 -22.1645,-152.595 -56.1797,-130.582"/>
</g>
<!-- n14 -->
<g id="node25" class="node"><title>n14</title>
<ellipse fill="none" stroke="black" cx="341.083" cy="-209.989" rx="24.0958" ry="24.0958"/>
<text text-anchor="middle" x="341.083" y="-206.289" font-family="Times,serif" font-size="14.00">n14</text>
</g>
<!-- n14&#45;&#45;n23 -->
<g id="edge75" class="edge"><title>n14&#45;&#45;n23</title>
<path fill="none" stroke="black" d="M324.913,-191.916C290.982,-153.996 212.688,-66.4956 178.677,-28.4854"/>
</g>
<!-- n14&#45;&#45;n15 -->
<g id="edge76" class="edge"><title>n14&#45;&#45;n15</title>
<path fill="none" stroke="black" d="M317.106,-212.158C271.054,-216.326 170.699,-225.407 124.442,-229.592"/>
</g>
<!-- n13 -->
<g id="node26" class="node"><title>n13</title>
<ellipse fill="none" stroke="black" cx="239.571" cy="-466.159" rx="24.0958" ry="24.0958"/>
<text text-anchor="middle" x="239.571" y="-462.459" font-family="Times,serif" font-size="14.00">n13</text>
</g>
<!-- n13&#45;&#45;n15 -->
<g id="edge77" class="edge"><title>n13&#45;&#45;n15</title>
<path fill="none" stroke="black" d="M227.203,-445.36C200.756,-400.884 138.967,-296.973 112.545,-252.538"/>
</g>
<!-- n12 -->
<g id="node27" class="node"><title>n12</title>
<ellipse fill="none" stroke="black" cx="27.3842" cy="-521.515" rx="24.0958" ry="24.0958"/>
<text text-anchor="middle" x="27.3842" y="-517.815" font-family="Times,serif" font-size="14.00">n12</text>
</g>
<!-- n12&#45;&#45;n15 -->
<g id="edge78" class="edge"><title>n12&#45;&#45;n15</title>
<path fill="none" stroke="black" d="M33.3434,-497.806C47.0325,-443.341 80.5953,-309.805 94.2653,-255.417"/>
</g>
<!-- n7 -->
<g id="node28" class="node"><title>n7</title>
<ellipse fill="none" stroke="black" cx="-450.485" cy="-196.744" rx="19.4965" ry="19.4965"/>
<text text-anchor="middle" x="-450.485" y="-193.044" font-family="Times,serif" font-size="14.00">n7</text>
</g>
<!-- n7&#45;&#45;n0 -->
<g id="edge101" class="edge"><title>n7&#45;&#45;n0</title>
<path fill="none" stroke="black" d="M-433.989,-185.478C-386.519,-153.059 -249.973,-59.8061 -202.935,-27.6817"/>
</g>
<!-- n7&#45;&#45;n9 -->
<g id="edge100" class="edge"><title>n7&#45;&#45;n9</title>
<path fill="none" stroke="black" d="M-435.518,-184.019C-408.6,-161.132 -352.329,-113.289 -325.49,-90.4692"/>
</g>
<!-- n4 -->
<g id="node29" class="node"><title>n4</title>
<ellipse fill="none" stroke="black" cx="-368.327" cy="193.426" rx="19.4965" ry="19.4965"/>
<text text-anchor="middle" x="-368.327" y="197.126" font-family="Times,serif" font-size="14.00">n4</text>
</g>
<!-- n4&#45;&#45;n8 -->
<g id="edge115" class="edge"><title>n4&#45;&#45;n8</title>
<path fill="none" stroke="black" d="M-352.122,182.551C-318.755,160.16 -242.701,109.122 -209.15,86.6074"/>
</g>
<!-- n4&#45;&#45;n0 -->
<g id="edge116" class="edge"><title>n4&#45;&#45;n0</title>
<path fill="none" stroke="black" d="M-355.561,178.654C-322.228,140.082 -232.851,36.6591 -199.534,-1.89438"/>
</g>
<!-- n4&#45;&#45;n9 -->
<g id="edge114" class="edge"><title>n4&#45;&#45;n9</title>
<path fill="none" stroke="black" d="M-364.27,174.352C-353.702,124.666 -325.409,-8.35337 -314.76,-58.4188"/>
</g>
<!-- n3 -->
<g id="node30" class="node"><title>n3</title>
<ellipse fill="none" stroke="black" cx="-204.535" cy="182.64" rx="19.4965" ry="19.4965"/>
<text text-anchor="middle" x="-204.535" y="186.34" font-family="Times,serif" font-size="14.00">n3</text>
</g>
<!-- n3&#45;&#45;n29 -->
<g id="edge117" class="edge"><title>n3&#45;&#45;n29</title>
<path fill="none" stroke="black" d="M-184.961,185.776C-146.623,191.918 -61.7649,205.512 -20.2656,212.16"/>
</g>
<!-- n3&#45;&#45;n28 -->
<g id="edge118" class="edge"><title>n3&#45;&#45;n28</title>
<path fill="none" stroke="black" d="M-186.529,190.322C-159.649,201.789 -109.075,223.364 -79.9265,235.799"/>
</g>
<!-- n3&#45;&#45;n8 -->
<g id="edge124" class="edge"><title>n3&#45;&#45;n8</title>
<path fill="none" stroke="black" d="M-202.369,163.005C-200.239,143.689 -197.006,114.371 -194.881,95.0982"/>
</g>
<!-- n3&#45;&#45;n0 -->
<g id="edge127" class="edge"><title>n3&#45;&#45;n0</title>
<path fill="none" stroke="black" d="M-202.8,163.169C-199.406,125.069 -191.923,41.0636 -188.523,2.90048"/>
</g>
<!-- n3&#45;&#45;n6 -->
<g id="edge125" class="edge"><title>n3&#45;&#45;n6</title>
<path fill="none" stroke="black" d="M-195.375,165.018C-174.332,124.537 -122.741,25.2879 -101.728,-15.136"/>
</g>
<!-- n3&#45;&#45;n5 -->
<g id="edge126" class="edge"><title>n3&#45;&#45;n5</title>
<path fill="none" stroke="black" d="M-219.354,169.455C-230.81,159.262 -246.593,145.219 -258.042,135.033"/>
</g>
<!-- n3&#45;&#45;n27 -->
<g id="edge119" class="edge"><title>n3&#45;&#45;n27</title>
<path fill="none" stroke="black" d="M-187.288,172.668C-146.622,149.155 -44.8568,90.3146 -0.83196,64.8595"/>
</g>
<!-- n3&#45;&#45;n17 -->
<g id="edge120" class="edge"><title>n3&#45;&#45;n17</title>
<path fill="none" stroke="black" d="M-196.717,164.32C-174.4,112.02 -110.435,-37.8767 -86.068,-94.9806"/>
</g>
<!-- n3&#45;&#45;n9 -->
<g id="edge123" class="edge"><title>n3&#45;&#45;n9</title>
<path fill="none" stroke="black" d="M-211.995,164.324C-231.475,116.499 -283.707,-11.7367 -303.178,-59.5395"/>
</g>
<!-- n3&#45;&#45;n11 -->
<g id="edge121" class="edge"><title>n3&#45;&#45;n11</title>
<path fill="none" stroke="black" d="M-203.182,162.828C-199.743,112.474 -190.677,-20.2853 -186.94,-75.0061"/>
</g>
<!-- n3&#45;&#45;n10 -->
<g id="edge122" class="edge"><title>n3&#45;&#45;n10</title>
<path fill="none" stroke="black" d="M-214.978,166.018C-236.94,131.062 -287.847,50.0358 -311.751,11.99"/>
</g>
<!-- n1 -->
<g id="node31" class="node"><title>n1</title>
<ellipse fill="none" stroke="black" cx="-84.8266" cy="122.026" rx="19.4965" ry="19.4965"/>
<text text-anchor="middle" x="-84.8266" y="125.726" font-family="Times,serif" font-size="14.00">n1</text>
</g>
<!-- n1&#45;&#45;n30 -->
<g id="edge133" class="edge"><title>n1&#45;&#45;n30</title>
<path fill="none" stroke="black" d="M-65.2679,118.771C-26.958,112.395 57.836,98.2827 99.3041,91.3812"/>
</g>
<!-- n1&#45;&#45;n25 -->
<g id="edge136" class="edge"><title>n1&#45;&#45;n25</title>
<path fill="none" stroke="black" d="M-65.3706,125.451C-16.9095,133.981 109.075,156.159 161.874,165.453"/>
</g>
<!-- n1&#45;&#45;n23 -->
<g id="edge138" class="edge"><title>n1&#45;&#45;n23</title>
<path fill="none" stroke="black" d="M-67.4411,112.72C-23.3645,89.1281 92.6652,27.0232 140.903,1.20371"/>
</g>
<!-- n1&#45;&#45;n28 -->
<g id="edge134" class="edge"><title>n1&#45;&#45;n28</title>
<path fill="none" stroke="black" d="M-80.5871,141.285C-75.8178,162.951 -68.0677,198.159 -62.9257,221.518"/>
</g>
<!-- n1&#45;&#45;n24 -->
<g id="edge137" class="edge"><title>n1&#45;&#45;n24</title>
<path fill="none" stroke="black" d="M-66.7232,129.821C-23.2906,148.524 86.7132,195.895 133.938,216.231"/>
</g>
<!-- n1&#45;&#45;n8 -->
<g id="edge143" class="edge"><title>n1&#45;&#45;n8</title>
<path fill="none" stroke="black" d="M-103.131,114.148C-123.093,105.557 -154.84,91.8939 -174.695,83.3488"/>
</g>
<!-- n1&#45;&#45;n0 -->
<g id="edge148" class="edge"><title>n1&#45;&#45;n0</title>
<path fill="none" stroke="black" d="M-96.5221,106.118C-116.189,79.3677 -155.648,25.6972 -175.223,-0.927857"/>
</g>
<!-- n1&#45;&#45;n6 -->
<g id="edge144" class="edge"><title>n1&#45;&#45;n6</title>
<path fill="none" stroke="black" d="M-85.8109,102.43C-87.2977,72.8301 -90.1011,17.0187 -91.5976,-12.774"/>
</g>
<!-- n1&#45;&#45;n5 -->
<g id="edge145" class="edge"><title>n1&#45;&#45;n5</title>
<path fill="none" stroke="black" d="M-104.591,122.01C-140.793,121.98 -217.328,121.918 -253.332,121.889"/>
</g>
<!-- n1&#45;&#45;n27 -->
<g id="edge135" class="edge"><title>n1&#45;&#45;n27</title>
<path fill="none" stroke="black" d="M-68.4465,111.211C-50.0189,99.0443 -20.0741,79.2735 -0.206917,66.1564"/>
</g>
<!-- n1&#45;&#45;n17 -->
<g id="edge139" class="edge"><title>n1&#45;&#45;n17</title>
<path fill="none" stroke="black" d="M-84.1438,102.429C-82.6259,58.8648 -78.9755,-45.905 -77.3221,-93.3608"/>
</g>
<!-- n1&#45;&#45;n9 -->
<g id="edge142" class="edge"><title>n1&#45;&#45;n9</title>
<path fill="none" stroke="black" d="M-99.6422,108.912C-140.556,72.6986 -254.781,-28.4025 -295.76,-64.6737"/>
</g>
<!-- n1&#45;&#45;n11 -->
<g id="edge140" class="edge"><title>n1&#45;&#45;n11</title>
<path fill="none" stroke="black" d="M-93.0483,103.929C-111.372,63.597 -155.507,-33.5454 -175.344,-77.2077"/>
</g>
<!-- n1&#45;&#45;n10 -->
<g id="edge141" class="edge"><title>n1&#45;&#45;n10</title>
<path fill="none" stroke="black" d="M-102.069,112.643C-144.91,89.3322 -256.112,28.8233 -303.111,3.24976"/>
</g>
<!-- n1&#45;&#45;n4 -->
<g id="edge146" class="edge"><title>n1&#45;&#45;n4</title>
<path fill="none" stroke="black" d="M-103.868,126.821C-155.514,139.829 -297.82,175.669 -349.369,188.651"/>
</g>
<!-- n1&#45;&#45;n3 -->
<g id="edge147" class="edge"><title>n1&#45;&#45;n3</title>
<path fill="none" stroke="black" d="M-102.233,130.84C-124.929,142.332 -164.401,162.318 -187.107,173.816"/>
</g>
</g>
</svg>
