<?xml version="1.0" encoding="UTF-8" standalone="no"?>
<!DOCTYPE svg PUBLIC "-//W3C//DTD SVG 1.1//EN"
 "http://www.w3.org/Graphics/SVG/1.1/DTD/svg11.dtd">
<!-- Generated by graphviz version 2.38.0 (20140413.2041)
 -->
<!-- Title: 1 Pages: 1 -->
<svg width="768pt" height="775pt"
 viewBox="0.00 0.00 767.63 774.82" xmlns="http://www.w3.org/2000/svg" xmlns:xlink="http://www.w3.org/1999/xlink">
<g id="graph0" class="graph" transform="scale(1 1) rotate(0) translate(263.92 511.129)">
<title>1</title>
<polygon fill="white" stroke="none" points="-263.92,263.686 -263.92,-511.129 503.709,-511.129 503.709,263.686 -263.92,263.686"/>
<!-- n27 -->
<g id="node1" class="node"><title>n27</title>
<ellipse fill="none" stroke="black" cx="396.261" cy="-212.796" rx="24.0958" ry="24.0958"/>
<text text-anchor="middle" x="396.261" y="-209.096" font-family="Times,serif" font-size="14.00">n27</text>
</g>
<!-- n29 -->
<g id="node2" class="node"><title>n29</title>
<ellipse fill="none" stroke="black" cx="475.661" cy="-167.964" rx="24.0958" ry="24.0958"/>
<text text-anchor="middle" x="475.661" y="-164.264" font-family="Times,serif" font-size="14.00">n29</text>
</g>
<!-- n27&#45;&#45;n29 -->
<g id="edge1" class="edge"><title>n27&#45;&#45;n29</title>
<path fill="none" stroke="black" d="M417.539,-200.782C429.023,-194.298 443.15,-186.321 454.6,-179.856"/>
</g>
<!-- n28 -->
<g id="node3" class="node"><title>n28</title>
<ellipse fill="none" stroke="black" cx="367.891" cy="-128.003" rx="24.0958" ry="24.0958"/>
<text text-anchor="middle" x="367.891" y="-124.303" font-family="Times,serif" font-size="14.00">n28</text>
</g>
<!-- n27&#45;&#45;n28 -->
<g id="edge2" class="edge"><title>n27&#45;&#45;n28</title>
<path fill="none" stroke="black" d="M388.509,-189.626C384.473,-177.564 379.556,-162.867 375.536,-150.851"/>
</g>
<!-- n25 -->
<g id="node4" class="node"><title>n25</title>
<ellipse fill="none" stroke="black" cx="387.739" cy="-401.994" rx="24.0958" ry="24.0958"/>
<text text-anchor="middle" x="387.739" y="-398.294" font-family="Times,serif" font-size="14.00">n25</text>
</g>
<!-- n26 -->
<g id="node5" class="node"><title>n26</title>
<ellipse fill="none" stroke="black" cx="417.921" cy="-483.082" rx="24.0958" ry="24.0958"/>
<text text-anchor="middle" x="417.921" y="-479.382" font-family="Times,serif" font-size="14.00">n26</text>
</g>
<!-- n25&#45;&#45;n26 -->
<g id="edge3" class="edge"><title>n25&#45;&#45;n26</title>
<path fill="none" stroke="black" d="M396.147,-424.581C400.298,-435.734 405.295,-449.159 409.454,-460.334"/>
</g>
<!-- n23 -->
<g id="node6" class="node"><title>n23</title>
<ellipse fill="none" stroke="black" cx="266.683" cy="-312.116" rx="24.0958" ry="24.0958"/>
<text text-anchor="middle" x="266.683" y="-308.416" font-family="Times,serif" font-size="14.00">n23</text>
</g>
<!-- n24 -->
<g id="node7" class="node"><title>n24</title>
<ellipse fill="none" stroke="black" cx="180.181" cy="-316.137" rx="24.0958" ry="24.0958"/>
<text text-anchor="middle" x="180.181" y="-312.437" font-family="Times,serif" font-size="14.00">n24</text>
</g>
<!-- n23&#45;&#45;n24 -->
<g id="edge4" class="edge"><title>n23&#45;&#45;n24</title>
<path fill="none" stroke="black" d="M242.588,-313.236C230.69,-313.789 216.369,-314.455 204.448,-315.009"/>
</g>
<!-- n21 -->
<g id="node8" class="node"><title>n21</title>
<ellipse fill="none" stroke="black" cx="364.059" cy="-307.749" rx="24.0958" ry="24.0958"/>
<text text-anchor="middle" x="364.059" y="-304.049" font-family="Times,serif" font-size="14.00">n21</text>
</g>
<!-- n21&#45;&#45;n27 -->
<g id="edge6" class="edge"><title>n21&#45;&#45;n27</title>
<path fill="none" stroke="black" d="M371.855,-284.763C376.88,-269.944 383.393,-250.741 388.426,-235.899"/>
</g>
<!-- n21&#45;&#45;n25 -->
<g id="edge7" class="edge"><title>n21&#45;&#45;n25</title>
<path fill="none" stroke="black" d="M370.035,-331.531C373.652,-345.927 378.246,-364.211 381.848,-378.546"/>
</g>
<!-- n21&#45;&#45;n23 -->
<g id="edge8" class="edge"><title>n21&#45;&#45;n23</title>
<path fill="none" stroke="black" d="M339.989,-308.828C325.008,-309.5 305.807,-310.362 290.815,-311.034"/>
</g>
<!-- n30 -->
<g id="node9" class="node"><title>n30</title>
<ellipse fill="none" stroke="black" cx="307.723" cy="-246.509" rx="24.0958" ry="24.0958"/>
<text text-anchor="middle" x="307.723" y="-242.809" font-family="Times,serif" font-size="14.00">n30</text>
</g>
<!-- n21&#45;&#45;n30 -->
<g id="edge5" class="edge"><title>n21&#45;&#45;n30</title>
<path fill="none" stroke="black" d="M347.765,-290.036C340.355,-281.982 331.605,-272.469 324.176,-264.394"/>
</g>
<!-- n22 -->
<g id="node10" class="node"><title>n22</title>
<ellipse fill="none" stroke="black" cx="443.835" cy="-347.739" rx="24.0958" ry="24.0958"/>
<text text-anchor="middle" x="443.835" y="-344.039" font-family="Times,serif" font-size="14.00">n22</text>
</g>
<!-- n21&#45;&#45;n22 -->
<g id="edge9" class="edge"><title>n21&#45;&#45;n22</title>
<path fill="none" stroke="black" d="M385.858,-318.676C397.115,-324.319 410.81,-331.184 422.062,-336.825"/>
</g>
<!-- n20 -->
<g id="node11" class="node"><title>n20</title>
<ellipse fill="none" stroke="black" cx="447.255" cy="-288.494" rx="24.0958" ry="24.0958"/>
<text text-anchor="middle" x="447.255" y="-284.794" font-family="Times,serif" font-size="14.00">n20</text>
</g>
<!-- n20&#45;&#45;n21 -->
<g id="edge10" class="edge"><title>n20&#45;&#45;n21</title>
<path fill="none" stroke="black" d="M423.637,-293.96C412.396,-296.562 398.986,-299.666 387.737,-302.269"/>
</g>
<!-- n19 -->
<g id="node12" class="node"><title>n19</title>
<ellipse fill="none" stroke="black" cx="312.788" cy="-375.417" rx="24.0958" ry="24.0958"/>
<text text-anchor="middle" x="312.788" y="-371.717" font-family="Times,serif" font-size="14.00">n19</text>
</g>
<!-- n19&#45;&#45;n21 -->
<g id="edge11" class="edge"><title>n19&#45;&#45;n21</title>
<path fill="none" stroke="black" d="M327.343,-356.207C334.212,-347.142 342.394,-336.343 349.29,-327.242"/>
</g>
<!-- n15 -->
<g id="node13" class="node"><title>n15</title>
<ellipse fill="none" stroke="black" cx="-111.067" cy="-76.3633" rx="24.0958" ry="24.0958"/>
<text text-anchor="middle" x="-111.067" y="-72.6633" font-family="Times,serif" font-size="14.00">n15</text>
</g>
<!-- n18 -->
<g id="node14" class="node"><title>n18</title>
<ellipse fill="none" stroke="black" cx="-77.222" cy="-194.206" rx="24.0958" ry="24.0958"/>
<text text-anchor="middle" x="-77.222" y="-190.506" font-family="Times,serif" font-size="14.00">n18</text>
</g>
<!-- n15&#45;&#45;n18 -->
<g id="edge12" class="edge"><title>n15&#45;&#45;n18</title>
<path fill="none" stroke="black" d="M-104.38,-99.6453C-98.4469,-120.305 -89.8241,-150.328 -83.8948,-170.973"/>
</g>
<!-- n17 -->
<g id="node15" class="node"><title>n17</title>
<ellipse fill="none" stroke="black" cx="-164.853" cy="38.0428" rx="24.0958" ry="24.0958"/>
<text text-anchor="middle" x="-164.853" y="41.7428" font-family="Times,serif" font-size="14.00">n17</text>
</g>
<!-- n15&#45;&#45;n17 -->
<g id="edge13" class="edge"><title>n15&#45;&#45;n17</title>
<path fill="none" stroke="black" d="M-121.31,-54.5751C-130.82,-34.3476 -144.909,-4.37978 -154.465,15.9461"/>
</g>
<!-- n16 -->
<g id="node16" class="node"><title>n16</title>
<ellipse fill="none" stroke="black" cx="-207.087" cy="-157.113" rx="24.0958" ry="24.0958"/>
<text text-anchor="middle" x="-207.087" y="-153.413" font-family="Times,serif" font-size="14.00">n16</text>
</g>
<!-- n15&#45;&#45;n16 -->
<g id="edge14" class="edge"><title>n15&#45;&#45;n16</title>
<path fill="none" stroke="black" d="M-129.581,-91.9326C-146.584,-106.231 -171.645,-127.307 -188.63,-141.591"/>
</g>
<!-- n14 -->
<g id="node17" class="node"><title>n14</title>
<ellipse fill="none" stroke="black" cx="-145.86" cy="-206.152" rx="24.0958" ry="24.0958"/>
<text text-anchor="middle" x="-145.86" y="-202.452" font-family="Times,serif" font-size="14.00">n14</text>
</g>
<!-- n14&#45;&#45;n15 -->
<g id="edge15" class="edge"><title>n14&#45;&#45;n15</title>
<path fill="none" stroke="black" d="M-139.559,-182.648C-133.253,-159.126 -123.61,-123.152 -117.321,-99.6921"/>
</g>
<!-- n13 -->
<g id="node18" class="node"><title>n13</title>
<ellipse fill="none" stroke="black" cx="-235.872" cy="-83.0265" rx="24.0958" ry="24.0958"/>
<text text-anchor="middle" x="-235.872" y="-79.3265" font-family="Times,serif" font-size="14.00">n13</text>
</g>
<!-- n13&#45;&#45;n15 -->
<g id="edge16" class="edge"><title>n13&#45;&#45;n15</title>
<path fill="none" stroke="black" d="M-211.809,-81.7418C-189.85,-80.5695 -157.551,-78.845 -135.483,-77.6668"/>
</g>
<!-- n12 -->
<g id="node19" class="node"><title>n12</title>
<ellipse fill="none" stroke="black" cx="-220.949" cy="-6.3228" rx="24.0958" ry="24.0958"/>
<text text-anchor="middle" x="-220.949" y="-2.6228" font-family="Times,serif" font-size="14.00">n12</text>
</g>
<!-- n12&#45;&#45;n15 -->
<g id="edge17" class="edge"><title>n12&#45;&#45;n15</title>
<path fill="none" stroke="black" d="M-200.539,-19.3327C-180.802,-31.9131 -151.068,-50.8663 -131.368,-63.423"/>
</g>
<!-- n9 -->
<g id="node20" class="node"><title>n9</title>
<ellipse fill="none" stroke="black" cx="60.8761" cy="116.3" rx="19.4965" ry="19.4965"/>
<text text-anchor="middle" x="60.8761" y="120" font-family="Times,serif" font-size="14.00">n9</text>
</g>
<!-- n11 -->
<g id="node21" class="node"><title>n11</title>
<ellipse fill="none" stroke="black" cx="18.2624" cy="235.639" rx="24.0958" ry="24.0958"/>
<text text-anchor="middle" x="18.2624" y="239.339" font-family="Times,serif" font-size="14.00">n11</text>
</g>
<!-- n9&#45;&#45;n11 -->
<g id="edge18" class="edge"><title>n9&#45;&#45;n11</title>
<path fill="none" stroke="black" d="M54.3111,134.685C46.7935,155.738 34.4735,190.24 26.3651,212.947"/>
</g>
<!-- n10 -->
<g id="node22" class="node"><title>n10</title>
<ellipse fill="none" stroke="black" cx="153.577" cy="199.115" rx="24.0958" ry="24.0958"/>
<text text-anchor="middle" x="153.577" y="202.815" font-family="Times,serif" font-size="14.00">n10</text>
</g>
<!-- n9&#45;&#45;n10 -->
<g id="edge19" class="edge"><title>n9&#45;&#45;n10</title>
<path fill="none" stroke="black" d="M75.77,129.606C92.0453,144.145 118.118,167.438 135.54,183.001"/>
</g>
<!-- n7 -->
<g id="node23" class="node"><title>n7</title>
<ellipse fill="none" stroke="black" cx="-23.8757" cy="66.2497" rx="19.4965" ry="19.4965"/>
<text text-anchor="middle" x="-23.8757" y="69.9497" font-family="Times,serif" font-size="14.00">n7</text>
</g>
<!-- n0 -->
<g id="node24" class="node"><title>n0</title>
<ellipse fill="none" stroke="black" cx="26.0827" cy="-25.7232" rx="19.4965" ry="19.4965"/>
<text text-anchor="middle" x="26.0827" y="-22.0232" font-family="Times,serif" font-size="14.00">n0</text>
</g>
<!-- n7&#45;&#45;n0 -->
<g id="edge20" class="edge"><title>n7&#45;&#45;n0</title>
<path fill="none" stroke="black" d="M-14.4789,48.9503C-5.54713,32.507 7.81021,7.91625 16.728,-8.50136"/>
</g>
<!-- n0&#45;&#45;n15 -->
<g id="edge25" class="edge"><title>n0&#45;&#45;n15</title>
<path fill="none" stroke="black" d="M7.58603,-32.5527C-17.2738,-41.7318 -61.4402,-58.0395 -88.309,-67.9603"/>
</g>
<!-- n0&#45;&#45;n9 -->
<g id="edge26" class="edge"><title>n0&#45;&#45;n9</title>
<path fill="none" stroke="black" d="M30.7751,-6.56928C37.4156,20.5368 49.4864,69.8085 56.1469,96.9962"/>
</g>
<!-- n6 -->
<g id="node25" class="node"><title>n6</title>
<ellipse fill="none" stroke="black" cx="153.154" cy="-100.719" rx="19.4965" ry="19.4965"/>
<text text-anchor="middle" x="153.154" y="-97.0194" font-family="Times,serif" font-size="14.00">n6</text>
</g>
<!-- n0&#45;&#45;n6 -->
<g id="edge27" class="edge"><title>n0&#45;&#45;n6</title>
<path fill="none" stroke="black" d="M42.9568,-35.6821C67.261,-50.0262 111.867,-76.3523 136.21,-90.7193"/>
</g>
<!-- n2 -->
<g id="node30" class="node"><title>n2</title>
<ellipse fill="none" stroke="black" cx="45.4339" cy="-124.883" rx="19.4965" ry="19.4965"/>
<text text-anchor="middle" x="45.4339" y="-121.183" font-family="Times,serif" font-size="14.00">n2</text>
</g>
<!-- n0&#45;&#45;n2 -->
<g id="edge28" class="edge"><title>n0&#45;&#45;n2</title>
<path fill="none" stroke="black" d="M29.9058,-45.3139C33.3204,-62.8108 38.2926,-88.2893 41.6845,-105.67"/>
</g>
<!-- n8 -->
<g id="node26" class="node"><title>n8</title>
<ellipse fill="none" stroke="black" cx="257.966" cy="-161.035" rx="19.4965" ry="19.4965"/>
<text text-anchor="middle" x="257.966" y="-157.335" font-family="Times,serif" font-size="14.00">n8</text>
</g>
<!-- n6&#45;&#45;n8 -->
<g id="edge21" class="edge"><title>n6&#45;&#45;n8</title>
<path fill="none" stroke="black" d="M170.462,-110.679C189.998,-121.922 221.578,-140.095 240.981,-151.261"/>
</g>
<!-- n5 -->
<g id="node27" class="node"><title>n5</title>
<ellipse fill="none" stroke="black" cx="173.4" cy="-230.832" rx="19.4965" ry="19.4965"/>
<text text-anchor="middle" x="173.4" y="-227.132" font-family="Times,serif" font-size="14.00">n5</text>
</g>
<!-- n5&#45;&#45;n6 -->
<g id="edge22" class="edge"><title>n5&#45;&#45;n6</title>
<path fill="none" stroke="black" d="M170.369,-211.353C166.552,-186.824 160.032,-144.923 156.206,-120.332"/>
</g>
<!-- n4 -->
<g id="node28" class="node"><title>n4</title>
<ellipse fill="none" stroke="black" cx="117.145" cy="21.6326" rx="19.4965" ry="19.4965"/>
<text text-anchor="middle" x="117.145" y="25.3326" font-family="Times,serif" font-size="14.00">n4</text>
</g>
<!-- n4&#45;&#45;n0 -->
<g id="edge23" class="edge"><title>n4&#45;&#45;n0</title>
<path fill="none" stroke="black" d="M99.5876,12.5019C83.4625,4.11628 59.6947,-8.24379 43.5866,-16.6206"/>
</g>
<!-- n3 -->
<g id="node29" class="node"><title>n3</title>
<ellipse fill="none" stroke="black" cx="270.888" cy="-48.6022" rx="19.4965" ry="19.4965"/>
<text text-anchor="middle" x="270.888" y="-44.9022" font-family="Times,serif" font-size="14.00">n3</text>
</g>
<!-- n3&#45;&#45;n6 -->
<g id="edge24" class="edge"><title>n3&#45;&#45;n6</title>
<path fill="none" stroke="black" d="M253.007,-56.5177C230.878,-66.3134 193.41,-82.8995 171.204,-92.7294"/>
</g>
</g>
</svg>
