<?xml version="1.0" encoding="UTF-8" standalone="no"?>
<!DOCTYPE svg PUBLIC "-//W3C//DTD SVG 1.1//EN"
 "http://www.w3.org/Graphics/SVG/1.1/DTD/svg11.dtd">
<!-- Generated by graphviz version 2.38.0 (20140413.2041)
 -->
<!-- Title: 1 Pages: 1 -->
<svg width="1186pt" height="2062pt"
 viewBox="0.00 0.00 1186.02 2061.56" xmlns="http://www.w3.org/2000/svg" xmlns:xlink="http://www.w3.org/1999/xlink">
<g id="graph0" class="graph" transform="scale(1 1) rotate(0) translate(545.988 896.232)">
<title>1</title>
<polygon fill="white" stroke="none" points="-545.988,1165.33 -545.988,-896.232 640.027,-896.232 640.027,1165.33 -545.988,1165.33"/>
<!-- n27 -->
<g id="node1" class="node"><title>n27</title>
<ellipse fill="none" stroke="black" cx="40.7366" cy="362.799" rx="24.0958" ry="24.0958"/>
<text text-anchor="middle" x="40.7366" y="366.499" font-family="Times,serif" font-size="14.00">n27</text>
</g>
<!-- n29 -->
<g id="node2" class="node"><title>n29</title>
<ellipse fill="none" stroke="black" cx="355.464" cy="499.134" rx="24.0958" ry="24.0958"/>
<text text-anchor="middle" x="355.464" y="502.834" font-family="Times,serif" font-size="14.00">n29</text>
</g>
<!-- n27&#45;&#45;n29 -->
<g id="edge1" class="edge"><title>n27&#45;&#45;n29</title>
<path fill="none" stroke="black" d="M62.8676,372.386C120.654,397.418 275.598,464.538 333.358,489.558"/>
</g>
<!-- n28 -->
<g id="node3" class="node"><title>n28</title>
<ellipse fill="none" stroke="black" cx="149.366" cy="216.062" rx="24.0958" ry="24.0958"/>
<text text-anchor="middle" x="149.366" y="219.762" font-family="Times,serif" font-size="14.00">n28</text>
</g>
<!-- n27&#45;&#45;n28 -->
<g id="edge2" class="edge"><title>n27&#45;&#45;n28</title>
<path fill="none" stroke="black" d="M55.1618,343.313C75.9387,315.248 114.071,263.738 134.881,235.628"/>
</g>
<!-- n25 -->
<g id="node4" class="node"><title>n25</title>
<ellipse fill="none" stroke="black" cx="55.4528" cy="864.636" rx="24.0958" ry="24.0958"/>
<text text-anchor="middle" x="55.4528" y="868.336" font-family="Times,serif" font-size="14.00">n25</text>
</g>
<!-- n26 -->
<g id="node5" class="node"><title>n26</title>
<ellipse fill="none" stroke="black" cx="183.498" cy="1137.28" rx="24.0958" ry="24.0958"/>
<text text-anchor="middle" x="183.498" y="1140.98" font-family="Times,serif" font-size="14.00">n26</text>
</g>
<!-- n25&#45;&#45;n26 -->
<g id="edge3" class="edge"><title>n25&#45;&#45;n26</title>
<path fill="none" stroke="black" d="M65.7148,886.487C89.6903,937.538 149.164,1064.17 173.187,1115.33"/>
</g>
<!-- n23 -->
<g id="node6" class="node"><title>n23</title>
<ellipse fill="none" stroke="black" cx="-242.571" cy="304.575" rx="24.0958" ry="24.0958"/>
<text text-anchor="middle" x="-242.571" y="308.275" font-family="Times,serif" font-size="14.00">n23</text>
</g>
<!-- n24 -->
<g id="node7" class="node"><title>n24</title>
<ellipse fill="none" stroke="black" cx="-357.521" cy="152.544" rx="24.0958" ry="24.0958"/>
<text text-anchor="middle" x="-357.521" y="156.244" font-family="Times,serif" font-size="14.00">n24</text>
</g>
<!-- n23&#45;&#45;n24 -->
<g id="edge4" class="edge"><title>n23&#45;&#45;n24</title>
<path fill="none" stroke="black" d="M-257.129,285.32C-279.12,256.236 -320.584,201.396 -342.718,172.122"/>
</g>
<!-- n21 -->
<g id="node8" class="node"><title>n21</title>
<ellipse fill="none" stroke="black" cx="-172.698" cy="608.071" rx="24.0958" ry="24.0958"/>
<text text-anchor="middle" x="-172.698" y="611.771" font-family="Times,serif" font-size="14.00">n21</text>
</g>
<!-- n21&#45;&#45;n27 -->
<g id="edge6" class="edge"><title>n21&#45;&#45;n27</title>
<path fill="none" stroke="black" d="M-156.656,589.636C-117.005,544.07 -14.7412,426.552 24.7993,381.113"/>
</g>
<!-- n21&#45;&#45;n25 -->
<g id="edge7" class="edge"><title>n21&#45;&#45;n25</title>
<path fill="none" stroke="black" d="M-156.655,626.112C-114.765,673.22 -2.44324,799.53 39.4274,846.615"/>
</g>
<!-- n21&#45;&#45;n23 -->
<g id="edge8" class="edge"><title>n21&#45;&#45;n23</title>
<path fill="none" stroke="black" d="M-178.181,584.256C-191.243,527.522 -224.078,384.901 -237.113,328.279"/>
</g>
<!-- n30 -->
<g id="node9" class="node"><title>n30</title>
<ellipse fill="none" stroke="black" cx="-122.289" cy="321.808" rx="24.0958" ry="24.0958"/>
<text text-anchor="middle" x="-122.289" y="325.508" font-family="Times,serif" font-size="14.00">n30</text>
</g>
<!-- n21&#45;&#45;n30 -->
<g id="edge5" class="edge"><title>n21&#45;&#45;n30</title>
<path fill="none" stroke="black" d="M-168.487,584.157C-158.998,530.272 -136.034,399.866 -126.523,345.855"/>
</g>
<!-- n22 -->
<g id="node10" class="node"><title>n22</title>
<ellipse fill="none" stroke="black" cx="-189.8" cy="885.093" rx="24.0958" ry="24.0958"/>
<text text-anchor="middle" x="-189.8" y="888.793" font-family="Times,serif" font-size="14.00">n22</text>
</g>
<!-- n21&#45;&#45;n22 -->
<g id="edge9" class="edge"><title>n21&#45;&#45;n22</title>
<path fill="none" stroke="black" d="M-174.186,632.17C-177.42,684.561 -185.061,808.332 -188.303,860.852"/>
</g>
<!-- n20 -->
<g id="node11" class="node"><title>n20</title>
<ellipse fill="none" stroke="black" cx="-393.514" cy="818.378" rx="24.0958" ry="24.0958"/>
<text text-anchor="middle" x="-393.514" y="822.078" font-family="Times,serif" font-size="14.00">n20</text>
</g>
<!-- n20&#45;&#45;n21 -->
<g id="edge10" class="edge"><title>n20&#45;&#45;n21</title>
<path fill="none" stroke="black" d="M-375.817,801.524C-334.369,762.048 -231.4,663.979 -190.173,624.714"/>
</g>
<!-- n19 -->
<g id="node12" class="node"><title>n19</title>
<ellipse fill="none" stroke="black" cx="-517.94" cy="678.696" rx="24.0958" ry="24.0958"/>
<text text-anchor="middle" x="-517.94" y="682.396" font-family="Times,serif" font-size="14.00">n19</text>
</g>
<!-- n19&#45;&#45;n21 -->
<g id="edge11" class="edge"><title>n19&#45;&#45;n21</title>
<path fill="none" stroke="black" d="M-494.21,673.842C-431.14,660.94 -259.854,625.9 -196.594,612.959"/>
</g>
<!-- n15 -->
<g id="node13" class="node"><title>n15</title>
<ellipse fill="none" stroke="black" cx="265.582" cy="-560.497" rx="24.0958" ry="24.0958"/>
<text text-anchor="middle" x="265.582" y="-556.797" font-family="Times,serif" font-size="14.00">n15</text>
</g>
<!-- n18 -->
<g id="node14" class="node"><title>n18</title>
<ellipse fill="none" stroke="black" cx="450.694" cy="-790.009" rx="24.0958" ry="24.0958"/>
<text text-anchor="middle" x="450.694" y="-786.309" font-family="Times,serif" font-size="14.00">n18</text>
</g>
<!-- n15&#45;&#45;n18 -->
<g id="edge12" class="edge"><title>n15&#45;&#45;n18</title>
<path fill="none" stroke="black" d="M280.731,-579.279C315.529,-622.424 400.846,-728.205 435.596,-771.29"/>
</g>
<!-- n17 -->
<g id="node15" class="node"><title>n17</title>
<ellipse fill="none" stroke="black" cx="232.634" cy="-220.687" rx="24.0958" ry="24.0958"/>
<text text-anchor="middle" x="232.634" y="-216.987" font-family="Times,serif" font-size="14.00">n17</text>
</g>
<!-- n15&#45;&#45;n17 -->
<g id="edge13" class="edge"><title>n15&#45;&#45;n17</title>
<path fill="none" stroke="black" d="M263.239,-536.331C257.182,-473.861 241.055,-307.543 234.987,-244.957"/>
</g>
<!-- n16 -->
<g id="node16" class="node"><title>n16</title>
<ellipse fill="none" stroke="black" cx="611.979" cy="-479.429" rx="24.0958" ry="24.0958"/>
<text text-anchor="middle" x="611.979" y="-475.729" font-family="Times,serif" font-size="14.00">n16</text>
</g>
<!-- n15&#45;&#45;n16 -->
<g id="edge14" class="edge"><title>n15&#45;&#45;n16</title>
<path fill="none" stroke="black" d="M289.119,-554.989C352.313,-540.199 525.178,-499.743 588.41,-484.945"/>
</g>
<!-- n14 -->
<g id="node17" class="node"><title>n14</title>
<ellipse fill="none" stroke="black" cx="571.423" cy="-642.933" rx="24.0958" ry="24.0958"/>
<text text-anchor="middle" x="571.423" y="-639.233" font-family="Times,serif" font-size="14.00">n14</text>
</g>
<!-- n14&#45;&#45;n15 -->
<g id="edge15" class="edge"><title>n14&#45;&#45;n15</title>
<path fill="none" stroke="black" d="M548.184,-636.67C491.449,-621.377 346.337,-582.264 289.205,-566.865"/>
</g>
<!-- n13 -->
<g id="node18" class="node"><title>n13</title>
<ellipse fill="none" stroke="black" cx="271.863" cy="-868.184" rx="24.0958" ry="24.0958"/>
<text text-anchor="middle" x="271.863" y="-864.484" font-family="Times,serif" font-size="14.00">n13</text>
</g>
<!-- n13&#45;&#45;n15 -->
<g id="edge16" class="edge"><title>n13&#45;&#45;n15</title>
<path fill="none" stroke="black" d="M271.37,-844.041C270.199,-786.665 267.259,-642.645 266.081,-584.955"/>
</g>
<!-- n12 -->
<g id="node19" class="node"><title>n12</title>
<ellipse fill="none" stroke="black" cx="96.3763" cy="-863.116" rx="24.0958" ry="24.0958"/>
<text text-anchor="middle" x="96.3763" y="-859.416" font-family="Times,serif" font-size="14.00">n12</text>
</g>
<!-- n12&#45;&#45;n15 -->
<g id="edge17" class="edge"><title>n12&#45;&#45;n15</title>
<path fill="none" stroke="black" d="M108.274,-841.837C139.342,-786.273 222.644,-637.291 253.697,-581.753"/>
</g>
<!-- n9 -->
<g id="node20" class="node"><title>n9</title>
<ellipse fill="none" stroke="black" cx="-259.575" cy="-227.194" rx="19.4965" ry="19.4965"/>
<text text-anchor="middle" x="-259.575" y="-223.494" font-family="Times,serif" font-size="14.00">n9</text>
</g>
<!-- n11 -->
<g id="node21" class="node"><title>n11</title>
<ellipse fill="none" stroke="black" cx="-430.457" cy="-108.035" rx="24.0958" ry="24.0958"/>
<text text-anchor="middle" x="-430.457" y="-104.335" font-family="Times,serif" font-size="14.00">n11</text>
</g>
<!-- n9&#45;&#45;n11 -->
<g id="edge18" class="edge"><title>n9&#45;&#45;n11</title>
<path fill="none" stroke="black" d="M-275.651,-215.983C-307.056,-194.084 -376.468,-145.682 -410.65,-121.847"/>
</g>
<!-- n10 -->
<g id="node22" class="node"><title>n10</title>
<ellipse fill="none" stroke="black" cx="-396.519" cy="-9.39209" rx="24.0958" ry="24.0958"/>
<text text-anchor="middle" x="-396.519" y="-5.69209" font-family="Times,serif" font-size="14.00">n10</text>
</g>
<!-- n9&#45;&#45;n10 -->
<g id="edge19" class="edge"><title>n9&#45;&#45;n10</title>
<path fill="none" stroke="black" d="M-270.093,-210.465C-294.832,-171.118 -356.647,-72.8061 -383.606,-29.929"/>
</g>
<!-- n7 -->
<g id="node23" class="node"><title>n7</title>
<ellipse fill="none" stroke="black" cx="-189.888" cy="-630.474" rx="19.4965" ry="19.4965"/>
<text text-anchor="middle" x="-189.888" y="-626.774" font-family="Times,serif" font-size="14.00">n7</text>
</g>
<!-- n0 -->
<g id="node24" class="node"><title>n0</title>
<ellipse fill="none" stroke="black" cx="-31.7171" cy="-377.061" rx="19.4965" ry="19.4965"/>
<text text-anchor="middle" x="-31.7171" y="-373.361" font-family="Times,serif" font-size="14.00">n0</text>
</g>
<!-- n7&#45;&#45;n0 -->
<g id="edge20" class="edge"><title>n7&#45;&#45;n0</title>
<path fill="none" stroke="black" d="M-179.51,-613.847C-150.851,-567.93 -70.8386,-439.739 -42.1333,-393.749"/>
</g>
<!-- n0&#45;&#45;n15 -->
<g id="edge39" class="edge"><title>n0&#45;&#45;n15</title>
<path fill="none" stroke="black" d="M-14.8812,-387.449C36.2184,-418.978 189.431,-513.511 245.089,-547.853"/>
</g>
<!-- n0&#45;&#45;n9 -->
<g id="edge40" class="edge"><title>n0&#45;&#45;n9</title>
<path fill="none" stroke="black" d="M-48.104,-366.283C-90.0434,-338.698 -200.918,-265.773 -243.03,-238.075"/>
</g>
<!-- n6 -->
<g id="node25" class="node"><title>n6</title>
<ellipse fill="none" stroke="black" cx="181.087" cy="-263.511" rx="19.4965" ry="19.4965"/>
<text text-anchor="middle" x="181.087" y="-259.811" font-family="Times,serif" font-size="14.00">n6</text>
</g>
<!-- n0&#45;&#45;n6 -->
<g id="edge41" class="edge"><title>n0&#45;&#45;n6</title>
<path fill="none" stroke="black" d="M-14.3024,-367.769C25.7016,-346.423 123.783,-294.088 163.731,-272.773"/>
</g>
<!-- n2 -->
<g id="node31" class="node"><title>n2</title>
<ellipse fill="none" stroke="black" cx="-339.802" cy="-549.519" rx="19.4965" ry="19.4965"/>
<text text-anchor="middle" x="-339.802" y="-545.819" font-family="Times,serif" font-size="14.00">n2</text>
</g>
<!-- n0&#45;&#45;n2 -->
<g id="edge42" class="edge"><title>n0&#45;&#45;n2</title>
<path fill="none" stroke="black" d="M-49.1638,-386.827C-103.39,-417.182 -268.583,-509.652 -322.547,-539.86"/>
</g>
<!-- n8 -->
<g id="node26" class="node"><title>n8</title>
<ellipse fill="none" stroke="black" cx="179.251" cy="17.2609" rx="19.4965" ry="19.4965"/>
<text text-anchor="middle" x="179.251" y="20.9609" font-family="Times,serif" font-size="14.00">n8</text>
</g>
<!-- n6&#45;&#45;n8 -->
<g id="edge21" class="edge"><title>n6&#45;&#45;n8</title>
<path fill="none" stroke="black" d="M180.958,-243.768C180.621,-192.216 179.717,-53.9884 179.38,-2.46066"/>
</g>
<!-- n5 -->
<g id="node27" class="node"><title>n5</title>
<ellipse fill="none" stroke="black" cx="282.733" cy="27.8253" rx="19.4965" ry="19.4965"/>
<text text-anchor="middle" x="282.733" y="31.5253" font-family="Times,serif" font-size="14.00">n5</text>
</g>
<!-- n5&#45;&#45;n6 -->
<g id="edge22" class="edge"><title>n5&#45;&#45;n6</title>
<path fill="none" stroke="black" d="M276.22,9.15769C257.861,-43.4637 205.839,-192.569 187.546,-244.999"/>
</g>
<!-- n4 -->
<g id="node28" class="node"><title>n4</title>
<ellipse fill="none" stroke="black" cx="-74.4035" cy="-217.654" rx="19.4965" ry="19.4965"/>
<text text-anchor="middle" x="-74.4035" y="-213.954" font-family="Times,serif" font-size="14.00">n4</text>
</g>
<!-- n4&#45;&#45;n0 -->
<g id="edge23" class="edge"><title>n4&#45;&#45;n0</title>
<path fill="none" stroke="black" d="M-69.3392,-236.566C-61.1238,-267.246 -44.986,-327.51 -36.7748,-358.173"/>
</g>
<!-- n3 -->
<g id="node29" class="node"><title>n3</title>
<ellipse fill="none" stroke="black" cx="-141.532" cy="-109.163" rx="19.4965" ry="19.4965"/>
<text text-anchor="middle" x="-141.532" y="-105.463" font-family="Times,serif" font-size="14.00">n3</text>
</g>
<!-- n3&#45;&#45;n6 -->
<g id="edge24" class="edge"><title>n3&#45;&#45;n6</title>
<path fill="none" stroke="black" d="M-123.727,-117.681C-67.3216,-144.667 107.009,-228.071 163.338,-255.02"/>
</g>
<!-- n1 -->
<g id="node30" class="node"><title>n1</title>
<ellipse fill="none" stroke="black" cx="-67.9144" cy="22.6951" rx="19.4965" ry="19.4965"/>
<text text-anchor="middle" x="-67.9144" y="26.3951" font-family="Times,serif" font-size="14.00">n1</text>
</g>
<!-- n1&#45;&#45;n27 -->
<g id="edge27" class="edge"><title>n1&#45;&#45;n27</title>
<path fill="none" stroke="black" d="M-61.9181,41.465C-43.3669,99.5347 13.0605,276.166 33.3616,339.713"/>
</g>
<!-- n1&#45;&#45;n28 -->
<g id="edge26" class="edge"><title>n1&#45;&#45;n28</title>
<path fill="none" stroke="black" d="M-53.3207,35.6827C-14.8799,69.8927 89.0934,162.423 131.247,199.936"/>
</g>
<!-- n1&#45;&#45;n23 -->
<g id="edge29" class="edge"><title>n1&#45;&#45;n23</title>
<path fill="none" stroke="black" d="M-78.3169,39.4839C-108.573,88.3152 -196.494,230.211 -229.683,283.776"/>
</g>
<!-- n1&#45;&#45;n24 -->
<g id="edge28" class="edge"><title>n1&#45;&#45;n24</title>
<path fill="none" stroke="black" d="M-86.0306,30.8177C-136.802,53.5816 -280.353,117.945 -335.535,142.686"/>
</g>
<!-- n1&#45;&#45;n30 -->
<g id="edge25" class="edge"><title>n1&#45;&#45;n30</title>
<path fill="none" stroke="black" d="M-71.4821,42.3208C-81.0981,95.2185 -107.531,240.625 -117.968,298.04"/>
</g>
<!-- n1&#45;&#45;n17 -->
<g id="edge30" class="edge"><title>n1&#45;&#45;n17</title>
<path fill="none" stroke="black" d="M-52.597,10.2912C-2.23668,-30.4904 158.155,-160.375 213.578,-205.256"/>
</g>
<!-- n1&#45;&#45;n9 -->
<g id="edge33" class="edge"><title>n1&#45;&#45;n9</title>
<path fill="none" stroke="black" d="M-79.9036,7.06349C-114.323,-37.8131 -213.176,-166.699 -247.59,-211.568"/>
</g>
<!-- n1&#45;&#45;n11 -->
<g id="edge31" class="edge"><title>n1&#45;&#45;n11</title>
<path fill="none" stroke="black" d="M-86.3914,16.0325C-147.14,-5.87291 -340.615,-75.6389 -407.471,-99.7465"/>
</g>
<!-- n1&#45;&#45;n10 -->
<g id="edge32" class="edge"><title>n1&#45;&#45;n10</title>
<path fill="none" stroke="black" d="M-87.486,20.784C-144.412,15.2254 -309.828,-0.927004 -372.272,-7.0245"/>
</g>
<!-- n1&#45;&#45;n0 -->
<g id="edge38" class="edge"><title>n1&#45;&#45;n0</title>
<path fill="none" stroke="black" d="M-66.1441,3.14347C-59.9981,-64.7317 -39.6248,-289.73 -33.4841,-357.547"/>
</g>
<!-- n1&#45;&#45;n8 -->
<g id="edge34" class="edge"><title>n1&#45;&#45;n8</title>
<path fill="none" stroke="black" d="M-48.1057,22.2596C-1.71158,21.2396 113.544,18.7055 159.691,17.6909"/>
</g>
<!-- n1&#45;&#45;n5 -->
<g id="edge35" class="edge"><title>n1&#45;&#45;n5</title>
<path fill="none" stroke="black" d="M-48.3107,22.982C13.1301,23.8809 201.503,26.6369 263.051,27.5374"/>
</g>
<!-- n1&#45;&#45;n4 -->
<g id="edge36" class="edge"><title>n1&#45;&#45;n4</title>
<path fill="none" stroke="black" d="M-68.4455,3.02632C-69.6653,-42.1557 -72.6561,-152.932 -73.8743,-198.051"/>
</g>
<!-- n1&#45;&#45;n3 -->
<g id="edge37" class="edge"><title>n1&#45;&#45;n3</title>
<path fill="none" stroke="black" d="M-77.5386,5.45698C-91.6474,-19.8136 -117.795,-66.6478 -131.905,-91.9207"/>
</g>
</g>
</svg>
