<?xml version="1.0" encoding="UTF-8" standalone="no"?>
<!DOCTYPE svg PUBLIC "-//W3C//DTD SVG 1.1//EN"
 "http://www.w3.org/Graphics/SVG/1.1/DTD/svg11.dtd">
<!-- Generated by graphviz version 2.38.0 (20140413.2041)
 -->
<!-- Title: 1 Pages: 1 -->
<svg width="927pt" height="907pt"
 viewBox="0.00 0.00 927.04 906.78" xmlns="http://www.w3.org/2000/svg" xmlns:xlink="http://www.w3.org/1999/xlink">
<g id="graph0" class="graph" transform="scale(1 1) rotate(0) translate(411.791 500.042)">
<title>1</title>
<polygon fill="white" stroke="none" points="-411.791,406.74 -411.791,-500.042 515.249,-500.042 515.249,406.74 -411.791,406.74"/>
<!-- n30 -->
<g id="node1" class="node"><title>n30</title>
<ellipse fill="none" stroke="black" cx="126.382" cy="51.611" rx="24.0958" ry="24.0958"/>
<text text-anchor="middle" x="126.382" y="55.311" font-family="Times,serif" font-size="14.00">n30</text>
</g>
<!-- n25 -->
<g id="node2" class="node"><title>n25</title>
<ellipse fill="none" stroke="black" cx="183.41" cy="118.576" rx="24.0958" ry="24.0958"/>
<text text-anchor="middle" x="183.41" y="122.276" font-family="Times,serif" font-size="14.00">n25</text>
</g>
<!-- n30&#45;&#45;n25 -->
<g id="edge1" class="edge"><title>n30&#45;&#45;n25</title>
<path fill="none" stroke="black" d="M142.267,70.2644C150.177,79.5524 159.712,90.7482 167.61,100.022"/>
</g>
<!-- n23 -->
<g id="node3" class="node"><title>n23</title>
<ellipse fill="none" stroke="black" cx="104.372" cy="159.662" rx="24.0958" ry="24.0958"/>
<text text-anchor="middle" x="104.372" y="163.362" font-family="Times,serif" font-size="14.00">n23</text>
</g>
<!-- n30&#45;&#45;n23 -->
<g id="edge2" class="edge"><title>n30&#45;&#45;n23</title>
<path fill="none" stroke="black" d="M127.237,75.6508C124.973,94.1581 119.815,119.528 114.658,137.538"/>
</g>
<!-- n16 -->
<g id="node4" class="node"><title>n16</title>
<ellipse fill="none" stroke="black" cx="66.4024" cy="-105.726" rx="24.0958" ry="24.0958"/>
<text text-anchor="middle" x="66.4024" y="-102.026" font-family="Times,serif" font-size="14.00">n16</text>
</g>
<!-- n30&#45;&#45;n16 -->
<g id="edge3" class="edge"><title>n30&#45;&#45;n16</title>
<path fill="none" stroke="black" d="M117.788,29.0684C106.386,-0.84133 86.3741,-53.3366 74.9801,-83.2253"/>
</g>
<!-- n25&#45;&#45;n23 -->
<g id="edge31" class="edge"><title>n25&#45;&#45;n23</title>
<path fill="none" stroke="black" d="M161.813,129.803C150.66,135.6 137.092,142.653 125.943,148.449"/>
</g>
<!-- n29 -->
<g id="node5" class="node"><title>n29</title>
<ellipse fill="none" stroke="black" cx="9.90985" cy="194.792" rx="24.0958" ry="24.0958"/>
<text text-anchor="middle" x="9.90985" y="198.492" font-family="Times,serif" font-size="14.00">n29</text>
</g>
<!-- n25&#45;&#45;n29 -->
<g id="edge28" class="edge"><title>n25&#45;&#45;n29</title>
<path fill="none" stroke="black" d="M161.083,128.384C127.769,143.018 65.4156,170.409 32.1511,185.022"/>
</g>
<!-- n28 -->
<g id="node6" class="node"><title>n28</title>
<ellipse fill="none" stroke="black" cx="-55.0821" cy="196.833" rx="24.0958" ry="24.0958"/>
<text text-anchor="middle" x="-55.0821" y="200.533" font-family="Times,serif" font-size="14.00">n28</text>
</g>
<!-- n25&#45;&#45;n28 -->
<g id="edge29" class="edge"><title>n25&#45;&#45;n28</title>
<path fill="none" stroke="black" d="M160.543,126.079C115.074,140.999 13.765,174.242 -31.9332,189.237"/>
</g>
<!-- n26 -->
<g id="node7" class="node"><title>n26</title>
<ellipse fill="none" stroke="black" cx="98.0999" cy="317.687" rx="24.0958" ry="24.0958"/>
<text text-anchor="middle" x="98.0999" y="321.387" font-family="Times,serif" font-size="14.00">n26</text>
</g>
<!-- n25&#45;&#45;n26 -->
<g id="edge30" class="edge"><title>n25&#45;&#45;n26</title>
<path fill="none" stroke="black" d="M173.79,141.029C157.362,179.372 124.089,257.029 107.685,295.316"/>
</g>
<!-- n23&#45;&#45;n30 -->
<g id="edge32" class="edge"><title>n23&#45;&#45;n30</title>
<path fill="none" stroke="black" d="M103.517,135.622C105.78,117.115 110.939,91.7447 116.096,73.7349"/>
</g>
<!-- n23&#45;&#45;n29 -->
<g id="edge33" class="edge"><title>n23&#45;&#45;n29</title>
<path fill="none" stroke="black" d="M81.5051,168.166C66.6534,173.689 47.3755,180.859 32.5659,186.366"/>
</g>
<!-- n23&#45;&#45;n26 -->
<g id="edge34" class="edge"><title>n23&#45;&#45;n26</title>
<path fill="none" stroke="black" d="M103.406,184.007C102.223,213.79 100.235,263.897 99.0569,293.574"/>
</g>
<!-- n24 -->
<g id="node8" class="node"><title>n24</title>
<ellipse fill="none" stroke="black" cx="-63.5266" cy="342.26" rx="24.0958" ry="24.0958"/>
<text text-anchor="middle" x="-63.5266" y="345.96" font-family="Times,serif" font-size="14.00">n24</text>
</g>
<!-- n23&#45;&#45;n24 -->
<g id="edge35" class="edge"><title>n23&#45;&#45;n24</title>
<path fill="none" stroke="black" d="M87.9672,177.503C55.869,212.411 -14.9039,289.38 -47.0555,324.347"/>
</g>
<!-- n16&#45;&#45;n25 -->
<g id="edge55" class="edge"><title>n16&#45;&#45;n25</title>
<path fill="none" stroke="black" d="M77.6216,-84.219C99.9867,-41.3458 149.888,54.3141 172.225,97.1339"/>
</g>
<!-- n16&#45;&#45;n23 -->
<g id="edge56" class="edge"><title>n16&#45;&#45;n23</title>
<path fill="none" stroke="black" d="M69.8389,-81.7066C77.0496,-31.3073 93.6879,84.9871 100.916,135.506"/>
</g>
<!-- n11 -->
<g id="node21" class="node"><title>n11</title>
<ellipse fill="none" stroke="black" cx="-99.6886" cy="-79.3057" rx="24.0958" ry="24.0958"/>
<text text-anchor="middle" x="-99.6886" y="-75.6057" font-family="Times,serif" font-size="14.00">n11</text>
</g>
<!-- n16&#45;&#45;n11 -->
<g id="edge57" class="edge"><title>n16&#45;&#45;n11</title>
<path fill="none" stroke="black" d="M42.6056,-101.941C11.0317,-96.9182 -44.3843,-88.1031 -75.936,-83.0841"/>
</g>
<!-- n10 -->
<g id="node22" class="node"><title>n10</title>
<ellipse fill="none" stroke="black" cx="-238.311" cy="-47.7394" rx="24.0958" ry="24.0958"/>
<text text-anchor="middle" x="-238.311" y="-44.0394" font-family="Times,serif" font-size="14.00">n10</text>
</g>
<!-- n16&#45;&#45;n10 -->
<g id="edge58" class="edge"><title>n16&#45;&#45;n10</title>
<path fill="none" stroke="black" d="M42.7456,-101.224C-14.0261,-90.4206 -157.49,-63.1197 -214.46,-52.2784"/>
</g>
<!-- n2 -->
<g id="node23" class="node"><title>n2</title>
<ellipse fill="none" stroke="black" cx="-83.5794" cy="-176.396" rx="19.4965" ry="19.4965"/>
<text text-anchor="middle" x="-83.5794" y="-172.696" font-family="Times,serif" font-size="14.00">n2</text>
</g>
<!-- n16&#45;&#45;n2 -->
<g id="edge59" class="edge"><title>n16&#45;&#45;n2</title>
<path fill="none" stroke="black" d="M42.8249,-111.418C11.75,-123.194 -41.9503,-148.645 -68.2442,-164.197"/>
</g>
<!-- n29&#45;&#45;n30 -->
<g id="edge4" class="edge"><title>n29&#45;&#45;n30</title>
<path fill="none" stroke="black" d="M25.1365,176.074C47.4583,148.633 88.8275,97.7771 111.151,70.334"/>
</g>
<!-- n29&#45;&#45;n28 -->
<g id="edge5" class="edge"><title>n29&#45;&#45;n28</title>
<path fill="none" stroke="black" d="M-14.2907,195.552C-19.6321,195.72 -25.2939,195.898 -30.6445,196.066"/>
</g>
<!-- n29&#45;&#45;n26 -->
<g id="edge6" class="edge"><title>n29&#45;&#45;n26</title>
<path fill="none" stroke="black" d="M24.0791,214.537C40.5363,237.471 67.5236,275.078 83.9658,297.991"/>
</g>
<!-- n29&#45;&#45;n24 -->
<g id="edge7" class="edge"><title>n29&#45;&#45;n24</title>
<path fill="none" stroke="black" d="M-0.925951,216.551C-14.8103,244.433 -38.7406,292.487 -52.6464,320.411"/>
</g>
<!-- n8 -->
<g id="node9" class="node"><title>n8</title>
<ellipse fill="none" stroke="black" cx="-108.323" cy="42.0749" rx="19.4965" ry="19.4965"/>
<text text-anchor="middle" x="-108.323" y="45.7749" font-family="Times,serif" font-size="14.00">n8</text>
</g>
<!-- n29&#45;&#45;n8 -->
<g id="edge8" class="edge"><title>n29&#45;&#45;n8</title>
<path fill="none" stroke="black" d="M-4.82532,175.759C-28.4722,145.215 -74.4459,85.8324 -96.2674,57.6462"/>
</g>
<!-- n0 -->
<g id="node10" class="node"><title>n0</title>
<ellipse fill="none" stroke="black" cx="-143.63" cy="-27.7596" rx="19.4965" ry="19.4965"/>
<text text-anchor="middle" x="-143.63" y="-24.0596" font-family="Times,serif" font-size="14.00">n0</text>
</g>
<!-- n29&#45;&#45;n0 -->
<g id="edge9" class="edge"><title>n29&#45;&#45;n0</title>
<path fill="none" stroke="black" d="M-3.98661,174.649C-34.1047,130.994 -104.897,28.3828 -132.414,-11.5019"/>
</g>
<!-- n28&#45;&#45;n30 -->
<g id="edge10" class="edge"><title>n28&#45;&#45;n30</title>
<path fill="none" stroke="black" d="M-36.0053,181.566C-1.06265,153.602 72.8087,94.4844 107.561,66.6733"/>
</g>
<!-- n28&#45;&#45;n23 -->
<g id="edge12" class="edge"><title>n28&#45;&#45;n23</title>
<path fill="none" stroke="black" d="M-31.5541,191.348C-1.40676,184.32 50.5534,172.208 80.7472,165.169"/>
</g>
<!-- n28&#45;&#45;n26 -->
<g id="edge11" class="edge"><title>n28&#45;&#45;n26</title>
<path fill="none" stroke="black" d="M-35.9912,211.895C-6.63749,235.054 49.2704,279.163 78.7684,302.435"/>
</g>
<!-- n28&#45;&#45;n8 -->
<g id="edge13" class="edge"><title>n28&#45;&#45;n8</title>
<path fill="none" stroke="black" d="M-62.9379,173.998C-73.5246,143.225 -92.1673,89.0348 -101.939,60.6318"/>
</g>
<!-- n28&#45;&#45;n0 -->
<g id="edge16" class="edge"><title>n28&#45;&#45;n0</title>
<path fill="none" stroke="black" d="M-64.0599,174.062C-81.647,129.454 -120.32,31.3639 -136.398,-9.41596"/>
</g>
<!-- n6 -->
<g id="node11" class="node"><title>n6</title>
<ellipse fill="none" stroke="black" cx="-25.7419" cy="-29.7069" rx="19.4965" ry="19.4965"/>
<text text-anchor="middle" x="-25.7419" y="-26.0069" font-family="Times,serif" font-size="14.00">n6</text>
</g>
<!-- n28&#45;&#45;n6 -->
<g id="edge14" class="edge"><title>n28&#45;&#45;n6</title>
<path fill="none" stroke="black" d="M-51.9422,172.589C-46.0881,127.389 -33.6164,31.0931 -28.2657,-10.2207"/>
</g>
<!-- n5 -->
<g id="node12" class="node"><title>n5</title>
<ellipse fill="none" stroke="black" cx="-209.006" cy="66.3966" rx="19.4965" ry="19.4965"/>
<text text-anchor="middle" x="-209.006" y="70.0966" font-family="Times,serif" font-size="14.00">n5</text>
</g>
<!-- n28&#45;&#45;n5 -->
<g id="edge15" class="edge"><title>n28&#45;&#45;n5</title>
<path fill="none" stroke="black" d="M-73.649,181.099C-104.513,154.945 -165.774,103.032 -194.056,79.0656"/>
</g>
<!-- n26&#45;&#45;n30 -->
<g id="edge26" class="edge"><title>n26&#45;&#45;n30</title>
<path fill="none" stroke="black" d="M100.66,293.605C106.031,243.075 118.424,126.479 123.807,75.83"/>
</g>
<!-- n26&#45;&#45;n24 -->
<g id="edge27" class="edge"><title>n26&#45;&#45;n24</title>
<path fill="none" stroke="black" d="M74.2513,321.313C43.6932,325.959 -8.97496,333.966 -39.5802,338.619"/>
</g>
<!-- n8&#45;&#45;n16 -->
<g id="edge85" class="edge"><title>n8&#45;&#45;n16</title>
<path fill="none" stroke="black" d="M-93.4257,29.4735C-61.5706,2.52708 13.0953,-60.6332 47.9156,-90.0879"/>
</g>
<!-- n9 -->
<g id="node20" class="node"><title>n9</title>
<ellipse fill="none" stroke="black" cx="-214.301" cy="-102.645" rx="19.4965" ry="19.4965"/>
<text text-anchor="middle" x="-214.301" y="-98.9452" font-family="Times,serif" font-size="14.00">n9</text>
</g>
<!-- n8&#45;&#45;n9 -->
<g id="edge86" class="edge"><title>n8&#45;&#45;n9</title>
<path fill="none" stroke="black" d="M-119.866,26.3119C-140.252,-1.52632 -182.396,-59.0772 -202.772,-86.9015"/>
</g>
<!-- n8&#45;&#45;n2 -->
<g id="edge87" class="edge"><title>n8&#45;&#45;n2</title>
<path fill="none" stroke="black" d="M-110.158,22.6176C-109.101,-19.1104 -98.049,-116.722 -89.7423,-157.731"/>
</g>
<!-- n0&#45;&#45;n8 -->
<g id="edge135" class="edge"><title>n0&#45;&#45;n8</title>
<path fill="none" stroke="black" d="M-134.721,-10.1374C-129.409,0.368193 -122.685,13.6682 -117.352,24.2155"/>
</g>
<!-- n0&#45;&#45;n6 -->
<g id="edge136" class="edge"><title>n0&#45;&#45;n6</title>
<path fill="none" stroke="black" d="M-123.898,-28.0855C-102.137,-28.445 -67.3254,-29.02 -45.5382,-29.3799"/>
</g>
<!-- n0&#45;&#45;n9 -->
<g id="edge134" class="edge"><title>n0&#45;&#45;n9</title>
<path fill="none" stroke="black" d="M-157.256,-42.1983C-169.77,-55.4588 -188.216,-75.0043 -200.717,-88.2508"/>
</g>
<!-- n0&#45;&#45;n2 -->
<g id="edge137" class="edge"><title>n0&#45;&#45;n2</title>
<path fill="none" stroke="black" d="M-136.267,-45.9853C-124.742,-74.5126 -102.565,-129.402 -91.0031,-158.021"/>
</g>
<!-- n15 -->
<g id="node24" class="node"><title>n15</title>
<ellipse fill="none" stroke="black" cx="44.1115" cy="-256.476" rx="24.0958" ry="24.0958"/>
<text text-anchor="middle" x="44.1115" y="-252.776" font-family="Times,serif" font-size="14.00">n15</text>
</g>
<!-- n0&#45;&#45;n15 -->
<g id="edge133" class="edge"><title>n0&#45;&#45;n15</title>
<path fill="none" stroke="black" d="M-131.021,-43.1214C-97.7235,-83.6856 -7.52226,-193.573 28.7248,-237.731"/>
</g>
<!-- n6&#45;&#45;n16 -->
<g id="edge91" class="edge"><title>n6&#45;&#45;n16</title>
<path fill="none" stroke="black" d="M-10.5261,-42.2599C5.42216,-55.4173 30.5,-76.1065 47.6585,-90.2623"/>
</g>
<!-- n6&#45;&#45;n29 -->
<g id="edge89" class="edge"><title>n6&#45;&#45;n29</title>
<path fill="none" stroke="black" d="M-22.6404,-10.1768C-16.1181,30.8943 -0.999716,126.094 6.09911,170.796"/>
</g>
<!-- n6&#45;&#45;n8 -->
<g id="edge94" class="edge"><title>n6&#45;&#45;n8</title>
<path fill="none" stroke="black" d="M-40.5057,-16.8737C-55.4442,-3.88871 -78.416,16.0791 -93.4082,29.1109"/>
</g>
<!-- n27 -->
<g id="node13" class="node"><title>n27</title>
<ellipse fill="none" stroke="black" cx="40.4749" cy="71.5364" rx="24.0958" ry="24.0958"/>
<text text-anchor="middle" x="40.4749" y="75.2364" font-family="Times,serif" font-size="14.00">n27</text>
</g>
<!-- n6&#45;&#45;n27 -->
<g id="edge90" class="edge"><title>n6&#45;&#45;n27</title>
<path fill="none" stroke="black" d="M-11.1587,-16.6586C2.16247,-0.120585 21.0335,28.4707 32.0681,48.6484"/>
</g>
<!-- n6&#45;&#45;n11 -->
<g id="edge92" class="edge"><title>n6&#45;&#45;n11</title>
<path fill="none" stroke="black" d="M-44.5636,-35.5449C-56.6751,-42.0482 -72.1767,-52.2934 -83.6955,-61.335"/>
</g>
<!-- n6&#45;&#45;n10 -->
<g id="edge93" class="edge"><title>n6&#45;&#45;n10</title>
<path fill="none" stroke="black" d="M-45.3258,-27.2734C-84.5536,-27.1583 -172.607,-34.503 -214.843,-41.2786"/>
</g>
<!-- n6&#45;&#45;n2 -->
<g id="edge95" class="edge"><title>n6&#45;&#45;n2</title>
<path fill="none" stroke="black" d="M-32.9501,-47.9885C-44.0333,-76.098 -65.1426,-129.636 -76.2803,-157.884"/>
</g>
<!-- n5&#45;&#45;n8 -->
<g id="edge98" class="edge"><title>n5&#45;&#45;n8</title>
<path fill="none" stroke="black" d="M-189.594,61.7072C-171.65,57.3727 -145.149,50.9708 -127.334,46.6675"/>
</g>
<!-- n5&#45;&#45;n0 -->
<g id="edge100" class="edge"><title>n5&#45;&#45;n0</title>
<path fill="none" stroke="black" d="M-197.619,49.9959C-185.619,32.7141 -166.837,5.66375 -154.887,-11.5468"/>
</g>
<!-- n5&#45;&#45;n6 -->
<g id="edge99" class="edge"><title>n5&#45;&#45;n6</title>
<path fill="none" stroke="black" d="M-191.434,57.1818C-156.405,38.8125 -78.2465,-2.17359 -43.2609,-20.52"/>
</g>
<!-- n5&#45;&#45;n27 -->
<g id="edge96" class="edge"><title>n5&#45;&#45;n27</title>
<path fill="none" stroke="black" d="M-189.43,66.7999C-144.286,67.73 -32.9908,70.0229 16.3056,71.0384"/>
</g>
<!-- n5&#45;&#45;n9 -->
<g id="edge97" class="edge"><title>n5&#45;&#45;n9</title>
<path fill="none" stroke="black" d="M-209.624,46.6746C-210.644,14.102 -212.669,-50.5588 -213.687,-83.0487"/>
</g>
<!-- n27&#45;&#45;n30 -->
<g id="edge17" class="edge"><title>n27&#45;&#45;n30</title>
<path fill="none" stroke="black" d="M63.9493,66.0917C76.0709,63.2802 90.8182,59.8596 102.936,57.0491"/>
</g>
<!-- n27&#45;&#45;n25 -->
<g id="edge20" class="edge"><title>n27&#45;&#45;n25</title>
<path fill="none" stroke="black" d="M63.4399,79.0941C90.1133,87.8721 133.853,102.267 160.502,111.037"/>
</g>
<!-- n27&#45;&#45;n23 -->
<g id="edge21" class="edge"><title>n27&#45;&#45;n23</title>
<path fill="none" stroke="black" d="M54.6557,91.0943C65.2445,105.698 79.6513,125.568 90.2306,140.159"/>
</g>
<!-- n27&#45;&#45;n29 -->
<g id="edge18" class="edge"><title>n27&#45;&#45;n29</title>
<path fill="none" stroke="black" d="M34.6539,95.0099C29.2152,116.942 21.1408,149.502 15.7092,171.406"/>
</g>
<!-- n27&#45;&#45;n28 -->
<g id="edge19" class="edge"><title>n27&#45;&#45;n28</title>
<path fill="none" stroke="black" d="M25.7535,90.8394C7.84896,114.316 -22.2036,153.722 -40.1866,177.302"/>
</g>
<!-- n27&#45;&#45;n8 -->
<g id="edge23" class="edge"><title>n27&#45;&#45;n8</title>
<path fill="none" stroke="black" d="M16.568,66.8029C-12.678,61.0123 -61.6333,51.3193 -88.7505,45.9502"/>
</g>
<!-- n27&#45;&#45;n0 -->
<g id="edge25" class="edge"><title>n27&#45;&#45;n0</title>
<path fill="none" stroke="black" d="M18.9954,59.9515C-17.9026,40.0509 -92.6076,-0.24082 -126.372,-18.4512"/>
</g>
<!-- n27&#45;&#45;n6 -->
<g id="edge24" class="edge"><title>n27&#45;&#45;n6</title>
<path fill="none" stroke="black" d="M22.7865,54.5465C8.77304,36.3953 -9.73544,7.83848 -19.5492,-10.9572"/>
</g>
<!-- n22 -->
<g id="node14" class="node"><title>n22</title>
<ellipse fill="none" stroke="black" cx="277.088" cy="35.2526" rx="24.0958" ry="24.0958"/>
<text text-anchor="middle" x="277.088" y="38.9526" font-family="Times,serif" font-size="14.00">n22</text>
</g>
<!-- n27&#45;&#45;n22 -->
<g id="edge22" class="edge"><title>n27&#45;&#45;n22</title>
<path fill="none" stroke="black" d="M64.4647,67.8576C109.815,60.9033 207.635,45.9029 253.035,38.9411"/>
</g>
<!-- n22&#45;&#45;n30 -->
<g id="edge36" class="edge"><title>n22&#45;&#45;n30</title>
<path fill="none" stroke="black" d="M252.874,37.8809C224.751,40.9335 178.633,45.9394 150.535,48.9892"/>
</g>
<!-- n22&#45;&#45;n25 -->
<g id="edge37" class="edge"><title>n22&#45;&#45;n25</title>
<path fill="none" stroke="black" d="M259.026,51.3182C242.438,66.0728 217.988,87.8205 201.417,102.56"/>
</g>
<!-- n22&#45;&#45;n23 -->
<g id="edge38" class="edge"><title>n22&#45;&#45;n23</title>
<path fill="none" stroke="black" d="M257.275,49.5239C223.959,73.5221 157.114,121.671 123.953,145.557"/>
</g>
<!-- n21 -->
<g id="node15" class="node"><title>n21</title>
<ellipse fill="none" stroke="black" cx="271.442" cy="187.644" rx="24.0958" ry="24.0958"/>
<text text-anchor="middle" x="271.442" y="191.344" font-family="Times,serif" font-size="14.00">n21</text>
</g>
<!-- n21&#45;&#45;n30 -->
<g id="edge39" class="edge"><title>n21&#45;&#45;n30</title>
<path fill="none" stroke="black" d="M253.655,170.964C225.814,144.855 172.245,94.6199 144.314,68.4277"/>
</g>
<!-- n21&#45;&#45;n25 -->
<g id="edge41" class="edge"><title>n21&#45;&#45;n25</title>
<path fill="none" stroke="black" d="M252.341,172.657C237.575,161.072 217.231,145.111 202.475,133.533"/>
</g>
<!-- n21&#45;&#45;n23 -->
<g id="edge42" class="edge"><title>n21&#45;&#45;n23</title>
<path fill="none" stroke="black" d="M247.505,183.635C215.745,178.316 160.002,168.979 128.264,163.664"/>
</g>
<!-- n21&#45;&#45;n27 -->
<g id="edge40" class="edge"><title>n21&#45;&#45;n27</title>
<path fill="none" stroke="black" d="M249.713,176.721C205.581,154.535 105.92,104.436 61.9777,82.3459"/>
</g>
<!-- n21&#45;&#45;n22 -->
<g id="edge43" class="edge"><title>n21&#45;&#45;n22</title>
<path fill="none" stroke="black" d="M272.337,163.497C273.394,134.962 275.142,87.7721 276.198,59.2865"/>
</g>
<!-- n20 -->
<g id="node16" class="node"><title>n20</title>
<ellipse fill="none" stroke="black" cx="369.981" cy="378.692" rx="24.0958" ry="24.0958"/>
<text text-anchor="middle" x="369.981" y="382.392" font-family="Times,serif" font-size="14.00">n20</text>
</g>
<!-- n20&#45;&#45;n21 -->
<g id="edge44" class="edge"><title>n20&#45;&#45;n21</title>
<path fill="none" stroke="black" d="M358.869,357.148C339.893,320.358 301.461,245.846 282.514,209.11"/>
</g>
<!-- n19 -->
<g id="node17" class="node"><title>n19</title>
<ellipse fill="none" stroke="black" cx="487.201" cy="162.405" rx="24.0958" ry="24.0958"/>
<text text-anchor="middle" x="487.201" y="166.105" font-family="Times,serif" font-size="14.00">n19</text>
</g>
<!-- n19&#45;&#45;n21 -->
<g id="edge45" class="edge"><title>n19&#45;&#45;n21</title>
<path fill="none" stroke="black" d="M463.286,165.203C421.813,170.054 337.011,179.974 295.464,184.834"/>
</g>
<!-- n18 -->
<g id="node18" class="node"><title>n18</title>
<ellipse fill="none" stroke="black" cx="-44.9111" cy="-309.045" rx="24.0958" ry="24.0958"/>
<text text-anchor="middle" x="-44.9111" y="-305.345" font-family="Times,serif" font-size="14.00">n18</text>
</g>
<!-- n18&#45;&#45;n16 -->
<g id="edge47" class="edge"><title>n18&#45;&#45;n16</title>
<path fill="none" stroke="black" d="M-33.2089,-287.67C-11.8303,-248.621 33.3038,-166.182 54.6901,-127.119"/>
</g>
<!-- n17 -->
<g id="node19" class="node"><title>n17</title>
<ellipse fill="none" stroke="black" cx="-19.7825" cy="-81.3818" rx="24.0958" ry="24.0958"/>
<text text-anchor="middle" x="-19.7825" y="-77.6818" font-family="Times,serif" font-size="14.00">n17</text>
</g>
<!-- n18&#45;&#45;n17 -->
<g id="edge46" class="edge"><title>n18&#45;&#45;n17</title>
<path fill="none" stroke="black" d="M-42.2694,-285.111C-37.4432,-241.387 -27.2544,-149.076 -22.4265,-105.336"/>
</g>
<!-- n17&#45;&#45;n30 -->
<g id="edge48" class="edge"><title>n17&#45;&#45;n30</title>
<path fill="none" stroke="black" d="M-1.85988,-65.0743C26.193,-39.5494 80.1697,9.56326 108.313,35.1701"/>
</g>
<!-- n17&#45;&#45;n23 -->
<g id="edge49" class="edge"><title>n17&#45;&#45;n23</title>
<path fill="none" stroke="black" d="M-8.76462,-59.9908C14.7364,-14.3638 69.5631,92.0814 93.2001,137.972"/>
</g>
<!-- n17&#45;&#45;n16 -->
<g id="edge50" class="edge"><title>n17&#45;&#45;n16</title>
<path fill="none" stroke="black" d="M3.76792,-88.034C16.0284,-91.4971 30.9665,-95.7166 43.1789,-99.1662"/>
</g>
<!-- n17&#45;&#45;n8 -->
<g id="edge52" class="edge"><title>n17&#45;&#45;n8</title>
<path fill="none" stroke="black" d="M-33.8119,-61.8197C-51.2686,-37.4789 -80.742,3.61762 -96.8928,26.1376"/>
</g>
<!-- n17&#45;&#45;n0 -->
<g id="edge54" class="edge"><title>n17&#45;&#45;n0</title>
<path fill="none" stroke="black" d="M-41.924,-71.7952C-65.8582,-61.4325 -103.543,-45.1163 -125.696,-35.5245"/>
</g>
<!-- n17&#45;&#45;n5 -->
<g id="edge53" class="edge"><title>n17&#45;&#45;n5</title>
<path fill="none" stroke="black" d="M-38.9676,-66.3988C-76.5506,-37.0475 -159.194,27.4943 -193.551,54.3268"/>
</g>
<!-- n17&#45;&#45;n9 -->
<g id="edge51" class="edge"><title>n17&#45;&#45;n9</title>
<path fill="none" stroke="black" d="M-44.025,-84.0318C-83.0312,-88.2957 -158.962,-96.596 -194.748,-100.508"/>
</g>
<!-- n9&#45;&#45;n16 -->
<g id="edge80" class="edge"><title>n9&#45;&#45;n16</title>
<path fill="none" stroke="black" d="M-194.562,-102.862C-144.52,-103.411 -12.7867,-104.857 41.9801,-105.458"/>
</g>
<!-- n9&#45;&#45;n6 -->
<g id="edge83" class="edge"><title>n9&#45;&#45;n6</title>
<path fill="none" stroke="black" d="M-195.878,-95.5188C-159.737,-81.5388 -79.9389,-50.6714 -43.9622,-36.7549"/>
</g>
<!-- n9&#45;&#45;n11 -->
<g id="edge81" class="edge"><title>n9&#45;&#45;n11</title>
<path fill="none" stroke="black" d="M-195.117,-98.7387C-175.362,-94.7158 -144.546,-88.4404 -123.305,-84.1149"/>
</g>
<!-- n9&#45;&#45;n10 -->
<g id="edge82" class="edge"><title>n9&#45;&#45;n10</title>
<path fill="none" stroke="black" d="M-222.163,-84.667C-224.242,-79.9132 -226.509,-74.7273 -228.671,-69.785"/>
</g>
<!-- n9&#45;&#45;n2 -->
<g id="edge84" class="edge"><title>n9&#45;&#45;n2</title>
<path fill="none" stroke="black" d="M-197.211,-112.287C-172.159,-126.421 -125.728,-152.616 -100.673,-166.752"/>
</g>
<!-- n11&#45;&#45;n30 -->
<g id="edge67" class="edge"><title>n11&#45;&#45;n30</title>
<path fill="none" stroke="black" d="M-78.8257,-67.224C-35.7584,-42.2839 62.5451,14.6433 105.569,39.5585"/>
</g>
<!-- n11&#45;&#45;n8 -->
<g id="edge70" class="edge"><title>n11&#45;&#45;n8</title>
<path fill="none" stroke="black" d="M-101.415,-55.0343C-103.029,-32.3421 -105.41,1.12941 -106.913,22.2563"/>
</g>
<!-- n11&#45;&#45;n0 -->
<g id="edge73" class="edge"><title>n11&#45;&#45;n0</title>
<path fill="none" stroke="black" d="M-115.305,-60.9873C-120.436,-54.9684 -126.072,-48.356 -130.957,-42.6256"/>
</g>
<!-- n11&#45;&#45;n6 -->
<g id="edge71" class="edge"><title>n11&#45;&#45;n6</title>
<path fill="none" stroke="black" d="M-76.9048,-71.2764C-64.1462,-64.0285 -48.7756,-53.5584 -38.1845,-44.8236"/>
</g>
<!-- n11&#45;&#45;n5 -->
<g id="edge72" class="edge"><title>n11&#45;&#45;n5</title>
<path fill="none" stroke="black" d="M-114.205,-59.9576C-136.043,-30.8514 -176.933,23.6487 -197.116,50.5483"/>
</g>
<!-- n11&#45;&#45;n17 -->
<g id="edge68" class="edge"><title>n11&#45;&#45;n17</title>
<path fill="none" stroke="black" d="M-75.28,-79.9399C-65.3664,-80.1975 -53.94,-80.4943 -44.0417,-80.7515"/>
</g>
<!-- n11&#45;&#45;n10 -->
<g id="edge69" class="edge"><title>n11&#45;&#45;n10</title>
<path fill="none" stroke="black" d="M-121.738,-68.9601C-146.866,-61.1093 -187.8,-51.786 -213.879,-47.972"/>
</g>
<!-- n10&#45;&#45;n8 -->
<g id="edge76" class="edge"><title>n10&#45;&#45;n8</title>
<path fill="none" stroke="black" d="M-218.285,-33.9028C-192.505,-16.0901 -148.21,14.5151 -124.469,30.9189"/>
</g>
<!-- n10&#45;&#45;n0 -->
<g id="edge79" class="edge"><title>n10&#45;&#45;n0</title>
<path fill="none" stroke="black" d="M-214.419,-42.6977C-198.423,-39.3221 -177.648,-34.9381 -162.748,-31.7938"/>
</g>
<!-- n10&#45;&#45;n6 -->
<g id="edge77" class="edge"><title>n10&#45;&#45;n6</title>
<path fill="none" stroke="black" d="M-214.376,-50.1575C-171.732,-49.753 -83.459,-42.1486 -44.6945,-35.4147"/>
</g>
<!-- n10&#45;&#45;n5 -->
<g id="edge78" class="edge"><title>n10&#45;&#45;n5</title>
<path fill="none" stroke="black" d="M-232.31,-24.3669C-226.885,-3.236 -218.994,27.4975 -213.93,47.2184"/>
</g>
<!-- n10&#45;&#45;n17 -->
<g id="edge74" class="edge"><title>n10&#45;&#45;n17</title>
<path fill="none" stroke="black" d="M-214.509,-51.4038C-172.473,-57.8752 -85.5706,-71.2538 -43.5556,-77.722"/>
</g>
<!-- n10&#45;&#45;n11 -->
<g id="edge75" class="edge"><title>n10&#45;&#45;n11</title>
<path fill="none" stroke="black" d="M-216.262,-58.0851C-191.134,-65.9359 -150.2,-75.2591 -124.121,-79.0731"/>
</g>
<!-- n2&#45;&#45;n16 -->
<g id="edge115" class="edge"><title>n2&#45;&#45;n16</title>
<path fill="none" stroke="black" d="M-64.4591,-172.354C-35.6895,-161.972 18.3066,-136.674 47.1511,-120.2"/>
</g>
<!-- n2&#45;&#45;n8 -->
<g id="edge118" class="edge"><title>n2&#45;&#45;n8</title>
<path fill="none" stroke="black" d="M-81.7439,-156.938C-82.8012,-115.21 -93.853,-17.5991 -102.16,23.4104"/>
</g>
<!-- n2&#45;&#45;n27 -->
<g id="edge114" class="edge"><title>n2&#45;&#45;n27</title>
<path fill="none" stroke="black" d="M-74.6577,-158.565C-52.4354,-114.152 5.33589,1.30837 29.5475,49.6971"/>
</g>
<!-- n2&#45;&#45;n11 -->
<g id="edge116" class="edge"><title>n2&#45;&#45;n11</title>
<path fill="none" stroke="black" d="M-86.8393,-156.748C-89.4136,-141.233 -93.0151,-119.527 -95.7504,-103.041"/>
</g>
<!-- n2&#45;&#45;n10 -->
<g id="edge117" class="edge"><title>n2&#45;&#45;n10</title>
<path fill="none" stroke="black" d="M-98.6975,-163.825C-127.214,-140.115 -188.853,-88.863 -219.798,-63.1331"/>
</g>
<!-- n15&#45;&#45;n16 -->
<g id="edge62" class="edge"><title>n15&#45;&#45;n16</title>
<path fill="none" stroke="black" d="M47.6436,-232.589C51.793,-204.528 58.6391,-158.228 62.8131,-130"/>
</g>
<!-- n15&#45;&#45;n6 -->
<g id="edge63" class="edge"><title>n15&#45;&#45;n6</title>
<path fill="none" stroke="black" d="M37.0292,-233.484C23.1898,-188.557 -7.2007,-89.8982 -19.9412,-48.5382"/>
</g>
<!-- n15&#45;&#45;n18 -->
<g id="edge60" class="edge"><title>n15&#45;&#45;n18</title>
<path fill="none" stroke="black" d="M23.0144,-268.934C8.82351,-277.314 -9.80618,-288.315 -23.9654,-296.676"/>
</g>
<!-- n15&#45;&#45;n17 -->
<g id="edge61" class="edge"><title>n15&#45;&#45;n17</title>
<path fill="none" stroke="black" d="M35.7585,-233.585C23.4794,-199.936 0.69354,-137.494 -11.5287,-104"/>
</g>
<!-- n14 -->
<g id="node25" class="node"><title>n14</title>
<ellipse fill="none" stroke="black" cx="-100.29" cy="-471.994" rx="24.0958" ry="24.0958"/>
<text text-anchor="middle" x="-100.29" y="-468.294" font-family="Times,serif" font-size="14.00">n14</text>
</g>
<!-- n14&#45;&#45;n15 -->
<g id="edge64" class="edge"><title>n14&#45;&#45;n15</title>
<path fill="none" stroke="black" d="M-86.7051,-451.719C-59.1131,-410.538 3.19491,-317.544 30.6679,-276.54"/>
</g>
<!-- n13 -->
<g id="node26" class="node"><title>n13</title>
<ellipse fill="none" stroke="black" cx="239.976" cy="-372.439" rx="24.0958" ry="24.0958"/>
<text text-anchor="middle" x="239.976" y="-368.739" font-family="Times,serif" font-size="14.00">n13</text>
</g>
<!-- n13&#45;&#45;n15 -->
<g id="edge65" class="edge"><title>n13&#45;&#45;n15</title>
<path fill="none" stroke="black" d="M219.015,-360.029C181.317,-337.709 102.51,-291.051 64.9218,-268.797"/>
</g>
<!-- n12 -->
<g id="node27" class="node"><title>n12</title>
<ellipse fill="none" stroke="black" cx="97.1028" cy="-465.802" rx="24.0958" ry="24.0958"/>
<text text-anchor="middle" x="97.1028" y="-462.102" font-family="Times,serif" font-size="14.00">n12</text>
</g>
<!-- n12&#45;&#45;n15 -->
<g id="edge66" class="edge"><title>n12&#45;&#45;n15</title>
<path fill="none" stroke="black" d="M91.127,-442.197C80.9226,-401.887 60.255,-320.246 50.0655,-279.995"/>
</g>
<!-- n7 -->
<g id="node28" class="node"><title>n7</title>
<ellipse fill="none" stroke="black" cx="-388.292" cy="-130.295" rx="19.4965" ry="19.4965"/>
<text text-anchor="middle" x="-388.292" y="-126.595" font-family="Times,serif" font-size="14.00">n7</text>
</g>
<!-- n7&#45;&#45;n0 -->
<g id="edge88" class="edge"><title>n7&#45;&#45;n0</title>
<path fill="none" stroke="black" d="M-370.302,-122.756C-325.056,-103.794 -206.921,-54.2842 -161.647,-35.3103"/>
</g>
<!-- n4 -->
<g id="node29" class="node"><title>n4</title>
<ellipse fill="none" stroke="black" cx="-330.349" cy="86.4671" rx="19.4965" ry="19.4965"/>
<text text-anchor="middle" x="-330.349" y="90.1671" font-family="Times,serif" font-size="14.00">n4</text>
</g>
<!-- n4&#45;&#45;n8 -->
<g id="edge102" class="edge"><title>n4&#45;&#45;n8</title>
<path fill="none" stroke="black" d="M-311.034,82.6052C-269.044,74.2096 -169.844,54.3756 -127.751,45.9595"/>
</g>
<!-- n4&#45;&#45;n0 -->
<g id="edge103" class="edge"><title>n4&#45;&#45;n0</title>
<path fill="none" stroke="black" d="M-313.449,76.1287C-277.9,54.3813 -195.755,4.12786 -160.357,-17.5269"/>
</g>
<!-- n4&#45;&#45;n9 -->
<g id="edge101" class="edge"><title>n4&#45;&#45;n9</title>
<path fill="none" stroke="black" d="M-320.05,69.6846C-298.028,33.7973 -246.578,-50.0466 -224.576,-85.9003"/>
</g>
<!-- n3 -->
<g id="node30" class="node"><title>n3</title>
<ellipse fill="none" stroke="black" cx="-185.177" cy="121.932" rx="19.4965" ry="19.4965"/>
<text text-anchor="middle" x="-185.177" y="125.632" font-family="Times,serif" font-size="14.00">n3</text>
</g>
<!-- n3&#45;&#45;n28 -->
<g id="edge104" class="edge"><title>n3&#45;&#45;n28</title>
<path fill="none" stroke="black" d="M-168.169,131.724C-144.477,145.365 -101.572,170.067 -75.9661,184.809"/>
</g>
<!-- n3&#45;&#45;n8 -->
<g id="edge110" class="edge"><title>n3&#45;&#45;n8</title>
<path fill="none" stroke="black" d="M-171.437,107.655C-157.448,93.1194 -135.89,70.7188 -121.944,56.2281"/>
</g>
<!-- n3&#45;&#45;n0 -->
<g id="edge113" class="edge"><title>n3&#45;&#45;n0</title>
<path fill="none" stroke="black" d="M-179.915,102.973C-171.923,74.1794 -156.816,19.7471 -148.85,-8.95502"/>
</g>
<!-- n3&#45;&#45;n6 -->
<g id="edge111" class="edge"><title>n3&#45;&#45;n6</title>
<path fill="none" stroke="black" d="M-171.028,108.475C-140.849,79.7712 -70.4422,12.8074 -40.0882,-16.0622"/>
</g>
<!-- n3&#45;&#45;n5 -->
<g id="edge112" class="edge"><title>n3&#45;&#45;n5</title>
<path fill="none" stroke="black" d="M-192.98,103.747C-195.64,97.5472 -198.612,90.6205 -201.268,84.4321"/>
</g>
<!-- n3&#45;&#45;n27 -->
<g id="edge105" class="edge"><title>n3&#45;&#45;n27</title>
<path fill="none" stroke="black" d="M-165.938,117.635C-124.692,108.423 -27.8697,86.7999 16.9482,76.7906"/>
</g>
<!-- n3&#45;&#45;n17 -->
<g id="edge106" class="edge"><title>n3&#45;&#45;n17</title>
<path fill="none" stroke="black" d="M-172.746,106.65C-142.996,70.0797 -67.7618,-22.4026 -35.1985,-62.4315"/>
</g>
<!-- n3&#45;&#45;n9 -->
<g id="edge109" class="edge"><title>n3&#45;&#45;n9</title>
<path fill="none" stroke="black" d="M-187.711,102.395C-193.219,59.9221 -206.231,-40.4169 -211.752,-82.9936"/>
</g>
<!-- n3&#45;&#45;n11 -->
<g id="edge107" class="edge"><title>n3&#45;&#45;n11</title>
<path fill="none" stroke="black" d="M-177.44,103.718C-161.739,66.7594 -126.186,-16.9313 -109.144,-57.0478"/>
</g>
<!-- n3&#45;&#45;n10 -->
<g id="edge108" class="edge"><title>n3&#45;&#45;n10</title>
<path fill="none" stroke="black" d="M-191.066,103.126C-200.848,71.8918 -220.415,9.40814 -231.041,-24.5226"/>
</g>
<!-- n1 -->
<g id="node31" class="node"><title>n1</title>
<ellipse fill="none" stroke="black" cx="-105.962" cy="122.89" rx="19.4965" ry="19.4965"/>
<text text-anchor="middle" x="-105.962" y="126.59" font-family="Times,serif" font-size="14.00">n1</text>
</g>
<!-- n1&#45;&#45;n30 -->
<g id="edge119" class="edge"><title>n1&#45;&#45;n30</title>
<path fill="none" stroke="black" d="M-86.948,117.057C-44.5716,104.056 57.4943,72.7444 103.37,58.6707"/>
</g>
<!-- n1&#45;&#45;n23 -->
<g id="edge123" class="edge"><title>n1&#45;&#45;n23</title>
<path fill="none" stroke="black" d="M-86.551,126.283C-47.9054,133.04 38.5439,148.153 80.5507,155.497"/>
</g>
<!-- n1&#45;&#45;n28 -->
<g id="edge120" class="edge"><title>n1&#45;&#45;n28</title>
<path fill="none" stroke="black" d="M-94.6698,139.3C-87.058,150.363 -76.9683,165.026 -68.8802,176.78"/>
</g>
<!-- n1&#45;&#45;n24 -->
<g id="edge122" class="edge"><title>n1&#45;&#45;n24</title>
<path fill="none" stroke="black" d="M-102.196,142.358C-94.4068,182.624 -76.5499,274.936 -68.1082,318.575"/>
</g>
<!-- n1&#45;&#45;n8 -->
<g id="edge128" class="edge"><title>n1&#45;&#45;n8</title>
<path fill="none" stroke="black" d="M-106.533,103.327C-106.902,90.7141 -107.379,74.3703 -107.748,61.7379"/>
</g>
<!-- n1&#45;&#45;n0 -->
<g id="edge132" class="edge"><title>n1&#45;&#45;n0</title>
<path fill="none" stroke="black" d="M-110.732,103.81C-117.978,74.8319 -131.676,20.0512 -138.898,-8.83465"/>
</g>
<!-- n1&#45;&#45;n5 -->
<g id="edge129" class="edge"><title>n1&#45;&#45;n5</title>
<path fill="none" stroke="black" d="M-123.442,113.307C-142.505,102.855 -172.823,86.2337 -191.784,75.8384"/>
</g>
<!-- n1&#45;&#45;n27 -->
<g id="edge121" class="edge"><title>n1&#45;&#45;n27</title>
<path fill="none" stroke="black" d="M-87.4154,116.386C-60.633,106.994 -11.1758,89.6496 17.7599,79.5022"/>
</g>
<!-- n1&#45;&#45;n17 -->
<g id="edge124" class="edge"><title>n1&#45;&#45;n17</title>
<path fill="none" stroke="black" d="M-98.3138,104.762C-82.5366,67.365 -46.4195,-18.2438 -29.2214,-59.0087"/>
</g>
<!-- n1&#45;&#45;n9 -->
<g id="edge127" class="edge"><title>n1&#45;&#45;n9</title>
<path fill="none" stroke="black" d="M-114.463,105.192C-134.715,63.0321 -185.627,-42.9528 -205.839,-85.03"/>
</g>
<!-- n1&#45;&#45;n11 -->
<g id="edge125" class="edge"><title>n1&#45;&#45;n11</title>
<path fill="none" stroke="black" d="M-105.349,103.134C-104.193,65.8704 -101.694,-14.6761 -100.439,-55.1131"/>
</g>
<!-- n1&#45;&#45;n10 -->
<g id="edge126" class="edge"><title>n1&#45;&#45;n10</title>
<path fill="none" stroke="black" d="M-117.94,107.447C-142.184,76.1913 -197.001,5.51916 -223.465,-28.599"/>
</g>
<!-- n1&#45;&#45;n4 -->
<g id="edge130" class="edge"><title>n1&#45;&#45;n4</title>
<path fill="none" stroke="black" d="M-125.482,119.721C-168.025,112.816 -268.677,96.4777 -311.033,89.6024"/>
</g>
<!-- n1&#45;&#45;n3 -->
<g id="edge131" class="edge"><title>n1&#45;&#45;n3</title>
<path fill="none" stroke="black" d="M-125.543,122.653C-137.73,122.506 -153.35,122.317 -165.547,122.169"/>
</g>
</g>
</svg>
