<?xml version="1.0" encoding="UTF-8" standalone="no"?>
<!DOCTYPE svg PUBLIC "-//W3C//DTD SVG 1.1//EN"
 "http://www.w3.org/Graphics/SVG/1.1/DTD/svg11.dtd">
<!-- Generated by graphviz version 2.38.0 (20140413.2041)
 -->
<!-- Title: 1 Pages: 1 -->
<svg width="345pt" height="348pt"
 viewBox="0.00 0.00 345.29 347.64" xmlns="http://www.w3.org/2000/svg" xmlns:xlink="http://www.w3.org/1999/xlink">
<g id="graph0" class="graph" transform="scale(1 1) rotate(0) translate(169.325 169.025)">
<title>1</title>
<polygon fill="white" stroke="none" points="-169.325,178.62 -169.325,-169.025 175.963,-169.025 175.963,178.62 -169.325,178.62"/>
<!-- n18 -->
<g id="node1" class="node"><title>n18</title>
<ellipse fill="none" stroke="black" cx="-141.277" cy="46.4164" rx="24.0958" ry="24.0958"/>
<text text-anchor="middle" x="-141.277" y="50.1164" font-family="Times,serif" font-size="14.00">n18</text>
</g>
<!-- n17 -->
<g id="node2" class="node"><title>n17</title>
<ellipse fill="none" stroke="black" cx="100.919" cy="-24.8596" rx="24.0958" ry="24.0958"/>
<text text-anchor="middle" x="100.919" y="-21.1596" font-family="Times,serif" font-size="14.00">n17</text>
</g>
<!-- n18&#45;&#45;n17 -->
<g id="edge171" class="edge"><title>n18&#45;&#45;n17</title>
<path fill="none" stroke="black" d="M-118.054,39.5822C-71.7609,25.9584 31.5307,-4.43928 77.7665,-18.046"/>
</g>
<!-- n16 -->
<g id="node3" class="node"><title>n16</title>
<ellipse fill="none" stroke="black" cx="-29.4554" cy="150.572" rx="24.0958" ry="24.0958"/>
<text text-anchor="middle" x="-29.4554" y="154.272" font-family="Times,serif" font-size="14.00">n16</text>
</g>
<!-- n18&#45;&#45;n16 -->
<g id="edge170" class="edge"><title>n18&#45;&#45;n16</title>
<path fill="none" stroke="black" d="M-123.311,63.1509C-102.444,82.5875 -68.2251,114.461 -47.3769,133.879"/>
</g>
<!-- n15 -->
<g id="node4" class="node"><title>n15</title>
<ellipse fill="none" stroke="black" cx="-27.5164" cy="-140.977" rx="24.0958" ry="24.0958"/>
<text text-anchor="middle" x="-27.5164" y="-137.277" font-family="Times,serif" font-size="14.00">n15</text>
</g>
<!-- n18&#45;&#45;n15 -->
<g id="edge169" class="edge"><title>n18&#45;&#45;n15</title>
<path fill="none" stroke="black" d="M-128.668,25.6461C-106.743,-10.4701 -61.8516,-84.4179 -40.0085,-120.399"/>
</g>
<!-- n14 -->
<g id="node5" class="node"><title>n14</title>
<ellipse fill="none" stroke="black" cx="38.5722" cy="-74.1651" rx="24.0958" ry="24.0958"/>
<text text-anchor="middle" x="38.5722" y="-70.4651" font-family="Times,serif" font-size="14.00">n14</text>
</g>
<!-- n18&#45;&#45;n14 -->
<g id="edge168" class="edge"><title>n18&#45;&#45;n14</title>
<path fill="none" stroke="black" d="M-120.996,32.8186C-86.3625,9.59838 -16.2177,-37.4307 18.3649,-60.6169"/>
</g>
<!-- n13 -->
<g id="node6" class="node"><title>n13</title>
<ellipse fill="none" stroke="black" cx="-37.4021" cy="-40.1429" rx="24.0958" ry="24.0958"/>
<text text-anchor="middle" x="-37.4021" y="-36.4429" font-family="Times,serif" font-size="14.00">n13</text>
</g>
<!-- n18&#45;&#45;n13 -->
<g id="edge167" class="edge"><title>n18&#45;&#45;n13</title>
<path fill="none" stroke="black" d="M-122.706,30.9413C-103.916,15.2831 -75.0205,-8.79547 -56.1624,-24.51"/>
</g>
<!-- n12 -->
<g id="node7" class="node"><title>n12</title>
<ellipse fill="none" stroke="black" cx="-100.703" cy="111.642" rx="24.0958" ry="24.0958"/>
<text text-anchor="middle" x="-100.703" y="115.342" font-family="Times,serif" font-size="14.00">n12</text>
</g>
<!-- n18&#45;&#45;n12 -->
<g id="edge166" class="edge"><title>n18&#45;&#45;n12</title>
<path fill="none" stroke="black" d="M-128.439,67.0541C-123.703,74.6678 -118.338,83.2927 -113.597,90.9143"/>
</g>
<!-- n11 -->
<g id="node8" class="node"><title>n11</title>
<ellipse fill="none" stroke="black" cx="137.807" cy="49.3941" rx="24.0958" ry="24.0958"/>
<text text-anchor="middle" x="137.807" y="53.0941" font-family="Times,serif" font-size="14.00">n11</text>
</g>
<!-- n18&#45;&#45;n11 -->
<g id="edge165" class="edge"><title>n18&#45;&#45;n11</title>
<path fill="none" stroke="black" d="M-116.999,46.6755C-64.2175,47.2386 60.4749,48.569 113.385,49.1335"/>
</g>
<!-- n10 -->
<g id="node9" class="node"><title>n10</title>
<ellipse fill="none" stroke="black" cx="-73.0485" cy="42.0457" rx="24.0958" ry="24.0958"/>
<text text-anchor="middle" x="-73.0485" y="45.7457" font-family="Times,serif" font-size="14.00">n10</text>
</g>
<!-- n18&#45;&#45;n10 -->
<g id="edge164" class="edge"><title>n18&#45;&#45;n10</title>
<path fill="none" stroke="black" d="M-117.03,44.8632C-110.595,44.451 -103.648,44.0059 -97.2175,43.594"/>
</g>
<!-- n9 -->
<g id="node10" class="node"><title>n9</title>
<ellipse fill="none" stroke="black" cx="49.8472" cy="138.417" rx="19.4965" ry="19.4965"/>
<text text-anchor="middle" x="49.8472" y="142.117" font-family="Times,serif" font-size="14.00">n9</text>
</g>
<!-- n18&#45;&#45;n9 -->
<g id="edge163" class="edge"><title>n18&#45;&#45;n9</title>
<path fill="none" stroke="black" d="M-119.353,56.97C-81.1129,75.3773 -2.95661,112.999 32.1185,129.883"/>
</g>
<!-- n8 -->
<g id="node11" class="node"><title>n8</title>
<ellipse fill="none" stroke="black" cx="-11.9563" cy="94.4138" rx="19.4965" ry="19.4965"/>
<text text-anchor="middle" x="-11.9563" y="98.1138" font-family="Times,serif" font-size="14.00">n8</text>
</g>
<!-- n18&#45;&#45;n8 -->
<g id="edge162" class="edge"><title>n18&#45;&#45;n8</title>
<path fill="none" stroke="black" d="M-118.455,54.8869C-93.3662,64.1986 -53.5506,78.9761 -30.37,87.5796"/>
</g>
<!-- n7 -->
<g id="node12" class="node"><title>n7</title>
<ellipse fill="none" stroke="black" cx="-144.989" cy="-18.8813" rx="19.4965" ry="19.4965"/>
<text text-anchor="middle" x="-144.989" y="-15.1813" font-family="Times,serif" font-size="14.00">n7</text>
</g>
<!-- n18&#45;&#45;n7 -->
<g id="edge161" class="edge"><title>n18&#45;&#45;n7</title>
<path fill="none" stroke="black" d="M-142.659,22.1019C-143.055,15.14 -143.482,7.6363 -143.86,0.976113"/>
</g>
<!-- n6 -->
<g id="node13" class="node"><title>n6</title>
<ellipse fill="none" stroke="black" cx="152.465" cy="-30.2247" rx="19.4965" ry="19.4965"/>
<text text-anchor="middle" x="152.465" y="-26.5247" font-family="Times,serif" font-size="14.00">n6</text>
</g>
<!-- n18&#45;&#45;n6 -->
<g id="edge160" class="edge"><title>n18&#45;&#45;n6</title>
<path fill="none" stroke="black" d="M-117.736,40.2741C-61.1012,25.4975 81.877,-11.8073 133.503,-25.2772"/>
</g>
<!-- n5 -->
<g id="node14" class="node"><title>n5</title>
<ellipse fill="none" stroke="black" cx="105.239" cy="-108.304" rx="19.4965" ry="19.4965"/>
<text text-anchor="middle" x="105.239" y="-104.604" font-family="Times,serif" font-size="14.00">n5</text>
</g>
<!-- n18&#45;&#45;n5 -->
<g id="edge159" class="edge"><title>n18&#45;&#45;n5</title>
<path fill="none" stroke="black" d="M-120.683,33.4911C-72.8917,3.49576 44.7996,-70.3705 88.5262,-97.8146"/>
</g>
<!-- n4 -->
<g id="node15" class="node"><title>n4</title>
<ellipse fill="none" stroke="black" cx="37.5507" cy="-144.431" rx="19.4965" ry="19.4965"/>
<text text-anchor="middle" x="37.5507" y="-140.731" font-family="Times,serif" font-size="14.00">n4</text>
</g>
<!-- n18&#45;&#45;n4 -->
<g id="edge158" class="edge"><title>n18&#45;&#45;n4</title>
<path fill="none" stroke="black" d="M-124.774,28.804C-89.6691,-8.66046 -8.16865,-95.6386 24.0729,-130.047"/>
</g>
<!-- n3 -->
<g id="node16" class="node"><title>n3</title>
<ellipse fill="none" stroke="black" cx="44.8865" cy="36.3083" rx="19.4965" ry="19.4965"/>
<text text-anchor="middle" x="44.8865" y="40.0083" font-family="Times,serif" font-size="14.00">n3</text>
</g>
<!-- n18&#45;&#45;n3 -->
<g id="edge157" class="edge"><title>n18&#45;&#45;n3</title>
<path fill="none" stroke="black" d="M-116.94,45.095C-79.586,43.0668 -8.86108,39.2266 25.3622,37.3684"/>
</g>
<!-- n2 -->
<g id="node17" class="node"><title>n2</title>
<ellipse fill="none" stroke="black" cx="103.412" cy="103.257" rx="19.4965" ry="19.4965"/>
<text text-anchor="middle" x="103.412" y="106.957" font-family="Times,serif" font-size="14.00">n2</text>
</g>
<!-- n18&#45;&#45;n2 -->
<g id="edge156" class="edge"><title>n18&#45;&#45;n2</title>
<path fill="none" stroke="black" d="M-117.815,51.8665C-69.6098,63.0646 39.7693,88.4731 84.1561,98.784"/>
</g>
<!-- n1 -->
<g id="node18" class="node"><title>n1</title>
<ellipse fill="none" stroke="black" cx="-85.5623" cy="-119.896" rx="19.4965" ry="19.4965"/>
<text text-anchor="middle" x="-85.5623" y="-116.196" font-family="Times,serif" font-size="14.00">n1</text>
</g>
<!-- n18&#45;&#45;n1 -->
<g id="edge155" class="edge"><title>n18&#45;&#45;n1</title>
<path fill="none" stroke="black" d="M-133.53,23.2914C-122.407,-9.91106 -102.126,-70.4537 -91.8655,-101.08"/>
</g>
<!-- n0 -->
<g id="node19" class="node"><title>n0</title>
<ellipse fill="none" stroke="black" cx="-118.789" cy="-70.5848" rx="19.4965" ry="19.4965"/>
<text text-anchor="middle" x="-118.789" y="-66.8848" font-family="Times,serif" font-size="14.00">n0</text>
</g>
<!-- n18&#45;&#45;n0 -->
<g id="edge154" class="edge"><title>n18&#45;&#45;n0</title>
<path fill="none" stroke="black" d="M-136.726,22.7395C-132.542,0.971271 -126.414,-30.9111 -122.514,-51.2029"/>
</g>
<!-- n17&#45;&#45;n16 -->
<g id="edge153" class="edge"><title>n17&#45;&#45;n16</title>
<path fill="none" stroke="black" d="M86.4685,-5.41501C61.4079,28.3066 10.1655,97.2585 -14.9402,131.041"/>
</g>
<!-- n17&#45;&#45;n15 -->
<g id="edge152" class="edge"><title>n17&#45;&#45;n15</title>
<path fill="none" stroke="black" d="M83.0606,-41.0052C58.6605,-63.0651 15.1407,-102.411 -9.39562,-124.594"/>
</g>
<!-- n17&#45;&#45;n14 -->
<g id="edge151" class="edge"><title>n17&#45;&#45;n14</title>
<path fill="none" stroke="black" d="M81.8741,-39.9208C74.139,-46.0379 65.2236,-53.0884 57.5004,-59.1961"/>
</g>
<!-- n17&#45;&#45;n13 -->
<g id="edge150" class="edge"><title>n17&#45;&#45;n13</title>
<path fill="none" stroke="black" d="M76.8253,-27.5217C51.5922,-30.3098 12.1828,-34.6642 -13.1204,-37.46"/>
</g>
<!-- n17&#45;&#45;n12 -->
<g id="edge149" class="edge"><title>n17&#45;&#45;n12</title>
<path fill="none" stroke="black" d="M80.8496,-11.2723C42.2026,14.8922 -42.1322,71.9881 -80.715,98.1092"/>
</g>
<!-- n17&#45;&#45;n11 -->
<g id="edge148" class="edge"><title>n17&#45;&#45;n11</title>
<path fill="none" stroke="black" d="M111.787,-2.98265C116.59,6.68547 122.222,18.0235 127.016,27.6735"/>
</g>
<!-- n17&#45;&#45;n10 -->
<g id="edge147" class="edge"><title>n17&#45;&#45;n10</title>
<path fill="none" stroke="black" d="M78.1758,-16.1129C44.7429,-3.25511 -17.2974,20.6047 -50.5754,33.4029"/>
</g>
<!-- n17&#45;&#45;n9 -->
<g id="edge146" class="edge"><title>n17&#45;&#45;n9</title>
<path fill="none" stroke="black" d="M93.71,-1.81239C83.5364,30.7123 65.1603,89.4608 55.7499,119.546"/>
</g>
<!-- n17&#45;&#45;n8 -->
<g id="edge145" class="edge"><title>n17&#45;&#45;n8</title>
<path fill="none" stroke="black" d="M84.2639,-7.26039C61.8191,16.4566 22.2947,58.2214 1.57851,80.1118"/>
</g>
<!-- n17&#45;&#45;n7 -->
<g id="edge144" class="edge"><title>n17&#45;&#45;n7</title>
<path fill="none" stroke="black" d="M76.4414,-24.2645C27.6051,-23.0773 -81.0481,-20.4358 -125.481,-19.3556"/>
</g>
<!-- n17&#45;&#45;n6 -->
<g id="edge143" class="edge"><title>n17&#45;&#45;n6</title>
<path fill="none" stroke="black" d="M124.881,-27.3537C127.615,-27.6382 130.377,-27.9257 133.042,-28.2031"/>
</g>
<!-- n17&#45;&#45;n5 -->
<g id="edge142" class="edge"><title>n17&#45;&#45;n5</title>
<path fill="none" stroke="black" d="M102.169,-48.9953C102.822,-61.6063 103.61,-76.8411 104.225,-88.7122"/>
</g>
<!-- n17&#45;&#45;n4 -->
<g id="edge141" class="edge"><title>n17&#45;&#45;n4</title>
<path fill="none" stroke="black" d="M89.59,-46.2365C77.3438,-69.3443 58.0621,-105.727 46.7269,-127.116"/>
</g>
<!-- n17&#45;&#45;n3 -->
<g id="edge140" class="edge"><title>n17&#45;&#45;n3</title>
<path fill="none" stroke="black" d="M84.4105,-6.83803C76.0172,2.32444 65.9562,13.3076 58.0856,21.8995"/>
</g>
<!-- n17&#45;&#45;n2 -->
<g id="edge139" class="edge"><title>n17&#45;&#45;n2</title>
<path fill="none" stroke="black" d="M101.388,-0.76181C101.862,23.5931 102.586,60.7794 103.027,83.4672"/>
</g>
<!-- n17&#45;&#45;n1 -->
<g id="edge138" class="edge"><title>n17&#45;&#45;n1</title>
<path fill="none" stroke="black" d="M79.1622,-35.9474C41.7881,-54.9944 -33.8811,-93.5575 -68.0808,-110.987"/>
</g>
<!-- n17&#45;&#45;n0 -->
<g id="edge137" class="edge"><title>n17&#45;&#45;n0</title>
<path fill="none" stroke="black" d="M76.9882,-29.84C33.0572,-38.9829 -59.6138,-58.2694 -99.6733,-66.6065"/>
</g>
<!-- n16&#45;&#45;n15 -->
<g id="edge136" class="edge"><title>n16&#45;&#45;n15</title>
<path fill="none" stroke="black" d="M-29.2934,126.217C-28.9275,71.1999 -28.0407,-62.1402 -27.6765,-116.895"/>
</g>
<!-- n16&#45;&#45;n14 -->
<g id="edge135" class="edge"><title>n16&#45;&#45;n14</title>
<path fill="none" stroke="black" d="M-22.4315,127.368C-9.36182,84.1908 18.5458,-8.00548 31.5865,-51.0869"/>
</g>
<!-- n16&#45;&#45;n13 -->
<g id="edge134" class="edge"><title>n16&#45;&#45;n13</title>
<path fill="none" stroke="black" d="M-30.4618,126.418C-31.9863,89.8334 -34.8643,20.762 -36.3913,-15.8844"/>
</g>
<!-- n16&#45;&#45;n12 -->
<g id="edge133" class="edge"><title>n16&#45;&#45;n12</title>
<path fill="none" stroke="black" d="M-50.8321,138.892C-59.8497,133.964 -70.3256,128.24 -79.3416,123.314"/>
</g>
<!-- n16&#45;&#45;n11 -->
<g id="edge132" class="edge"><title>n16&#45;&#45;n11</title>
<path fill="none" stroke="black" d="M-8.60974,137.963C23.6172,118.468 85.1568,81.2424 117.224,61.8449"/>
</g>
<!-- n16&#45;&#45;n10 -->
<g id="edge131" class="edge"><title>n16&#45;&#45;n10</title>
<path fill="none" stroke="black" d="M-38.4879,128.086C-45.9696,109.46 -56.5491,83.1216 -64.0276,64.5037"/>
</g>
<!-- n16&#45;&#45;n9 -->
<g id="edge130" class="edge"><title>n16&#45;&#45;n9</title>
<path fill="none" stroke="black" d="M-5.66198,146.925C5.83507,145.163 19.4617,143.074 30.3365,141.407"/>
</g>
<!-- n16&#45;&#45;n8 -->
<g id="edge129" class="edge"><title>n16&#45;&#45;n8</title>
<path fill="none" stroke="black" d="M-22.2368,127.406C-20.7681,122.693 -19.24,117.789 -17.825,113.248"/>
</g>
<!-- n16&#45;&#45;n7 -->
<g id="edge128" class="edge"><title>n16&#45;&#45;n7</title>
<path fill="none" stroke="black" d="M-43.1623,130.468C-66.2345,96.6281 -112.394,28.9261 -133.715,-2.34662"/>
</g>
<!-- n16&#45;&#45;n6 -->
<g id="edge127" class="edge"><title>n16&#45;&#45;n6</title>
<path fill="none" stroke="black" d="M-12.3407,133.563C23.3932,98.0501 105.346,16.6036 138.33,-16.1765"/>
</g>
<!-- n16&#45;&#45;n5 -->
<g id="edge126" class="edge"><title>n16&#45;&#45;n5</title>
<path fill="none" stroke="black" d="M-18.203,128.946C7.90996,78.7581 72.2156,-44.834 96.1075,-90.753"/>
</g>
<!-- n16&#45;&#45;n4 -->
<g id="edge125" class="edge"><title>n16&#45;&#45;n4</title>
<path fill="none" stroke="black" d="M-24.0853,126.93C-11.1663,70.0521 21.4488,-73.5397 33.2252,-125.387"/>
</g>
<!-- n16&#45;&#45;n3 -->
<g id="edge124" class="edge"><title>n16&#45;&#45;n3</title>
<path fill="none" stroke="black" d="M-16.3357,130.407C-1.99645,108.368 20.7111,73.4661 34.0691,52.9348"/>
</g>
<!-- n16&#45;&#45;n2 -->
<g id="edge123" class="edge"><title>n16&#45;&#45;n2</title>
<path fill="none" stroke="black" d="M-6.61461,142.439C19.2059,133.244 60.7564,118.447 84.7254,109.912"/>
</g>
<!-- n16&#45;&#45;n1 -->
<g id="edge122" class="edge"><title>n16&#45;&#45;n1</title>
<path fill="none" stroke="black" d="M-34.4345,126.57C-45.4304,73.5635 -71.6014,-52.5961 -81.5925,-100.759"/>
</g>
<!-- n16&#45;&#45;n0 -->
<g id="edge121" class="edge"><title>n16&#45;&#45;n0</title>
<path fill="none" stroke="black" d="M-38.5128,128.15C-56.2115,84.3339 -95.077,-11.883 -111.37,-52.2195"/>
</g>
<!-- n15&#45;&#45;n14 -->
<g id="edge120" class="edge"><title>n15&#45;&#45;n14</title>
<path fill="none" stroke="black" d="M-10.4969,-123.771C-0.706155,-113.873 11.5611,-101.472 21.3807,-91.5447"/>
</g>
<!-- n15&#45;&#45;n13 -->
<g id="edge119" class="edge"><title>n15&#45;&#45;n13</title>
<path fill="none" stroke="black" d="M-29.8843,-116.825C-31.4494,-100.86 -33.4924,-80.0219 -35.0536,-64.0981"/>
</g>
<!-- n15&#45;&#45;n12 -->
<g id="edge118" class="edge"><title>n15&#45;&#45;n12</title>
<path fill="none" stroke="black" d="M-34.2704,-117.664C-48.2128,-69.5391 -80.0371,40.3084 -93.9655,88.385"/>
</g>
<!-- n15&#45;&#45;n11 -->
<g id="edge117" class="edge"><title>n15&#45;&#45;n11</title>
<path fill="none" stroke="black" d="M-11.6645,-122.723C19.9354,-86.3356 90.4421,-5.14648 122.003,31.1958"/>
</g>
<!-- n15&#45;&#45;n10 -->
<g id="edge116" class="edge"><title>n15&#45;&#45;n10</title>
<path fill="none" stroke="black" d="M-33.3757,-117.425C-42.1185,-82.2818 -58.482,-16.5063 -67.2117,18.5838"/>
</g>
<!-- n15&#45;&#45;n9 -->
<g id="edge115" class="edge"><title>n15&#45;&#45;n9</title>
<path fill="none" stroke="black" d="M-21.0535,-117.636C-6.05515,-63.4711 30.8796,69.9162 44.6021,119.474"/>
</g>
<!-- n15&#45;&#45;n8 -->
<g id="edge114" class="edge"><title>n15&#45;&#45;n8</title>
<path fill="none" stroke="black" d="M-25.9098,-116.673C-22.8116,-69.8041 -16.0682,32.209 -13.2425,74.9552"/>
</g>
<!-- n15&#45;&#45;n7 -->
<g id="edge113" class="edge"><title>n15&#45;&#45;n7</title>
<path fill="none" stroke="black" d="M-44.3473,-123.484C-67.6939,-99.2182 -109.471,-55.7966 -131.124,-33.2914"/>
</g>
<!-- n15&#45;&#45;n6 -->
<g id="edge112" class="edge"><title>n15&#45;&#45;n6</title>
<path fill="none" stroke="black" d="M-6.87022,-128.272C29.1403,-106.113 102.74,-60.8233 135.77,-40.498"/>
</g>
<!-- n15&#45;&#45;n5 -->
<g id="edge111" class="edge"><title>n15&#45;&#45;n5</title>
<path fill="none" stroke="black" d="M-4.08789,-135.211C21.5183,-128.909 62.0683,-118.929 85.9223,-113.058"/>
</g>
<!-- n15&#45;&#45;n4 -->
<g id="edge110" class="edge"><title>n15&#45;&#45;n4</title>
<path fill="none" stroke="black" d="M-3.28779,-142.263C3.64953,-142.631 11.1268,-143.028 17.7634,-143.38"/>
</g>
<!-- n15&#45;&#45;n3 -->
<g id="edge109" class="edge"><title>n15&#45;&#45;n3</title>
<path fill="none" stroke="black" d="M-18.3465,-118.524C-3.8487,-83.0244 24.0873,-14.6205 37.4336,18.0591"/>
</g>
<!-- n15&#45;&#45;n2 -->
<g id="edge108" class="edge"><title>n15&#45;&#45;n2</title>
<path fill="none" stroke="black" d="M-16.1264,-119.73C9.38184,-72.147 70.6913,42.2195 94.1069,85.8989"/>
</g>
<!-- n15&#45;&#45;n1 -->
<g id="edge107" class="edge"><title>n15&#45;&#45;n1</title>
<path fill="none" stroke="black" d="M-50.1247,-132.766C-55.7272,-130.731 -61.6655,-128.575 -67.0466,-126.62"/>
</g>
<!-- n15&#45;&#45;n0 -->
<g id="edge106" class="edge"><title>n15&#45;&#45;n0</title>
<path fill="none" stroke="black" d="M-46.8729,-126.049C-63.618,-113.134 -87.5239,-94.6972 -103.098,-82.6856"/>
</g>
<!-- n14&#45;&#45;n13 -->
<g id="edge105" class="edge"><title>n14&#45;&#45;n13</title>
<path fill="none" stroke="black" d="M16.5972,-64.3245C6.60528,-59.8499 -5.19585,-54.5653 -15.2134,-50.0793"/>
</g>
<!-- n14&#45;&#45;n12 -->
<g id="edge104" class="edge"><title>n14&#45;&#45;n12</title>
<path fill="none" stroke="black" d="M23.9305,-54.6317C-2.88834,-18.8528 -59.5854,56.7864 -86.2578,92.3699"/>
</g>
<!-- n14&#45;&#45;n11 -->
<g id="edge103" class="edge"><title>n14&#45;&#45;n11</title>
<path fill="none" stroke="black" d="M53.6437,-55.3991C72.2953,-32.1755 103.876,7.14669 122.593,30.4515"/>
</g>
<!-- n14&#45;&#45;n10 -->
<g id="edge102" class="edge"><title>n14&#45;&#45;n10</title>
<path fill="none" stroke="black" d="M21.8614,-56.7671C0.818653,-34.859 -35.127,2.5648 -56.2235,24.5289"/>
</g>
<!-- n14&#45;&#45;n9 -->
<g id="edge101" class="edge"><title>n14&#45;&#45;n9</title>
<path fill="none" stroke="black" d="M39.8656,-49.7792C42.1215,-7.24612 46.7322,79.6846 48.8014,118.698"/>
</g>
<!-- n14&#45;&#45;n8 -->
<g id="edge100" class="edge"><title>n14&#45;&#45;n8</title>
<path fill="none" stroke="black" d="M31.6524,-51.0784C21.5708,-17.4431 3.03377,44.4023 -6.28822,75.5034"/>
</g>
<!-- n14&#45;&#45;n7 -->
<g id="edge99" class="edge"><title>n14&#45;&#45;n7</title>
<path fill="none" stroke="black" d="M15.324,-67.1633C-21.4318,-56.0934 -92.2571,-34.7627 -126.094,-24.5721"/>
</g>
<!-- n14&#45;&#45;n6 -->
<g id="edge98" class="edge"><title>n14&#45;&#45;n6</title>
<path fill="none" stroke="black" d="M61.0737,-65.4839C82.467,-57.2303 114.249,-44.9687 134.141,-37.2944"/>
</g>
<!-- n14&#45;&#45;n5 -->
<g id="edge97" class="edge"><title>n14&#45;&#45;n5</title>
<path fill="none" stroke="black" d="M60.0331,-85.1548C69.0163,-89.755 79.3228,-95.0328 87.8241,-99.3862"/>
</g>
<!-- n14&#45;&#45;n4 -->
<g id="edge96" class="edge"><title>n14&#45;&#45;n4</title>
<path fill="none" stroke="black" d="M38.2206,-98.3466C38.096,-106.921 37.9573,-116.463 37.8386,-124.63"/>
</g>
<!-- n14&#45;&#45;n3 -->
<g id="edge95" class="edge"><title>n14&#45;&#45;n3</title>
<path fill="none" stroke="black" d="M39.9579,-49.9212C41.0978,-29.9775 42.6933,-2.06388 43.7568,16.543"/>
</g>
<!-- n14&#45;&#45;n2 -->
<g id="edge94" class="edge"><title>n14&#45;&#45;n2</title>
<path fill="none" stroke="black" d="M46.9161,-51.3334C59.9135,-15.7686 84.7384,52.1597 96.6748,84.8214"/>
</g>
<!-- n14&#45;&#45;n1 -->
<g id="edge93" class="edge"><title>n14&#45;&#45;n1</title>
<path fill="none" stroke="black" d="M15.804,-82.5528C-7.99373,-91.3198 -44.8855,-104.911 -66.9865,-113.052"/>
</g>
<!-- n14&#45;&#45;n0 -->
<g id="edge92" class="edge"><title>n14&#45;&#45;n0</title>
<path fill="none" stroke="black" d="M14.3294,-73.6135C-16.8797,-72.9034 -70.502,-71.6834 -99.2427,-71.0295"/>
</g>
<!-- n13&#45;&#45;n12 -->
<g id="edge91" class="edge"><title>n13&#45;&#45;n12</title>
<path fill="none" stroke="black" d="M-46.7424,-17.7466C-58.7106,10.9507 -79.3381,60.4117 -91.3247,89.1533"/>
</g>
<!-- n13&#45;&#45;n11 -->
<g id="edge90" class="edge"><title>n13&#45;&#45;n11</title>
<path fill="none" stroke="black" d="M-15.9181,-29.1639C17.7091,-11.9794 82.4116,21.0856 116.147,38.3253"/>
</g>
<!-- n13&#45;&#45;n10 -->
<g id="edge89" class="edge"><title>n13&#45;&#45;n10</title>
<path fill="none" stroke="black" d="M-47.1427,-17.6845C-52.2137,-5.99253 -58.3921,8.25294 -63.4432,19.899"/>
</g>
<!-- n13&#45;&#45;n9 -->
<g id="edge88" class="edge"><title>n13&#45;&#45;n9</title>
<path fill="none" stroke="black" d="M-26.7037,-18.248C-9.23009,17.5124 25.093,87.7561 41.1625,120.643"/>
</g>
<!-- n13&#45;&#45;n8 -->
<g id="edge87" class="edge"><title>n13&#45;&#45;n8</title>
<path fill="none" stroke="black" d="M-32.9115,-16.3966C-27.9749,9.70783 -20.1406,51.1354 -15.5794,75.2546"/>
</g>
<!-- n13&#45;&#45;n7 -->
<g id="edge86" class="edge"><title>n13&#45;&#45;n7</title>
<path fill="none" stroke="black" d="M-61.0125,-35.477C-80.435,-31.6386 -107.619,-26.2664 -125.74,-22.6853"/>
</g>
<!-- n13&#45;&#45;n6 -->
<g id="edge85" class="edge"><title>n13&#45;&#45;n6</title>
<path fill="none" stroke="black" d="M-13.3553,-38.8868C24.6633,-36.9008 97.9218,-33.0739 132.921,-31.2456"/>
</g>
<!-- n13&#45;&#45;n5 -->
<g id="edge84" class="edge"><title>n13&#45;&#45;n5</title>
<path fill="none" stroke="black" d="M-15.427,-50.6438C12.8628,-64.1621 61.4694,-87.3888 87.5217,-99.8379"/>
</g>
<!-- n13&#45;&#45;n4 -->
<g id="edge83" class="edge"><title>n13&#45;&#45;n4</title>
<path fill="none" stroke="black" d="M-23.3041,-59.7587C-9.05557,-79.5838 12.6998,-109.854 25.9729,-128.322"/>
</g>
<!-- n13&#45;&#45;n3 -->
<g id="edge82" class="edge"><title>n13&#45;&#45;n3</title>
<path fill="none" stroke="black" d="M-19.5467,-23.5541C-4.6097,-9.67673 16.4334,9.87359 30.3555,22.8081"/>
</g>
<!-- n13&#45;&#45;n2 -->
<g id="edge81" class="edge"><title>n13&#45;&#45;n2</title>
<path fill="none" stroke="black" d="M-20.4166,-22.8455C7.81892,5.90849 63.8618,62.9804 89.7354,89.3291"/>
</g>
<!-- n13&#45;&#45;n1 -->
<g id="edge80" class="edge"><title>n13&#45;&#45;n1</title>
<path fill="none" stroke="black" d="M-50.0557,-61.097C-57.9705,-74.204 -68.0294,-90.8615 -75.4186,-103.098"/>
</g>
<!-- n13&#45;&#45;n0 -->
<g id="edge79" class="edge"><title>n13&#45;&#45;n0</title>
<path fill="none" stroke="black" d="M-60.0729,-48.6227C-72.7722,-53.3727 -88.4061,-59.2204 -100.348,-63.6872"/>
</g>
<!-- n12&#45;&#45;n11 -->
<g id="edge78" class="edge"><title>n12&#45;&#45;n11</title>
<path fill="none" stroke="black" d="M-77.3997,105.56C-31.8022,93.6594 68.7349,67.4207 114.408,55.5007"/>
</g>
<!-- n12&#45;&#45;n10 -->
<g id="edge77" class="edge"><title>n12&#45;&#45;n10</title>
<path fill="none" stroke="black" d="M-91.8009,89.2379C-88.643,81.2906 -85.0908,72.3512 -81.9342,64.4074"/>
</g>
<!-- n12&#45;&#45;n9 -->
<g id="edge76" class="edge"><title>n12&#45;&#45;n9</title>
<path fill="none" stroke="black" d="M-76.8481,115.884C-47.1655,121.163 2.95009,130.076 30.4123,134.96"/>
</g>
<!-- n12&#45;&#45;n8 -->
<g id="edge75" class="edge"><title>n12&#45;&#45;n8</title>
<path fill="none" stroke="black" d="M-76.9207,107.025C-62.6472,104.254 -44.7213,100.774 -31.3174,98.1722"/>
</g>
<!-- n12&#45;&#45;n7 -->
<g id="edge74" class="edge"><title>n12&#45;&#45;n7</title>
<path fill="none" stroke="black" d="M-108.519,88.6071C-117.11,63.2853 -130.745,23.0996 -138.683,-0.296467"/>
</g>
<!-- n12&#45;&#45;n6 -->
<g id="edge73" class="edge"><title>n12&#45;&#45;n6</title>
<path fill="none" stroke="black" d="M-79.5537,99.7901C-30.4725,72.2868 90.3944,4.55747 135.301,-20.6065"/>
</g>
<!-- n12&#45;&#45;n5 -->
<g id="edge72" class="edge"><title>n12&#45;&#45;n5</title>
<path fill="none" stroke="black" d="M-84.1982,94.0143C-44.5873,51.7099 55.2686,-54.9356 91.6829,-93.8259"/>
</g>
<!-- n12&#45;&#45;n4 -->
<g id="edge71" class="edge"><title>n12&#45;&#45;n4</title>
<path fill="none" stroke="black" d="M-89.1536,90.2494C-62.3506,40.6052 3.65422,-81.6481 28.1774,-127.07"/>
</g>
<!-- n12&#45;&#45;n3 -->
<g id="edge70" class="edge"><title>n12&#45;&#45;n3</title>
<path fill="none" stroke="black" d="M-79.221,100.526C-50.2711,85.5462 0.708655,59.1675 27.429,45.3415"/>
</g>
<!-- n12&#45;&#45;n2 -->
<g id="edge69" class="edge"><title>n12&#45;&#45;n2</title>
<path fill="none" stroke="black" d="M-76.487,110.647C-35.6191,108.968 46.2487,105.605 83.7873,104.063"/>
</g>
<!-- n12&#45;&#45;n1 -->
<g id="edge68" class="edge"><title>n12&#45;&#45;n1</title>
<path fill="none" stroke="black" d="M-99.1115,87.3006C-96.0973,41.2065 -89.6113,-57.9785 -86.8497,-100.209"/>
</g>
<!-- n12&#45;&#45;n0 -->
<g id="edge67" class="edge"><title>n12&#45;&#45;n0</title>
<path fill="none" stroke="black" d="M-103.105,87.4433C-106.727,50.9442 -113.519,-17.4838 -116.848,-51.0314"/>
</g>
<!-- n11&#45;&#45;n10 -->
<g id="edge66" class="edge"><title>n11&#45;&#45;n10</title>
<path fill="none" stroke="black" d="M113.619,48.5511C73.0537,47.1374 -8.226,44.3048 -48.819,42.8901"/>
</g>
<!-- n11&#45;&#45;n9 -->
<g id="edge65" class="edge"><title>n11&#45;&#45;n9</title>
<path fill="none" stroke="black" d="M120.847,66.5585C104.173,83.434 79.0394,108.872 63.5788,124.519"/>
</g>
<!-- n11&#45;&#45;n8 -->
<g id="edge64" class="edge"><title>n11&#45;&#45;n8</title>
<path fill="none" stroke="black" d="M114.734,56.3298C85.1962,65.2091 34.5622,80.43 7.10156,88.6849"/>
</g>
<!-- n11&#45;&#45;n7 -->
<g id="edge63" class="edge"><title>n11&#45;&#45;n7</title>
<path fill="none" stroke="black" d="M114.182,43.6904C59.357,30.454 -75.6543,-2.14185 -125.816,-14.2524"/>
</g>
<!-- n11&#45;&#45;n6 -->
<g id="edge62" class="edge"><title>n11&#45;&#45;n6</title>
<path fill="none" stroke="black" d="M142.205,25.5058C144.347,13.8713 146.889,0.0646669 148.906,-10.8956"/>
</g>
<!-- n11&#45;&#45;n5 -->
<g id="edge61" class="edge"><title>n11&#45;&#45;n5</title>
<path fill="none" stroke="black" d="M132.931,25.785C126.472,-5.49092 115.201,-60.0694 109.224,-89.0093"/>
</g>
<!-- n11&#45;&#45;n4 -->
<g id="edge60" class="edge"><title>n11&#45;&#45;n4</title>
<path fill="none" stroke="black" d="M126.694,27.9109C106.658,-10.8247 64.8595,-91.6348 46.5118,-127.106"/>
</g>
<!-- n11&#45;&#45;n3 -->
<g id="edge59" class="edge"><title>n11&#45;&#45;n3</title>
<path fill="none" stroke="black" d="M113.877,46.0242C98.4984,43.8584 78.7736,41.0806 64.3568,39.0503"/>
</g>
<!-- n11&#45;&#45;n2 -->
<g id="edge58" class="edge"><title>n11&#45;&#45;n2</title>
<path fill="none" stroke="black" d="M124.804,69.7574C121.227,75.3581 117.393,81.3625 113.973,86.7189"/>
</g>
<!-- n11&#45;&#45;n1 -->
<g id="edge57" class="edge"><title>n11&#45;&#45;n1</title>
<path fill="none" stroke="black" d="M118.375,34.6669C74.7507,1.60451 -30.2497,-77.9747 -69.9781,-108.085"/>
</g>
<!-- n11&#45;&#45;n0 -->
<g id="edge56" class="edge"><title>n11&#45;&#45;n0</title>
<path fill="none" stroke="black" d="M115.929,39.1648C66.1181,15.874 -54.971,-40.7448 -100.806,-62.1764"/>
</g>
<!-- n10&#45;&#45;n9 -->
<g id="edge55" class="edge"><title>n10&#45;&#45;n9</title>
<path fill="none" stroke="black" d="M-54.1154,56.8925C-29.8764,75.8999 11.6741,108.482 34.2083,126.153"/>
</g>
<!-- n10&#45;&#45;n8 -->
<g id="edge54" class="edge"><title>n10&#45;&#45;n8</title>
<path fill="none" stroke="black" d="M-54.7188,57.7579C-45.8619,65.35 -35.3643,74.3485 -26.9867,81.5298"/>
</g>
<!-- n10&#45;&#45;n7 -->
<g id="edge53" class="edge"><title>n10&#45;&#45;n7</title>
<path fill="none" stroke="black" d="M-91.5749,26.3555C-103.398,16.3422 -118.539,3.51898 -129.68,-5.91598"/>
</g>
<!-- n10&#45;&#45;n6 -->
<g id="edge52" class="edge"><title>n10&#45;&#45;n6</title>
<path fill="none" stroke="black" d="M-49.764,34.5837C-4.86219,20.1941 92.8704,-11.1263 133.823,-24.2504"/>
</g>
<!-- n10&#45;&#45;n5 -->
<g id="edge51" class="edge"><title>n10&#45;&#45;n5</title>
<path fill="none" stroke="black" d="M-54.6401,26.5219C-19.2303,-3.33909 57.7377,-68.2461 90.257,-95.6696"/>
</g>
<!-- n10&#45;&#45;n4 -->
<g id="edge50" class="edge"><title>n10&#45;&#45;n4</title>
<path fill="none" stroke="black" d="M-60.5764,21.017C-38.431,-16.3213 7.32457,-93.4678 27.556,-127.579"/>
</g>
<!-- n10&#45;&#45;n3 -->
<g id="edge49" class="edge"><title>n10&#45;&#45;n3</title>
<path fill="none" stroke="black" d="M-48.898,40.8708C-27.0638,39.8086 4.69267,38.2637 25.07,37.2724"/>
</g>
<!-- n10&#45;&#45;n2 -->
<g id="edge48" class="edge"><title>n10&#45;&#45;n2</title>
<path fill="none" stroke="black" d="M-49.9793,50.0481C-14.5726,62.3301 52.466,85.5847 84.9055,96.8375"/>
</g>
<!-- n10&#45;&#45;n1 -->
<g id="edge47" class="edge"><title>n10&#45;&#45;n1</title>
<path fill="none" stroke="black" d="M-74.922,17.8015C-77.4038,-14.316 -81.7347,-70.3631 -84.0312,-100.082"/>
</g>
<!-- n10&#45;&#45;n0 -->
<g id="edge46" class="edge"><title>n10&#45;&#45;n0</title>
<path fill="none" stroke="black" d="M-82.1948,19.524C-90.746,-1.53238 -103.359,-32.591 -111.32,-52.1949"/>
</g>
<!-- n9&#45;&#45;n8 -->
<g id="edge45" class="edge"><title>n9&#45;&#45;n8</title>
<path fill="none" stroke="black" d="M33.9313,127.085C24.7753,120.566 13.3034,112.398 4.12054,105.86"/>
</g>
<!-- n9&#45;&#45;n7 -->
<g id="edge44" class="edge"><title>n9&#45;&#45;n7</title>
<path fill="none" stroke="black" d="M34.5588,126.074C-1.86289,96.6693 -93.4215,22.7508 -129.771,-6.59574"/>
</g>
<!-- n9&#45;&#45;n6 -->
<g id="edge43" class="edge"><title>n9&#45;&#45;n6</title>
<path fill="none" stroke="black" d="M60.0618,121.63C79.7316,89.305 122.655,18.7655 142.292,-13.506"/>
</g>
<!-- n9&#45;&#45;n5 -->
<g id="edge42" class="edge"><title>n9&#45;&#45;n5</title>
<path fill="none" stroke="black" d="M54.1938,119.057C64.5485,72.9361 90.5788,-43.0046 100.913,-89.0345"/>
</g>
<!-- n9&#45;&#45;n4 -->
<g id="edge41" class="edge"><title>n9&#45;&#45;n4</title>
<path fill="none" stroke="black" d="M48.9826,118.527C46.7194,66.4684 40.6418,-73.3298 38.3981,-124.939"/>
</g>
<!-- n9&#45;&#45;n3 -->
<g id="edge40" class="edge"><title>n9&#45;&#45;n3</title>
<path fill="none" stroke="black" d="M48.8908,118.729C48.0123,100.648 46.7176,73.9973 45.8401,55.9354"/>
</g>
<!-- n9&#45;&#45;n2 -->
<g id="edge39" class="edge"><title>n9&#45;&#45;n2</title>
<path fill="none" stroke="black" d="M66.2096,127.677C72.7321,123.395 80.2315,118.473 86.7805,114.174"/>
</g>
<!-- n9&#45;&#45;n1 -->
<g id="edge38" class="edge"><title>n9&#45;&#45;n1</title>
<path fill="none" stroke="black" d="M40.7524,121.067C16.0845,74.0095 -51.8855,-55.6526 -76.507,-102.622"/>
</g>
<!-- n9&#45;&#45;n0 -->
<g id="edge37" class="edge"><title>n9&#45;&#45;n0</title>
<path fill="none" stroke="black" d="M37.447,123.048C6.26107,84.3975 -75.1649,-16.5189 -106.37,-55.1939"/>
</g>
<!-- n8&#45;&#45;n7 -->
<g id="edge36" class="edge"><title>n8&#45;&#45;n7</title>
<path fill="none" stroke="black" d="M-26.9582,81.6376C-52.5081,59.8784 -104.186,15.8675 -129.838,-5.97801"/>
</g>
<!-- n8&#45;&#45;n6 -->
<g id="edge35" class="edge"><title>n8&#45;&#45;n6</title>
<path fill="none" stroke="black" d="M3.80915,82.4629C35.1564,58.7004 105.001,5.75549 136.506,-18.1269"/>
</g>
<!-- n8&#45;&#45;n5 -->
<g id="edge34" class="edge"><title>n8&#45;&#45;n5</title>
<path fill="none" stroke="black" d="M-2.1658,77.4788C19.8945,39.3202 73.2826,-53.0272 95.3945,-91.275"/>
</g>
<!-- n8&#45;&#45;n4 -->
<g id="edge33" class="edge"><title>n8&#45;&#45;n4</title>
<path fill="none" stroke="black" d="M-7.98859,75.2719C1.28118,30.5502 24.2758,-80.3863 33.5642,-125.198"/>
</g>
<!-- n8&#45;&#45;n3 -->
<g id="edge32" class="edge"><title>n8&#45;&#45;n3</title>
<path fill="none" stroke="black" d="M1.80379,80.3481C10.6095,71.3468 22.0008,59.7024 30.8583,50.6482"/>
</g>
<!-- n8&#45;&#45;n2 -->
<g id="edge31" class="edge"><title>n8&#45;&#45;n2</title>
<path fill="none" stroke="black" d="M7.61444,95.914C28.8293,97.5401 62.4933,100.121 83.7456,101.75"/>
</g>
<!-- n8&#45;&#45;n1 -->
<g id="edge30" class="edge"><title>n8&#45;&#45;n1</title>
<path fill="none" stroke="black" d="M-18.3596,75.7701C-32.3151,35.1374 -65.3321,-60.994 -79.2262,-101.448"/>
</g>
<!-- n8&#45;&#45;n0 -->
<g id="edge29" class="edge"><title>n8&#45;&#45;n0</title>
<path fill="none" stroke="black" d="M-22.5903,77.9899C-42.9624,46.526 -87.294,-21.9423 -107.88,-53.7361"/>
</g>
<!-- n7&#45;&#45;n6 -->
<g id="edge28" class="edge"><title>n7&#45;&#45;n6</title>
<path fill="none" stroke="black" d="M-125.472,-19.6256C-71.5752,-21.6809 78.8939,-27.419 132.876,-29.4777"/>
</g>
<!-- n7&#45;&#45;n5 -->
<g id="edge27" class="edge"><title>n7&#45;&#45;n5</title>
<path fill="none" stroke="black" d="M-126.589,-25.4568C-80.314,-41.9938 40.5088,-85.1718 86.8126,-101.719"/>
</g>
<!-- n7&#45;&#45;n4 -->
<g id="edge26" class="edge"><title>n7&#45;&#45;n4</title>
<path fill="none" stroke="black" d="M-128.79,-30.023C-94.1496,-53.8482 -13.2198,-109.511 21.3879,-133.314"/>
</g>
<!-- n7&#45;&#45;n3 -->
<g id="edge25" class="edge"><title>n7&#45;&#45;n3</title>
<path fill="none" stroke="black" d="M-126.089,-13.3877C-89.6934,-2.80901 -10.2721,20.2758 26.0628,30.837"/>
</g>
<!-- n7&#45;&#45;n2 -->
<g id="edge24" class="edge"><title>n7&#45;&#45;n2</title>
<path fill="none" stroke="black" d="M-127.124,-10.0974C-81.2925,12.4381 40.0563,72.1051 85.7098,94.5529"/>
</g>
<!-- n7&#45;&#45;n1 -->
<g id="edge23" class="edge"><title>n7&#45;&#45;n1</title>
<path fill="none" stroke="black" d="M-134.908,-36.017C-123.914,-54.7049 -106.429,-84.4255 -95.4943,-103.013"/>
</g>
<!-- n7&#45;&#45;n0 -->
<g id="edge22" class="edge"><title>n7&#45;&#45;n0</title>
<path fill="none" stroke="black" d="M-136.119,-36.3857C-133.387,-41.7762 -130.381,-47.7091 -127.65,-53.0984"/>
</g>
<!-- n6&#45;&#45;n5 -->
<g id="edge21" class="edge"><title>n6&#45;&#45;n5</title>
<path fill="none" stroke="black" d="M142.218,-47.1668C134.297,-60.2634 123.383,-78.307 115.467,-91.3952"/>
</g>
<!-- n6&#45;&#45;n4 -->
<g id="edge20" class="edge"><title>n6&#45;&#45;n4</title>
<path fill="none" stroke="black" d="M138.374,-44.2286C116.199,-66.267 73.4208,-108.782 51.3978,-130.669"/>
</g>
<!-- n6&#45;&#45;n3 -->
<g id="edge19" class="edge"><title>n6&#45;&#45;n3</title>
<path fill="none" stroke="black" d="M135.656,-19.8289C115.446,-7.32959 81.7353,13.5189 61.5777,25.9855"/>
</g>
<!-- n6&#45;&#45;n2 -->
<g id="edge18" class="edge"><title>n6&#45;&#45;n2</title>
<path fill="none" stroke="black" d="M145.645,-11.6646C136.273,13.8375 119.516,59.4357 110.175,84.8547"/>
</g>
<!-- n6&#45;&#45;n1 -->
<g id="edge17" class="edge"><title>n6&#45;&#45;n1</title>
<path fill="none" stroke="black" d="M134.183,-37.1121C89.8761,-53.8036 -22.847,-96.2693 -67.2176,-112.985"/>
</g>
<!-- n6&#45;&#45;n0 -->
<g id="edge16" class="edge"><title>n6&#45;&#45;n0</title>
<path fill="none" stroke="black" d="M132.957,-33.1273C82.9088,-40.574 -49.604,-60.2907 -99.4576,-67.7085"/>
</g>
<!-- n5&#45;&#45;n4 -->
<g id="edge15" class="edge"><title>n5&#45;&#45;n4</title>
<path fill="none" stroke="black" d="M87.808,-117.608C77.7801,-122.96 65.2158,-129.666 55.1585,-135.033"/>
</g>
<!-- n5&#45;&#45;n3 -->
<g id="edge14" class="edge"><title>n5&#45;&#45;n3</title>
<path fill="none" stroke="black" d="M97.7178,-90.2814C86.1526,-62.5698 64.1251,-9.78957 52.5031,18.0583"/>
</g>
<!-- n5&#45;&#45;n2 -->
<g id="edge13" class="edge"><title>n5&#45;&#45;n2</title>
<path fill="none" stroke="black" d="M105.071,-88.7803C104.724,-48.5793 103.932,43.0508 103.583,83.4728"/>
</g>
<!-- n5&#45;&#45;n1 -->
<g id="edge12" class="edge"><title>n5&#45;&#45;n1</title>
<path fill="none" stroke="black" d="M85.539,-109.501C48.8816,-111.728 -29.3929,-116.483 -65.969,-118.705"/>
</g>
<!-- n5&#45;&#45;n0 -->
<g id="edge11" class="edge"><title>n5&#45;&#45;n0</title>
<path fill="none" stroke="black" d="M85.7504,-105.023C43.275,-97.8714 -57.2159,-80.9518 -99.5042,-73.8317"/>
</g>
<!-- n4&#45;&#45;n3 -->
<g id="edge10" class="edge"><title>n4&#45;&#45;n3</title>
<path fill="none" stroke="black" d="M38.3498,-124.745C39.7609,-89.9778 42.6781,-18.1032 44.0885,16.6463"/>
</g>
<!-- n4&#45;&#45;n2 -->
<g id="edge9" class="edge"><title>n4&#45;&#45;n2</title>
<path fill="none" stroke="black" d="M42.6094,-125.406C54.869,-79.3016 86.0591,37.9965 98.3364,84.168"/>
</g>
<!-- n4&#45;&#45;n1 -->
<g id="edge8" class="edge"><title>n4&#45;&#45;n1</title>
<path fill="none" stroke="black" d="M18.3143,-140.597C-4.6792,-136.015 -42.9419,-128.39 -66.0547,-123.783"/>
</g>
<!-- n4&#45;&#45;n0 -->
<g id="edge7" class="edge"><title>n4&#45;&#45;n0</title>
<path fill="none" stroke="black" d="M19.6166,-135.96C-10.5407,-121.715 -71.0474,-93.1351 -101.064,-78.9571"/>
</g>
<!-- n3&#45;&#45;n2 -->
<g id="edge6" class="edge"><title>n3&#45;&#45;n2</title>
<path fill="none" stroke="black" d="M57.8753,51.1664C67.574,62.261 80.7699,77.356 90.4598,88.4406"/>
</g>
<!-- n3&#45;&#45;n1 -->
<g id="edge5" class="edge"><title>n3&#45;&#45;n1</title>
<path fill="none" stroke="black" d="M32.3786,21.3308C7.50822,-8.4498 -47.9048,-74.8033 -72.9005,-104.734"/>
</g>
<!-- n3&#45;&#45;n0 -->
<g id="edge4" class="edge"><title>n3&#45;&#45;n0</title>
<path fill="none" stroke="black" d="M28.2917,25.4706C-3.07906,4.98294 -70.7454,-39.2086 -102.15,-59.7184"/>
</g>
<!-- n2&#45;&#45;n1 -->
<g id="edge3" class="edge"><title>n2&#45;&#45;n1</title>
<path fill="none" stroke="black" d="M90.7197,88.269C56.2937,47.6166 -38.5637,-64.3969 -72.925,-104.973"/>
</g>
<!-- n2&#45;&#45;n0 -->
<g id="edge2" class="edge"><title>n2&#45;&#45;n0</title>
<path fill="none" stroke="black" d="M87.7875,91.0329C46.9895,59.1141 -62.4026,-26.4703 -103.181,-58.3741"/>
</g>
<!-- n1&#45;&#45;n0 -->
<g id="edge1" class="edge"><title>n1&#45;&#45;n0</title>
<path fill="none" stroke="black" d="M-96.6262,-103.476C-100.251,-98.0967 -104.274,-92.1266 -107.886,-86.7652"/>
</g>
</g>
</svg>
