<?xml version="1.0" encoding="UTF-8" standalone="no"?>
<!DOCTYPE svg PUBLIC "-//W3C//DTD SVG 1.1//EN"
 "http://www.w3.org/Graphics/SVG/1.1/DTD/svg11.dtd">
<!-- Generated by graphviz version 2.38.0 (20140413.2041)
 -->
<!-- Title: 1 Pages: 1 -->
<svg width="560pt" height="470pt"
 viewBox="0.00 0.00 559.91 469.77" xmlns="http://www.w3.org/2000/svg" xmlns:xlink="http://www.w3.org/1999/xlink">
<g id="graph0" class="graph" transform="scale(1 1) rotate(0) translate(318.202 230.54)">
<title>1</title>
<polygon fill="white" stroke="none" points="-318.202,239.227 -318.202,-230.54 241.71,-230.54 241.71,239.227 -318.202,239.227"/>
<!-- n17 -->
<g id="node1" class="node"><title>n17</title>
<ellipse fill="none" stroke="black" cx="-197.432" cy="21.2996" rx="24.0958" ry="24.0958"/>
<text text-anchor="middle" x="-197.432" y="24.9996" font-family="Times,serif" font-size="14.00">n17</text>
</g>
<!-- n18 -->
<g id="node2" class="node"><title>n18</title>
<ellipse fill="none" stroke="black" cx="-290.154" cy="51.4973" rx="24.0958" ry="24.0958"/>
<text text-anchor="middle" x="-290.154" y="55.1973" font-family="Times,serif" font-size="14.00">n18</text>
</g>
<!-- n17&#45;&#45;n18 -->
<g id="edge1" class="edge"><title>n17&#45;&#45;n18</title>
<path fill="none" stroke="black" d="M-220.352,28.7642C-234.617,33.4101 -252.9,39.3646 -267.176,44.0139"/>
</g>
<!-- n14 -->
<g id="node3" class="node"><title>n14</title>
<ellipse fill="none" stroke="black" cx="-105.026" cy="-33.8668" rx="24.0958" ry="24.0958"/>
<text text-anchor="middle" x="-105.026" y="-30.1668" font-family="Times,serif" font-size="14.00">n14</text>
</g>
<!-- n14&#45;&#45;n17 -->
<g id="edge2" class="edge"><title>n14&#45;&#45;n17</title>
<path fill="none" stroke="black" d="M-125.994,-21.3487C-141.117,-12.3204 -161.443,-0.185894 -176.547,8.83103"/>
</g>
<!-- n16 -->
<g id="node4" class="node"><title>n16</title>
<ellipse fill="none" stroke="black" cx="-190.665" cy="-79.626" rx="24.0958" ry="24.0958"/>
<text text-anchor="middle" x="-190.665" y="-75.926" font-family="Times,serif" font-size="14.00">n16</text>
</g>
<!-- n14&#45;&#45;n16 -->
<g id="edge3" class="edge"><title>n14&#45;&#45;n16</title>
<path fill="none" stroke="black" d="M-126.636,-45.4138C-139.718,-52.4035 -156.332,-61.281 -169.358,-68.2412"/>
</g>
<!-- n15 -->
<g id="node5" class="node"><title>n15</title>
<ellipse fill="none" stroke="black" cx="-138.031" cy="-135.722" rx="24.0958" ry="24.0958"/>
<text text-anchor="middle" x="-138.031" y="-132.022" font-family="Times,serif" font-size="14.00">n15</text>
</g>
<!-- n14&#45;&#45;n15 -->
<g id="edge4" class="edge"><title>n14&#45;&#45;n15</title>
<path fill="none" stroke="black" d="M-112.515,-56.9793C-117.917,-73.6484 -125.177,-96.0526 -130.571,-112.701"/>
</g>
<!-- n10 -->
<g id="node6" class="node"><title>n10</title>
<ellipse fill="none" stroke="black" cx="35.8259" cy="110.865" rx="24.0958" ry="24.0958"/>
<text text-anchor="middle" x="35.8259" y="114.565" font-family="Times,serif" font-size="14.00">n10</text>
</g>
<!-- n13 -->
<g id="node7" class="node"><title>n13</title>
<ellipse fill="none" stroke="black" cx="-47.3752" cy="176.373" rx="24.0958" ry="24.0958"/>
<text text-anchor="middle" x="-47.3752" y="180.073" font-family="Times,serif" font-size="14.00">n13</text>
</g>
<!-- n10&#45;&#45;n13 -->
<g id="edge5" class="edge"><title>n10&#45;&#45;n13</title>
<path fill="none" stroke="black" d="M16.5288,126.059C2.99146,136.717 -15.0196,150.898 -28.4695,161.488"/>
</g>
<!-- n12 -->
<g id="node8" class="node"><title>n12</title>
<ellipse fill="none" stroke="black" cx="136.447" cy="139.433" rx="24.0958" ry="24.0958"/>
<text text-anchor="middle" x="136.447" y="143.133" font-family="Times,serif" font-size="14.00">n12</text>
</g>
<!-- n10&#45;&#45;n12 -->
<g id="edge6" class="edge"><title>n10&#45;&#45;n12</title>
<path fill="none" stroke="black" d="M59.1634,117.491C75.4189,122.106 97.0084,128.236 113.236,132.843"/>
</g>
<!-- n11 -->
<g id="node9" class="node"><title>n11</title>
<ellipse fill="none" stroke="black" cx="15.2729" cy="211.179" rx="24.0958" ry="24.0958"/>
<text text-anchor="middle" x="15.2729" y="214.879" font-family="Times,serif" font-size="14.00">n11</text>
</g>
<!-- n10&#45;&#45;n11 -->
<g id="edge7" class="edge"><title>n10&#45;&#45;n11</title>
<path fill="none" stroke="black" d="M30.9551,134.638C27.6788,150.629 23.3777,171.622 20.1087,187.577"/>
</g>
<!-- n9 -->
<g id="node10" class="node"><title>n9</title>
<ellipse fill="none" stroke="black" cx="91.3227" cy="196.073" rx="19.4965" ry="19.4965"/>
<text text-anchor="middle" x="91.3227" y="199.773" font-family="Times,serif" font-size="14.00">n9</text>
</g>
<!-- n9&#45;&#45;n10 -->
<g id="edge8" class="edge"><title>n9&#45;&#45;n10</title>
<path fill="none" stroke="black" d="M80.6224,179.644C71.6141,165.813 58.6921,145.973 49.0395,131.153"/>
</g>
<!-- n5 -->
<g id="node11" class="node"><title>n5</title>
<ellipse fill="none" stroke="black" cx="71.5132" cy="-107.555" rx="19.4965" ry="19.4965"/>
<text text-anchor="middle" x="71.5132" y="-103.855" font-family="Times,serif" font-size="14.00">n5</text>
</g>
<!-- n8 -->
<g id="node12" class="node"><title>n8</title>
<ellipse fill="none" stroke="black" cx="33.5371" cy="-207.042" rx="19.4965" ry="19.4965"/>
<text text-anchor="middle" x="33.5371" y="-203.342" font-family="Times,serif" font-size="14.00">n8</text>
</g>
<!-- n5&#45;&#45;n8 -->
<g id="edge9" class="edge"><title>n5&#45;&#45;n8</title>
<path fill="none" stroke="black" d="M64.5478,-125.803C57.7386,-143.641 47.4251,-170.659 40.587,-188.573"/>
</g>
<!-- n7 -->
<g id="node13" class="node"><title>n7</title>
<ellipse fill="none" stroke="black" cx="173.496" cy="-128.269" rx="19.4965" ry="19.4965"/>
<text text-anchor="middle" x="173.496" y="-124.569" font-family="Times,serif" font-size="14.00">n7</text>
</g>
<!-- n5&#45;&#45;n7 -->
<g id="edge10" class="edge"><title>n5&#45;&#45;n7</title>
<path fill="none" stroke="black" d="M90.6954,-111.451C108.813,-115.131 135.851,-120.623 154.053,-124.32"/>
</g>
<!-- n6 -->
<g id="node14" class="node"><title>n6</title>
<ellipse fill="none" stroke="black" cx="118.685" cy="-195.903" rx="19.4965" ry="19.4965"/>
<text text-anchor="middle" x="118.685" y="-192.203" font-family="Times,serif" font-size="14.00">n6</text>
</g>
<!-- n5&#45;&#45;n6 -->
<g id="edge11" class="edge"><title>n5&#45;&#45;n6</title>
<path fill="none" stroke="black" d="M80.8329,-125.01C89.1028,-140.498 101.121,-163.007 109.385,-178.484"/>
</g>
<!-- n3 -->
<g id="node15" class="node"><title>n3</title>
<ellipse fill="none" stroke="black" cx="113.615" cy="3.70677" rx="19.4965" ry="19.4965"/>
<text text-anchor="middle" x="113.615" y="7.40677" font-family="Times,serif" font-size="14.00">n3</text>
</g>
<!-- n4 -->
<g id="node16" class="node"><title>n4</title>
<ellipse fill="none" stroke="black" cx="218.212" cy="11.7651" rx="19.4965" ry="19.4965"/>
<text text-anchor="middle" x="218.212" y="15.4651" font-family="Times,serif" font-size="14.00">n4</text>
</g>
<!-- n3&#45;&#45;n4 -->
<g id="edge12" class="edge"><title>n3&#45;&#45;n4</title>
<path fill="none" stroke="black" d="M133.289,5.22248C151.989,6.66317 179.955,8.81772 198.626,10.2562"/>
</g>
<!-- n0 -->
<g id="node17" class="node"><title>n0</title>
<ellipse fill="none" stroke="black" cx="15.525" cy="-4.42713" rx="19.4965" ry="19.4965"/>
<text text-anchor="middle" x="15.525" y="-0.727131" font-family="Times,serif" font-size="14.00">n0</text>
</g>
<!-- n0&#45;&#45;n14 -->
<g id="edge13" class="edge"><title>n0&#45;&#45;n14</title>
<path fill="none" stroke="black" d="M-3.57665,-9.09194C-24.6889,-14.2478 -58.7105,-22.5562 -81.4615,-28.1122"/>
</g>
<!-- n0&#45;&#45;n10 -->
<g id="edge14" class="edge"><title>n0&#45;&#45;n10</title>
<path fill="none" stroke="black" d="M18.9229,14.8703C22.422,34.7423 27.8804,65.7417 31.6428,87.1089"/>
</g>
<!-- n0&#45;&#45;n5 -->
<g id="edge15" class="edge"><title>n0&#45;&#45;n5</title>
<path fill="none" stroke="black" d="M25.0226,-21.9214C35.3806,-41.0004 51.8535,-71.3429 62.1559,-90.3194"/>
</g>
<!-- n0&#45;&#45;n3 -->
<g id="edge16" class="edge"><title>n0&#45;&#45;n3</title>
<path fill="none" stroke="black" d="M35.3749,-2.78111C52.505,-1.36063 77.1061,0.679356 94.1292,2.09096"/>
</g>
<!-- n2 -->
<g id="node18" class="node"><title>n2</title>
<ellipse fill="none" stroke="black" cx="-11.3437" cy="-74.0267" rx="19.4965" ry="19.4965"/>
<text text-anchor="middle" x="-11.3437" y="-70.3267" font-family="Times,serif" font-size="14.00">n2</text>
</g>
<!-- n0&#45;&#45;n2 -->
<g id="edge17" class="edge"><title>n0&#45;&#45;n2</title>
<path fill="none" stroke="black" d="M8.46554,-22.7136C4.54737,-32.8631 -0.312612,-45.4522 -4.23814,-55.6207"/>
</g>
<!-- n1 -->
<g id="node19" class="node"><title>n1</title>
<ellipse fill="none" stroke="black" cx="-43.4243" cy="44.2453" rx="19.4965" ry="19.4965"/>
<text text-anchor="middle" x="-43.4243" y="47.9453" font-family="Times,serif" font-size="14.00">n1</text>
</g>
<!-- n0&#45;&#45;n1 -->
<g id="edge18" class="edge"><title>n0&#45;&#45;n1</title>
<path fill="none" stroke="black" d="M0.344072,8.10723C-8.38905,15.3179 -19.3311,24.3524 -28.09,31.5843"/>
</g>
</g>
</svg>
