<?xml version="1.0" encoding="UTF-8" standalone="no"?>
<!DOCTYPE svg PUBLIC "-//W3C//DTD SVG 1.1//EN"
 "http://www.w3.org/Graphics/SVG/1.1/DTD/svg11.dtd">
<!-- Generated by graphviz version 2.38.0 (20140413.2041)
 -->
<!-- Title: 1 Pages: 1 -->
<svg width="461pt" height="725pt"
 viewBox="0.00 0.00 461.02 725.25" xmlns="http://www.w3.org/2000/svg" xmlns:xlink="http://www.w3.org/1999/xlink">
<g id="graph0" class="graph" transform="scale(1 1) rotate(0) translate(243.394 415.283)">
<title>1</title>
<polygon fill="white" stroke="none" points="-243.394,309.968 -243.394,-415.283 217.627,-415.283 217.627,309.968 -243.394,309.968"/>
<!-- n18 -->
<g id="node1" class="node"><title>n18</title>
<ellipse fill="none" stroke="black" cx="-215.347" cy="99.2495" rx="24.0958" ry="24.0958"/>
<text text-anchor="middle" x="-215.347" y="102.95" font-family="Times,serif" font-size="14.00">n18</text>
</g>
<!-- n5 -->
<g id="node2" class="node"><title>n5</title>
<ellipse fill="none" stroke="black" cx="-24.9177" cy="76.9614" rx="19.4965" ry="19.4965"/>
<text text-anchor="middle" x="-24.9177" y="80.6614" font-family="Times,serif" font-size="14.00">n5</text>
</g>
<!-- n18&#45;&#45;n5 -->
<g id="edge1" class="edge"><title>n18&#45;&#45;n5</title>
<path fill="none" stroke="black" d="M-191.229,96.4267C-153.098,91.9638 -79.6224,83.3642 -44.5199,79.2557"/>
</g>
<!-- n3 -->
<g id="node3" class="node"><title>n3</title>
<ellipse fill="none" stroke="black" cx="-16.2496" cy="-28.5735" rx="19.4965" ry="19.4965"/>
<text text-anchor="middle" x="-16.2496" y="-24.8735" font-family="Times,serif" font-size="14.00">n3</text>
</g>
<!-- n18&#45;&#45;n3 -->
<g id="edge2" class="edge"><title>n18&#45;&#45;n3</title>
<path fill="none" stroke="black" d="M-197.47,82.6919C-159.773,54.4284 -72.7515,-1.29502 -34.6225,-21.4226"/>
</g>
<!-- n17 -->
<g id="node4" class="node"><title>n17</title>
<ellipse fill="none" stroke="black" cx="-109.566" cy="152.587" rx="24.0958" ry="24.0958"/>
<text text-anchor="middle" x="-109.566" y="156.287" font-family="Times,serif" font-size="14.00">n17</text>
</g>
<!-- n5&#45;&#45;n17 -->
<g id="edge48" class="edge"><title>n5&#45;&#45;n17</title>
<path fill="none" stroke="black" d="M-39.6624,90.1343C-54.0622,102.999 -76.0061,122.604 -91.459,136.41"/>
</g>
<!-- n16 -->
<g id="node5" class="node"><title>n16</title>
<ellipse fill="none" stroke="black" cx="-46.7706" cy="150.206" rx="24.0958" ry="24.0958"/>
<text text-anchor="middle" x="-46.7706" y="153.906" font-family="Times,serif" font-size="14.00">n16</text>
</g>
<!-- n5&#45;&#45;n16 -->
<g id="edge49" class="edge"><title>n5&#45;&#45;n16</title>
<path fill="none" stroke="black" d="M-30.5454,95.8238C-33.3781,105.318 -36.8378,116.914 -39.8337,126.956"/>
</g>
<!-- n8 -->
<g id="node7" class="node"><title>n8</title>
<ellipse fill="none" stroke="black" cx="-68.7244" cy="282.881" rx="19.4965" ry="19.4965"/>
<text text-anchor="middle" x="-68.7244" y="286.581" font-family="Times,serif" font-size="14.00">n8</text>
</g>
<!-- n5&#45;&#45;n8 -->
<g id="edge51" class="edge"><title>n5&#45;&#45;n8</title>
<path fill="none" stroke="black" d="M-29.0389,96.3338C-37.4094,135.681 -56.3116,224.533 -64.646,263.71"/>
</g>
<!-- n7 -->
<g id="node8" class="node"><title>n7</title>
<ellipse fill="none" stroke="black" cx="96.6586" cy="247.792" rx="19.4965" ry="19.4965"/>
<text text-anchor="middle" x="96.6586" y="251.492" font-family="Times,serif" font-size="14.00">n7</text>
</g>
<!-- n5&#45;&#45;n7 -->
<g id="edge52" class="edge"><title>n5&#45;&#45;n7</title>
<path fill="none" stroke="black" d="M-13.4801,93.0327C9.69135,125.592 61.9428,199.012 85.1628,231.639"/>
</g>
<!-- n6 -->
<g id="node9" class="node"><title>n6</title>
<ellipse fill="none" stroke="black" cx="21.426" cy="286.47" rx="19.4965" ry="19.4965"/>
<text text-anchor="middle" x="21.426" y="290.17" font-family="Times,serif" font-size="14.00">n6</text>
</g>
<!-- n5&#45;&#45;n6 -->
<g id="edge53" class="edge"><title>n5&#45;&#45;n6</title>
<path fill="none" stroke="black" d="M-20.6409,96.296C-11.8122,136.208 8.33967,227.31 17.1595,267.182"/>
</g>
<!-- n4 -->
<g id="node10" class="node"><title>n4</title>
<ellipse fill="none" stroke="black" cx="104.893" cy="135.9" rx="19.4965" ry="19.4965"/>
<text text-anchor="middle" x="104.893" y="139.6" font-family="Times,serif" font-size="14.00">n4</text>
</g>
<!-- n5&#45;&#45;n4 -->
<g id="edge54" class="edge"><title>n5&#45;&#45;n4</title>
<path fill="none" stroke="black" d="M-7.1403,85.0331C17.5793,96.2567 62.0867,116.465 86.9135,127.737"/>
</g>
<!-- n12 -->
<g id="node13" class="node"><title>n12</title>
<ellipse fill="none" stroke="black" cx="114.539" cy="-39.522" rx="24.0958" ry="24.0958"/>
<text text-anchor="middle" x="114.539" y="-35.822" font-family="Times,serif" font-size="14.00">n12</text>
</g>
<!-- n5&#45;&#45;n12 -->
<g id="edge50" class="edge"><title>n5&#45;&#45;n12</title>
<path fill="none" stroke="black" d="M-9.72789,64.2739C15.9684,42.8108 67.9364,-0.596264 95.8333,-23.8975"/>
</g>
<!-- n3&#45;&#45;n18 -->
<g id="edge56" class="edge"><title>n3&#45;&#45;n18</title>
<path fill="none" stroke="black" d="M-30.4292,-14.8214C-64.6696,11.5155 -151.714,67.5373 -193.023,89.9811"/>
</g>
<!-- n3&#45;&#45;n5 -->
<g id="edge60" class="edge"><title>n3&#45;&#45;n5</title>
<path fill="none" stroke="black" d="M-17.88,-8.72317C-19.4297,10.1448 -21.7473,38.3616 -23.2946,57.2001"/>
</g>
<!-- n3&#45;&#45;n4 -->
<g id="edge61" class="edge"><title>n3&#45;&#45;n4</title>
<path fill="none" stroke="black" d="M-4.63397,-12.803C18.4621,18.5542 69.9218,88.4207 93.1343,119.936"/>
</g>
<!-- n13 -->
<g id="node12" class="node"><title>n13</title>
<ellipse fill="none" stroke="black" cx="67.6907" cy="-95.6177" rx="24.0958" ry="24.0958"/>
<text text-anchor="middle" x="67.6907" y="-91.9177" font-family="Times,serif" font-size="14.00">n13</text>
</g>
<!-- n3&#45;&#45;n13 -->
<g id="edge57" class="edge"><title>n3&#45;&#45;n13</title>
<path fill="none" stroke="black" d="M-0.853659,-40.8704C13.156,-52.0601 33.8764,-68.6098 48.8659,-80.5821"/>
</g>
<!-- n3&#45;&#45;n12 -->
<g id="edge58" class="edge"><title>n3&#45;&#45;n12</title>
<path fill="none" stroke="black" d="M3.33081,-30.2126C26.562,-32.1573 65.2948,-35.3997 90.3707,-37.4988"/>
</g>
<!-- n11 -->
<g id="node14" class="node"><title>n11</title>
<ellipse fill="none" stroke="black" cx="189.579" cy="-66.1049" rx="24.0958" ry="24.0958"/>
<text text-anchor="middle" x="189.579" y="-62.4049" font-family="Times,serif" font-size="14.00">n11</text>
</g>
<!-- n3&#45;&#45;n11 -->
<g id="edge59" class="edge"><title>n3&#45;&#45;n11</title>
<path fill="none" stroke="black" d="M3.11429,-32.1043C40.9426,-39.0021 124.55,-54.2472 165.721,-61.7546"/>
</g>
<!-- n17&#45;&#45;n18 -->
<g id="edge3" class="edge"><title>n17&#45;&#45;n18</title>
<path fill="none" stroke="black" d="M-131.228,141.664C-149.482,132.46 -175.468,119.357 -193.714,110.157"/>
</g>
<!-- n17&#45;&#45;n3 -->
<g id="edge10" class="edge"><title>n17&#45;&#45;n3</title>
<path fill="none" stroke="black" d="M-98.4952,131.094C-79.8114,94.822 -42.3834,22.1613 -25.2217,-11.1556"/>
</g>
<!-- n17&#45;&#45;n16 -->
<g id="edge4" class="edge"><title>n17&#45;&#45;n16</title>
<path fill="none" stroke="black" d="M-85.4675,151.673C-80.7636,151.495 -75.8283,151.308 -71.1165,151.129"/>
</g>
<!-- n15 -->
<g id="node6" class="node"><title>n15</title>
<ellipse fill="none" stroke="black" cx="-207.874" cy="12.6654" rx="24.0958" ry="24.0958"/>
<text text-anchor="middle" x="-207.874" y="16.3654" font-family="Times,serif" font-size="14.00">n15</text>
</g>
<!-- n17&#45;&#45;n15 -->
<g id="edge5" class="edge"><title>n17&#45;&#45;n15</title>
<path fill="none" stroke="black" d="M-123.443,132.836C-142.073,106.32 -174.994,59.4639 -193.75,32.7685"/>
</g>
<!-- n17&#45;&#45;n8 -->
<g id="edge6" class="edge"><title>n17&#45;&#45;n8</title>
<path fill="none" stroke="black" d="M-102.359,175.581C-94.481,200.712 -82.0059,240.51 -74.6673,263.922"/>
</g>
<!-- n17&#45;&#45;n7 -->
<g id="edge7" class="edge"><title>n17&#45;&#45;n7</title>
<path fill="none" stroke="black" d="M-87.4967,162.775C-46.3495,181.771 41.3109,222.24 78.9199,239.603"/>
</g>
<!-- n17&#45;&#45;n6 -->
<g id="edge8" class="edge"><title>n17&#45;&#45;n6</title>
<path fill="none" stroke="black" d="M-92.7096,169.815C-66.5899,196.512 -16.8269,247.373 7.43177,272.167"/>
</g>
<!-- n17&#45;&#45;n4 -->
<g id="edge9" class="edge"><title>n17&#45;&#45;n4</title>
<path fill="none" stroke="black" d="M-85.382,150.705C-42.5504,147.372 45.8299,140.496 85.2112,137.432"/>
</g>
<!-- n16&#45;&#45;n18 -->
<g id="edge11" class="edge"><title>n16&#45;&#45;n18</title>
<path fill="none" stroke="black" d="M-69.8569,143.228C-102.049,133.497 -160.082,115.955 -192.269,106.225"/>
</g>
<!-- n16&#45;&#45;n3 -->
<g id="edge17" class="edge"><title>n16&#45;&#45;n3</title>
<path fill="none" stroke="black" d="M-42.7176,126.466C-36.6206,90.752 -25.2042,23.8791 -19.5694,-9.12724"/>
</g>
<!-- n16&#45;&#45;n15 -->
<g id="edge12" class="edge"><title>n16&#45;&#45;n15</title>
<path fill="none" stroke="black" d="M-65.2512,134.429C-96.2448,107.968 -158.346,54.9492 -189.361,28.4704"/>
</g>
<!-- n16&#45;&#45;n8 -->
<g id="edge13" class="edge"><title>n16&#45;&#45;n8</title>
<path fill="none" stroke="black" d="M-50.7463,174.233C-54.9722,199.771 -61.574,239.669 -65.4922,263.348"/>
</g>
<!-- n16&#45;&#45;n7 -->
<g id="edge14" class="edge"><title>n16&#45;&#45;n7</title>
<path fill="none" stroke="black" d="M-26.8274,163.775C1.80676,183.257 54.0193,218.781 80.4321,236.752"/>
</g>
<!-- n16&#45;&#45;n6 -->
<g id="edge15" class="edge"><title>n16&#45;&#45;n6</title>
<path fill="none" stroke="black" d="M-35.9646,171.798C-22.519,198.664 0.182453,244.023 12.6223,268.879"/>
</g>
<!-- n16&#45;&#45;n4 -->
<g id="edge16" class="edge"><title>n16&#45;&#45;n4</title>
<path fill="none" stroke="black" d="M-22.7391,147.94C7.16297,145.119 57.6489,140.357 85.3142,137.747"/>
</g>
<!-- n15&#45;&#45;n18 -->
<g id="edge18" class="edge"><title>n15&#45;&#45;n18</title>
<path fill="none" stroke="black" d="M-209.955,36.7839C-210.992,48.7931 -212.241,63.269 -213.276,75.2604"/>
</g>
<!-- n15&#45;&#45;n5 -->
<g id="edge19" class="edge"><title>n15&#45;&#45;n5</title>
<path fill="none" stroke="black" d="M-185.072,20.6785C-148.48,33.538 -77.3395,58.5389 -43.5722,70.4057"/>
</g>
<!-- n15&#45;&#45;n3 -->
<g id="edge20" class="edge"><title>n15&#45;&#45;n3</title>
<path fill="none" stroke="black" d="M-183.992,7.52585C-145.566,-0.743665 -70.7646,-16.8415 -35.511,-24.4283"/>
</g>
<!-- n8&#45;&#45;n7 -->
<g id="edge42" class="edge"><title>n8&#45;&#45;n7</title>
<path fill="none" stroke="black" d="M-49.4292,278.787C-17.5616,272.026 45.6996,258.604 77.4863,251.86"/>
</g>
<!-- n8&#45;&#45;n6 -->
<g id="edge43" class="edge"><title>n8&#45;&#45;n6</title>
<path fill="none" stroke="black" d="M-49.1631,283.66C-34.0419,284.262 -13.2087,285.091 1.90287,285.693"/>
</g>
<!-- n8&#45;&#45;n4 -->
<g id="edge44" class="edge"><title>n8&#45;&#45;n4</title>
<path fill="none" stroke="black" d="M-53.6207,270.095C-20.7857,242.297 56.785,176.627 89.7004,148.762"/>
</g>
<!-- n7&#45;&#45;n6 -->
<g id="edge45" class="edge"><title>n7&#45;&#45;n6</title>
<path fill="none" stroke="black" d="M79.2096,256.763C67.0556,263.011 50.9136,271.31 38.7803,277.548"/>
</g>
<!-- n7&#45;&#45;n4 -->
<g id="edge46" class="edge"><title>n7&#45;&#45;n4</title>
<path fill="none" stroke="black" d="M98.0929,228.302C99.595,207.89 101.941,176.011 103.447,155.542"/>
</g>
<!-- n6&#45;&#45;n4 -->
<g id="edge47" class="edge"><title>n6&#45;&#45;n4</title>
<path fill="none" stroke="black" d="M31.0007,269.198C47.1011,240.153 79.4045,181.88 95.4297,152.971"/>
</g>
<!-- n4&#45;&#45;n11 -->
<g id="edge55" class="edge"><title>n4&#45;&#45;n11</title>
<path fill="none" stroke="black" d="M112.557,117.617C128.111,80.5176 163.33,-3.49245 180.213,-43.762"/>
</g>
<!-- n14 -->
<g id="node11" class="node"><title>n14</title>
<ellipse fill="none" stroke="black" cx="-101.341" cy="-48.2702" rx="24.0958" ry="24.0958"/>
<text text-anchor="middle" x="-101.341" y="-44.5702" font-family="Times,serif" font-size="14.00">n14</text>
</g>
<!-- n14&#45;&#45;n5 -->
<g id="edge24" class="edge"><title>n14&#45;&#45;n5</title>
<path fill="none" stroke="black" d="M-88.7213,-27.5907C-73.7133,-2.99791 -48.9577,37.568 -35.1081,60.2629"/>
</g>
<!-- n14&#45;&#45;n3 -->
<g id="edge25" class="edge"><title>n14&#45;&#45;n3</title>
<path fill="none" stroke="black" d="M-77.6383,-42.7836C-64.2626,-39.6874 -47.773,-35.8704 -35.2531,-32.9724"/>
</g>
<!-- n14&#45;&#45;n17 -->
<g id="edge21" class="edge"><title>n14&#45;&#45;n17</title>
<path fill="none" stroke="black" d="M-102.333,-24.0422C-103.914,14.5634 -106.987,89.6131 -108.571,128.273"/>
</g>
<!-- n14&#45;&#45;n16 -->
<g id="edge22" class="edge"><title>n14&#45;&#45;n16</title>
<path fill="none" stroke="black" d="M-94.8668,-24.7229C-84.336,13.5784 -63.6226,88.9146 -53.152,126.997"/>
</g>
<!-- n14&#45;&#45;n15 -->
<g id="edge23" class="edge"><title>n14&#45;&#45;n15</title>
<path fill="none" stroke="black" d="M-122.388,-36.2313C-141.065,-25.5484 -168.207,-10.0238 -186.87,0.651496"/>
</g>
<!-- n13&#45;&#45;n5 -->
<g id="edge29" class="edge"><title>n13&#45;&#45;n5</title>
<path fill="none" stroke="black" d="M56.149,-74.1094C37.5785,-39.5026 1.42839,27.8645 -15.609,59.6144"/>
</g>
<!-- n13&#45;&#45;n14 -->
<g id="edge26" class="edge"><title>n13&#45;&#45;n14</title>
<path fill="none" stroke="black" d="M44.1876,-89.0343C11.8936,-79.9884 -45.8488,-63.8142 -78.0375,-54.7978"/>
</g>
<!-- n13&#45;&#45;n12 -->
<g id="edge27" class="edge"><title>n13&#45;&#45;n12</title>
<path fill="none" stroke="black" d="M83.2906,-76.9387C88.2947,-70.9468 93.8371,-64.3104 98.8478,-58.3108"/>
</g>
<!-- n13&#45;&#45;n11 -->
<g id="edge28" class="edge"><title>n13&#45;&#45;n11</title>
<path fill="none" stroke="black" d="M91.1921,-89.9274C112.776,-84.7013 144.589,-76.9983 166.15,-71.7778"/>
</g>
<!-- n12&#45;&#45;n14 -->
<g id="edge30" class="edge"><title>n12&#45;&#45;n14</title>
<path fill="none" stroke="black" d="M90.1947,-40.5085C48.623,-42.1932 -35.5746,-45.6051 -77.0854,-47.2873"/>
</g>
<!-- n12&#45;&#45;n11 -->
<g id="edge31" class="edge"><title>n12&#45;&#45;n11</title>
<path fill="none" stroke="black" d="M137.462,-47.6422C146.771,-50.9402 157.502,-54.7415 166.798,-58.0344"/>
</g>
<!-- n2 -->
<g id="node15" class="node"><title>n2</title>
<ellipse fill="none" stroke="black" cx="-24.8784" cy="-211.804" rx="19.4965" ry="19.4965"/>
<text text-anchor="middle" x="-24.8784" y="-208.104" font-family="Times,serif" font-size="14.00">n2</text>
</g>
<!-- n12&#45;&#45;n2 -->
<g id="edge32" class="edge"><title>n12&#45;&#45;n2</title>
<path fill="none" stroke="black" d="M99.3537,-58.2871C71.5475,-92.648 12.9692,-165.035 -12.5548,-196.575"/>
</g>
<!-- n11&#45;&#45;n2 -->
<g id="edge33" class="edge"><title>n11&#45;&#45;n2</title>
<path fill="none" stroke="black" d="M169.404,-79.8119C127.174,-108.502 30.1897,-174.391 -8.50247,-200.678"/>
</g>
<!-- n1 -->
<g id="node16" class="node"><title>n1</title>
<ellipse fill="none" stroke="black" cx="37.2397" cy="-192.04" rx="19.4965" ry="19.4965"/>
<text text-anchor="middle" x="37.2397" y="-188.34" font-family="Times,serif" font-size="14.00">n1</text>
</g>
<!-- n11&#45;&#45;n1 -->
<g id="edge34" class="edge"><title>n11&#45;&#45;n1</title>
<path fill="none" stroke="black" d="M170.9,-81.547C140.39,-106.768 80.4613,-156.31 52.4036,-179.504"/>
</g>
<!-- n2&#45;&#45;n3 -->
<g id="edge64" class="edge"><title>n2&#45;&#45;n3</title>
<path fill="none" stroke="black" d="M-23.955,-192.195C-22.2985,-157.021 -18.8405,-83.5909 -17.1794,-48.3183"/>
</g>
<!-- n2&#45;&#45;n14 -->
<g id="edge62" class="edge"><title>n2&#45;&#45;n14</title>
<path fill="none" stroke="black" d="M-33.2068,-193.991C-47.2958,-163.859 -75.7892,-102.919 -91.0847,-70.2057"/>
</g>
<!-- n2&#45;&#45;n13 -->
<g id="edge63" class="edge"><title>n2&#45;&#45;n13</title>
<path fill="none" stroke="black" d="M-12.3941,-196.134C4.48372,-174.951 34.5462,-137.218 52.6489,-114.497"/>
</g>
<!-- n1&#45;&#45;n3 -->
<g id="edge68" class="edge"><title>n1&#45;&#45;n3</title>
<path fill="none" stroke="black" d="M31.1038,-173.288C20.7859,-141.756 0.0844167,-78.4911 -10.1853,-47.1064"/>
</g>
<!-- n1&#45;&#45;n14 -->
<g id="edge65" class="edge"><title>n1&#45;&#45;n14</title>
<path fill="none" stroke="black" d="M23.6997,-177.993C-1.77211,-151.567 -56.751,-94.5298 -84.5376,-65.7028"/>
</g>
<!-- n1&#45;&#45;n13 -->
<g id="edge66" class="edge"><title>n1&#45;&#45;n13</title>
<path fill="none" stroke="black" d="M43.2559,-172.99C48.1784,-157.403 55.158,-135.302 60.3981,-118.709"/>
</g>
<!-- n1&#45;&#45;n12 -->
<g id="edge67" class="edge"><title>n1&#45;&#45;n12</title>
<path fill="none" stroke="black" d="M46.107,-174.544C60.304,-146.532 88.1044,-91.68 103.544,-61.2171"/>
</g>
<!-- n1&#45;&#45;n2 -->
<g id="edge69" class="edge"><title>n1&#45;&#45;n2</title>
<path fill="none" stroke="black" d="M18.6022,-197.97C10.7401,-200.471 1.60663,-203.377 -6.25407,-205.878"/>
</g>
<!-- n10 -->
<g id="node17" class="node"><title>n10</title>
<ellipse fill="none" stroke="black" cx="121.686" cy="-213.143" rx="24.0958" ry="24.0958"/>
<text text-anchor="middle" x="121.686" y="-209.443" font-family="Times,serif" font-size="14.00">n10</text>
</g>
<!-- n10&#45;&#45;n3 -->
<g id="edge38" class="edge"><title>n10&#45;&#45;n3</title>
<path fill="none" stroke="black" d="M107.185,-193.74C79.7249,-156.996 20.6367,-77.9308 -4.52142,-44.2669"/>
</g>
<!-- n10&#45;&#45;n13 -->
<g id="edge35" class="edge"><title>n10&#45;&#45;n13</title>
<path fill="none" stroke="black" d="M111.53,-191.038C101.876,-170.026 87.4395,-138.603 77.8012,-117.624"/>
</g>
<!-- n10&#45;&#45;n12 -->
<g id="edge36" class="edge"><title>n10&#45;&#45;n12</title>
<path fill="none" stroke="black" d="M120.692,-189.002C119.33,-155.924 116.899,-96.854 115.536,-63.7375"/>
</g>
<!-- n10&#45;&#45;n11 -->
<g id="edge37" class="edge"><title>n10&#45;&#45;n11</title>
<path fill="none" stroke="black" d="M131.85,-191.13C144.649,-163.41 166.513,-116.059 179.346,-88.2685"/>
</g>
<!-- n10&#45;&#45;n2 -->
<g id="edge39" class="edge"><title>n10&#45;&#45;n2</title>
<path fill="none" stroke="black" d="M97.4835,-212.922C68.7015,-212.659 21.2254,-212.225 -5.33534,-211.982"/>
</g>
<!-- n10&#45;&#45;n1 -->
<g id="edge40" class="edge"><title>n10&#45;&#45;n1</title>
<path fill="none" stroke="black" d="M98.1627,-207.265C84.986,-203.972 68.7645,-199.918 56.3738,-196.821"/>
</g>
<!-- n9 -->
<g id="node18" class="node"><title>n9</title>
<ellipse fill="none" stroke="black" cx="179.908" cy="-391.785" rx="19.4965" ry="19.4965"/>
<text text-anchor="middle" x="179.908" y="-388.085" font-family="Times,serif" font-size="14.00">n9</text>
</g>
<!-- n9&#45;&#45;n10 -->
<g id="edge41" class="edge"><title>n9&#45;&#45;n10</title>
<path fill="none" stroke="black" d="M173.787,-373.005C163.043,-340.039 140.828,-271.877 129.182,-236.143"/>
</g>
<!-- n0 -->
<g id="node19" class="node"><title>n0</title>
<ellipse fill="none" stroke="black" cx="-117.951" cy="-157.853" rx="19.4965" ry="19.4965"/>
<text text-anchor="middle" x="-117.951" y="-154.153" font-family="Times,serif" font-size="14.00">n0</text>
</g>
<!-- n0&#45;&#45;n5 -->
<g id="edge72" class="edge"><title>n0&#45;&#45;n5</title>
<path fill="none" stroke="black" d="M-110.651,-139.427C-93.2598,-95.5322 -49.5409,14.8131 -32.184,58.6216"/>
</g>
<!-- n0&#45;&#45;n3 -->
<g id="edge73" class="edge"><title>n0&#45;&#45;n3</title>
<path fill="none" stroke="black" d="M-105.885,-142.515C-86.4172,-117.768 -48.276,-69.2841 -28.617,-44.2944"/>
</g>
<!-- n0&#45;&#45;n14 -->
<g id="edge70" class="edge"><title>n0&#45;&#45;n14</title>
<path fill="none" stroke="black" d="M-115.02,-138.514C-112.226,-120.081 -108.01,-92.2663 -104.997,-72.3927"/>
</g>
<!-- n0&#45;&#45;n2 -->
<g id="edge74" class="edge"><title>n0&#45;&#45;n2</title>
<path fill="none" stroke="black" d="M-100.88,-167.748C-84.0869,-177.483 -58.597,-192.258 -41.8412,-201.971"/>
</g>
<!-- n0&#45;&#45;n1 -->
<g id="edge75" class="edge"><title>n0&#45;&#45;n1</title>
<path fill="none" stroke="black" d="M-98.61,-162.113C-68.7088,-168.7 -11.6104,-181.278 18.1422,-187.833"/>
</g>
<!-- n0&#45;&#45;n10 -->
<g id="edge71" class="edge"><title>n0&#45;&#45;n10</title>
<path fill="none" stroke="black" d="M-98.7459,-162.284C-55.2087,-172.329 50.8751,-196.805 98.2102,-207.727"/>
</g>
</g>
</svg>
