<?xml version="1.0" encoding="UTF-8" standalone="no"?>
<!DOCTYPE svg PUBLIC "-//W3C//DTD SVG 1.1//EN"
 "http://www.w3.org/Graphics/SVG/1.1/DTD/svg11.dtd">
<!-- Generated by graphviz version 2.38.0 (20140413.2041)
 -->
<!-- Title: 1 Pages: 1 -->
<svg width="579pt" height="1036pt"
 viewBox="0.00 0.00 578.82 1036.38" xmlns="http://www.w3.org/2000/svg" xmlns:xlink="http://www.w3.org/1999/xlink">
<g id="graph0" class="graph" transform="scale(1 1) rotate(0) translate(307.568 509.564)">
<title>1</title>
<polygon fill="white" stroke="none" points="-307.568,526.811 -307.568,-509.564 271.253,-509.564 271.253,526.811 -307.568,526.811"/>
<!-- n24 -->
<g id="node1" class="node"><title>n24</title>
<ellipse fill="none" stroke="black" cx="-62.0143" cy="136.428" rx="24.0958" ry="24.0958"/>
<text text-anchor="middle" x="-62.0143" y="140.128" font-family="Times,serif" font-size="14.00">n24</text>
</g>
<!-- n23 -->
<g id="node2" class="node"><title>n23</title>
<ellipse fill="none" stroke="black" cx="-6.78606" cy="79.2319" rx="24.0958" ry="24.0958"/>
<text text-anchor="middle" x="-6.78606" y="82.9319" font-family="Times,serif" font-size="14.00">n23</text>
</g>
<!-- n24&#45;&#45;n23 -->
<g id="edge1" class="edge"><title>n24&#45;&#45;n23</title>
<path fill="none" stroke="black" d="M-45.1439,118.956C-38.292,111.86 -30.3945,103.681 -23.5531,96.5963"/>
</g>
<!-- n18 -->
<g id="node3" class="node"><title>n18</title>
<ellipse fill="none" stroke="black" cx="-166.689" cy="145.971" rx="24.0958" ry="24.0958"/>
<text text-anchor="middle" x="-166.689" y="149.671" font-family="Times,serif" font-size="14.00">n18</text>
</g>
<!-- n24&#45;&#45;n18 -->
<g id="edge2" class="edge"><title>n24&#45;&#45;n18</title>
<path fill="none" stroke="black" d="M-86.0287,138.617C-102.929,140.158 -125.468,142.213 -142.424,143.759"/>
</g>
<!-- n23&#45;&#45;n18 -->
<g id="edge3" class="edge"><title>n23&#45;&#45;n18</title>
<path fill="none" stroke="black" d="M-29.0198,88.5117C-59.4839,101.227 -113.887,123.933 -144.387,136.663"/>
</g>
<!-- n22 -->
<g id="node4" class="node"><title>n22</title>
<ellipse fill="none" stroke="black" cx="93.382" cy="198.537" rx="24.0958" ry="24.0958"/>
<text text-anchor="middle" x="93.382" y="202.237" font-family="Times,serif" font-size="14.00">n22</text>
</g>
<!-- n22&#45;&#45;n24 -->
<g id="edge4" class="edge"><title>n22&#45;&#45;n24</title>
<path fill="none" stroke="black" d="M70.7861,189.505C41.2398,177.696 -10.2085,157.133 -39.6431,145.369"/>
</g>
<!-- n22&#45;&#45;n23 -->
<g id="edge5" class="edge"><title>n22&#45;&#45;n23</title>
<path fill="none" stroke="black" d="M77.7308,179.895C58.9126,157.482 27.5244,120.097 8.7553,97.7424"/>
</g>
<!-- n17 -->
<g id="node5" class="node"><title>n17</title>
<ellipse fill="none" stroke="black" cx="-79.4571" cy="240.334" rx="24.0958" ry="24.0958"/>
<text text-anchor="middle" x="-79.4571" y="244.034" font-family="Times,serif" font-size="14.00">n17</text>
</g>
<!-- n22&#45;&#45;n17 -->
<g id="edge6" class="edge"><title>n22&#45;&#45;n17</title>
<path fill="none" stroke="black" d="M69.7119,204.261C36.6135,212.265 -23.1286,226.712 -56.0728,234.679"/>
</g>
<!-- n15 -->
<g id="node6" class="node"><title>n15</title>
<ellipse fill="none" stroke="black" cx="-23.3613" cy="200.457" rx="24.0958" ry="24.0958"/>
<text text-anchor="middle" x="-23.3613" y="204.157" font-family="Times,serif" font-size="14.00">n15</text>
</g>
<!-- n22&#45;&#45;n15 -->
<g id="edge7" class="edge"><title>n22&#45;&#45;n15</title>
<path fill="none" stroke="black" d="M69.1927,198.935C49.1567,199.264 20.8245,199.73 0.796986,200.06"/>
</g>
<!-- n17&#45;&#45;n24 -->
<g id="edge14" class="edge"><title>n17&#45;&#45;n24</title>
<path fill="none" stroke="black" d="M-75.4553,216.496C-72.619,199.599 -68.8296,177.026 -65.9974,160.155"/>
</g>
<!-- n17&#45;&#45;n23 -->
<g id="edge15" class="edge"><title>n17&#45;&#45;n23</title>
<path fill="none" stroke="black" d="M-69.5048,218.271C-55.6273,187.506 -30.6099,132.046 -16.7344,101.286"/>
</g>
<!-- n17&#45;&#45;n18 -->
<g id="edge16" class="edge"><title>n17&#45;&#45;n18</title>
<path fill="none" stroke="black" d="M-95.8647,222.585C-111.46,205.714 -134.783,180.485 -150.355,163.64"/>
</g>
<!-- n17&#45;&#45;n15 -->
<g id="edge17" class="edge"><title>n17&#45;&#45;n15</title>
<path fill="none" stroke="black" d="M-59.8375,226.387C-54.4032,222.524 -48.5036,218.33 -43.0646,214.464"/>
</g>
<!-- n15&#45;&#45;n24 -->
<g id="edge19" class="edge"><title>n15&#45;&#45;n24</title>
<path fill="none" stroke="black" d="M-35.8041,179.846C-40.1297,172.68 -44.9845,164.638 -49.3294,157.44"/>
</g>
<!-- n15&#45;&#45;n23 -->
<g id="edge20" class="edge"><title>n15&#45;&#45;n23</title>
<path fill="none" stroke="black" d="M-20.0866,176.507C-17.1807,155.255 -12.9578,124.37 -10.054,103.132"/>
</g>
<!-- n15&#45;&#45;n18 -->
<g id="edge21" class="edge"><title>n15&#45;&#45;n18</title>
<path fill="none" stroke="black" d="M-46.072,191.824C-72.9097,181.621 -117.293,164.749 -144.084,154.564"/>
</g>
<!-- n21 -->
<g id="node7" class="node"><title>n21</title>
<ellipse fill="none" stroke="black" cx="177.31" cy="339.352" rx="24.0958" ry="24.0958"/>
<text text-anchor="middle" x="177.31" y="343.052" font-family="Times,serif" font-size="14.00">n21</text>
</g>
<!-- n21&#45;&#45;n22 -->
<g id="edge8" class="edge"><title>n21&#45;&#45;n22</title>
<path fill="none" stroke="black" d="M164.926,318.574C149.058,291.951 121.709,246.064 105.817,219.4"/>
</g>
<!-- n20 -->
<g id="node8" class="node"><title>n20</title>
<ellipse fill="none" stroke="black" cx="239.114" cy="252.133" rx="24.0958" ry="24.0958"/>
<text text-anchor="middle" x="239.114" y="255.833" font-family="Times,serif" font-size="14.00">n20</text>
</g>
<!-- n20&#45;&#45;n22 -->
<g id="edge9" class="edge"><title>n20&#45;&#45;n22</title>
<path fill="none" stroke="black" d="M216.344,243.759C188.966,233.69 143.3,216.895 115.993,206.852"/>
</g>
<!-- n19 -->
<g id="node9" class="node"><title>n19</title>
<ellipse fill="none" stroke="black" cx="36.0298" cy="236.181" rx="24.0958" ry="24.0958"/>
<text text-anchor="middle" x="36.0298" y="239.881" font-family="Times,serif" font-size="14.00">n19</text>
</g>
<!-- n19&#45;&#45;n23 -->
<g id="edge10" class="edge"><title>n19&#45;&#45;n23</title>
<path fill="none" stroke="black" d="M29.6199,212.684C21.5249,183.01 7.68028,132.261 -0.402287,102.633"/>
</g>
<!-- n19&#45;&#45;n22 -->
<g id="edge11" class="edge"><title>n19&#45;&#45;n22</title>
<path fill="none" stroke="black" d="M56.4116,222.803C61.8206,219.253 67.6604,215.419 73.066,211.871"/>
</g>
<!-- n19&#45;&#45;n17 -->
<g id="edge12" class="edge"><title>n19&#45;&#45;n17</title>
<path fill="none" stroke="black" d="M11.82,237.051C-7.89018,237.76 -35.5775,238.756 -55.2791,239.464"/>
</g>
<!-- n19&#45;&#45;n15 -->
<g id="edge13" class="edge"><title>n19&#45;&#45;n15</title>
<path fill="none" stroke="black" d="M15.2577,223.687C9.50419,220.226 3.25801,216.469 -2.50052,213.005"/>
</g>
<!-- n16 -->
<g id="node10" class="node"><title>n16</title>
<ellipse fill="none" stroke="black" cx="-209.678" cy="323.466" rx="24.0958" ry="24.0958"/>
<text text-anchor="middle" x="-209.678" y="327.166" font-family="Times,serif" font-size="14.00">n16</text>
</g>
<!-- n16&#45;&#45;n17 -->
<g id="edge18" class="edge"><title>n16&#45;&#45;n17</title>
<path fill="none" stroke="black" d="M-189.331,310.477C-165.01,294.95 -124.538,269.113 -100.091,253.506"/>
</g>
<!-- n14 -->
<g id="node11" class="node"><title>n14</title>
<ellipse fill="none" stroke="black" cx="8.2456" cy="348.338" rx="24.0958" ry="24.0958"/>
<text text-anchor="middle" x="8.2456" y="352.038" font-family="Times,serif" font-size="14.00">n14</text>
</g>
<!-- n14&#45;&#45;n22 -->
<g id="edge22" class="edge"><title>n14&#45;&#45;n22</title>
<path fill="none" stroke="black" d="M20.263,327.193C36.4889,298.643 65.2314,248.069 81.4258,219.574"/>
</g>
<!-- n14&#45;&#45;n17 -->
<g id="edge24" class="edge"><title>n14&#45;&#45;n17</title>
<path fill="none" stroke="black" d="M-7.03103,329.525C-23.0301,309.822 -48.0177,279.051 -64.0612,259.293"/>
</g>
<!-- n14&#45;&#45;n15 -->
<g id="edge25" class="edge"><title>n14&#45;&#45;n15</title>
<path fill="none" stroke="black" d="M3.1674,324.578C-2.73079,296.982 -12.4029,251.729 -18.2957,224.158"/>
</g>
<!-- n14&#45;&#45;n19 -->
<g id="edge23" class="edge"><title>n14&#45;&#45;n19</title>
<path fill="none" stroke="black" d="M14.0701,324.826C18.812,305.684 25.4731,278.795 30.213,259.662"/>
</g>
<!-- n13 -->
<g id="node12" class="node"><title>n13</title>
<ellipse fill="none" stroke="black" cx="243.205" cy="-420.818" rx="24.0958" ry="24.0958"/>
<text text-anchor="middle" x="243.205" y="-417.118" font-family="Times,serif" font-size="14.00">n13</text>
</g>
<!-- n10 -->
<g id="node13" class="node"><title>n10</title>
<ellipse fill="none" stroke="black" cx="79.3404" cy="-381.406" rx="24.0958" ry="24.0958"/>
<text text-anchor="middle" x="79.3404" y="-377.706" font-family="Times,serif" font-size="14.00">n10</text>
</g>
<!-- n13&#45;&#45;n10 -->
<g id="edge26" class="edge"><title>n13&#45;&#45;n10</title>
<path fill="none" stroke="black" d="M219.727,-415.171C188.576,-407.679 133.903,-394.529 102.775,-387.042"/>
</g>
<!-- n12 -->
<g id="node14" class="node"><title>n12</title>
<ellipse fill="none" stroke="black" cx="239.699" cy="153.775" rx="24.0958" ry="24.0958"/>
<text text-anchor="middle" x="239.699" y="157.475" font-family="Times,serif" font-size="14.00">n12</text>
</g>
<!-- n12&#45;&#45;n22 -->
<g id="edge27" class="edge"><title>n12&#45;&#45;n22</title>
<path fill="none" stroke="black" d="M216.515,160.867C189.117,169.249 143.808,183.11 116.458,191.477"/>
</g>
<!-- n11 -->
<g id="node15" class="node"><title>n11</title>
<ellipse fill="none" stroke="black" cx="-4.15094" cy="498.763" rx="24.0958" ry="24.0958"/>
<text text-anchor="middle" x="-4.15094" y="502.463" font-family="Times,serif" font-size="14.00">n11</text>
</g>
<!-- n11&#45;&#45;n14 -->
<g id="edge28" class="edge"><title>n11&#45;&#45;n14</title>
<path fill="none" stroke="black" d="M-2.15922,474.595C0.154109,446.524 3.94761,400.492 6.25883,372.446"/>
</g>
<!-- n9 -->
<g id="node16" class="node"><title>n9</title>
<ellipse fill="none" stroke="black" cx="152.332" cy="-486.066" rx="19.4965" ry="19.4965"/>
<text text-anchor="middle" x="152.332" y="-482.366" font-family="Times,serif" font-size="14.00">n9</text>
</g>
<!-- n9&#45;&#45;n13 -->
<g id="edge29" class="edge"><title>n9&#45;&#45;n13</title>
<path fill="none" stroke="black" d="M168.578,-474.401C183.996,-463.331 207.189,-446.678 223.621,-434.879"/>
</g>
<!-- n9&#45;&#45;n10 -->
<g id="edge30" class="edge"><title>n9&#45;&#45;n10</title>
<path fill="none" stroke="black" d="M140.927,-469.713C128.016,-451.201 106.986,-421.046 93.1554,-401.214"/>
</g>
<!-- n8 -->
<g id="node17" class="node"><title>n8</title>
<ellipse fill="none" stroke="black" cx="163.832" cy="-317.686" rx="19.4965" ry="19.4965"/>
<text text-anchor="middle" x="163.832" y="-313.986" font-family="Times,serif" font-size="14.00">n8</text>
</g>
<!-- n8&#45;&#45;n13 -->
<g id="edge31" class="edge"><title>n8&#45;&#45;n13</title>
<path fill="none" stroke="black" d="M175.887,-333.35C189.938,-351.607 213.164,-381.784 228.325,-401.484"/>
</g>
<!-- n8&#45;&#45;n9 -->
<g id="edge32" class="edge"><title>n8&#45;&#45;n9</title>
<path fill="none" stroke="black" d="M162.491,-337.331C160.275,-369.776 155.876,-434.184 153.665,-466.546"/>
</g>
<!-- n7 -->
<g id="node18" class="node"><title>n7</title>
<ellipse fill="none" stroke="black" cx="-201.931" cy="-141.475" rx="19.4965" ry="19.4965"/>
<text text-anchor="middle" x="-201.931" y="-137.775" font-family="Times,serif" font-size="14.00">n7</text>
</g>
<!-- n5 -->
<g id="node19" class="node"><title>n5</title>
<ellipse fill="none" stroke="black" cx="-284.07" cy="-230.837" rx="19.4965" ry="19.4965"/>
<text text-anchor="middle" x="-284.07" y="-227.137" font-family="Times,serif" font-size="14.00">n5</text>
</g>
<!-- n7&#45;&#45;n5 -->
<g id="edge33" class="edge"><title>n7&#45;&#45;n5</title>
<path fill="none" stroke="black" d="M-215.128,-155.833C-230.365,-172.41 -255.294,-199.531 -270.632,-216.218"/>
</g>
<!-- n4 -->
<g id="node20" class="node"><title>n4</title>
<ellipse fill="none" stroke="black" cx="-223.844" cy="-306.66" rx="19.4965" ry="19.4965"/>
<text text-anchor="middle" x="-223.844" y="-302.96" font-family="Times,serif" font-size="14.00">n4</text>
</g>
<!-- n7&#45;&#45;n4 -->
<g id="edge34" class="edge"><title>n7&#45;&#45;n4</title>
<path fill="none" stroke="black" d="M-204.53,-161.073C-208.748,-192.864 -217.032,-255.313 -221.248,-287.088"/>
</g>
<!-- n5&#45;&#45;n4 -->
<g id="edge38" class="edge"><title>n5&#45;&#45;n4</title>
<path fill="none" stroke="black" d="M-271.882,-246.181C-261.433,-259.336 -246.457,-278.191 -236.014,-291.339"/>
</g>
<!-- n6 -->
<g id="node21" class="node"><title>n6</title>
<ellipse fill="none" stroke="black" cx="-69.8462" cy="-171.732" rx="19.4965" ry="19.4965"/>
<text text-anchor="middle" x="-69.8462" y="-168.032" font-family="Times,serif" font-size="14.00">n6</text>
</g>
<!-- n6&#45;&#45;n7 -->
<g id="edge35" class="edge"><title>n6&#45;&#45;n7</title>
<path fill="none" stroke="black" d="M-89.0524,-167.332C-114.095,-161.596 -157.647,-151.619 -182.701,-145.88"/>
</g>
<!-- n3 -->
<g id="node22" class="node"><title>n3</title>
<ellipse fill="none" stroke="black" cx="-117.954" cy="-220.603" rx="19.4965" ry="19.4965"/>
<text text-anchor="middle" x="-117.954" y="-216.903" font-family="Times,serif" font-size="14.00">n3</text>
</g>
<!-- n6&#45;&#45;n3 -->
<g id="edge36" class="edge"><title>n6&#45;&#45;n3</title>
<path fill="none" stroke="black" d="M-83.7611,-185.867C-90.1991,-192.408 -97.8233,-200.153 -104.237,-206.668"/>
</g>
<!-- n2 -->
<g id="node23" class="node"><title>n2</title>
<ellipse fill="none" stroke="black" cx="-46.0202" cy="-77.7772" rx="19.4965" ry="19.4965"/>
<text text-anchor="middle" x="-46.0202" y="-74.0772" font-family="Times,serif" font-size="14.00">n2</text>
</g>
<!-- n6&#45;&#45;n2 -->
<g id="edge37" class="edge"><title>n6&#45;&#45;n2</title>
<path fill="none" stroke="black" d="M-65.0247,-152.719C-60.891,-136.418 -54.9662,-113.055 -50.8346,-96.762"/>
</g>
<!-- n3&#45;&#45;n7 -->
<g id="edge39" class="edge"><title>n3&#45;&#45;n7</title>
<path fill="none" stroke="black" d="M-132.2,-207.18C-147.642,-192.63 -172.146,-169.54 -187.615,-154.964"/>
</g>
<!-- n3&#45;&#45;n5 -->
<g id="edge40" class="edge"><title>n3&#45;&#45;n5</title>
<path fill="none" stroke="black" d="M-137.662,-221.817C-169.633,-223.787 -232.433,-227.656 -264.387,-229.624"/>
</g>
<!-- n3&#45;&#45;n4 -->
<g id="edge41" class="edge"><title>n3&#45;&#45;n4</title>
<path fill="none" stroke="black" d="M-133.126,-232.933C-153.255,-249.293 -188.585,-278.005 -208.701,-294.353"/>
</g>
<!-- n2&#45;&#45;n23 -->
<g id="edge42" class="edge"><title>n2&#45;&#45;n23</title>
<path fill="none" stroke="black" d="M-41.2877,-58.8382C-34.0932,-30.0469 -20.419,24.6749 -12.6199,55.8857"/>
</g>
<!-- n2&#45;&#45;n7 -->
<g id="edge43" class="edge"><title>n2&#45;&#45;n7</title>
<path fill="none" stroke="black" d="M-64.2103,-85.2088C-94.2526,-97.4828 -153.89,-121.848 -183.856,-134.091"/>
</g>
<!-- n2&#45;&#45;n3 -->
<g id="edge44" class="edge"><title>n2&#45;&#45;n3</title>
<path fill="none" stroke="black" d="M-54.8408,-95.2905C-68.6469,-122.703 -95.2113,-175.447 -109.062,-202.947"/>
</g>
<!-- n1 -->
<g id="node24" class="node"><title>n1</title>
<ellipse fill="none" stroke="black" cx="36.9612" cy="-155.756" rx="19.4965" ry="19.4965"/>
<text text-anchor="middle" x="36.9612" y="-152.056" font-family="Times,serif" font-size="14.00">n1</text>
</g>
<!-- n1&#45;&#45;n3 -->
<g id="edge45" class="edge"><title>n1&#45;&#45;n3</title>
<path fill="none" stroke="black" d="M18.8873,-163.322C-10.8037,-175.75 -69.5877,-200.357 -99.5153,-212.885"/>
</g>
<!-- n1&#45;&#45;n2 -->
<g id="edge46" class="edge"><title>n1&#45;&#45;n2</title>
<path fill="none" stroke="black" d="M22.507,-142.173C7.27628,-127.861 -16.5637,-105.458 -31.7316,-91.2045"/>
</g>
<!-- n0 -->
<g id="node25" class="node"><title>n0</title>
<ellipse fill="none" stroke="black" cx="26.3488" cy="-242.149" rx="19.4965" ry="19.4965"/>
<text text-anchor="middle" x="26.3488" y="-238.449" font-family="Times,serif" font-size="14.00">n0</text>
</g>
<!-- n0&#45;&#45;n10 -->
<g id="edge47" class="edge"><title>n0&#45;&#45;n10</title>
<path fill="none" stroke="black" d="M33.3856,-260.641C43.0143,-285.944 60.2839,-331.327 70.6904,-358.674"/>
</g>
<!-- n0&#45;&#45;n8 -->
<g id="edge48" class="edge"><title>n0&#45;&#45;n8</title>
<path fill="none" stroke="black" d="M43.4832,-251.563C69.8287,-266.038 120.007,-293.607 146.482,-308.153"/>
</g>
<!-- n0&#45;&#45;n6 -->
<g id="edge49" class="edge"><title>n0&#45;&#45;n6</title>
<path fill="none" stroke="black" d="M10.4641,-230.521C-7.35925,-217.474 -36.1049,-196.431 -53.938,-183.377"/>
</g>
<!-- n0&#45;&#45;n3 -->
<g id="edge50" class="edge"><title>n0&#45;&#45;n3</title>
<path fill="none" stroke="black" d="M6.88741,-239.243C-20.6538,-235.131 -70.7163,-227.656 -98.3404,-223.532"/>
</g>
<!-- n0&#45;&#45;n2 -->
<g id="edge51" class="edge"><title>n0&#45;&#45;n2</title>
<path fill="none" stroke="black" d="M18.4663,-224.246C4.54545,-192.627 -24.2335,-127.261 -38.1474,-95.6587"/>
</g>
<!-- n0&#45;&#45;n1 -->
<g id="edge52" class="edge"><title>n0&#45;&#45;n1</title>
<path fill="none" stroke="black" d="M28.7569,-222.545C30.4937,-208.407 32.828,-189.403 34.5626,-175.283"/>
</g>
</g>
</svg>
