<?xml version="1.0" encoding="UTF-8" standalone="no"?>
<!DOCTYPE svg PUBLIC "-//W3C//DTD SVG 1.1//EN"
 "http://www.w3.org/Graphics/SVG/1.1/DTD/svg11.dtd">
<!-- Generated by graphviz version 2.38.0 (20140413.2041)
 -->
<!-- Title: 1 Pages: 1 -->
<svg width="479pt" height="665pt"
 viewBox="0.00 0.00 479.03 664.66" xmlns="http://www.w3.org/2000/svg" xmlns:xlink="http://www.w3.org/1999/xlink">
<g id="graph0" class="graph" transform="scale(1 1) rotate(0) translate(240.496 367.278)">
<title>1</title>
<polygon fill="white" stroke="none" points="-240.496,297.378 -240.496,-367.278 238.531,-367.278 238.531,297.378 -240.496,297.378"/>
<!-- n18 -->
<g id="node1" class="node"><title>n18</title>
<ellipse fill="none" stroke="black" cx="-212.448" cy="102.925" rx="24.0958" ry="24.0958"/>
<text text-anchor="middle" x="-212.448" y="106.625" font-family="Times,serif" font-size="14.00">n18</text>
</g>
<!-- n5 -->
<g id="node2" class="node"><title>n5</title>
<ellipse fill="none" stroke="black" cx="-35.8597" cy="68.5142" rx="19.4965" ry="19.4965"/>
<text text-anchor="middle" x="-35.8597" y="72.2142" font-family="Times,serif" font-size="14.00">n5</text>
</g>
<!-- n18&#45;&#45;n5 -->
<g id="edge1" class="edge"><title>n18&#45;&#45;n5</title>
<path fill="none" stroke="black" d="M-188.633,98.2839C-153.329,91.4046 -87.786,78.6327 -55.2378,72.2903"/>
</g>
<!-- n3 -->
<g id="node3" class="node"><title>n3</title>
<ellipse fill="none" stroke="black" cx="-25.7116" cy="-25.3707" rx="19.4965" ry="19.4965"/>
<text text-anchor="middle" x="-25.7116" y="-21.6707" font-family="Times,serif" font-size="14.00">n3</text>
</g>
<!-- n18&#45;&#45;n3 -->
<g id="edge2" class="edge"><title>n18&#45;&#45;n3</title>
<path fill="none" stroke="black" d="M-195.274,85.861C-159.986,57.5741 -79.9234,2.71539 -43.8403,-17.7386"/>
</g>
<!-- n17 -->
<g id="node4" class="node"><title>n17</title>
<ellipse fill="none" stroke="black" cx="-108.501" cy="150.034" rx="24.0958" ry="24.0958"/>
<text text-anchor="middle" x="-108.501" y="153.734" font-family="Times,serif" font-size="14.00">n17</text>
</g>
<!-- n5&#45;&#45;n17 -->
<g id="edge49" class="edge"><title>n5&#45;&#45;n17</title>
<path fill="none" stroke="black" d="M-48.8466,83.0884C-61.0077,96.7359 -79.2211,117.176 -92.3219,131.878"/>
</g>
<!-- n16 -->
<g id="node5" class="node"><title>n16</title>
<ellipse fill="none" stroke="black" cx="-52.4055" cy="146.182" rx="24.0958" ry="24.0958"/>
<text text-anchor="middle" x="-52.4055" y="149.882" font-family="Times,serif" font-size="14.00">n16</text>
</g>
<!-- n5&#45;&#45;n16 -->
<g id="edge50" class="edge"><title>n5&#45;&#45;n16</title>
<path fill="none" stroke="black" d="M-39.9497,87.7129C-42.189,98.2244 -44.9832,111.341 -47.3573,122.485"/>
</g>
<!-- n8 -->
<g id="node7" class="node"><title>n8</title>
<ellipse fill="none" stroke="black" cx="115.531" cy="180.76" rx="19.4965" ry="19.4965"/>
<text text-anchor="middle" x="115.531" y="184.46" font-family="Times,serif" font-size="14.00">n8</text>
</g>
<!-- n5&#45;&#45;n8 -->
<g id="edge52" class="edge"><title>n5&#45;&#45;n8</title>
<path fill="none" stroke="black" d="M-19.9444,80.3144C9.2073,101.928 70.8363,147.622 99.8288,169.118"/>
</g>
<!-- n7 -->
<g id="node8" class="node"><title>n7</title>
<ellipse fill="none" stroke="black" cx="42.5474" cy="269.149" rx="19.4965" ry="19.4965"/>
<text text-anchor="middle" x="42.5474" y="272.849" font-family="Times,serif" font-size="14.00">n7</text>
</g>
<!-- n5&#45;&#45;n7 -->
<g id="edge53" class="edge"><title>n5&#45;&#45;n7</title>
<path fill="none" stroke="black" d="M-28.6239,87.0299C-13.6491,125.349 20.5804,212.938 35.4423,250.968"/>
</g>
<!-- n6 -->
<g id="node9" class="node"><title>n6</title>
<ellipse fill="none" stroke="black" cx="-47.8466" cy="273.88" rx="19.4965" ry="19.4965"/>
<text text-anchor="middle" x="-47.8466" y="277.58" font-family="Times,serif" font-size="14.00">n6</text>
</g>
<!-- n5&#45;&#45;n6 -->
<g id="edge54" class="edge"><title>n5&#45;&#45;n6</title>
<path fill="none" stroke="black" d="M-37.0091,88.2056C-39.3002,127.459 -44.4124,215.043 -46.7007,254.248"/>
</g>
<!-- n4 -->
<g id="node10" class="node"><title>n4</title>
<ellipse fill="none" stroke="black" cx="81.3676" cy="125.935" rx="19.4965" ry="19.4965"/>
<text text-anchor="middle" x="81.3676" y="129.635" font-family="Times,serif" font-size="14.00">n4</text>
</g>
<!-- n5&#45;&#45;n4 -->
<g id="edge55" class="edge"><title>n5&#45;&#45;n4</title>
<path fill="none" stroke="black" d="M-18.3096,77.1107C3.79014,87.9357 41.5413,106.427 63.6975,117.28"/>
</g>
<!-- n12 -->
<g id="node13" class="node"><title>n12</title>
<ellipse fill="none" stroke="black" cx="105.583" cy="-63.6447" rx="24.0958" ry="24.0958"/>
<text text-anchor="middle" x="105.583" y="-59.9447" font-family="Times,serif" font-size="14.00">n12</text>
</g>
<!-- n5&#45;&#45;n12 -->
<g id="edge51" class="edge"><title>n5&#45;&#45;n12</title>
<path fill="none" stroke="black" d="M-21.5191,55.1148C4.46671,30.8346 59.2715,-20.3732 87.6722,-46.9098"/>
</g>
<!-- n3&#45;&#45;n18 -->
<g id="edge57" class="edge"><title>n3&#45;&#45;n18</title>
<path fill="none" stroke="black" d="M-39.379,-11.1521C-71.4049,15.1771 -151.134,70.1037 -190.227,92.9359"/>
</g>
<!-- n3&#45;&#45;n5 -->
<g id="edge61" class="edge"><title>n3&#45;&#45;n5</title>
<path fill="none" stroke="black" d="M-27.8143,-5.91768C-29.556,10.1953 -32.0188,32.98 -33.7597,49.0861"/>
</g>
<!-- n3&#45;&#45;n4 -->
<g id="edge62" class="edge"><title>n3&#45;&#45;n4</title>
<path fill="none" stroke="black" d="M-14.2522,-9.17833C6.35748,19.9438 49.441,80.822 69.9906,109.859"/>
</g>
<!-- n13 -->
<g id="node12" class="node"><title>n13</title>
<ellipse fill="none" stroke="black" cx="39.9305" cy="-92.8909" rx="24.0958" ry="24.0958"/>
<text text-anchor="middle" x="39.9305" y="-89.1909" font-family="Times,serif" font-size="14.00">n13</text>
</g>
<!-- n3&#45;&#45;n13 -->
<g id="edge58" class="edge"><title>n3&#45;&#45;n13</title>
<path fill="none" stroke="black" d="M-12.1105,-39.3609C-1.89619,-49.8675 12.1528,-64.3184 23.0793,-75.5576"/>
</g>
<!-- n3&#45;&#45;n12 -->
<g id="edge59" class="edge"><title>n3&#45;&#45;n12</title>
<path fill="none" stroke="black" d="M-6.90034,-30.8544C16.6405,-37.7169 56.9477,-49.467 82.379,-56.8806"/>
</g>
<!-- n11 -->
<g id="node14" class="node"><title>n11</title>
<ellipse fill="none" stroke="black" cx="167.824" cy="-21.8376" rx="24.0958" ry="24.0958"/>
<text text-anchor="middle" x="167.824" y="-18.1376" font-family="Times,serif" font-size="14.00">n11</text>
</g>
<!-- n3&#45;&#45;n11 -->
<g id="edge60" class="edge"><title>n3&#45;&#45;n11</title>
<path fill="none" stroke="black" d="M-6.08927,-25.0125C29.5633,-24.3616 104.862,-22.987 143.632,-22.2792"/>
</g>
<!-- n17&#45;&#45;n18 -->
<g id="edge3" class="edge"><title>n17&#45;&#45;n18</title>
<path fill="none" stroke="black" d="M-130.546,140.044C-148.186,132.049 -172.804,120.892 -190.436,112.901"/>
</g>
<!-- n17&#45;&#45;n3 -->
<g id="edge10" class="edge"><title>n17&#45;&#45;n3</title>
<path fill="none" stroke="black" d="M-98.1833,128.174C-81.625,93.0923 -49.433,24.8875 -34.153,-7.48608"/>
</g>
<!-- n17&#45;&#45;n16 -->
<g id="edge4" class="edge"><title>n17&#45;&#45;n16</title>
<path fill="none" stroke="black" d="M-84.386,148.378C-81.7729,148.199 -79.1132,148.016 -76.5003,147.836"/>
</g>
<!-- n15 -->
<g id="node6" class="node"><title>n15</title>
<ellipse fill="none" stroke="black" cx="-208.852" cy="16.5949" rx="24.0958" ry="24.0958"/>
<text text-anchor="middle" x="-208.852" y="20.2949" font-family="Times,serif" font-size="14.00">n15</text>
</g>
<!-- n17&#45;&#45;n15 -->
<g id="edge5" class="edge"><title>n17&#45;&#45;n15</title>
<path fill="none" stroke="black" d="M-123.093,130.631C-142.119,105.332 -175.208,61.3323 -194.242,36.0216"/>
</g>
<!-- n17&#45;&#45;n8 -->
<g id="edge6" class="edge"><title>n17&#45;&#45;n8</title>
<path fill="none" stroke="black" d="M-84.5259,153.323C-39.9386,159.438 54.9233,172.448 95.9498,178.075"/>
</g>
<!-- n17&#45;&#45;n7 -->
<g id="edge7" class="edge"><title>n17&#45;&#45;n7</title>
<path fill="none" stroke="black" d="M-89.3708,165.12C-59.0458,189.034 -0.538317,235.172 27.2175,257.06"/>
</g>
<!-- n17&#45;&#45;n6 -->
<g id="edge8" class="edge"><title>n17&#45;&#45;n6</title>
<path fill="none" stroke="black" d="M-97.797,171.89C-86.0298,195.917 -67.3553,234.047 -56.483,256.246"/>
</g>
<!-- n17&#45;&#45;n4 -->
<g id="edge9" class="edge"><title>n17&#45;&#45;n4</title>
<path fill="none" stroke="black" d="M-84.4542,146.982C-46.4353,142.157 26.8238,132.858 61.823,128.416"/>
</g>
<!-- n16&#45;&#45;n18 -->
<g id="edge11" class="edge"><title>n16&#45;&#45;n18</title>
<path fill="none" stroke="black" d="M-75.6771,139.892C-106.02,131.69 -158.792,117.427 -189.149,109.222"/>
</g>
<!-- n16&#45;&#45;n3 -->
<g id="edge17" class="edge"><title>n16&#45;&#45;n3</title>
<path fill="none" stroke="black" d="M-48.6938,122.328C-43.3647,88.0793 -33.6473,25.6291 -28.7315,-5.9626"/>
</g>
<!-- n16&#45;&#45;n15 -->
<g id="edge12" class="edge"><title>n16&#45;&#45;n15</title>
<path fill="none" stroke="black" d="M-70.9663,130.807C-101.076,105.867 -160.221,56.8763 -190.315,31.9491"/>
</g>
<!-- n16&#45;&#45;n8 -->
<g id="edge13" class="edge"><title>n16&#45;&#45;n8</title>
<path fill="none" stroke="black" d="M-28.7005,151.062C4.75253,157.951 65.1777,170.392 96.1216,176.764"/>
</g>
<!-- n16&#45;&#45;n7 -->
<g id="edge14" class="edge"><title>n16&#45;&#45;n7</title>
<path fill="none" stroke="black" d="M-37.5691,165.395C-18.7918,189.713 13.1883,231.128 30.5216,253.575"/>
</g>
<!-- n16&#45;&#45;n6 -->
<g id="edge15" class="edge"><title>n16&#45;&#45;n6</title>
<path fill="none" stroke="black" d="M-51.5373,170.501C-50.6692,194.816 -49.351,231.739 -48.5473,254.251"/>
</g>
<!-- n16&#45;&#45;n4 -->
<g id="edge16" class="edge"><title>n16&#45;&#45;n4</title>
<path fill="none" stroke="black" d="M-28.4895,142.562C-2.63721,138.649 38.0673,132.489 61.9963,128.867"/>
</g>
<!-- n15&#45;&#45;n18 -->
<g id="edge18" class="edge"><title>n15&#45;&#45;n18</title>
<path fill="none" stroke="black" d="M-209.854,40.6426C-210.348,52.5167 -210.944,66.8095 -211.439,78.7066"/>
</g>
<!-- n15&#45;&#45;n5 -->
<g id="edge19" class="edge"><title>n15&#45;&#45;n5</title>
<path fill="none" stroke="black" d="M-185.521,23.597C-150.845,34.0044 -86.3858,53.3501 -54.5887,62.8932"/>
</g>
<!-- n15&#45;&#45;n3 -->
<g id="edge20" class="edge"><title>n15&#45;&#45;n3</title>
<path fill="none" stroke="black" d="M-185.284,11.1946C-148.573,2.78244 -78.4558,-13.2846 -44.7415,-21.0101"/>
</g>
<!-- n8&#45;&#45;n7 -->
<g id="edge43" class="edge"><title>n8&#45;&#45;n7</title>
<path fill="none" stroke="black" d="M102.818,196.156C89.4225,212.38 68.4549,237.773 55.1145,253.929"/>
</g>
<!-- n8&#45;&#45;n6 -->
<g id="edge44" class="edge"><title>n8&#45;&#45;n6</title>
<path fill="none" stroke="black" d="M98.3554,190.55C66.8955,208.481 0.38684,246.389 -30.9012,264.222"/>
</g>
<!-- n8&#45;&#45;n4 -->
<g id="edge45" class="edge"><title>n8&#45;&#45;n4</title>
<path fill="none" stroke="black" d="M105.095,164.013C100.857,157.211 95.9714,149.371 91.7394,142.58"/>
</g>
<!-- n8&#45;&#45;n11 -->
<g id="edge42" class="edge"><title>n8&#45;&#45;n11</title>
<path fill="none" stroke="black" d="M120.45,161.7C130.061,124.466 151.303,42.1714 161.763,1.64584"/>
</g>
<!-- n7&#45;&#45;n6 -->
<g id="edge46" class="edge"><title>n7&#45;&#45;n6</title>
<path fill="none" stroke="black" d="M22.9333,270.176C7.77117,270.969 -13.1182,272.062 -28.2707,272.855"/>
</g>
<!-- n7&#45;&#45;n4 -->
<g id="edge47" class="edge"><title>n7&#45;&#45;n4</title>
<path fill="none" stroke="black" d="M47.7024,250.131C55.1273,222.74 68.7545,172.467 76.1913,145.032"/>
</g>
<!-- n6&#45;&#45;n4 -->
<g id="edge48" class="edge"><title>n6&#45;&#45;n4</title>
<path fill="none" stroke="black" d="M-34.9846,259.154C-10.3445,230.942 43.2746,169.55 68.173,141.042"/>
</g>
<!-- n4&#45;&#45;n11 -->
<g id="edge56" class="edge"><title>n4&#45;&#45;n11</title>
<path fill="none" stroke="black" d="M91.2853,108.984C107.164,81.8435 138.258,28.6978 155.526,-0.817376"/>
</g>
<!-- n14 -->
<g id="node11" class="node"><title>n14</title>
<ellipse fill="none" stroke="black" cx="-110.895" cy="-52.4335" rx="24.0958" ry="24.0958"/>
<text text-anchor="middle" x="-110.895" y="-48.7335" font-family="Times,serif" font-size="14.00">n14</text>
</g>
<!-- n14&#45;&#45;n5 -->
<g id="edge24" class="edge"><title>n14&#45;&#45;n5</title>
<path fill="none" stroke="black" d="M-98.1665,-31.9164C-83.5322,-8.32766 -59.7897,29.9421 -46.2303,51.7982"/>
</g>
<!-- n14&#45;&#45;n3 -->
<g id="edge25" class="edge"><title>n14&#45;&#45;n3</title>
<path fill="none" stroke="black" d="M-87.6185,-45.0385C-74.0226,-40.7191 -57.0954,-35.3413 -44.3792,-31.3014"/>
</g>
<!-- n14&#45;&#45;n17 -->
<g id="edge21" class="edge"><title>n14&#45;&#45;n17</title>
<path fill="none" stroke="black" d="M-110.607,-28.0112C-110.145,11.0093 -109.247,86.965 -108.787,125.841"/>
</g>
<!-- n14&#45;&#45;n16 -->
<g id="edge22" class="edge"><title>n14&#45;&#45;n16</title>
<path fill="none" stroke="black" d="M-104.071,-29.2611C-92.8311,8.90759 -70.5473,84.5769 -59.2764,122.85"/>
</g>
<!-- n14&#45;&#45;n15 -->
<g id="edge23" class="edge"><title>n14&#45;&#45;n15</title>
<path fill="none" stroke="black" d="M-130.718,-38.4646C-147.713,-26.4885 -172.072,-9.32335 -189.058,2.64678"/>
</g>
<!-- n13&#45;&#45;n5 -->
<g id="edge29" class="edge"><title>n13&#45;&#45;n5</title>
<path fill="none" stroke="black" d="M29.7091,-71.1231C14.5975,-38.9411 -13.4235,20.7334 -27.4308,50.5637"/>
</g>
<!-- n13&#45;&#45;n14 -->
<g id="edge26" class="edge"><title>n13&#45;&#45;n14</title>
<path fill="none" stroke="black" d="M16.6945,-86.6581C-11.5658,-79.0776 -59.0004,-66.3538 -87.3844,-58.7401"/>
</g>
<!-- n13&#45;&#45;n12 -->
<g id="edge27" class="edge"><title>n13&#45;&#45;n12</title>
<path fill="none" stroke="black" d="M62.1573,-82.9895C69.002,-79.9404 76.5355,-76.5844 83.3787,-73.536"/>
</g>
<!-- n13&#45;&#45;n11 -->
<g id="edge28" class="edge"><title>n13&#45;&#45;n11</title>
<path fill="none" stroke="black" d="M61.0496,-81.1579C84.7463,-67.9929 122.964,-46.7602 146.674,-33.588"/>
</g>
<!-- n12&#45;&#45;n14 -->
<g id="edge30" class="edge"><title>n12&#45;&#45;n14</title>
<path fill="none" stroke="black" d="M81.1706,-62.3804C39.4838,-60.2215 -44.9468,-55.8489 -86.5725,-53.6932"/>
</g>
<!-- n12&#45;&#45;n11 -->
<g id="edge31" class="edge"><title>n12&#45;&#45;n11</title>
<path fill="none" stroke="black" d="M125.619,-50.1865C132.726,-45.4125 140.721,-40.0425 147.826,-35.2705"/>
</g>
<!-- n2 -->
<g id="node15" class="node"><title>n2</title>
<ellipse fill="none" stroke="black" cx="-22.7996" cy="-199.059" rx="19.4965" ry="19.4965"/>
<text text-anchor="middle" x="-22.7996" y="-195.359" font-family="Times,serif" font-size="14.00">n2</text>
</g>
<!-- n12&#45;&#45;n2 -->
<g id="edge32" class="edge"><title>n12&#45;&#45;n2</title>
<path fill="none" stroke="black" d="M88.7988,-81.3477C63.107,-108.447 14.523,-159.692 -9.14788,-184.659"/>
</g>
<!-- n11&#45;&#45;n2 -->
<g id="edge33" class="edge"><title>n11&#45;&#45;n2</title>
<path fill="none" stroke="black" d="M149.891,-38.5101C112.262,-73.4933 25.7225,-153.948 -8.49743,-185.762"/>
</g>
<!-- n1 -->
<g id="node16" class="node"><title>n1</title>
<ellipse fill="none" stroke="black" cx="40.4271" cy="-190.66" rx="19.4965" ry="19.4965"/>
<text text-anchor="middle" x="40.4271" y="-186.96" font-family="Times,serif" font-size="14.00">n1</text>
</g>
<!-- n11&#45;&#45;n1 -->
<g id="edge34" class="edge"><title>n11&#45;&#45;n1</title>
<path fill="none" stroke="black" d="M153.21,-41.2036C127.721,-74.9813 75.6244,-144.018 52.2445,-175"/>
</g>
<!-- n2&#45;&#45;n3 -->
<g id="edge65" class="edge"><title>n2&#45;&#45;n3</title>
<path fill="none" stroke="black" d="M-23.128,-179.472C-23.6888,-146.025 -24.8245,-78.2835 -25.3844,-44.8857"/>
</g>
<!-- n2&#45;&#45;n14 -->
<g id="edge63" class="edge"><title>n2&#45;&#45;n14</title>
<path fill="none" stroke="black" d="M-32.9053,-182.239C-49.0852,-155.309 -80.7683,-102.576 -98.364,-73.2905"/>
</g>
<!-- n2&#45;&#45;n13 -->
<g id="edge64" class="edge"><title>n2&#45;&#45;n13</title>
<path fill="none" stroke="black" d="M-12.7209,-182.001C-1.77676,-163.478 15.7142,-133.876 27.5019,-113.926"/>
</g>
<!-- n1&#45;&#45;n3 -->
<g id="edge69" class="edge"><title>n1&#45;&#45;n3</title>
<path fill="none" stroke="black" d="M33.0964,-172.339C20.3496,-140.483 -5.74964,-75.2581 -18.4489,-43.5212"/>
</g>
<!-- n1&#45;&#45;n14 -->
<g id="edge66" class="edge"><title>n1&#45;&#45;n14</title>
<path fill="none" stroke="black" d="M25.9177,-177.406C-1.89659,-151.999 -62.6428,-96.51 -92.9517,-68.8241"/>
</g>
<!-- n1&#45;&#45;n13 -->
<g id="edge67" class="edge"><title>n1&#45;&#45;n13</title>
<path fill="none" stroke="black" d="M40.3266,-170.875C40.2478,-155.363 40.1378,-133.705 40.0537,-117.149"/>
</g>
<!-- n1&#45;&#45;n12 -->
<g id="edge68" class="edge"><title>n1&#45;&#45;n12</title>
<path fill="none" stroke="black" d="M49.3501,-173.265C61.1302,-150.301 81.8634,-109.883 94.5949,-85.0643"/>
</g>
<!-- n1&#45;&#45;n2 -->
<g id="edge70" class="edge"><title>n1&#45;&#45;n2</title>
<path fill="none" stroke="black" d="M20.7684,-193.271C13.0832,-194.292 4.29271,-195.46 -3.37019,-196.478"/>
</g>
<!-- n10 -->
<g id="node17" class="node"><title>n10</title>
<ellipse fill="none" stroke="black" cx="129.069" cy="-185.169" rx="24.0958" ry="24.0958"/>
<text text-anchor="middle" x="129.069" y="-181.469" font-family="Times,serif" font-size="14.00">n10</text>
</g>
<!-- n10&#45;&#45;n3 -->
<g id="edge38" class="edge"><title>n10&#45;&#45;n3</title>
<path fill="none" stroke="black" d="M112.21,-167.763C81.3397,-135.892 16.3065,-68.7509 -12.03,-39.4958"/>
</g>
<!-- n10&#45;&#45;n13 -->
<g id="edge35" class="edge"><title>n10&#45;&#45;n13</title>
<path fill="none" stroke="black" d="M112.303,-167.812C96.467,-151.419 72.8346,-126.954 56.9246,-110.484"/>
</g>
<!-- n10&#45;&#45;n12 -->
<g id="edge36" class="edge"><title>n10&#45;&#45;n12</title>
<path fill="none" stroke="black" d="M124.485,-161.449C120.346,-140.036 114.29,-108.699 110.155,-87.3044"/>
</g>
<!-- n10&#45;&#45;n11 -->
<g id="edge37" class="edge"><title>n10&#45;&#45;n11</title>
<path fill="none" stroke="black" d="M134.622,-161.767C141.968,-130.806 154.846,-76.5323 162.219,-45.4605"/>
</g>
<!-- n10&#45;&#45;n2 -->
<g id="edge39" class="edge"><title>n10&#45;&#45;n2</title>
<path fill="none" stroke="black" d="M105.005,-187.37C75.0624,-190.108 24.5081,-194.732 -3.19459,-197.266"/>
</g>
<!-- n10&#45;&#45;n1 -->
<g id="edge40" class="edge"><title>n10&#45;&#45;n1</title>
<path fill="none" stroke="black" d="M104.847,-186.669C90.8019,-187.539 73.34,-188.621 60.1409,-189.438"/>
</g>
<!-- n9 -->
<g id="node18" class="node"><title>n9</title>
<ellipse fill="none" stroke="black" cx="215.033" cy="-343.78" rx="19.4965" ry="19.4965"/>
<text text-anchor="middle" x="215.033" y="-340.08" font-family="Times,serif" font-size="14.00">n9</text>
</g>
<!-- n9&#45;&#45;n10 -->
<g id="edge41" class="edge"><title>n9&#45;&#45;n10</title>
<path fill="none" stroke="black" d="M205.67,-326.504C189.83,-297.278 157.796,-238.173 140.6,-206.444"/>
</g>
<!-- n0 -->
<g id="node19" class="node"><title>n0</title>
<ellipse fill="none" stroke="black" cx="-111.993" cy="-159.13" rx="19.4965" ry="19.4965"/>
<text text-anchor="middle" x="-111.993" y="-155.43" font-family="Times,serif" font-size="14.00">n0</text>
</g>
<!-- n0&#45;&#45;n5 -->
<g id="edge73" class="edge"><title>n0&#45;&#45;n5</title>
<path fill="none" stroke="black" d="M-105.763,-140.501C-91.4507,-97.7071 -56.3611,7.21338 -42.0693,49.947"/>
</g>
<!-- n0&#45;&#45;n3 -->
<g id="edge74" class="edge"><title>n0&#45;&#45;n3</title>
<path fill="none" stroke="black" d="M-101.413,-142.728C-84.8534,-117.056 -52.9907,-67.6607 -36.3779,-41.9063"/>
</g>
<!-- n0&#45;&#45;n14 -->
<g id="edge71" class="edge"><title>n0&#45;&#45;n14</title>
<path fill="none" stroke="black" d="M-111.792,-139.56C-111.61,-121.873 -111.341,-95.7702 -111.145,-76.7488"/>
</g>
<!-- n0&#45;&#45;n2 -->
<g id="edge75" class="edge"><title>n0&#45;&#45;n2</title>
<path fill="none" stroke="black" d="M-93.9433,-167.21C-78.4686,-174.137 -56.2892,-184.066 -40.8224,-190.99"/>
</g>
<!-- n0&#45;&#45;n1 -->
<g id="edge76" class="edge"><title>n0&#45;&#45;n1</title>
<path fill="none" stroke="black" d="M-92.6887,-163.123C-63.3701,-169.188 -7.94552,-180.653 21.2798,-186.699"/>
</g>
<!-- n0&#45;&#45;n10 -->
<g id="edge72" class="edge"><title>n0&#45;&#45;n10</title>
<path fill="none" stroke="black" d="M-92.2657,-161.261C-48.4116,-165.998 57.0553,-177.39 104.827,-182.55"/>
</g>
</g>
</svg>
