<?xml version="1.0" encoding="UTF-8" standalone="no"?>
<!DOCTYPE svg PUBLIC "-//W3C//DTD SVG 1.1//EN"
 "http://www.w3.org/Graphics/SVG/1.1/DTD/svg11.dtd">
<!-- Generated by graphviz version 2.38.0 (20140413.2041)
 -->
<!-- Title: 1 Pages: 1 -->
<svg width="584pt" height="462pt"
 viewBox="0.00 0.00 583.54 461.50" xmlns="http://www.w3.org/2000/svg" xmlns:xlink="http://www.w3.org/1999/xlink">
<g id="graph0" class="graph" transform="scale(1 1) rotate(0) translate(285.461 227.781)">
<title>1</title>
<polygon fill="white" stroke="none" points="-285.461,233.721 -285.461,-227.781 298.077,-227.781 298.077,233.721 -285.461,233.721"/>
<!-- n20 -->
<g id="node1" class="node"><title>n20</title>
<ellipse fill="none" stroke="black" cx="-243.452" cy="14.506" rx="24.0958" ry="24.0958"/>
<text text-anchor="middle" x="-243.452" y="18.206" font-family="Times,serif" font-size="14.00">n20</text>
</g>
<!-- n19 -->
<g id="node2" class="node"><title>n19</title>
<ellipse fill="none" stroke="black" cx="136.415" cy="-9.35628" rx="24.0958" ry="24.0958"/>
<text text-anchor="middle" x="136.415" y="-5.65628" font-family="Times,serif" font-size="14.00">n19</text>
</g>
<!-- n20&#45;&#45;n19 -->
<g id="edge202" class="edge"><title>n20&#45;&#45;n19</title>
<path fill="none" stroke="black" d="M-219.402,12.9952C-151.067,8.70256 43.718,-3.53329 112.225,-7.83671"/>
</g>
<!-- n18 -->
<g id="node3" class="node"><title>n18</title>
<ellipse fill="none" stroke="black" cx="-220.698" cy="117.546" rx="24.0958" ry="24.0958"/>
<text text-anchor="middle" x="-220.698" y="121.246" font-family="Times,serif" font-size="14.00">n18</text>
</g>
<!-- n20&#45;&#45;n18 -->
<g id="edge201" class="edge"><title>n20&#45;&#45;n18</title>
<path fill="none" stroke="black" d="M-238.232,38.1455C-234.532,54.9009 -229.588,77.2862 -225.894,94.0168"/>
</g>
<!-- n17 -->
<g id="node4" class="node"><title>n17</title>
<ellipse fill="none" stroke="black" cx="-134.778" cy="-194.936" rx="24.0958" ry="24.0958"/>
<text text-anchor="middle" x="-134.778" y="-191.236" font-family="Times,serif" font-size="14.00">n17</text>
</g>
<!-- n20&#45;&#45;n17 -->
<g id="edge200" class="edge"><title>n20&#45;&#45;n17</title>
<path fill="none" stroke="black" d="M-232.232,-7.11918C-211.353,-47.3578 -166.77,-133.279 -145.938,-173.429"/>
</g>
<!-- n16 -->
<g id="node5" class="node"><title>n16</title>
<ellipse fill="none" stroke="black" cx="80.9419" cy="-113.144" rx="24.0958" ry="24.0958"/>
<text text-anchor="middle" x="80.9419" y="-109.444" font-family="Times,serif" font-size="14.00">n16</text>
</g>
<!-- n20&#45;&#45;n16 -->
<g id="edge199" class="edge"><title>n20&#45;&#45;n16</title>
<path fill="none" stroke="black" d="M-220.899,5.63122C-161.415,-17.7761 -0.776816,-80.9876 58.538,-104.328"/>
</g>
<!-- n15 -->
<g id="node6" class="node"><title>n15</title>
<ellipse fill="none" stroke="black" cx="-257.413" cy="-83.9421" rx="24.0958" ry="24.0958"/>
<text text-anchor="middle" x="-257.413" y="-80.2421" font-family="Times,serif" font-size="14.00">n15</text>
</g>
<!-- n20&#45;&#45;n15 -->
<g id="edge198" class="edge"><title>n20&#45;&#45;n15</title>
<path fill="none" stroke="black" d="M-246.832,-9.32555C-249.011,-24.6902 -251.834,-44.6002 -254.016,-59.9888"/>
</g>
<!-- n14 -->
<g id="node7" class="node"><title>n14</title>
<ellipse fill="none" stroke="black" cx="-108.099" cy="146.913" rx="24.0958" ry="24.0958"/>
<text text-anchor="middle" x="-108.099" y="150.613" font-family="Times,serif" font-size="14.00">n14</text>
</g>
<!-- n20&#45;&#45;n14 -->
<g id="edge197" class="edge"><title>n20&#45;&#45;n14</title>
<path fill="none" stroke="black" d="M-226.034,31.5448C-200.045,56.9686 -151.401,104.554 -125.45,129.939"/>
</g>
<!-- n13 -->
<g id="node8" class="node"><title>n13</title>
<ellipse fill="none" stroke="black" cx="138.5" cy="86.3922" rx="24.0958" ry="24.0958"/>
<text text-anchor="middle" x="138.5" y="90.0922" font-family="Times,serif" font-size="14.00">n13</text>
</g>
<!-- n20&#45;&#45;n13 -->
<g id="edge196" class="edge"><title>n20&#45;&#45;n13</title>
<path fill="none" stroke="black" d="M-219.559,19.0028C-150.966,31.9126 46.034,68.9894 114.616,81.8971"/>
</g>
<!-- n12 -->
<g id="node9" class="node"><title>n12</title>
<ellipse fill="none" stroke="black" cx="-54.3589" cy="203.009" rx="24.0958" ry="24.0958"/>
<text text-anchor="middle" x="-54.3589" y="206.709" font-family="Times,serif" font-size="14.00">n12</text>
</g>
<!-- n20&#45;&#45;n12 -->
<g id="edge195" class="edge"><title>n20&#45;&#45;n12</title>
<path fill="none" stroke="black" d="M-226.338,31.5668C-190.428,67.3649 -107.566,149.968 -71.5707,185.85"/>
</g>
<!-- n11 -->
<g id="node10" class="node"><title>n11</title>
<ellipse fill="none" stroke="black" cx="28.8686" cy="205.674" rx="24.0958" ry="24.0958"/>
<text text-anchor="middle" x="28.8686" y="209.374" font-family="Times,serif" font-size="14.00">n11</text>
</g>
<!-- n20&#45;&#45;n11 -->
<g id="edge194" class="edge"><title>n20&#45;&#45;n11</title>
<path fill="none" stroke="black" d="M-223.428,28.563C-172.945,64.0019 -40.9352,156.672 9.18216,191.854"/>
</g>
<!-- n9 -->
<g id="node12" class="node"><title>n9</title>
<ellipse fill="none" stroke="black" cx="-100.066" cy="47.8593" rx="19.4965" ry="19.4965"/>
<text text-anchor="middle" x="-100.066" y="51.5593" font-family="Times,serif" font-size="14.00">n9</text>
</g>
<!-- n20&#45;&#45;n9 -->
<g id="edge193" class="edge"><title>n20&#45;&#45;n9</title>
<path fill="none" stroke="black" d="M-219.775,20.0136C-191.617,26.5635 -145.17,37.3675 -119.185,43.4119"/>
</g>
<!-- n7 -->
<g id="node14" class="node"><title>n7</title>
<ellipse fill="none" stroke="black" cx="181.635" cy="-121.203" rx="19.4965" ry="19.4965"/>
<text text-anchor="middle" x="181.635" y="-117.503" font-family="Times,serif" font-size="14.00">n7</text>
</g>
<!-- n20&#45;&#45;n7 -->
<g id="edge192" class="edge"><title>n20&#45;&#45;n7</title>
<path fill="none" stroke="black" d="M-220.296,7.11328C-144.757,-17.0025 93.5937,-93.096 162.69,-115.155"/>
</g>
<!-- n6 -->
<g id="node15" class="node"><title>n6</title>
<ellipse fill="none" stroke="black" cx="78.7922" cy="-198.188" rx="19.4965" ry="19.4965"/>
<text text-anchor="middle" x="78.7922" y="-194.488" font-family="Times,serif" font-size="14.00">n6</text>
</g>
<!-- n20&#45;&#45;n6 -->
<g id="edge191" class="edge"><title>n20&#45;&#45;n6</title>
<path fill="none" stroke="black" d="M-223.294,1.20102C-164.184,-37.8144 7.95355,-151.432 62.2103,-187.243"/>
</g>
<!-- n5 -->
<g id="node16" class="node"><title>n5</title>
<ellipse fill="none" stroke="black" cx="21.8053" cy="93.2544" rx="19.4965" ry="19.4965"/>
<text text-anchor="middle" x="21.8053" y="96.9544" font-family="Times,serif" font-size="14.00">n5</text>
</g>
<!-- n20&#45;&#45;n5 -->
<g id="edge190" class="edge"><title>n20&#45;&#45;n5</title>
<path fill="none" stroke="black" d="M-220.376,21.3566C-168.698,36.6988 -44.4865,73.574 2.95288,87.6576"/>
</g>
<!-- n4 -->
<g id="node17" class="node"><title>n4</title>
<ellipse fill="none" stroke="black" cx="107.254" cy="172.552" rx="19.4965" ry="19.4965"/>
<text text-anchor="middle" x="107.254" y="176.252" font-family="Times,serif" font-size="14.00">n4</text>
</g>
<!-- n20&#45;&#45;n4 -->
<g id="edge189" class="edge"><title>n20&#45;&#45;n4</title>
<path fill="none" stroke="black" d="M-221.514,24.3924C-157.182,53.3835 30.1585,137.809 89.2074,164.419"/>
</g>
<!-- n3 -->
<g id="node18" class="node"><title>n3</title>
<ellipse fill="none" stroke="black" cx="-67.7114" cy="-135.494" rx="19.4965" ry="19.4965"/>
<text text-anchor="middle" x="-67.7114" y="-131.794" font-family="Times,serif" font-size="14.00">n3</text>
</g>
<!-- n20&#45;&#45;n3 -->
<g id="edge188" class="edge"><title>n20&#45;&#45;n3</title>
<path fill="none" stroke="black" d="M-224.977,-1.26316C-190.079,-31.0498 -115.087,-95.058 -82.8972,-122.533"/>
</g>
<!-- n2 -->
<g id="node19" class="node"><title>n2</title>
<ellipse fill="none" stroke="black" cx="-125.722" cy="-57.9853" rx="19.4965" ry="19.4965"/>
<text text-anchor="middle" x="-125.722" y="-54.2853" font-family="Times,serif" font-size="14.00">n2</text>
</g>
<!-- n20&#45;&#45;n2 -->
<g id="edge187" class="edge"><title>n20&#45;&#45;n2</title>
<path fill="none" stroke="black" d="M-222.945,1.87896C-200.151,-12.1565 -163.765,-34.561 -142.566,-47.6135"/>
</g>
<!-- n1 -->
<g id="node20" class="node"><title>n1</title>
<ellipse fill="none" stroke="black" cx="-6.86894" cy="-204.283" rx="19.4965" ry="19.4965"/>
<text text-anchor="middle" x="-6.86894" y="-200.583" font-family="Times,serif" font-size="14.00">n1</text>
</g>
<!-- n20&#45;&#45;n1 -->
<g id="edge186" class="edge"><title>n20&#45;&#45;n1</title>
<path fill="none" stroke="black" d="M-225.67,-1.93873C-180.644,-43.5783 -62.7791,-152.578 -21.4466,-190.801"/>
</g>
<!-- n0 -->
<g id="node21" class="node"><title>n0</title>
<ellipse fill="none" stroke="black" cx="5.97" cy="-29.1122" rx="19.4965" ry="19.4965"/>
<text text-anchor="middle" x="5.97" y="-25.4122" font-family="Times,serif" font-size="14.00">n0</text>
</g>
<!-- n20&#45;&#45;n0 -->
<g id="edge185" class="edge"><title>n20&#45;&#45;n0</title>
<path fill="none" stroke="black" d="M-219.537,10.3237C-170.277,1.70927 -58.3503,-17.8641 -13.3231,-25.7383"/>
</g>
<!-- n19&#45;&#45;n18 -->
<g id="edge184" class="edge"><title>n19&#45;&#45;n18</title>
<path fill="none" stroke="black" d="M113.533,-1.2249C49.031,21.6963 -133.738,86.6445 -198.006,109.483"/>
</g>
<!-- n19&#45;&#45;n17 -->
<g id="edge183" class="edge"><title>n19&#45;&#45;n17</title>
<path fill="none" stroke="black" d="M116.474,-23.0024C66.3218,-57.3219 -64.6239,-146.929 -114.807,-181.27"/>
</g>
<!-- n19&#45;&#45;n16 -->
<g id="edge182" class="edge"><title>n19&#45;&#45;n16</title>
<path fill="none" stroke="black" d="M125.055,-30.6097C115.483,-48.5201 101.855,-74.0168 92.2864,-91.9191"/>
</g>
<!-- n19&#45;&#45;n15 -->
<g id="edge181" class="edge"><title>n19&#45;&#45;n15</title>
<path fill="none" stroke="black" d="M112.666,-13.854C42.4873,-27.145 -163.414,-66.14 -233.633,-79.4385"/>
</g>
<!-- n19&#45;&#45;n14 -->
<g id="edge180" class="edge"><title>n19&#45;&#45;n14</title>
<path fill="none" stroke="black" d="M115.989,3.69836C69.9626,33.1136 -41.4248,104.301 -87.5584,133.785"/>
</g>
<!-- n19&#45;&#45;n13 -->
<g id="edge179" class="edge"><title>n19&#45;&#45;n13</title>
<path fill="none" stroke="black" d="M136.941,14.8051C137.257,29.3199 137.658,47.7252 137.974,62.2385"/>
</g>
<!-- n19&#45;&#45;n12 -->
<g id="edge178" class="edge"><title>n19&#45;&#45;n12</title>
<path fill="none" stroke="black" d="M120.15,8.74983C84.1073,48.8715 -2.13043,144.869 -38.1348,184.948"/>
</g>
<!-- n19&#45;&#45;n11 -->
<g id="edge177" class="edge"><title>n19&#45;&#45;n11</title>
<path fill="none" stroke="black" d="M125.511,12.4453C104.845,53.7657 60.2061,143.017 39.6416,184.134"/>
</g>
<!-- n10 -->
<g id="node11" class="node"><title>n10</title>
<ellipse fill="none" stroke="black" cx="270.029" cy="108.176" rx="24.0958" ry="24.0958"/>
<text text-anchor="middle" x="270.029" y="111.876" font-family="Times,serif" font-size="14.00">n10</text>
</g>
<!-- n19&#45;&#45;n10 -->
<g id="edge176" class="edge"><title>n19&#45;&#45;n10</title>
<path fill="none" stroke="black" d="M154.713,6.73969C180.3,29.247 226.484,69.8723 251.952,92.2747"/>
</g>
<!-- n19&#45;&#45;n9 -->
<g id="edge175" class="edge"><title>n19&#45;&#45;n9</title>
<path fill="none" stroke="black" d="M112.876,-3.66106C66.0286,7.67346 -38.0566,32.8564 -80.9854,43.2429"/>
</g>
<!-- n8 -->
<g id="node13" class="node"><title>n8</title>
<ellipse fill="none" stroke="black" cx="268.955" cy="-48.2364" rx="19.4965" ry="19.4965"/>
<text text-anchor="middle" x="268.955" y="-44.5364" font-family="Times,serif" font-size="14.00">n8</text>
</g>
<!-- n19&#45;&#45;n8 -->
<g id="edge174" class="edge"><title>n19&#45;&#45;n8</title>
<path fill="none" stroke="black" d="M159.502,-16.1287C185.164,-23.6565 226.127,-35.6729 249.991,-42.6735"/>
</g>
<!-- n19&#45;&#45;n7 -->
<g id="edge173" class="edge"><title>n19&#45;&#45;n7</title>
<path fill="none" stroke="black" d="M145.457,-31.7214C153.911,-52.6313 166.381,-83.4738 174.252,-102.941"/>
</g>
<!-- n19&#45;&#45;n6 -->
<g id="edge172" class="edge"><title>n19&#45;&#45;n6</title>
<path fill="none" stroke="black" d="M129.349,-32.5107C117.809,-70.3284 95.1409,-144.613 84.528,-179.392"/>
</g>
<!-- n19&#45;&#45;n5 -->
<g id="edge171" class="edge"><title>n19&#45;&#45;n5</title>
<path fill="none" stroke="black" d="M118.255,6.90269C95.6583,27.1335 57.5068,61.2907 36.6005,80.0082"/>
</g>
<!-- n19&#45;&#45;n4 -->
<g id="edge170" class="edge"><title>n19&#45;&#45;n4</title>
<path fill="none" stroke="black" d="M132.603,14.425C126.767,50.8284 115.732,119.668 110.355,153.208"/>
</g>
<!-- n19&#45;&#45;n3 -->
<g id="edge169" class="edge"><title>n19&#45;&#45;n3</title>
<path fill="none" stroke="black" d="M115.719,-22.1452C75.1762,-47.1983 -13.9755,-102.289 -51.0394,-125.192"/>
</g>
<!-- n19&#45;&#45;n2 -->
<g id="edge168" class="edge"><title>n19&#45;&#45;n2</title>
<path fill="none" stroke="black" d="M112.69,-13.7575C61.3956,-23.2731 -59.0015,-45.608 -106.226,-54.3686"/>
</g>
<!-- n19&#45;&#45;n1 -->
<g id="edge167" class="edge"><title>n19&#45;&#45;n1</title>
<path fill="none" stroke="black" d="M122.153,-28.7592C93.7678,-67.3745 30.7024,-153.17 4.69175,-188.555"/>
</g>
<!-- n19&#45;&#45;n0 -->
<g id="edge166" class="edge"><title>n19&#45;&#45;n0</title>
<path fill="none" stroke="black" d="M112.49,-12.9798C87.482,-16.7672 48.7147,-22.6385 25.4901,-26.1559"/>
</g>
<!-- n18&#45;&#45;n17 -->
<g id="edge165" class="edge"><title>n18&#45;&#45;n17</title>
<path fill="none" stroke="black" d="M-214.31,94.3146C-198.403,36.4646 -157.159,-113.54 -141.208,-171.552"/>
</g>
<!-- n18&#45;&#45;n16 -->
<g id="edge164" class="edge"><title>n18&#45;&#45;n16</title>
<path fill="none" stroke="black" d="M-201.37,102.765C-146.888,61.0972 7.49017,-56.9691 61.7751,-98.4856"/>
</g>
<!-- n18&#45;&#45;n15 -->
<g id="edge163" class="edge"><title>n18&#45;&#45;n15</title>
<path fill="none" stroke="black" d="M-225.053,93.6417C-232.12,54.8635 -246,-21.3104 -253.063,-60.0686"/>
</g>
<!-- n18&#45;&#45;n14 -->
<g id="edge162" class="edge"><title>n18&#45;&#45;n14</title>
<path fill="none" stroke="black" d="M-197.367,123.631C-178.042,128.671 -150.716,135.798 -131.399,140.836"/>
</g>
<!-- n18&#45;&#45;n13 -->
<g id="edge161" class="edge"><title>n18&#45;&#45;n13</title>
<path fill="none" stroke="black" d="M-196.572,115.454C-131.136,109.778 49.1664,94.1403 114.479,88.4756"/>
</g>
<!-- n18&#45;&#45;n12 -->
<g id="edge160" class="edge"><title>n18&#45;&#45;n12</title>
<path fill="none" stroke="black" d="M-199.292,128.544C-167.441,144.909 -107.902,175.499 -75.9455,191.918"/>
</g>
<!-- n18&#45;&#45;n11 -->
<g id="edge159" class="edge"><title>n18&#45;&#45;n11</title>
<path fill="none" stroke="black" d="M-197.666,125.679C-150.123,142.468 -41.6027,180.789 5.89306,197.56"/>
</g>
<!-- n18&#45;&#45;n9 -->
<g id="edge158" class="edge"><title>n18&#45;&#45;n9</title>
<path fill="none" stroke="black" d="M-199.685,105.408C-176.194,91.8373 -138.614,70.1282 -116.95,57.6131"/>
</g>
<!-- n18&#45;&#45;n7 -->
<g id="edge157" class="edge"><title>n18&#45;&#45;n7</title>
<path fill="none" stroke="black" d="M-199.914,105.213C-129.434,63.3896 99.687,-72.5741 164.445,-111.002"/>
</g>
<!-- n18&#45;&#45;n6 -->
<g id="edge156" class="edge"><title>n18&#45;&#45;n6</title>
<path fill="none" stroke="black" d="M-203.738,99.6664C-149.91,42.9197 16.3928,-132.404 65.1963,-183.855"/>
</g>
<!-- n18&#45;&#45;n5 -->
<g id="edge155" class="edge"><title>n18&#45;&#45;n5</title>
<path fill="none" stroke="black" d="M-196.559,115.128C-148.519,110.316 -41.7827,99.6241 2.23929,95.2144"/>
</g>
<!-- n18&#45;&#45;n4 -->
<g id="edge154" class="edge"><title>n18&#45;&#45;n4</title>
<path fill="none" stroke="black" d="M-196.848,121.546C-134.794,131.954 30.8199,159.732 87.7302,169.277"/>
</g>
<!-- n18&#45;&#45;n3 -->
<g id="edge153" class="edge"><title>n18&#45;&#45;n3</title>
<path fill="none" stroke="black" d="M-208.178,96.839C-178.634,47.9728 -105.028,-73.7726 -77.9328,-118.588"/>
</g>
<!-- n18&#45;&#45;n2 -->
<g id="edge152" class="edge"><title>n18&#45;&#45;n2</title>
<path fill="none" stroke="black" d="M-209.241,96.3731C-190.296,61.3586 -152.789,-7.96077 -135.22,-40.432"/>
</g>
<!-- n18&#45;&#45;n1 -->
<g id="edge151" class="edge"><title>n18&#45;&#45;n1</title>
<path fill="none" stroke="black" d="M-207.322,97.4145C-168.098,38.3799 -53.8746,-133.535 -17.8721,-187.722"/>
</g>
<!-- n18&#45;&#45;n0 -->
<g id="edge150" class="edge"><title>n18&#45;&#45;n0</title>
<path fill="none" stroke="black" d="M-200.183,104.273C-155.72,75.5044 -51.2107,7.88487 -10.5884,-18.3986"/>
</g>
<!-- n17&#45;&#45;n16 -->
<g id="edge149" class="edge"><title>n17&#45;&#45;n16</title>
<path fill="none" stroke="black" d="M-112.1,-186.338C-70.669,-170.629 16.7986,-137.465 58.244,-121.75"/>
</g>
<!-- n17&#45;&#45;n15 -->
<g id="edge148" class="edge"><title>n17&#45;&#45;n15</title>
<path fill="none" stroke="black" d="M-152.61,-178.797C-175.861,-157.753 -216.298,-121.154 -239.559,-100.101"/>
</g>
<!-- n17&#45;&#45;n14 -->
<g id="edge147" class="edge"><title>n17&#45;&#45;n14</title>
<path fill="none" stroke="black" d="M-132.902,-170.898C-128.003,-108.132 -114.869,60.1645 -109.973,122.901"/>
</g>
<!-- n17&#45;&#45;n13 -->
<g id="edge146" class="edge"><title>n17&#45;&#45;n13</title>
<path fill="none" stroke="black" d="M-117.683,-177.338C-68.6061,-126.815 72.3428,18.286 121.412,68.8005"/>
</g>
<!-- n17&#45;&#45;n12 -->
<g id="edge145" class="edge"><title>n17&#45;&#45;n12</title>
<path fill="none" stroke="black" d="M-129.988,-171.235C-115.685,-100.457 -73.394,108.815 -59.1235,179.431"/>
</g>
<!-- n17&#45;&#45;n11 -->
<g id="edge144" class="edge"><title>n17&#45;&#45;n11</title>
<path fill="none" stroke="black" d="M-125.629,-172.539C-96.9545,-102.344 -9.04115,112.87 19.6832,183.187"/>
</g>
<!-- n17&#45;&#45;n9 -->
<g id="edge143" class="edge"><title>n17&#45;&#45;n9</title>
<path fill="none" stroke="black" d="M-131.323,-170.769C-124.446,-122.67 -109.168,-15.8056 -102.866,28.2696"/>
</g>
<!-- n17&#45;&#45;n8 -->
<g id="edge142" class="edge"><title>n17&#45;&#45;n8</title>
<path fill="none" stroke="black" d="M-111.915,-186.629C-39.352,-160.263 184.836,-78.8017 250.626,-54.8961"/>
</g>
<!-- n17&#45;&#45;n7 -->
<g id="edge141" class="edge"><title>n17&#45;&#45;n7</title>
<path fill="none" stroke="black" d="M-111.254,-189.455C-51.1008,-175.437 107.453,-138.49 162.49,-125.665"/>
</g>
<!-- n17&#45;&#45;n6 -->
<g id="edge140" class="edge"><title>n17&#45;&#45;n6</title>
<path fill="none" stroke="black" d="M-110.694,-195.303C-68.0396,-195.953 19.9742,-197.292 59.1922,-197.89"/>
</g>
<!-- n17&#45;&#45;n5 -->
<g id="edge139" class="edge"><title>n17&#45;&#45;n5</title>
<path fill="none" stroke="black" d="M-123.264,-173.745C-93.6006,-119.15 -14.9848,25.5424 12.3101,75.7784"/>
</g>
<!-- n17&#45;&#45;n4 -->
<g id="edge138" class="edge"><title>n17&#45;&#45;n4</title>
<path fill="none" stroke="black" d="M-121.42,-174.655C-78.2127,-109.051 57.232,96.6011 96.4902,156.209"/>
</g>
<!-- n17&#45;&#45;n3 -->
<g id="edge137" class="edge"><title>n17&#45;&#45;n3</title>
<path fill="none" stroke="black" d="M-116.452,-178.694C-105.747,-169.206 -92.4203,-157.394 -82.4087,-148.521"/>
</g>
<!-- n17&#45;&#45;n2 -->
<g id="edge136" class="edge"><title>n17&#45;&#45;n2</title>
<path fill="none" stroke="black" d="M-133.18,-170.768C-131.423,-144.199 -128.635,-102.034 -127.011,-77.4855"/>
</g>
<!-- n17&#45;&#45;n1 -->
<g id="edge135" class="edge"><title>n17&#45;&#45;n1</title>
<path fill="none" stroke="black" d="M-110.719,-196.694C-86.4037,-198.471 -49.2777,-201.184 -26.6268,-202.839"/>
</g>
<!-- n17&#45;&#45;n0 -->
<g id="edge134" class="edge"><title>n17&#45;&#45;n0</title>
<path fill="none" stroke="black" d="M-119.178,-176.557C-91.1209,-143.501 -32.6668,-74.6328 -6.80764,-44.1664"/>
</g>
<!-- n16&#45;&#45;n15 -->
<g id="edge133" class="edge"><title>n16&#45;&#45;n15</title>
<path fill="none" stroke="black" d="M56.8795,-111.067C-5.32302,-105.699 -170.93,-91.4061 -233.247,-86.0278"/>
</g>
<!-- n16&#45;&#45;n14 -->
<g id="edge132" class="edge"><title>n16&#45;&#45;n14</title>
<path fill="none" stroke="black" d="M66.7332,-93.5976C31.6997,-45.4032 -58.5192,78.7078 -93.7252,127.139"/>
</g>
<!-- n16&#45;&#45;n13 -->
<g id="edge131" class="edge"><title>n16&#45;&#45;n13</title>
<path fill="none" stroke="black" d="M87.6572,-89.8643C98.7481,-51.4157 120.765,24.9097 131.827,63.2606"/>
</g>
<!-- n16&#45;&#45;n12 -->
<g id="edge130" class="edge"><title>n16&#45;&#45;n12</title>
<path fill="none" stroke="black" d="M71.4278,-90.9129C46.5855,-32.8646 -20.0247,122.781 -44.8553,180.802"/>
</g>
<!-- n16&#45;&#45;n11 -->
<g id="edge129" class="edge"><title>n16&#45;&#45;n11</title>
<path fill="none" stroke="black" d="M77.028,-89.181C67.354,-29.9521 42.404,122.804 32.757,181.867"/>
</g>
<!-- n16&#45;&#45;n10 -->
<g id="edge128" class="edge"><title>n16&#45;&#45;n10</title>
<path fill="none" stroke="black" d="M96.7382,-94.6551C132.331,-52.9949 218.469,47.8267 254.145,89.5843"/>
</g>
<!-- n16&#45;&#45;n9 -->
<g id="edge127" class="edge"><title>n16&#45;&#45;n9</title>
<path fill="none" stroke="black" d="M62.9245,-97.1179C27.156,-65.3023 -52.2055,5.28844 -85.2145,34.6495"/>
</g>
<!-- n16&#45;&#45;n8 -->
<g id="edge126" class="edge"><title>n16&#45;&#45;n8</title>
<path fill="none" stroke="black" d="M103.996,-105.185C141.748,-92.1521 215.997,-66.5188 250.51,-54.6041"/>
</g>
<!-- n16&#45;&#45;n7 -->
<g id="edge125" class="edge"><title>n16&#45;&#45;n7</title>
<path fill="none" stroke="black" d="M105.061,-115.075C122.515,-116.472 145.805,-118.336 162.099,-119.64"/>
</g>
<!-- n16&#45;&#45;n6 -->
<g id="edge124" class="edge"><title>n16&#45;&#45;n6</title>
<path fill="none" stroke="black" d="M80.3317,-137.287C80.0015,-150.349 79.5988,-166.277 79.2882,-178.567"/>
</g>
<!-- n16&#45;&#45;n5 -->
<g id="edge123" class="edge"><title>n16&#45;&#45;n5</title>
<path fill="none" stroke="black" d="M74.2732,-89.8688C62.4624,-48.647 38.0918,36.4115 27.2325,74.3126"/>
</g>
<!-- n16&#45;&#45;n4 -->
<g id="edge122" class="edge"><title>n16&#45;&#45;n4</title>
<path fill="none" stroke="black" d="M83.1853,-88.7859C88.3055,-33.1906 100.77,102.153 105.444,152.901"/>
</g>
<!-- n16&#45;&#45;n3 -->
<g id="edge121" class="edge"><title>n16&#45;&#45;n3</title>
<path fill="none" stroke="black" d="M57.0582,-116.735C27.8406,-121.128 -21.0674,-128.481 -48.1582,-132.554"/>
</g>
<!-- n16&#45;&#45;n2 -->
<g id="edge120" class="edge"><title>n16&#45;&#45;n2</title>
<path fill="none" stroke="black" d="M57.6367,-106.924C16.3618,-95.9076 -68.806,-73.1763 -106.756,-63.0474"/>
</g>
<!-- n16&#45;&#45;n1 -->
<g id="edge119" class="edge"><title>n16&#45;&#45;n1</title>
<path fill="none" stroke="black" d="M64.0111,-130.717C47.3654,-147.993 22.274,-174.035 6.83945,-190.055"/>
</g>
<!-- n16&#45;&#45;n0 -->
<g id="edge118" class="edge"><title>n16&#45;&#45;n0</title>
<path fill="none" stroke="black" d="M64.6741,-94.9105C50.9791,-79.5605 31.6503,-57.8959 18.9689,-43.682"/>
</g>
<!-- n15&#45;&#45;n14 -->
<g id="edge117" class="edge"><title>n15&#45;&#45;n14</title>
<path fill="none" stroke="black" d="M-244.162,-63.4553C-215.828,-19.6466 -149.628,82.7041 -121.32,126.472"/>
</g>
<!-- n15&#45;&#45;n13 -->
<g id="edge116" class="edge"><title>n15&#45;&#45;n13</title>
<path fill="none" stroke="black" d="M-235.279,-74.4192C-165.906,-44.573 46.7841,46.9331 116.278,76.8314"/>
</g>
<!-- n15&#45;&#45;n12 -->
<g id="edge115" class="edge"><title>n15&#45;&#45;n12</title>
<path fill="none" stroke="black" d="M-243.456,-64.2188C-206.362,-11.7974 -105.62,130.568 -68.4133,183.147"/>
</g>
<!-- n15&#45;&#45;n11 -->
<g id="edge114" class="edge"><title>n15&#45;&#45;n11</title>
<path fill="none" stroke="black" d="M-240.362,-66.6926C-189.444,-15.1817 -38.8941,137.122 11.9071,188.514"/>
</g>
<!-- n15&#45;&#45;n9 -->
<g id="edge113" class="edge"><title>n15&#45;&#45;n9</title>
<path fill="none" stroke="black" d="M-238.745,-68.3052C-207.323,-41.9842 -144.457,10.6746 -115.419,34.9985"/>
</g>
<!-- n15&#45;&#45;n6 -->
<g id="edge112" class="edge"><title>n15&#45;&#45;n6</title>
<path fill="none" stroke="black" d="M-234.569,-91.7049C-171.756,-113.049 2.69279,-172.329 60.1645,-191.858"/>
</g>
<!-- n15&#45;&#45;n5 -->
<g id="edge111" class="edge"><title>n15&#45;&#45;n5</title>
<path fill="none" stroke="black" d="M-236.882,-70.9124C-183.86,-37.2642 -43.1305,52.0451 5.21951,82.7288"/>
</g>
<!-- n15&#45;&#45;n4 -->
<g id="edge110" class="edge"><title>n15&#45;&#45;n4</title>
<path fill="none" stroke="black" d="M-237.548,-69.9697C-172.746,-24.3903 31.7262,119.428 91.001,161.12"/>
</g>
<!-- n15&#45;&#45;n3 -->
<g id="edge109" class="edge"><title>n15&#45;&#45;n3</title>
<path fill="none" stroke="black" d="M-234.152,-90.2634C-196.16,-100.588 -121.533,-120.868 -86.5943,-130.363"/>
</g>
<!-- n15&#45;&#45;n2 -->
<g id="edge108" class="edge"><title>n15&#45;&#45;n2</title>
<path fill="none" stroke="black" d="M-233.565,-79.2415C-208.216,-74.2451 -168.614,-66.4394 -145.11,-61.8068"/>
</g>
<!-- n15&#45;&#45;n1 -->
<g id="edge107" class="edge"><title>n15&#45;&#45;n1</title>
<path fill="none" stroke="black" d="M-235.617,-94.411C-186.805,-117.856 -69.4836,-174.208 -24.6756,-195.73"/>
</g>
<!-- n15&#45;&#45;n0 -->
<g id="edge106" class="edge"><title>n15&#45;&#45;n0</title>
<path fill="none" stroke="black" d="M-233.575,-78.9796C-181.91,-68.2243 -60.4728,-42.944 -13.2705,-33.1176"/>
</g>
<!-- n14&#45;&#45;n13 -->
<g id="edge105" class="edge"><title>n14&#45;&#45;n13</title>
<path fill="none" stroke="black" d="M-84.4539,141.11C-37.3188,129.542 67.8504,103.731 114.927,92.1776"/>
</g>
<!-- n14&#45;&#45;n12 -->
<g id="edge104" class="edge"><title>n14&#45;&#45;n12</title>
<path fill="none" stroke="black" d="M-91.3898,164.354C-84.981,171.044 -77.6678,178.678 -71.2427,185.385"/>
</g>
<!-- n14&#45;&#45;n11 -->
<g id="edge103" class="edge"><title>n14&#45;&#45;n11</title>
<path fill="none" stroke="black" d="M-85.7878,156.485C-60.3179,167.411 -18.8988,185.181 6.56717,196.106"/>
</g>
<!-- n14&#45;&#45;n10 -->
<g id="edge102" class="edge"><title>n14&#45;&#45;n10</title>
<path fill="none" stroke="black" d="M-84.1584,144.46C-16.1361,137.492 177.757,117.629 245.95,110.643"/>
</g>
<!-- n14&#45;&#45;n9 -->
<g id="edge101" class="edge"><title>n14&#45;&#45;n9</title>
<path fill="none" stroke="black" d="M-106.154,122.935C-104.77,105.872 -102.935,83.2391 -101.642,67.2998"/>
</g>
<!-- n14&#45;&#45;n8 -->
<g id="edge100" class="edge"><title>n14&#45;&#45;n8</title>
<path fill="none" stroke="black" d="M-86.4725,135.72C-18.5592,100.57 189.602,-7.16619 251.45,-39.1764"/>
</g>
<!-- n14&#45;&#45;n7 -->
<g id="edge99" class="edge"><title>n14&#45;&#45;n7</title>
<path fill="none" stroke="black" d="M-90.4108,130.545C-37.58,81.6556 118.396,-62.6824 167.002,-107.662"/>
</g>
<!-- n14&#45;&#45;n6 -->
<g id="edge98" class="edge"><title>n14&#45;&#45;n6</title>
<path fill="none" stroke="black" d="M-96.549,125.586C-62.3283,62.396 38.087,-123.024 69.3736,-180.796"/>
</g>
<!-- n14&#45;&#45;n5 -->
<g id="edge97" class="edge"><title>n14&#45;&#45;n5</title>
<path fill="none" stroke="black" d="M-85.7675,137.689C-60.5229,127.261 -19.8992,110.481 3.53523,100.801"/>
</g>
<!-- n14&#45;&#45;n4 -->
<g id="edge96" class="edge"><title>n14&#45;&#45;n4</title>
<path fill="none" stroke="black" d="M-83.8138,149.804C-40.6936,154.938 48.3992,165.545 87.7927,170.235"/>
</g>
<!-- n14&#45;&#45;n3 -->
<g id="edge95" class="edge"><title>n14&#45;&#45;n3</title>
<path fill="none" stroke="black" d="M-104.655,122.835C-96.7962,67.8797 -77.6634,-65.9058 -70.4894,-116.069"/>
</g>
<!-- n14&#45;&#45;n2 -->
<g id="edge94" class="edge"><title>n14&#45;&#45;n2</title>
<path fill="none" stroke="black" d="M-110.19,122.604C-113.718,81.5791 -120.787,-0.602551 -124.028,-38.2851"/>
</g>
<!-- n14&#45;&#45;n1 -->
<g id="edge93" class="edge"><title>n14&#45;&#45;n1</title>
<path fill="none" stroke="black" d="M-101.378,123.598C-82.5668,58.335 -29.6323,-125.31 -12.3803,-185.162"/>
</g>
<!-- n14&#45;&#45;n0 -->
<g id="edge92" class="edge"><title>n14&#45;&#45;n0</title>
<path fill="none" stroke="black" d="M-95.0137,126.721C-72.2494,91.5919 -25.784,19.8888 -4.77255,-12.5349"/>
</g>
<!-- n13&#45;&#45;n12 -->
<g id="edge91" class="edge"><title>n13&#45;&#45;n12</title>
<path fill="none" stroke="black" d="M117.861,98.8722C80.838,121.259 3.54972,167.993 -33.5765,190.442"/>
</g>
<!-- n13&#45;&#45;n11 -->
<g id="edge90" class="edge"><title>n13&#45;&#45;n11</title>
<path fill="none" stroke="black" d="M122.087,104.25C101.419,126.737 66.1143,165.149 45.3938,187.694"/>
</g>
<!-- n13&#45;&#45;n10 -->
<g id="edge89" class="edge"><title>n13&#45;&#45;n10</title>
<path fill="none" stroke="black" d="M162.319,90.3371C186.008,94.2606 222.16,100.248 245.943,104.187"/>
</g>
<!-- n13&#45;&#45;n9 -->
<g id="edge88" class="edge"><title>n13&#45;&#45;n9</title>
<path fill="none" stroke="black" d="M114.753,82.5566C67.6108,74.9422 -36.9866,58.0477 -80.4921,51.0207"/>
</g>
<!-- n13&#45;&#45;n8 -->
<g id="edge87" class="edge"><title>n13&#45;&#45;n8</title>
<path fill="none" stroke="black" d="M155.288,69.0675C181.3,42.2228 230.859,-8.92157 255.018,-33.8537"/>
</g>
<!-- n13&#45;&#45;n7 -->
<g id="edge86" class="edge"><title>n13&#45;&#45;n7</title>
<path fill="none" stroke="black" d="M143.448,62.5783C152.079,21.0429 169.718,-63.8489 177.634,-101.947"/>
</g>
<!-- n13&#45;&#45;n6 -->
<g id="edge85" class="edge"><title>n13&#45;&#45;n6</title>
<path fill="none" stroke="black" d="M133.512,62.6185C121.937,7.44758 93.4311,-128.416 82.8403,-178.894"/>
</g>
<!-- n13&#45;&#45;n5 -->
<g id="edge84" class="edge"><title>n13&#45;&#45;n5</title>
<path fill="none" stroke="black" d="M114.321,87.8141C92.6909,89.086 61.3883,90.9267 41.3168,92.1071"/>
</g>
<!-- n13&#45;&#45;n4 -->
<g id="edge83" class="edge"><title>n13&#45;&#45;n4</title>
<path fill="none" stroke="black" d="M130.29,109.03C125.192,123.09 118.721,140.932 113.937,154.124"/>
</g>
<!-- n13&#45;&#45;n3 -->
<g id="edge82" class="edge"><title>n13&#45;&#45;n3</title>
<path fill="none" stroke="black" d="M121.973,68.6094C82.2152,25.829 -18.1576,-82.1735 -54.3996,-121.17"/>
</g>
<!-- n13&#45;&#45;n2 -->
<g id="edge81" class="edge"><title>n13&#45;&#45;n2</title>
<path fill="none" stroke="black" d="M117.324,74.8212C66.5039,47.0517 -61.61,-22.9529 -108.329,-48.4813"/>
</g>
<!-- n13&#45;&#45;n1 -->
<g id="edge80" class="edge"><title>n13&#45;&#45;n1</title>
<path fill="none" stroke="black" d="M127.574,64.5443C99.8412,9.09138 27.1392,-136.281 1.90732,-186.734"/>
</g>
<!-- n13&#45;&#45;n0 -->
<g id="edge79" class="edge"><title>n13&#45;&#45;n0</title>
<path fill="none" stroke="black" d="M120.35,70.574C93.9784,47.5901 45.5476,5.38101 21.0338,-15.9836"/>
</g>
<!-- n12&#45;&#45;n11 -->
<g id="edge78" class="edge"><title>n12&#45;&#45;n11</title>
<path fill="none" stroke="black" d="M-30.286,203.779C-19.3401,204.13 -6.41236,204.544 4.56157,204.895"/>
</g>
<!-- n12&#45;&#45;n10 -->
<g id="edge77" class="edge"><title>n12&#45;&#45;n10</title>
<path fill="none" stroke="black" d="M-31.0297,196.188C28.8224,178.691 187.292,132.364 246.911,114.935"/>
</g>
<!-- n12&#45;&#45;n9 -->
<g id="edge76" class="edge"><title>n12&#45;&#45;n9</title>
<path fill="none" stroke="black" d="M-61.2016,179.781C-70.2665,149.011 -86.0853,95.3144 -94.4732,66.8424"/>
</g>
<!-- n12&#45;&#45;n8 -->
<g id="edge75" class="edge"><title>n12&#45;&#45;n8</title>
<path fill="none" stroke="black" d="M-35.1024,188.044C23.6255,142.407 199.713,5.57123 253.306,-36.0759"/>
</g>
<!-- n12&#45;&#45;n7 -->
<g id="edge74" class="edge"><title>n12&#45;&#45;n7</title>
<path fill="none" stroke="black" d="M-39.9516,183.216C3.18022,123.961 130.717,-51.251 169.991,-105.206"/>
</g>
<!-- n12&#45;&#45;n6 -->
<g id="edge73" class="edge"><title>n12&#45;&#45;n6</title>
<path fill="none" stroke="black" d="M-46.7219,179.998C-22.7392,107.736 50.7699,-113.754 72.6105,-179.562"/>
</g>
<!-- n12&#45;&#45;n5 -->
<g id="edge72" class="edge"><title>n12&#45;&#45;n5</title>
<path fill="none" stroke="black" d="M-40.5661,183.133C-25.9053,162.006 -3.00137,129.001 10.592,109.413"/>
</g>
<!-- n12&#45;&#45;n4 -->
<g id="edge71" class="edge"><title>n12&#45;&#45;n4</title>
<path fill="none" stroke="black" d="M-30.5123,198.515C1.62367,192.458 58.214,181.794 87.8751,176.204"/>
</g>
<!-- n12&#45;&#45;n3 -->
<g id="edge70" class="edge"><title>n12&#45;&#45;n3</title>
<path fill="none" stroke="black" d="M-55.3084,178.936C-57.8227,115.195 -64.6182,-57.0767 -66.9295,-115.672"/>
</g>
<!-- n12&#45;&#45;n2 -->
<g id="edge69" class="edge"><title>n12&#45;&#45;n2</title>
<path fill="none" stroke="black" d="M-60.8177,179.387C-74.8162,128.191 -107.719,7.85479 -120.509,-38.9193"/>
</g>
<!-- n12&#45;&#45;n1 -->
<g id="edge68" class="edge"><title>n12&#45;&#45;n1</title>
<path fill="none" stroke="black" d="M-51.5655,179.051C-42.9763,105.387 -17.0613,-116.87 -9.17251,-184.526"/>
</g>
<!-- n12&#45;&#45;n0 -->
<g id="edge67" class="edge"><title>n12&#45;&#45;n0</title>
<path fill="none" stroke="black" d="M-48.2422,179.474C-36.2599,133.371 -9.91145,31.9931 1.04263,-10.1537"/>
</g>
<!-- n11&#45;&#45;n10 -->
<g id="edge66" class="edge"><title>n11&#45;&#45;n10</title>
<path fill="none" stroke="black" d="M51.5565,196.501C97.6369,177.872 201.696,135.802 247.577,117.253"/>
</g>
<!-- n11&#45;&#45;n9 -->
<g id="edge65" class="edge"><title>n11&#45;&#45;n9</title>
<path fill="none" stroke="black" d="M13.5719,186.95C-12.1765,155.435 -63.6898,92.3829 -87.4846,63.2582"/>
</g>
<!-- n11&#45;&#45;n8 -->
<g id="edge64" class="edge"><title>n11&#45;&#45;n8</title>
<path fill="none" stroke="black" d="M45.751,187.819C91.007,139.957 214.379,9.48191 255.451,-33.9551"/>
</g>
<!-- n11&#45;&#45;n7 -->
<g id="edge63" class="edge"><title>n11&#45;&#45;n7</title>
<path fill="none" stroke="black" d="M39.1293,183.719C67.6282,122.739 147.357,-47.8568 173.336,-103.446"/>
</g>
<!-- n11&#45;&#45;n6 -->
<g id="edge62" class="edge"><title>n11&#45;&#45;n6</title>
<path fill="none" stroke="black" d="M31.8421,181.62C40.9104,108.261 68.1004,-111.695 76.3759,-178.641"/>
</g>
<!-- n11&#45;&#45;n5 -->
<g id="edge61" class="edge"><title>n11&#45;&#45;n5</title>
<path fill="none" stroke="black" d="M27.3534,181.557C26.0643,161.041 24.2363,131.946 23.0361,112.843"/>
</g>
<!-- n11&#45;&#45;n4 -->
<g id="edge60" class="edge"><title>n11&#45;&#45;n4</title>
<path fill="none" stroke="black" d="M51.121,196.271C63.1607,191.183 77.8414,184.98 89.1692,180.193"/>
</g>
<!-- n11&#45;&#45;n3 -->
<g id="edge59" class="edge"><title>n11&#45;&#45;n3</title>
<path fill="none" stroke="black" d="M22.3062,182.492C4.26233,118.752 -45.8507,-58.2716 -62.3603,-116.592"/>
</g>
<!-- n11&#45;&#45;n2 -->
<g id="edge58" class="edge"><title>n11&#45;&#45;n2</title>
<path fill="none" stroke="black" d="M16.4792,184.543C-13.3264,133.709 -88.5729,5.37355 -115.743,-40.965"/>
</g>
<!-- n11&#45;&#45;n1 -->
<g id="edge57" class="edge"><title>n11&#45;&#45;n1</title>
<path fill="none" stroke="black" d="M26.7665,181.559C20.3029,107.414 0.80109,-116.298 -5.13543,-184.397"/>
</g>
<!-- n11&#45;&#45;n0 -->
<g id="edge56" class="edge"><title>n11&#45;&#45;n0</title>
<path fill="none" stroke="black" d="M26.5043,181.432C21.945,134.684 12.0212,32.9328 7.86291,-9.70366"/>
</g>
<!-- n10&#45;&#45;n9 -->
<g id="edge55" class="edge"><title>n10&#45;&#45;n9</title>
<path fill="none" stroke="black" d="M246.031,104.265C177.475,93.0921 -18.3132,61.183 -80.711,51.0136"/>
</g>
<!-- n10&#45;&#45;n8 -->
<g id="edge54" class="edge"><title>n10&#45;&#45;n8</title>
<path fill="none" stroke="black" d="M269.864,84.0796C269.652,53.23 269.288,0.347641 269.091,-28.3323"/>
</g>
<!-- n10&#45;&#45;n7 -->
<g id="edge53" class="edge"><title>n10&#45;&#45;n7</title>
<path fill="none" stroke="black" d="M261.231,85.3439C243.676,39.79 204.619,-61.5603 188.648,-103.007"/>
</g>
<!-- n10&#45;&#45;n6 -->
<g id="edge52" class="edge"><title>n10&#45;&#45;n6</title>
<path fill="none" stroke="black" d="M257.185,87.5991C221.509,30.4464 121.703,-129.444 89.181,-181.545"/>
</g>
<!-- n10&#45;&#45;n5 -->
<g id="edge51" class="edge"><title>n10&#45;&#45;n5</title>
<path fill="none" stroke="black" d="M245.777,106.718C196.736,103.77 86.6328,97.1515 41.5865,94.4436"/>
</g>
<!-- n10&#45;&#45;n4 -->
<g id="edge50" class="edge"><title>n10&#45;&#45;n4</title>
<path fill="none" stroke="black" d="M247.396,117.127C214.9,129.979 155.645,153.414 125.669,165.269"/>
</g>
<!-- n10&#45;&#45;n3 -->
<g id="edge49" class="edge"><title>n10&#45;&#45;n3</title>
<path fill="none" stroke="black" d="M250.411,94.0223C189.451,50.0413 4.07357,-83.7033 -51.6814,-123.929"/>
</g>
<!-- n10&#45;&#45;n2 -->
<g id="edge48" class="edge"><title>n10&#45;&#45;n2</title>
<path fill="none" stroke="black" d="M247.618,98.7666C176.653,68.9711 -42.2567,-22.9413 -107.309,-50.2543"/>
</g>
<!-- n10&#45;&#45;n1 -->
<g id="edge47" class="edge"><title>n10&#45;&#45;n1</title>
<path fill="none" stroke="black" d="M253.945,90.0266C203.967,33.6297 51.9843,-137.871 6.27333,-189.453"/>
</g>
<!-- n10&#45;&#45;n0 -->
<g id="edge46" class="edge"><title>n10&#45;&#45;n0</title>
<path fill="none" stroke="black" d="M248.42,96.9414C197.303,70.3648 69.7651,4.05585 23.275,-20.1151"/>
</g>
<!-- n9&#45;&#45;n8 -->
<g id="edge45" class="edge"><title>n9&#45;&#45;n8</title>
<path fill="none" stroke="black" d="M-81.0025,42.8951C-17.5397,26.3689 186.163,-26.6769 249.784,-43.2442"/>
</g>
<!-- n9&#45;&#45;n7 -->
<g id="edge44" class="edge"><title>n9&#45;&#45;n7</title>
<path fill="none" stroke="black" d="M-83.2875,37.7899C-33.3028,7.79161 114.257,-80.7663 164.589,-110.973"/>
</g>
<!-- n9&#45;&#45;n6 -->
<g id="edge43" class="edge"><title>n9&#45;&#45;n6</title>
<path fill="none" stroke="black" d="M-88.3302,31.7154C-55.8445,-12.9738 34.9884,-137.929 67.2462,-182.305"/>
</g>
<!-- n9&#45;&#45;n5 -->
<g id="edge42" class="edge"><title>n9&#45;&#45;n5</title>
<path fill="none" stroke="black" d="M-81.556,54.7538C-58.5166,63.3357 -19.4133,77.9011 3.52087,86.4437"/>
</g>
<!-- n9&#45;&#45;n4 -->
<g id="edge41" class="edge"><title>n9&#45;&#45;n4</title>
<path fill="none" stroke="black" d="M-83.0997,58.0634C-44.1268,81.5036 51.4261,138.974 90.3444,162.381"/>
</g>
<!-- n9&#45;&#45;n3 -->
<g id="edge40" class="edge"><title>n9&#45;&#45;n3</title>
<path fill="none" stroke="black" d="M-96.6642,28.5838C-90.4504,-6.63076 -77.3318,-80.9748 -71.1157,-116.202"/>
</g>
<!-- n9&#45;&#45;n2 -->
<g id="edge39" class="edge"><title>n9&#45;&#45;n2</title>
<path fill="none" stroke="black" d="M-104.771,28.4457C-109.401,9.34796 -116.427,-19.6397 -121.046,-38.6949"/>
</g>
<!-- n9&#45;&#45;n1 -->
<g id="edge38" class="edge"><title>n9&#45;&#45;n1</title>
<path fill="none" stroke="black" d="M-93.2126,29.3187C-75.9777,-17.3101 -30.9776,-139.057 -13.732,-185.715"/>
</g>
<!-- n9&#45;&#45;n0 -->
<g id="edge37" class="edge"><title>n9&#45;&#45;n0</title>
<path fill="none" stroke="black" d="M-83.961,36.1689C-63.9153,21.6177 -29.8929,-3.07927 -9.93865,-17.5641"/>
</g>
<!-- n8&#45;&#45;n7 -->
<g id="edge36" class="edge"><title>n8&#45;&#45;n7</title>
<path fill="none" stroke="black" d="M253.745,-60.9462C237.718,-74.3388 212.632,-95.3017 196.671,-108.639"/>
</g>
<!-- n8&#45;&#45;n6 -->
<g id="edge35" class="edge"><title>n8&#45;&#45;n6</title>
<path fill="none" stroke="black" d="M253.393,-60.5075C217.645,-88.6961 130,-157.808 94.3023,-185.958"/>
</g>
<!-- n8&#45;&#45;n5 -->
<g id="edge34" class="edge"><title>n8&#45;&#45;n5</title>
<path fill="none" stroke="black" d="M251.967,-38.5111C206.817,-12.663 84.1977,57.5353 38.9118,83.4611"/>
</g>
<!-- n8&#45;&#45;n4 -->
<g id="edge33" class="edge"><title>n8&#45;&#45;n4</title>
<path fill="none" stroke="black" d="M257.326,-32.3578C227.49,8.37923 148.497,116.238 118.778,156.817"/>
</g>
<!-- n8&#45;&#45;n3 -->
<g id="edge32" class="edge"><title>n8&#45;&#45;n3</title>
<path fill="none" stroke="black" d="M249.889,-53.1777C190.772,-68.5 10.9622,-115.103 -48.438,-130.499"/>
</g>
<!-- n8&#45;&#45;n2 -->
<g id="edge31" class="edge"><title>n8&#45;&#45;n2</title>
<path fill="none" stroke="black" d="M249.383,-48.7198C182.188,-50.3796 -38.6579,-55.8347 -106.032,-57.4989"/>
</g>
<!-- n8&#45;&#45;n1 -->
<g id="edge30" class="edge"><title>n8&#45;&#45;n1</title>
<path fill="none" stroke="black" d="M251.701,-57.9978C202.166,-86.0216 59.9046,-166.506 10.3785,-194.525"/>
</g>
<!-- n8&#45;&#45;n0 -->
<g id="edge29" class="edge"><title>n8&#45;&#45;n0</title>
<path fill="none" stroke="black" d="M249.188,-46.7989C200.332,-43.2461 74.3271,-34.0831 25.6072,-30.5402"/>
</g>
<!-- n7&#45;&#45;n6 -->
<g id="edge28" class="edge"><title>n7&#45;&#45;n6</title>
<path fill="none" stroke="black" d="M166.016,-132.896C146.686,-147.365 113.956,-171.865 94.5589,-186.386"/>
</g>
<!-- n7&#45;&#45;n5 -->
<g id="edge27" class="edge"><title>n7&#45;&#45;n5</title>
<path fill="none" stroke="black" d="M169.883,-105.434C140.325,-65.774 63.1512,37.7771 33.5752,77.4617"/>
</g>
<!-- n7&#45;&#45;n4 -->
<g id="edge26" class="edge"><title>n7&#45;&#45;n4</title>
<path fill="none" stroke="black" d="M176.755,-101.929C163.245,-48.575 125.471,100.609 112.056,153.589"/>
</g>
<!-- n7&#45;&#45;n3 -->
<g id="edge25" class="edge"><title>n7&#45;&#45;n3</title>
<path fill="none" stroke="black" d="M162.07,-122.325C115.458,-124.996 -1.71674,-131.712 -48.2365,-134.378"/>
</g>
<!-- n7&#45;&#45;n2 -->
<g id="edge24" class="edge"><title>n7&#45;&#45;n2</title>
<path fill="none" stroke="black" d="M162.409,-117.249C107.212,-105.896 -51.3146,-73.2896 -106.503,-61.9384"/>
</g>
<!-- n7&#45;&#45;n1 -->
<g id="edge23" class="edge"><title>n7&#45;&#45;n1</title>
<path fill="none" stroke="black" d="M163.561,-129.169C127.53,-145.049 47.1368,-180.481 11.1509,-196.341"/>
</g>
<!-- n7&#45;&#45;n0 -->
<g id="edge22" class="edge"><title>n7&#45;&#45;n0</title>
<path fill="none" stroke="black" d="M164.15,-112.037C130.478,-94.3846 57.0006,-55.8646 23.385,-38.2419"/>
</g>
<!-- n6&#45;&#45;n5 -->
<g id="edge21" class="edge"><title>n6&#45;&#45;n5</title>
<path fill="none" stroke="black" d="M74.9646,-178.613C64.5832,-125.52 35.9781,20.7718 25.6162,73.7647"/>
</g>
<!-- n6&#45;&#45;n4 -->
<g id="edge20" class="edge"><title>n6&#45;&#45;n4</title>
<path fill="none" stroke="black" d="M80.3023,-178.517C85.2326,-114.297 100.822,88.776 105.747,152.928"/>
</g>
<!-- n6&#45;&#45;n3 -->
<g id="edge19" class="edge"><title>n6&#45;&#45;n3</title>
<path fill="none" stroke="black" d="M60.828,-190.5C32.71,-178.468 -21.3921,-155.316 -49.6003,-143.245"/>
</g>
<!-- n6&#45;&#45;n2 -->
<g id="edge18" class="edge"><title>n6&#45;&#45;n2</title>
<path fill="none" stroke="black" d="M62.4017,-186.952C24.0133,-160.635 -71.3535,-95.2571 -109.537,-69.0806"/>
</g>
<!-- n6&#45;&#45;n1 -->
<g id="edge17" class="edge"><title>n6&#45;&#45;n1</title>
<path fill="none" stroke="black" d="M58.9245,-199.602C44.9869,-200.593 26.4433,-201.913 12.5957,-202.898"/>
</g>
<!-- n6&#45;&#45;n0 -->
<g id="edge16" class="edge"><title>n6&#45;&#45;n0</title>
<path fill="none" stroke="black" d="M70.999,-180.094C56.9827,-147.552 27.6826,-79.5237 13.7072,-47.0762"/>
</g>
<!-- n5&#45;&#45;n4 -->
<g id="edge15" class="edge"><title>n5&#45;&#45;n4</title>
<path fill="none" stroke="black" d="M36.3005,106.706C52.0134,121.288 76.9469,144.426 92.6876,159.034"/>
</g>
<!-- n5&#45;&#45;n3 -->
<g id="edge14" class="edge"><title>n5&#45;&#45;n3</title>
<path fill="none" stroke="black" d="M14.6311,74.9216C-2.13016,32.0904 -43.7081,-74.1568 -60.5031,-117.074"/>
</g>
<!-- n5&#45;&#45;n2 -->
<g id="edge13" class="edge"><title>n5&#45;&#45;n2</title>
<path fill="none" stroke="black" d="M7.92629,79.0262C-20.1912,50.2011 -83.596,-14.7992 -111.772,-43.6847"/>
</g>
<!-- n5&#45;&#45;n1 -->
<g id="edge12" class="edge"><title>n5&#45;&#45;n1</title>
<path fill="none" stroke="black" d="M19.9239,73.7322C14.7283,19.8203 0.223251,-130.691 -4.98061,-184.689"/>
</g>
<!-- n5&#45;&#45;n0 -->
<g id="edge11" class="edge"><title>n5&#45;&#45;n0</title>
<path fill="none" stroke="black" d="M19.2962,73.8651C16.3485,51.087 11.485,13.5049 8.51984,-9.40838"/>
</g>
<!-- n4&#45;&#45;n3 -->
<g id="edge10" class="edge"><title>n4&#45;&#45;n3</title>
<path fill="none" stroke="black" d="M97.5978,155.551C67.0792,101.82 -27.0941,-63.983 -57.8695,-118.166"/>
</g>
<!-- n4&#45;&#45;n2 -->
<g id="edge9" class="edge"><title>n4&#45;&#45;n2</title>
<path fill="none" stroke="black" d="M93.3779,158.821C52.0389,117.915 -69.9979,-2.84457 -111.624,-44.035"/>
</g>
<!-- n4&#45;&#45;n1 -->
<g id="edge8" class="edge"><title>n4&#45;&#45;n1</title>
<path fill="none" stroke="black" d="M101.595,153.864C82.165,89.7079 18.3061,-121.154 -1.17541,-185.483"/>
</g>
<!-- n4&#45;&#45;n0 -->
<g id="edge7" class="edge"><title>n4&#45;&#45;n0</title>
<path fill="none" stroke="black" d="M98.4428,155.008C79.2877,116.869 34.0349,26.7671 14.8328,-11.4656"/>
</g>
<!-- n3&#45;&#45;n2 -->
<g id="edge6" class="edge"><title>n3&#45;&#45;n2</title>
<path fill="none" stroke="black" d="M-79.4507,-119.809C-89.5153,-106.362 -103.941,-87.0878 -114,-73.6471"/>
</g>
<!-- n3&#45;&#45;n1 -->
<g id="edge5" class="edge"><title>n3&#45;&#45;n1</title>
<path fill="none" stroke="black" d="M-54.5095,-150.42C-44.3042,-161.958 -30.2439,-177.855 -20.0451,-189.386"/>
</g>
<!-- n3&#45;&#45;n0 -->
<g id="edge4" class="edge"><title>n3&#45;&#45;n0</title>
<path fill="none" stroke="black" d="M-56.5208,-119.337C-42.672,-99.3421 -19.2232,-65.4864 -5.32594,-45.4214"/>
</g>
<!-- n2&#45;&#45;n1 -->
<g id="edge3" class="edge"><title>n2&#45;&#45;n1</title>
<path fill="none" stroke="black" d="M-113.227,-73.3652C-90.341,-101.536 -41.9576,-161.092 -19.1963,-189.109"/>
</g>
<!-- n2&#45;&#45;n0 -->
<g id="edge2" class="edge"><title>n2&#45;&#45;n0</title>
<path fill="none" stroke="black" d="M-106.573,-53.7869C-81.605,-48.3128 -38.1815,-38.7923 -13.2023,-33.3157"/>
</g>
<!-- n1&#45;&#45;n0 -->
<g id="edge1" class="edge"><title>n1&#45;&#45;n0</title>
<path fill="none" stroke="black" d="M-5.42111,-184.529C-2.94873,-150.797 2.0587,-82.4767 4.52745,-48.7938"/>
</g>
</g>
</svg>
