<?xml version="1.0" encoding="UTF-8" standalone="no"?>
<!DOCTYPE svg PUBLIC "-//W3C//DTD SVG 1.1//EN"
 "http://www.w3.org/Graphics/SVG/1.1/DTD/svg11.dtd">
<!-- Generated by graphviz version 2.38.0 (20140413.2041)
 -->
<!-- Title: 1 Pages: 1 -->
<svg width="541pt" height="392pt"
 viewBox="0.00 0.00 541.43 391.55" xmlns="http://www.w3.org/2000/svg" xmlns:xlink="http://www.w3.org/1999/xlink">
<g id="graph0" class="graph" transform="scale(1 1) rotate(0) translate(208.33 183.451)">
<title>1</title>
<polygon fill="white" stroke="none" points="-208.33,208.095 -208.33,-183.451 333.098,-183.451 333.098,208.095 -208.33,208.095"/>
<!-- n20 -->
<g id="node1" class="node"><title>n20</title>
<ellipse fill="none" stroke="black" cx="-180.283" cy="-10.3114" rx="24.0958" ry="24.0958"/>
<text text-anchor="middle" x="-180.283" y="-6.61144" font-family="Times,serif" font-size="14.00">n20</text>
</g>
<!-- n18 -->
<g id="node2" class="node"><title>n18</title>
<ellipse fill="none" stroke="black" cx="-160.918" cy="-80.5626" rx="24.0958" ry="24.0958"/>
<text text-anchor="middle" x="-160.918" y="-76.8626" font-family="Times,serif" font-size="14.00">n18</text>
</g>
<!-- n20&#45;&#45;n18 -->
<g id="edge1" class="edge"><title>n20&#45;&#45;n18</title>
<path fill="none" stroke="black" d="M-173.834,-33.7041C-171.766,-41.208 -169.475,-49.519 -167.404,-57.0326"/>
</g>
<!-- n19 -->
<g id="node3" class="node"><title>n19</title>
<ellipse fill="none" stroke="black" cx="-96.6428" cy="-25.7522" rx="24.0958" ry="24.0958"/>
<text text-anchor="middle" x="-96.6428" y="-22.0522" font-family="Times,serif" font-size="14.00">n19</text>
</g>
<!-- n19&#45;&#45;n20 -->
<g id="edge2" class="edge"><title>n19&#45;&#45;n20</title>
<path fill="none" stroke="black" d="M-120.387,-21.3688C-131.688,-19.2825 -145.17,-16.7936 -156.479,-14.7058"/>
</g>
<!-- n19&#45;&#45;n18 -->
<g id="edge3" class="edge"><title>n19&#45;&#45;n18</title>
<path fill="none" stroke="black" d="M-115.234,-41.6057C-123.835,-48.9407 -134.022,-57.6271 -142.591,-64.9341"/>
</g>
<!-- n15 -->
<g id="node4" class="node"><title>n15</title>
<ellipse fill="none" stroke="black" cx="-156.657" cy="100.144" rx="24.0958" ry="24.0958"/>
<text text-anchor="middle" x="-156.657" y="103.844" font-family="Times,serif" font-size="14.00">n15</text>
</g>
<!-- n19&#45;&#45;n15 -->
<g id="edge4" class="edge"><title>n19&#45;&#45;n15</title>
<path fill="none" stroke="black" d="M-107.096,-3.82285C-118.044,19.1436 -135.143,55.0128 -146.122,78.0431"/>
</g>
<!-- n17 -->
<g id="node5" class="node"><title>n17</title>
<ellipse fill="none" stroke="black" cx="-72.9317" cy="-87.2971" rx="24.0958" ry="24.0958"/>
<text text-anchor="middle" x="-72.9317" y="-83.5971" font-family="Times,serif" font-size="14.00">n17</text>
</g>
<!-- n17&#45;&#45;n20 -->
<g id="edge5" class="edge"><title>n17&#45;&#45;n20</title>
<path fill="none" stroke="black" d="M-92.6215,-73.1768C-111.991,-59.2861 -141.391,-38.202 -160.718,-24.3423"/>
</g>
<!-- n17&#45;&#45;n18 -->
<g id="edge7" class="edge"><title>n17&#45;&#45;n18</title>
<path fill="none" stroke="black" d="M-96.9743,-85.4569C-109.389,-84.5066 -124.494,-83.3506 -136.904,-82.4006"/>
</g>
<!-- n17&#45;&#45;n19 -->
<g id="edge6" class="edge"><title>n17&#45;&#45;n19</title>
<path fill="none" stroke="black" d="M-81.6262,-64.7295C-83.6881,-59.3777 -85.8876,-53.6688 -87.9494,-48.3171"/>
</g>
<!-- n14 -->
<g id="node6" class="node"><title>n14</title>
<ellipse fill="none" stroke="black" cx="-85.0178" cy="41.9503" rx="24.0958" ry="24.0958"/>
<text text-anchor="middle" x="-85.0178" y="45.6503" font-family="Times,serif" font-size="14.00">n14</text>
</g>
<!-- n17&#45;&#45;n14 -->
<g id="edge8" class="edge"><title>n17&#45;&#45;n14</title>
<path fill="none" stroke="black" d="M-75.1767,-63.2896C-77.3339,-40.2207 -80.577,-5.53944 -82.7438,17.6328"/>
</g>
<!-- n14&#45;&#45;n20 -->
<g id="edge13" class="edge"><title>n14&#45;&#45;n20</title>
<path fill="none" stroke="black" d="M-106.16,30.3518C-121.838,21.7512 -143.129,10.0711 -158.87,1.43544"/>
</g>
<!-- n14&#45;&#45;n18 -->
<g id="edge15" class="edge"><title>n14&#45;&#45;n18</title>
<path fill="none" stroke="black" d="M-97.7218,21.4444C-111.732,-1.17077 -134.145,-37.3479 -148.172,-59.9898"/>
</g>
<!-- n14&#45;&#45;n19 -->
<g id="edge14" class="edge"><title>n14&#45;&#45;n19</title>
<path fill="none" stroke="black" d="M-89.1491,17.8903C-90.2455,11.5051 -91.4292,4.61138 -92.5248,-1.76969"/>
</g>
<!-- n14&#45;&#45;n15 -->
<g id="edge16" class="edge"><title>n14&#45;&#45;n15</title>
<path fill="none" stroke="black" d="M-103.84,57.2399C-114.37,65.7934 -127.451,76.4192 -137.96,84.9561"/>
</g>
<!-- n16 -->
<g id="node7" class="node"><title>n16</title>
<ellipse fill="none" stroke="black" cx="-15.3153" cy="-0.600139" rx="24.0958" ry="24.0958"/>
<text text-anchor="middle" x="-15.3153" y="3.09986" font-family="Times,serif" font-size="14.00">n16</text>
</g>
<!-- n16&#45;&#45;n19 -->
<g id="edge9" class="edge"><title>n16&#45;&#45;n19</title>
<path fill="none" stroke="black" d="M-38.4029,-7.74044C-49.3918,-11.139 -62.5012,-15.1933 -73.4974,-18.5941"/>
</g>
<!-- n16&#45;&#45;n17 -->
<g id="edge10" class="edge"><title>n16&#45;&#45;n17</title>
<path fill="none" stroke="black" d="M-28.6785,-20.7081C-37.9201,-34.6141 -50.1724,-53.0506 -59.4414,-66.9979"/>
</g>
<!-- n16&#45;&#45;n14 -->
<g id="edge11" class="edge"><title>n16&#45;&#45;n14</title>
<path fill="none" stroke="black" d="M-35.8513,11.9363C-44.8466,17.4275 -55.3817,23.8588 -64.3877,29.3565"/>
</g>
<!-- n5 -->
<g id="node8" class="node"><title>n5</title>
<ellipse fill="none" stroke="black" cx="36.9449" cy="-47.6937" rx="19.4965" ry="19.4965"/>
<text text-anchor="middle" x="36.9449" y="-43.9937" font-family="Times,serif" font-size="14.00">n5</text>
</g>
<!-- n16&#45;&#45;n5 -->
<g id="edge12" class="edge"><title>n16&#45;&#45;n5</title>
<path fill="none" stroke="black" d="M2.66972,-16.8071C9.04721,-22.5541 16.1439,-28.9492 22.218,-34.4228"/>
</g>
<!-- n5&#45;&#45;n19 -->
<g id="edge32" class="edge"><title>n5&#45;&#45;n19</title>
<path fill="none" stroke="black" d="M17.5201,-44.5033C-6.35992,-40.581 -46.8827,-33.9252 -72.6745,-29.689"/>
</g>
<!-- n5&#45;&#45;n17 -->
<g id="edge33" class="edge"><title>n5&#45;&#45;n17</title>
<path fill="none" stroke="black" d="M18.3059,-54.4119C-0.552102,-61.209 -29.7384,-71.7287 -50.0025,-79.0326"/>
</g>
<!-- n10 -->
<g id="node12" class="node"><title>n10</title>
<ellipse fill="none" stroke="black" cx="69.9814" cy="-155.403" rx="24.0958" ry="24.0958"/>
<text text-anchor="middle" x="69.9814" y="-151.703" font-family="Times,serif" font-size="14.00">n10</text>
</g>
<!-- n5&#45;&#45;n10 -->
<g id="edge34" class="edge"><title>n5&#45;&#45;n10</title>
<path fill="none" stroke="black" d="M42.6994,-66.4553C48.3194,-84.7781 56.8836,-112.7 62.9145,-132.363"/>
</g>
<!-- n8 -->
<g id="node13" class="node"><title>n8</title>
<ellipse fill="none" stroke="black" cx="150.812" cy="-65.8335" rx="19.4965" ry="19.4965"/>
<text text-anchor="middle" x="150.812" y="-62.1335" font-family="Times,serif" font-size="14.00">n8</text>
</g>
<!-- n5&#45;&#45;n8 -->
<g id="edge35" class="edge"><title>n5&#45;&#45;n8</title>
<path fill="none" stroke="black" d="M56.261,-50.7709C77.1997,-54.1066 110.426,-59.3996 131.401,-62.7412"/>
</g>
<!-- n13 -->
<g id="node9" class="node"><title>n13</title>
<ellipse fill="none" stroke="black" cx="-12.1182" cy="82.302" rx="24.0958" ry="24.0958"/>
<text text-anchor="middle" x="-12.1182" y="86.002" font-family="Times,serif" font-size="14.00">n13</text>
</g>
<!-- n13&#45;&#45;n14 -->
<g id="edge18" class="edge"><title>n13&#45;&#45;n14</title>
<path fill="none" stroke="black" d="M-33.2038,70.6306C-42.7914,65.3237 -54.1149,59.0558 -63.7271,53.7353"/>
</g>
<!-- n13&#45;&#45;n16 -->
<g id="edge17" class="edge"><title>n13&#45;&#45;n16</title>
<path fill="none" stroke="black" d="M-13.0602,57.877C-13.4764,47.0828 -13.9646,34.4242 -14.3801,23.6503"/>
</g>
<!-- n13&#45;&#45;n5 -->
<g id="edge19" class="edge"><title>n13&#45;&#45;n5</title>
<path fill="none" stroke="black" d="M-3.57207,59.6585C5.92733,34.4892 21.091,-5.68783 29.9252,-29.0944"/>
</g>
<!-- n12 -->
<g id="node10" class="node"><title>n12</title>
<ellipse fill="none" stroke="black" cx="53.4225" cy="30.2786" rx="24.0958" ry="24.0958"/>
<text text-anchor="middle" x="53.4225" y="33.9786" font-family="Times,serif" font-size="14.00">n12</text>
</g>
<!-- n12&#45;&#45;n14 -->
<g id="edge21" class="edge"><title>n12&#45;&#45;n14</title>
<path fill="none" stroke="black" d="M29.3081,32.3117C4.05319,34.4409 -35.3901,37.7663 -60.7152,39.9014"/>
</g>
<!-- n12&#45;&#45;n16 -->
<g id="edge20" class="edge"><title>n12&#45;&#45;n16</title>
<path fill="none" stroke="black" d="M31.2951,20.3384C23.4458,16.8123 14.6166,12.846 6.77069,9.32144"/>
</g>
<!-- n12&#45;&#45;n5 -->
<g id="edge23" class="edge"><title>n12&#45;&#45;n5</title>
<path fill="none" stroke="black" d="M48.3892,6.46068C46.0231,-4.73573 43.2391,-17.9096 41.0095,-28.4603"/>
</g>
<!-- n12&#45;&#45;n13 -->
<g id="edge22" class="edge"><title>n12&#45;&#45;n13</title>
<path fill="none" stroke="black" d="M34.4654,45.326C25.8457,52.1679 15.6652,60.2488 7.02333,67.1083"/>
</g>
<!-- n11 -->
<g id="node11" class="node"><title>n11</title>
<ellipse fill="none" stroke="black" cx="44.9099" cy="86.3744" rx="24.0958" ry="24.0958"/>
<text text-anchor="middle" x="44.9099" y="90.0744" font-family="Times,serif" font-size="14.00">n11</text>
</g>
<!-- n11&#45;&#45;n14 -->
<g id="edge25" class="edge"><title>n11&#45;&#45;n14</title>
<path fill="none" stroke="black" d="M21.9805,78.5345C-1.6232,70.4641 -38.2011,57.9576 -61.8806,49.8613"/>
</g>
<!-- n11&#45;&#45;n16 -->
<g id="edge24" class="edge"><title>n11&#45;&#45;n16</title>
<path fill="none" stroke="black" d="M30.9416,66.2021C21.2121,52.1511 8.2901,33.4897 -1.42279,19.4628"/>
</g>
<!-- n11&#45;&#45;n5 -->
<g id="edge28" class="edge"><title>n11&#45;&#45;n5</title>
<path fill="none" stroke="black" d="M43.4675,62.0956C41.9343,36.2888 39.5391,-4.02776 38.1176,-27.9554"/>
</g>
<!-- n11&#45;&#45;n13 -->
<g id="edge26" class="edge"><title>n11&#45;&#45;n13</title>
<path fill="none" stroke="black" d="M20.7248,84.6473C17.8105,84.4392 14.8344,84.2267 11.9222,84.0187"/>
</g>
<!-- n11&#45;&#45;n12 -->
<g id="edge27" class="edge"><title>n11&#45;&#45;n12</title>
<path fill="none" stroke="black" d="M48.52,62.5847C48.9369,59.8375 49.3623,57.0345 49.7796,54.2844"/>
</g>
<!-- n10&#45;&#45;n8 -->
<g id="edge29" class="edge"><title>n10&#45;&#45;n8</title>
<path fill="none" stroke="black" d="M86.3387,-137.277C101.47,-120.511 123.674,-95.9056 137.679,-80.3863"/>
</g>
<!-- n9 -->
<g id="node14" class="node"><title>n9</title>
<ellipse fill="none" stroke="black" cx="100.63" cy="184.597" rx="19.4965" ry="19.4965"/>
<text text-anchor="middle" x="100.63" y="188.297" font-family="Times,serif" font-size="14.00">n9</text>
</g>
<!-- n9&#45;&#45;n11 -->
<g id="edge30" class="edge"><title>n9&#45;&#45;n11</title>
<path fill="none" stroke="black" d="M90.9246,167.488C81.4458,150.779 67.0011,125.316 56.8291,107.385"/>
</g>
<!-- n7 -->
<g id="node15" class="node"><title>n7</title>
<ellipse fill="none" stroke="black" cx="128.182" cy="-127.192" rx="19.4965" ry="19.4965"/>
<text text-anchor="middle" x="128.182" y="-123.492" font-family="Times,serif" font-size="14.00">n7</text>
</g>
<!-- n7&#45;&#45;n5 -->
<g id="edge31" class="edge"><title>n7&#45;&#45;n5</title>
<path fill="none" stroke="black" d="M113.116,-114.065C96.11,-99.2466 68.6202,-75.2937 51.7305,-60.577"/>
</g>
<!-- n4 -->
<g id="node16" class="node"><title>n4</title>
<ellipse fill="none" stroke="black" cx="250.866" cy="31.3365" rx="19.4965" ry="19.4965"/>
<text text-anchor="middle" x="250.866" y="35.0365" font-family="Times,serif" font-size="14.00">n4</text>
</g>
<!-- n6 -->
<g id="node17" class="node"><title>n6</title>
<ellipse fill="none" stroke="black" cx="268.734" cy="116.44" rx="19.4965" ry="19.4965"/>
<text text-anchor="middle" x="268.734" y="120.14" font-family="Times,serif" font-size="14.00">n6</text>
</g>
<!-- n4&#45;&#45;n6 -->
<g id="edge36" class="edge"><title>n4&#45;&#45;n6</title>
<path fill="none" stroke="black" d="M254.921,50.6478C257.845,64.5755 261.775,83.2949 264.696,97.205"/>
</g>
<!-- n2 -->
<g id="node18" class="node"><title>n2</title>
<ellipse fill="none" stroke="black" cx="186.649" cy="109.707" rx="19.4965" ry="19.4965"/>
<text text-anchor="middle" x="186.649" y="113.407" font-family="Times,serif" font-size="14.00">n2</text>
</g>
<!-- n4&#45;&#45;n2 -->
<g id="edge37" class="edge"><title>n4&#45;&#45;n2</title>
<path fill="none" stroke="black" d="M238.484,46.4471C227.186,60.2358 210.567,80.5178 199.212,94.3754"/>
</g>
<!-- n1 -->
<g id="node19" class="node"><title>n1</title>
<ellipse fill="none" stroke="black" cx="202.574" cy="62.4806" rx="19.4965" ry="19.4965"/>
<text text-anchor="middle" x="202.574" y="66.1806" font-family="Times,serif" font-size="14.00">n1</text>
</g>
<!-- n4&#45;&#45;n1 -->
<g id="edge38" class="edge"><title>n4&#45;&#45;n1</title>
<path fill="none" stroke="black" d="M234.247,42.0545C229.336,45.2217 223.963,48.6866 219.06,51.8483"/>
</g>
<!-- n2&#45;&#45;n6 -->
<g id="edge40" class="edge"><title>n2&#45;&#45;n6</title>
<path fill="none" stroke="black" d="M206.102,111.303C219.092,112.368 236.116,113.764 249.136,114.832"/>
</g>
<!-- n2&#45;&#45;n1 -->
<g id="edge41" class="edge"><title>n2&#45;&#45;n1</title>
<path fill="none" stroke="black" d="M192.943,91.0419C194.056,87.7417 195.214,84.3066 196.326,81.0102"/>
</g>
<!-- n1&#45;&#45;n6 -->
<g id="edge42" class="edge"><title>n1&#45;&#45;n6</title>
<path fill="none" stroke="black" d="M217.919,74.9955C228.607,83.7128 242.802,95.2904 253.472,103.993"/>
</g>
<!-- n3 -->
<g id="node20" class="node"><title>n3</title>
<ellipse fill="none" stroke="black" cx="309.6" cy="-32.2157" rx="19.4965" ry="19.4965"/>
<text text-anchor="middle" x="309.6" y="-28.5157" font-family="Times,serif" font-size="14.00">n3</text>
</g>
<!-- n3&#45;&#45;n4 -->
<g id="edge39" class="edge"><title>n3&#45;&#45;n4</title>
<path fill="none" stroke="black" d="M296.272,-17.7947C286.66,-7.39399 273.741,6.58504 264.141,16.9726"/>
</g>
<!-- n0 -->
<g id="node21" class="node"><title>n0</title>
<ellipse fill="none" stroke="black" cx="155.577" cy="18.2517" rx="19.4965" ry="19.4965"/>
<text text-anchor="middle" x="155.577" y="21.9517" font-family="Times,serif" font-size="14.00">n0</text>
</g>
<!-- n0&#45;&#45;n4 -->
<g id="edge43" class="edge"><title>n0&#45;&#45;n4</title>
<path fill="none" stroke="black" d="M175.321,20.9629C191.784,23.2236 215.109,26.4265 231.474,28.6736"/>
</g>
<!-- n0&#45;&#45;n2 -->
<g id="edge44" class="edge"><title>n0&#45;&#45;n2</title>
<path fill="none" stroke="black" d="M161.865,36.7591C167.256,52.6261 174.982,75.3681 180.37,91.2272"/>
</g>
<!-- n0&#45;&#45;n1 -->
<g id="edge45" class="edge"><title>n0&#45;&#45;n1</title>
<path fill="none" stroke="black" d="M169.933,31.7622C175.764,37.2495 182.484,43.5741 188.306,49.0529"/>
</g>
</g>
</svg>
