<?xml version="1.0" encoding="UTF-8" standalone="no"?>
<!DOCTYPE svg PUBLIC "-//W3C//DTD SVG 1.1//EN"
 "http://www.w3.org/Graphics/SVG/1.1/DTD/svg11.dtd">
<!-- Generated by graphviz version 2.38.0 (20140413.2041)
 -->
<!-- Title: 1 Pages: 1 -->
<svg width="554pt" height="633pt"
 viewBox="0.00 0.00 554.47 632.70" xmlns="http://www.w3.org/2000/svg" xmlns:xlink="http://www.w3.org/1999/xlink">
<g id="graph0" class="graph" transform="scale(1 1) rotate(0) translate(297.229 370.692)">
<title>1</title>
<polygon fill="white" stroke="none" points="-297.229,262.007 -297.229,-370.692 257.245,-370.692 257.245,262.007 -297.229,262.007"/>
<!-- n20 -->
<g id="node1" class="node"><title>n20</title>
<ellipse fill="none" stroke="black" cx="-25.8618" cy="233.959" rx="24.0958" ry="24.0958"/>
<text text-anchor="middle" x="-25.8618" y="237.659" font-family="Times,serif" font-size="14.00">n20</text>
</g>
<!-- n18 -->
<g id="node2" class="node"><title>n18</title>
<ellipse fill="none" stroke="black" cx="45.7718" cy="227.618" rx="24.0958" ry="24.0958"/>
<text text-anchor="middle" x="45.7718" y="231.318" font-family="Times,serif" font-size="14.00">n18</text>
</g>
<!-- n20&#45;&#45;n18 -->
<g id="edge1" class="edge"><title>n20&#45;&#45;n18</title>
<path fill="none" stroke="black" d="M-1.6099,231.812C5.85844,231.151 14.0783,230.424 21.5449,229.763"/>
</g>
<!-- n19 -->
<g id="node3" class="node"><title>n19</title>
<ellipse fill="none" stroke="black" cx="23.1803" cy="155.286" rx="24.0958" ry="24.0958"/>
<text text-anchor="middle" x="23.1803" y="158.986" font-family="Times,serif" font-size="14.00">n19</text>
</g>
<!-- n19&#45;&#45;n20 -->
<g id="edge2" class="edge"><title>n19&#45;&#45;n20</title>
<path fill="none" stroke="black" d="M10.2951,175.957C3.08667,187.52 -5.86817,201.886 -13.0626,213.427"/>
</g>
<!-- n19&#45;&#45;n18 -->
<g id="edge3" class="edge"><title>n19&#45;&#45;n18</title>
<path fill="none" stroke="black" d="M30.4528,178.571C33.0325,186.83 35.9344,196.121 38.513,204.377"/>
</g>
<!-- n15 -->
<g id="node4" class="node"><title>n15</title>
<ellipse fill="none" stroke="black" cx="-113.467" cy="172.98" rx="24.0958" ry="24.0958"/>
<text text-anchor="middle" x="-113.467" y="176.68" font-family="Times,serif" font-size="14.00">n15</text>
</g>
<!-- n19&#45;&#45;n15 -->
<g id="edge4" class="edge"><title>n19&#45;&#45;n15</title>
<path fill="none" stroke="black" d="M-0.93493,158.409C-25.9126,161.643 -64.7044,166.666 -89.5928,169.889"/>
</g>
<!-- n17 -->
<g id="node5" class="node"><title>n17</title>
<ellipse fill="none" stroke="black" cx="96.2826" cy="158.814" rx="24.0958" ry="24.0958"/>
<text text-anchor="middle" x="96.2826" y="162.514" font-family="Times,serif" font-size="14.00">n17</text>
</g>
<!-- n17&#45;&#45;n20 -->
<g id="edge5" class="edge"><title>n17&#45;&#45;n20</title>
<path fill="none" stroke="black" d="M75.5625,171.562C53.1016,185.38 17.4605,207.307 -5.04001,221.149"/>
</g>
<!-- n17&#45;&#45;n18 -->
<g id="edge7" class="edge"><title>n17&#45;&#45;n18</title>
<path fill="none" stroke="black" d="M81.9433,178.347C75.1767,187.564 67.1156,198.544 60.3223,207.798"/>
</g>
<!-- n17&#45;&#45;n19 -->
<g id="edge6" class="edge"><title>n17&#45;&#45;n19</title>
<path fill="none" stroke="black" d="M71.9406,157.64C64.0491,157.259 55.2998,156.836 47.416,156.456"/>
</g>
<!-- n14 -->
<g id="node6" class="node"><title>n14</title>
<ellipse fill="none" stroke="black" cx="-32.9154" cy="113.837" rx="24.0958" ry="24.0958"/>
<text text-anchor="middle" x="-32.9154" y="117.537" font-family="Times,serif" font-size="14.00">n14</text>
</g>
<!-- n17&#45;&#45;n14 -->
<g id="edge8" class="edge"><title>n17&#45;&#45;n14</title>
<path fill="none" stroke="black" d="M73.482,150.877C50.0108,142.706 13.6383,130.044 -9.90818,121.847"/>
</g>
<!-- n14&#45;&#45;n20 -->
<g id="edge14" class="edge"><title>n14&#45;&#45;n20</title>
<path fill="none" stroke="black" d="M-31.505,137.857C-30.2828,158.671 -28.5225,188.648 -27.294,209.569"/>
</g>
<!-- n14&#45;&#45;n18 -->
<g id="edge16" class="edge"><title>n14&#45;&#45;n18</title>
<path fill="none" stroke="black" d="M-19.2092,133.656C-4.8547,154.413 17.5642,186.83 31.9586,207.644"/>
</g>
<!-- n14&#45;&#45;n19 -->
<g id="edge15" class="edge"><title>n14&#45;&#45;n19</title>
<path fill="none" stroke="black" d="M-13.2959,128.334C-7.86161,132.349 -1.96202,136.709 3.47699,140.728"/>
</g>
<!-- n14&#45;&#45;n15 -->
<g id="edge17" class="edge"><title>n14&#45;&#45;n15</title>
<path fill="none" stroke="black" d="M-52.4147,128.154C-64.9863,137.384 -81.2769,149.345 -93.868,158.59"/>
</g>
<!-- n16 -->
<g id="node7" class="node"><title>n16</title>
<ellipse fill="none" stroke="black" cx="27.9274" cy="78.7487" rx="24.0958" ry="24.0958"/>
<text text-anchor="middle" x="27.9274" y="82.4487" font-family="Times,serif" font-size="14.00">n16</text>
</g>
<!-- n16&#45;&#45;n18 -->
<g id="edge10" class="edge"><title>n16&#45;&#45;n18</title>
<path fill="none" stroke="black" d="M30.7945,102.667C34.1047,130.283 39.5205,175.465 42.8527,203.264"/>
</g>
<!-- n16&#45;&#45;n19 -->
<g id="edge9" class="edge"><title>n16&#45;&#45;n19</title>
<path fill="none" stroke="black" d="M26.4254,102.966C25.8659,111.988 25.2312,122.219 24.6726,131.227"/>
</g>
<!-- n16&#45;&#45;n17 -->
<g id="edge11" class="edge"><title>n16&#45;&#45;n17</title>
<path fill="none" stroke="black" d="M43.7813,97.3186C54.8242,110.253 69.4906,127.432 80.5147,140.345"/>
</g>
<!-- n16&#45;&#45;n14 -->
<g id="edge12" class="edge"><title>n16&#45;&#45;n14</title>
<path fill="none" stroke="black" d="M6.98878,90.8241C0.938892,94.3131 -5.66694,98.1228 -11.7316,101.62"/>
</g>
<!-- n5 -->
<g id="node8" class="node"><title>n5</title>
<ellipse fill="none" stroke="black" cx="110.421" cy="14.4516" rx="19.4965" ry="19.4965"/>
<text text-anchor="middle" x="110.421" y="18.1516" font-family="Times,serif" font-size="14.00">n5</text>
</g>
<!-- n16&#45;&#45;n5 -->
<g id="edge13" class="edge"><title>n16&#45;&#45;n5</title>
<path fill="none" stroke="black" d="M47.0605,63.836C61.6251,52.4841 81.4124,37.0615 94.9773,26.4888"/>
</g>
<!-- n5&#45;&#45;n19 -->
<g id="edge33" class="edge"><title>n5&#45;&#45;n19</title>
<path fill="none" stroke="black" d="M100.071,31.1603C84.093,56.9537 53.4526,106.417 36.0632,134.489"/>
</g>
<!-- n5&#45;&#45;n17 -->
<g id="edge34" class="edge"><title>n5&#45;&#45;n17</title>
<path fill="none" stroke="black" d="M108.514,33.921C105.952,60.0883 101.399,106.577 98.6287,134.859"/>
</g>
<!-- n10 -->
<g id="node12" class="node"><title>n10</title>
<ellipse fill="none" stroke="black" cx="168.288" cy="-91.0725" rx="24.0958" ry="24.0958"/>
<text text-anchor="middle" x="168.288" y="-87.3725" font-family="Times,serif" font-size="14.00">n10</text>
</g>
<!-- n5&#45;&#45;n10 -->
<g id="edge35" class="edge"><title>n5&#45;&#45;n10</title>
<path fill="none" stroke="black" d="M119.977,-2.97353C130.056,-21.3547 145.943,-50.3255 156.723,-69.9836"/>
</g>
<!-- n8 -->
<g id="node13" class="node"><title>n8</title>
<ellipse fill="none" stroke="black" cx="233.747" cy="8.98842" rx="19.4965" ry="19.4965"/>
<text text-anchor="middle" x="233.747" y="12.6884" font-family="Times,serif" font-size="14.00">n8</text>
</g>
<!-- n5&#45;&#45;n8 -->
<g id="edge36" class="edge"><title>n5&#45;&#45;n8</title>
<path fill="none" stroke="black" d="M129.962,13.586C152.919,12.569 190.796,10.8911 213.889,9.86812"/>
</g>
<!-- n13 -->
<g id="node9" class="node"><title>n13</title>
<ellipse fill="none" stroke="black" cx="-24.9484" cy="-9.91574" rx="24.0958" ry="24.0958"/>
<text text-anchor="middle" x="-24.9484" y="-6.21574" font-family="Times,serif" font-size="14.00">n13</text>
</g>
<!-- n13&#45;&#45;n14 -->
<g id="edge19" class="edge"><title>n13&#45;&#45;n14</title>
<path fill="none" stroke="black" d="M-26.5035,14.2388C-27.9073,36.0444 -29.9617,67.9568 -31.3643,89.7435"/>
</g>
<!-- n13&#45;&#45;n16 -->
<g id="edge18" class="edge"><title>n13&#45;&#45;n16</title>
<path fill="none" stroke="black" d="M-12.4176,11.0965C-3.98874,25.2303 7.07655,43.785 15.4866,57.8873"/>
</g>
<!-- n13&#45;&#45;n5 -->
<g id="edge20" class="edge"><title>n13&#45;&#45;n5</title>
<path fill="none" stroke="black" d="M-1.05868,-5.61544C25.2035,-0.888084 66.8813,6.61419 91.1462,10.982"/>
</g>
<!-- n12 -->
<g id="node10" class="node"><title>n12</title>
<ellipse fill="none" stroke="black" cx="32.648" cy="-4.73688" rx="24.0958" ry="24.0958"/>
<text text-anchor="middle" x="32.648" y="-1.03688" font-family="Times,serif" font-size="14.00">n12</text>
</g>
<!-- n12&#45;&#45;n14 -->
<g id="edge22" class="edge"><title>n12&#45;&#45;n14</title>
<path fill="none" stroke="black" d="M20.9266,16.4618C9.06644,37.9113 -9.17163,70.8956 -21.0744,92.4222"/>
</g>
<!-- n12&#45;&#45;n16 -->
<g id="edge21" class="edge"><title>n12&#45;&#45;n16</title>
<path fill="none" stroke="black" d="M31.2826,19.4106C30.6563,30.4867 29.9157,43.5859 29.2898,54.6554"/>
</g>
<!-- n12&#45;&#45;n5 -->
<g id="edge24" class="edge"><title>n12&#45;&#45;n5</title>
<path fill="none" stroke="black" d="M56.4051,1.12457C67.6622,3.90198 80.9234,7.17384 91.4889,9.7806"/>
</g>
<!-- n12&#45;&#45;n13 -->
<g id="edge23" class="edge"><title>n12&#45;&#45;n13</title>
<path fill="none" stroke="black" d="M8.55566,-6.90318C5.47306,-7.18036 2.31652,-7.46418 -0.767485,-7.74148"/>
</g>
<!-- n11 -->
<g id="node11" class="node"><title>n11</title>
<ellipse fill="none" stroke="black" cx="90.9268" cy="68.3887" rx="24.0958" ry="24.0958"/>
<text text-anchor="middle" x="90.9268" y="72.0887" font-family="Times,serif" font-size="14.00">n11</text>
</g>
<!-- n11&#45;&#45;n14 -->
<g id="edge26" class="edge"><title>n11&#45;&#45;n14</title>
<path fill="none" stroke="black" d="M68.2122,76.7247C46.0067,84.8738 12.3739,97.2166 -9.92548,105.4"/>
</g>
<!-- n11&#45;&#45;n16 -->
<g id="edge25" class="edge"><title>n11&#45;&#45;n16</title>
<path fill="none" stroke="black" d="M67.1094,72.3054C62.0918,73.1305 56.7973,74.0011 51.7785,74.8265"/>
</g>
<!-- n11&#45;&#45;n5 -->
<g id="edge29" class="edge"><title>n11&#45;&#45;n5</title>
<path fill="none" stroke="black" d="M99.1941,45.5145C100.688,41.38 102.23,37.114 103.675,33.1176"/>
</g>
<!-- n11&#45;&#45;n13 -->
<g id="edge27" class="edge"><title>n11&#45;&#45;n13</title>
<path fill="none" stroke="black" d="M70.7428,54.7491C49.4747,40.3769 16.1846,17.8806 -4.99581,3.56755"/>
</g>
<!-- n11&#45;&#45;n12 -->
<g id="edge28" class="edge"><title>n11&#45;&#45;n12</title>
<path fill="none" stroke="black" d="M75.9185,49.5571C67.2847,38.7238 56.4671,25.1503 47.8079,14.2851"/>
</g>
<!-- n10&#45;&#45;n8 -->
<g id="edge30" class="edge"><title>n10&#45;&#45;n8</title>
<path fill="none" stroke="black" d="M181.535,-70.8237C193.713,-52.2072 211.551,-24.941 222.903,-7.58723"/>
</g>
<!-- n9 -->
<g id="node14" class="node"><title>n9</title>
<ellipse fill="none" stroke="black" cx="217.556" cy="141.563" rx="19.4965" ry="19.4965"/>
<text text-anchor="middle" x="217.556" y="145.263" font-family="Times,serif" font-size="14.00">n9</text>
</g>
<!-- n9&#45;&#45;n11 -->
<g id="edge31" class="edge"><title>n9&#45;&#45;n11</title>
<path fill="none" stroke="black" d="M200.478,131.695C177.525,118.431 136.747,94.8665 111.939,80.531"/>
</g>
<!-- n7 -->
<g id="node15" class="node"><title>n7</title>
<ellipse fill="none" stroke="black" cx="220.207" cy="-54.5903" rx="19.4965" ry="19.4965"/>
<text text-anchor="middle" x="220.207" y="-50.8903" font-family="Times,serif" font-size="14.00">n7</text>
</g>
<!-- n7&#45;&#45;n5 -->
<g id="edge32" class="edge"><title>n7&#45;&#45;n5</title>
<path fill="none" stroke="black" d="M203.533,-44.1044C182.898,-31.1276 147.959,-9.15523 127.252,3.86696"/>
</g>
<!-- n4 -->
<g id="node16" class="node"><title>n4</title>
<ellipse fill="none" stroke="black" cx="-143.471" cy="-226.838" rx="19.4965" ry="19.4965"/>
<text text-anchor="middle" x="-143.471" y="-223.138" font-family="Times,serif" font-size="14.00">n4</text>
</g>
<!-- n6 -->
<g id="node17" class="node"><title>n6</title>
<ellipse fill="none" stroke="black" cx="-273.731" cy="-235.327" rx="19.4965" ry="19.4965"/>
<text text-anchor="middle" x="-273.731" y="-231.627" font-family="Times,serif" font-size="14.00">n6</text>
</g>
<!-- n4&#45;&#45;n6 -->
<g id="edge37" class="edge"><title>n4&#45;&#45;n6</title>
<path fill="none" stroke="black" d="M-162.972,-228.109C-187.529,-229.709 -229.477,-232.443 -254.096,-234.047"/>
</g>
<!-- n2 -->
<g id="node18" class="node"><title>n2</title>
<ellipse fill="none" stroke="black" cx="-188.814" cy="-173.293" rx="19.4965" ry="19.4965"/>
<text text-anchor="middle" x="-188.814" y="-169.593" font-family="Times,serif" font-size="14.00">n2</text>
</g>
<!-- n4&#45;&#45;n2 -->
<g id="edge38" class="edge"><title>n4&#45;&#45;n2</title>
<path fill="none" stroke="black" d="M-156.101,-211.923C-162.286,-204.62 -169.719,-195.842 -175.936,-188.5"/>
</g>
<!-- n1 -->
<g id="node19" class="node"><title>n1</title>
<ellipse fill="none" stroke="black" cx="-230.101" cy="-124.765" rx="19.4965" ry="19.4965"/>
<text text-anchor="middle" x="-230.101" y="-121.065" font-family="Times,serif" font-size="14.00">n1</text>
</g>
<!-- n4&#45;&#45;n1 -->
<g id="edge39" class="edge"><title>n4&#45;&#45;n1</title>
<path fill="none" stroke="black" d="M-156.253,-211.777C-172.632,-192.478 -200.862,-159.216 -217.266,-139.888"/>
</g>
<!-- n2&#45;&#45;n6 -->
<g id="edge41" class="edge"><title>n2&#45;&#45;n6</title>
<path fill="none" stroke="black" d="M-204.787,-184.961C-219.968,-196.052 -242.672,-212.638 -257.83,-223.711"/>
</g>
<!-- n2&#45;&#45;n1 -->
<g id="edge42" class="edge"><title>n2&#45;&#45;n1</title>
<path fill="none" stroke="black" d="M-201.652,-158.205C-206.67,-152.306 -212.41,-145.559 -217.414,-139.678"/>
</g>
<!-- n1&#45;&#45;n6 -->
<g id="edge43" class="edge"><title>n1&#45;&#45;n6</title>
<path fill="none" stroke="black" d="M-237.306,-143.022C-245.39,-163.507 -258.428,-196.546 -266.516,-217.043"/>
</g>
<!-- n3 -->
<g id="node20" class="node"><title>n3</title>
<ellipse fill="none" stroke="black" cx="-128.999" cy="-347.194" rx="19.4965" ry="19.4965"/>
<text text-anchor="middle" x="-128.999" y="-343.494" font-family="Times,serif" font-size="14.00">n3</text>
</g>
<!-- n3&#45;&#45;n4 -->
<g id="edge40" class="edge"><title>n3&#45;&#45;n4</title>
<path fill="none" stroke="black" d="M-131.357,-327.589C-134.048,-305.208 -138.424,-268.812 -141.114,-246.435"/>
</g>
<!-- n0 -->
<g id="node21" class="node"><title>n0</title>
<ellipse fill="none" stroke="black" cx="-104.647" cy="-106.903" rx="19.4965" ry="19.4965"/>
<text text-anchor="middle" x="-104.647" y="-103.203" font-family="Times,serif" font-size="14.00">n0</text>
</g>
<!-- n0&#45;&#45;n13 -->
<g id="edge44" class="edge"><title>n0&#45;&#45;n13</title>
<path fill="none" stroke="black" d="M-92.194,-91.749C-78.1845,-74.7004 -55.4191,-46.9964 -40.3151,-28.6159"/>
</g>
<!-- n0&#45;&#45;n4 -->
<g id="edge45" class="edge"><title>n0&#45;&#45;n4</title>
<path fill="none" stroke="black" d="M-110.713,-125.643C-118.007,-148.175 -130.172,-185.757 -137.447,-208.23"/>
</g>
<!-- n0&#45;&#45;n2 -->
<g id="edge46" class="edge"><title>n0&#45;&#45;n2</title>
<path fill="none" stroke="black" d="M-120.085,-119.08C-135.271,-131.059 -158.322,-149.241 -173.475,-161.193"/>
</g>
<!-- n0&#45;&#45;n1 -->
<g id="edge47" class="edge"><title>n0&#45;&#45;n1</title>
<path fill="none" stroke="black" d="M-123.974,-109.655C-147.481,-113.002 -186.936,-118.619 -210.545,-121.981"/>
</g>
</g>
</svg>
