<?xml version="1.0" encoding="UTF-8" standalone="no"?>
<!DOCTYPE svg PUBLIC "-//W3C//DTD SVG 1.1//EN"
 "http://www.w3.org/Graphics/SVG/1.1/DTD/svg11.dtd">
<!-- Generated by graphviz version 2.38.0 (20140413.2041)
 -->
<!-- Title: 1 Pages: 1 -->
<svg width="702pt" height="653pt"
 viewBox="0.00 0.00 701.58 653.47" xmlns="http://www.w3.org/2000/svg" xmlns:xlink="http://www.w3.org/1999/xlink">
<g id="graph0" class="graph" transform="scale(1 1) rotate(0) translate(248.597 306.225)">
<title>1</title>
<polygon fill="white" stroke="none" points="-248.597,347.245 -248.597,-306.225 452.98,-306.225 452.98,347.245 -248.597,347.245"/>
<!-- n17 -->
<g id="node1" class="node"><title>n17</title>
<ellipse fill="none" stroke="black" cx="-72.788" cy="208.78" rx="24.0958" ry="24.0958"/>
<text text-anchor="middle" x="-72.788" y="212.48" font-family="Times,serif" font-size="14.00">n17</text>
</g>
<!-- n20 -->
<g id="node2" class="node"><title>n20</title>
<ellipse fill="none" stroke="black" cx="-4.11851" cy="319.197" rx="24.0958" ry="24.0958"/>
<text text-anchor="middle" x="-4.11851" y="322.897" font-family="Times,serif" font-size="14.00">n20</text>
</g>
<!-- n17&#45;&#45;n20 -->
<g id="edge1" class="edge"><title>n17&#45;&#45;n20</title>
<path fill="none" stroke="black" d="M-60.0327,229.29C-47.7762,248.998 -29.3499,278.626 -17.0385,298.422"/>
</g>
<!-- n18 -->
<g id="node3" class="node"><title>n18</title>
<ellipse fill="none" stroke="black" cx="-174.007" cy="289.841" rx="24.0958" ry="24.0958"/>
<text text-anchor="middle" x="-174.007" y="293.541" font-family="Times,serif" font-size="14.00">n18</text>
</g>
<!-- n17&#45;&#45;n18 -->
<g id="edge2" class="edge"><title>n17&#45;&#45;n18</title>
<path fill="none" stroke="black" d="M-91.8265,224.027C-109.923,238.52 -136.986,260.193 -155.054,274.663"/>
</g>
<!-- n16 -->
<g id="node4" class="node"><title>n16</title>
<ellipse fill="none" stroke="black" cx="-71.9631" cy="70.8219" rx="24.0958" ry="24.0958"/>
<text text-anchor="middle" x="-71.9631" y="74.5219" font-family="Times,serif" font-size="14.00">n16</text>
</g>
<!-- n16&#45;&#45;n17 -->
<g id="edge4" class="edge"><title>n16&#45;&#45;n17</title>
<path fill="none" stroke="black" d="M-72.1086,95.1685C-72.2594,120.386 -72.4936,159.55 -72.6439,184.677"/>
</g>
<!-- n19 -->
<g id="node5" class="node"><title>n19</title>
<ellipse fill="none" stroke="black" cx="-203.678" cy="71.7056" rx="24.0958" ry="24.0958"/>
<text text-anchor="middle" x="-203.678" y="75.4056" font-family="Times,serif" font-size="14.00">n19</text>
</g>
<!-- n16&#45;&#45;n19 -->
<g id="edge3" class="edge"><title>n16&#45;&#45;n19</title>
<path fill="none" stroke="black" d="M-96.1216,70.984C-119.739,71.1424 -155.51,71.3824 -179.227,71.5415"/>
</g>
<!-- n14 -->
<g id="node6" class="node"><title>n14</title>
<ellipse fill="none" stroke="black" cx="-118.259" cy="-116.375" rx="24.0958" ry="24.0958"/>
<text text-anchor="middle" x="-118.259" y="-112.675" font-family="Times,serif" font-size="14.00">n14</text>
</g>
<!-- n15 -->
<g id="node7" class="node"><title>n15</title>
<ellipse fill="none" stroke="black" cx="-220.55" cy="-197.785" rx="24.0958" ry="24.0958"/>
<text text-anchor="middle" x="-220.55" y="-194.085" font-family="Times,serif" font-size="14.00">n15</text>
</g>
<!-- n14&#45;&#45;n15 -->
<g id="edge5" class="edge"><title>n14&#45;&#45;n15</title>
<path fill="none" stroke="black" d="M-137.499,-131.688C-155.787,-146.243 -183.136,-168.009 -201.396,-182.541"/>
</g>
<!-- n11 -->
<g id="node8" class="node"><title>n11</title>
<ellipse fill="none" stroke="black" cx="7.7246" cy="-50.6598" rx="24.0958" ry="24.0958"/>
<text text-anchor="middle" x="7.7246" y="-46.9598" font-family="Times,serif" font-size="14.00">n11</text>
</g>
<!-- n11&#45;&#45;n16 -->
<g id="edge6" class="edge"><title>n11&#45;&#45;n16</title>
<path fill="none" stroke="black" d="M-5.61333,-30.3265C-20.3232,-7.9017 -43.8544,27.9709 -58.5816,50.4222"/>
</g>
<!-- n11&#45;&#45;n14 -->
<g id="edge7" class="edge"><title>n11&#45;&#45;n14</title>
<path fill="none" stroke="black" d="M-13.6468,-61.8075C-36.8137,-73.8917 -73.5751,-93.0671 -96.7829,-105.173"/>
</g>
<!-- n13 -->
<g id="node9" class="node"><title>n13</title>
<ellipse fill="none" stroke="black" cx="69.6091" cy="53.0681" rx="24.0958" ry="24.0958"/>
<text text-anchor="middle" x="69.6091" y="56.7681" font-family="Times,serif" font-size="14.00">n13</text>
</g>
<!-- n11&#45;&#45;n13 -->
<g id="edge8" class="edge"><title>n11&#45;&#45;n13</title>
<path fill="none" stroke="black" d="M20.2478,-29.6689C30.9845,-11.6726 46.3732,14.1211 57.1044,32.1084"/>
</g>
<!-- n12 -->
<g id="node10" class="node"><title>n12</title>
<ellipse fill="none" stroke="black" cx="125.705" cy="-2.56371" rx="24.0958" ry="24.0958"/>
<text text-anchor="middle" x="125.705" y="1.13629" font-family="Times,serif" font-size="14.00">n12</text>
</g>
<!-- n11&#45;&#45;n12 -->
<g id="edge9" class="edge"><title>n11&#45;&#45;n12</title>
<path fill="none" stroke="black" d="M30.1935,-41.5001C51.1866,-32.942 82.3535,-20.2364 103.32,-11.6893"/>
</g>
<!-- n5 -->
<g id="node11" class="node"><title>n5</title>
<ellipse fill="none" stroke="black" cx="121.13" cy="-147.948" rx="19.4965" ry="19.4965"/>
<text text-anchor="middle" x="121.13" y="-144.248" font-family="Times,serif" font-size="14.00">n5</text>
</g>
<!-- n11&#45;&#45;n5 -->
<g id="edge10" class="edge"><title>n11&#45;&#45;n5</title>
<path fill="none" stroke="black" d="M26.1975,-66.5075C48.5411,-85.6758 85.709,-117.562 106.284,-135.213"/>
</g>
<!-- n10 -->
<g id="node14" class="node"><title>n10</title>
<ellipse fill="none" stroke="black" cx="216.923" cy="-231.485" rx="24.0958" ry="24.0958"/>
<text text-anchor="middle" x="216.923" y="-227.785" font-family="Times,serif" font-size="14.00">n10</text>
</g>
<!-- n5&#45;&#45;n10 -->
<g id="edge13" class="edge"><title>n5&#45;&#45;n10</title>
<path fill="none" stroke="black" d="M136.098,-161.001C153.041,-175.777 180.642,-199.846 198.793,-215.674"/>
</g>
<!-- n8 -->
<g id="node15" class="node"><title>n8</title>
<ellipse fill="none" stroke="black" cx="99.6306" cy="-282.727" rx="19.4965" ry="19.4965"/>
<text text-anchor="middle" x="99.6306" y="-279.027" font-family="Times,serif" font-size="14.00">n8</text>
</g>
<!-- n5&#45;&#45;n8 -->
<g id="edge14" class="edge"><title>n5&#45;&#45;n8</title>
<path fill="none" stroke="black" d="M118.049,-167.259C113.962,-192.88 106.789,-237.849 102.705,-263.452"/>
</g>
<!-- n9 -->
<g id="node12" class="node"><title>n9</title>
<ellipse fill="none" stroke="black" cx="-30.5675" cy="-158.254" rx="19.4965" ry="19.4965"/>
<text text-anchor="middle" x="-30.5675" y="-154.554" font-family="Times,serif" font-size="14.00">n9</text>
</g>
<!-- n9&#45;&#45;n11 -->
<g id="edge11" class="edge"><title>n9&#45;&#45;n11</title>
<path fill="none" stroke="black" d="M-23.8975,-139.513C-17.3835,-121.209 -7.45685,-93.3172 -0.466514,-73.6755"/>
</g>
<!-- n7 -->
<g id="node13" class="node"><title>n7</title>
<ellipse fill="none" stroke="black" cx="255.208" cy="-110.616" rx="19.4965" ry="19.4965"/>
<text text-anchor="middle" x="255.208" y="-106.916" font-family="Times,serif" font-size="14.00">n7</text>
</g>
<!-- n7&#45;&#45;n5 -->
<g id="edge12" class="edge"><title>n7&#45;&#45;n5</title>
<path fill="none" stroke="black" d="M236.283,-115.885C210.729,-123 165.463,-135.604 139.959,-142.706"/>
</g>
<!-- n4 -->
<g id="node16" class="node"><title>n4</title>
<ellipse fill="none" stroke="black" cx="357.187" cy="161.921" rx="19.4965" ry="19.4965"/>
<text text-anchor="middle" x="357.187" y="165.621" font-family="Times,serif" font-size="14.00">n4</text>
</g>
<!-- n6 -->
<g id="node17" class="node"><title>n6</title>
<ellipse fill="none" stroke="black" cx="429.482" cy="193.076" rx="19.4965" ry="19.4965"/>
<text text-anchor="middle" x="429.482" y="196.776" font-family="Times,serif" font-size="14.00">n6</text>
</g>
<!-- n4&#45;&#45;n6 -->
<g id="edge15" class="edge"><title>n4&#45;&#45;n6</title>
<path fill="none" stroke="black" d="M375.43,169.783C386.473,174.542 400.499,180.586 411.495,185.325"/>
</g>
<!-- n3 -->
<g id="node18" class="node"><title>n3</title>
<ellipse fill="none" stroke="black" cx="310.933" cy="225.522" rx="19.4965" ry="19.4965"/>
<text text-anchor="middle" x="310.933" y="229.222" font-family="Times,serif" font-size="14.00">n3</text>
</g>
<!-- n3&#45;&#45;n4 -->
<g id="edge16" class="edge"><title>n3&#45;&#45;n4</title>
<path fill="none" stroke="black" d="M322.605,209.473C329.67,199.758 338.644,187.419 345.679,177.745"/>
</g>
<!-- n0 -->
<g id="node19" class="node"><title>n0</title>
<ellipse fill="none" stroke="black" cx="336.397" cy="84.0761" rx="19.4965" ry="19.4965"/>
<text text-anchor="middle" x="336.397" y="87.7761" font-family="Times,serif" font-size="14.00">n0</text>
</g>
<!-- n0&#45;&#45;n4 -->
<g id="edge17" class="edge"><title>n0&#45;&#45;n4</title>
<path fill="none" stroke="black" d="M341.429,102.92C344.674,115.07 348.879,130.813 352.129,142.981"/>
</g>
<!-- n2 -->
<g id="node20" class="node"><title>n2</title>
<ellipse fill="none" stroke="black" cx="383.587" cy="21.0479" rx="19.4965" ry="19.4965"/>
<text text-anchor="middle" x="383.587" y="24.7479" font-family="Times,serif" font-size="14.00">n2</text>
</g>
<!-- n0&#45;&#45;n2 -->
<g id="edge18" class="edge"><title>n0&#45;&#45;n2</title>
<path fill="none" stroke="black" d="M348.305,68.1714C355.513,58.5439 364.668,46.316 371.846,36.7291"/>
</g>
<!-- n1 -->
<g id="node21" class="node"><title>n1</title>
<ellipse fill="none" stroke="black" cx="264.415" cy="52.3563" rx="19.4965" ry="19.4965"/>
<text text-anchor="middle" x="264.415" y="56.0563" font-family="Times,serif" font-size="14.00">n1</text>
</g>
<!-- n0&#45;&#45;n1 -->
<g id="edge19" class="edge"><title>n0&#45;&#45;n1</title>
<path fill="none" stroke="black" d="M318.233,76.0719C307.237,71.2267 293.272,65.0729 282.324,60.2481"/>
</g>
</g>
</svg>
