<?xml version="1.0" encoding="UTF-8" standalone="no"?>
<!DOCTYPE svg PUBLIC "-//W3C//DTD SVG 1.1//EN"
 "http://www.w3.org/Graphics/SVG/1.1/DTD/svg11.dtd">
<!-- Generated by graphviz version 2.38.0 (20140413.2041)
 -->
<!-- Title: 1 Pages: 1 -->
<svg width="939pt" height="492pt"
 viewBox="0.00 0.00 938.98 492.40" xmlns="http://www.w3.org/2000/svg" xmlns:xlink="http://www.w3.org/1999/xlink">
<g id="graph0" class="graph" transform="scale(1 1) rotate(0) translate(248.824 243.6)">
<title>1</title>
<polygon fill="white" stroke="none" points="-248.824,248.802 -248.824,-243.6 690.156,-243.6 690.156,248.802 -248.824,248.802"/>
<!-- n24 -->
<g id="node1" class="node"><title>n24</title>
<ellipse fill="none" stroke="black" cx="-164.088" cy="37.1984" rx="24.0958" ry="24.0958"/>
<text text-anchor="middle" x="-164.088" y="40.8984" font-family="Times,serif" font-size="14.00">n24</text>
</g>
<!-- n23 -->
<g id="node2" class="node"><title>n23</title>
<ellipse fill="none" stroke="black" cx="-130.086" cy="93.2942" rx="24.0958" ry="24.0958"/>
<text text-anchor="middle" x="-130.086" y="96.9942" font-family="Times,serif" font-size="14.00">n23</text>
</g>
<!-- n24&#45;&#45;n23 -->
<g id="edge1" class="edge"><title>n24&#45;&#45;n23</title>
<path fill="none" stroke="black" d="M-151.62,57.7679C-148.663,62.6458 -145.509,67.8493 -142.553,72.7272"/>
</g>
<!-- n18 -->
<g id="node3" class="node"><title>n18</title>
<ellipse fill="none" stroke="black" cx="-104.202" cy="186.304" rx="24.0958" ry="24.0958"/>
<text text-anchor="middle" x="-104.202" y="190.004" font-family="Times,serif" font-size="14.00">n18</text>
</g>
<!-- n24&#45;&#45;n18 -->
<g id="edge2" class="edge"><title>n24&#45;&#45;n18</title>
<path fill="none" stroke="black" d="M-155.122,59.521C-143.833,87.6304 -124.547,135.647 -113.229,163.829"/>
</g>
<!-- n23&#45;&#45;n18 -->
<g id="edge3" class="edge"><title>n23&#45;&#45;n18</title>
<path fill="none" stroke="black" d="M-123.555,116.764C-119.631,130.864 -114.655,148.743 -110.732,162.841"/>
</g>
<!-- n22 -->
<g id="node4" class="node"><title>n22</title>
<ellipse fill="none" stroke="black" cx="-61.2211" cy="-66.4941" rx="24.0958" ry="24.0958"/>
<text text-anchor="middle" x="-61.2211" y="-62.7941" font-family="Times,serif" font-size="14.00">n22</text>
</g>
<!-- n22&#45;&#45;n24 -->
<g id="edge4" class="edge"><title>n22&#45;&#45;n24</title>
<path fill="none" stroke="black" d="M-78.2075,-49.3714C-97.267,-30.1589 -128.006,0.827321 -147.076,20.0503"/>
</g>
<!-- n22&#45;&#45;n23 -->
<g id="edge5" class="edge"><title>n22&#45;&#45;n23</title>
<path fill="none" stroke="black" d="M-70.7965,-44.2763C-83.9164,-13.834 -107.346,40.53 -120.481,71.008"/>
</g>
<!-- n17 -->
<g id="node5" class="node"><title>n17</title>
<ellipse fill="none" stroke="black" cx="-1.00515" cy="90.4677" rx="24.0958" ry="24.0958"/>
<text text-anchor="middle" x="-1.00515" y="94.1677" font-family="Times,serif" font-size="14.00">n17</text>
</g>
<!-- n22&#45;&#45;n17 -->
<g id="edge6" class="edge"><title>n22&#45;&#45;n17</title>
<path fill="none" stroke="black" d="M-52.5936,-44.0053C-41.1791,-14.2517 -21.1697,37.9058 -9.71432,67.766"/>
</g>
<!-- n15 -->
<g id="node6" class="node"><title>n15</title>
<ellipse fill="none" stroke="black" cx="-39.1154" cy="28.2243" rx="24.0958" ry="24.0958"/>
<text text-anchor="middle" x="-39.1154" y="31.9243" font-family="Times,serif" font-size="14.00">n15</text>
</g>
<!-- n22&#45;&#45;n15 -->
<g id="edge7" class="edge"><title>n22&#45;&#45;n15</title>
<path fill="none" stroke="black" d="M-55.6429,-42.5927C-52.2663,-28.1245 -47.9776,-9.74855 -44.6152,4.6586"/>
</g>
<!-- n17&#45;&#45;n24 -->
<g id="edge13" class="edge"><title>n17&#45;&#45;n24</title>
<path fill="none" stroke="black" d="M-24.025,82.9485C-55.1064,72.7961 -110.164,54.8121 -141.185,44.6794"/>
</g>
<!-- n17&#45;&#45;n23 -->
<g id="edge14" class="edge"><title>n17&#45;&#45;n23</title>
<path fill="none" stroke="black" d="M-25.2843,90.9993C-48.3619,91.5047 -82.8743,92.2604 -105.916,92.7649"/>
</g>
<!-- n17&#45;&#45;n18 -->
<g id="edge15" class="edge"><title>n17&#45;&#45;n18</title>
<path fill="none" stroke="black" d="M-18.9807,107.161C-37.9218,124.751 -67.5695,152.284 -86.4325,169.802"/>
</g>
<!-- n17&#45;&#45;n15 -->
<g id="edge16" class="edge"><title>n17&#45;&#45;n15</title>
<path fill="none" stroke="black" d="M-13.6953,69.7416C-17.7661,63.093 -22.2747,55.7294 -26.3507,49.0722"/>
</g>
<!-- n15&#45;&#45;n24 -->
<g id="edge18" class="edge"><title>n15&#45;&#45;n24</title>
<path fill="none" stroke="black" d="M-63.2114,29.9546C-85.3412,31.5437 -117.96,33.886 -140.066,35.4734"/>
</g>
<!-- n15&#45;&#45;n23 -->
<g id="edge19" class="edge"><title>n15&#45;&#45;n23</title>
<path fill="none" stroke="black" d="M-58.8547,42.3435C-74.1135,53.2579 -95.1363,68.2951 -110.385,79.2025"/>
</g>
<!-- n15&#45;&#45;n18 -->
<g id="edge20" class="edge"><title>n15&#45;&#45;n18</title>
<path fill="none" stroke="black" d="M-48.3027,50.5379C-60.6723,80.5807 -82.5569,133.733 -94.9563,163.848"/>
</g>
<!-- n21 -->
<g id="node7" class="node"><title>n21</title>
<ellipse fill="none" stroke="black" cx="-220.776" cy="-118.843" rx="24.0958" ry="24.0958"/>
<text text-anchor="middle" x="-220.776" y="-115.143" font-family="Times,serif" font-size="14.00">n21</text>
</g>
<!-- n21&#45;&#45;n22 -->
<g id="edge8" class="edge"><title>n21&#45;&#45;n22</title>
<path fill="none" stroke="black" d="M-197.916,-111.342C-167.67,-101.419 -114.651,-84.0241 -84.2979,-74.0654"/>
</g>
<!-- n20 -->
<g id="node8" class="node"><title>n20</title>
<ellipse fill="none" stroke="black" cx="3.05074" cy="-215.552" rx="24.0958" ry="24.0958"/>
<text text-anchor="middle" x="3.05074" y="-211.852" font-family="Times,serif" font-size="14.00">n20</text>
</g>
<!-- n20&#45;&#45;n22 -->
<g id="edge9" class="edge"><title>n20&#45;&#45;n22</title>
<path fill="none" stroke="black" d="M-6.5714,-193.237C-18.6879,-165.136 -39.3857,-117.134 -51.5332,-88.9622"/>
</g>
<!-- n19 -->
<g id="node9" class="node"><title>n19</title>
<ellipse fill="none" stroke="black" cx="85.2844" cy="22.1131" rx="24.0958" ry="24.0958"/>
<text text-anchor="middle" x="85.2844" y="25.8131" font-family="Times,serif" font-size="14.00">n19</text>
</g>
<!-- n19&#45;&#45;n22 -->
<g id="edge10" class="edge"><title>n19&#45;&#45;n22</title>
<path fill="none" stroke="black" d="M64.6045,9.60581C36.8403,-7.18614 -12.2204,-36.8583 -40.172,-53.7635"/>
</g>
<!-- n19&#45;&#45;n17 -->
<g id="edge11" class="edge"><title>n19&#45;&#45;n17</title>
<path fill="none" stroke="black" d="M66.134,37.2832C51.8343,48.6108 32.3785,64.0227 18.0918,75.34"/>
</g>
<!-- n19&#45;&#45;n15 -->
<g id="edge12" class="edge"><title>n19&#45;&#45;n15</title>
<path fill="none" stroke="black" d="M61.0036,23.3059C39.084,24.3827 7.00483,25.9586 -14.8958,27.0345"/>
</g>
<!-- n16 -->
<g id="node10" class="node"><title>n16</title>
<ellipse fill="none" stroke="black" cx="87.5099" cy="220.754" rx="24.0958" ry="24.0958"/>
<text text-anchor="middle" x="87.5099" y="224.454" font-family="Times,serif" font-size="14.00">n16</text>
</g>
<!-- n16&#45;&#45;n17 -->
<g id="edge17" class="edge"><title>n16&#45;&#45;n17</title>
<path fill="none" stroke="black" d="M73.8734,200.682C57.2883,176.271 29.4504,135.296 12.7927,110.777"/>
</g>
<!-- n14 -->
<g id="node11" class="node"><title>n14</title>
<ellipse fill="none" stroke="black" cx="81.6092" cy="-59.1745" rx="24.0958" ry="24.0958"/>
<text text-anchor="middle" x="81.6092" y="-55.4745" font-family="Times,serif" font-size="14.00">n14</text>
</g>
<!-- n14&#45;&#45;n22 -->
<g id="edge21" class="edge"><title>n14&#45;&#45;n22</title>
<path fill="none" stroke="black" d="M57.38,-60.4161C31.1153,-61.7621 -10.5619,-63.898 -36.873,-65.2464"/>
</g>
<!-- n14&#45;&#45;n17 -->
<g id="edge23" class="edge"><title>n14&#45;&#45;n17</title>
<path fill="none" stroke="black" d="M69.9478,-38.0518C54.2916,-9.69311 26.6263,40.4179 10.8644,68.9679"/>
</g>
<!-- n14&#45;&#45;n15 -->
<g id="edge24" class="edge"><title>n14&#45;&#45;n15</title>
<path fill="none" stroke="black" d="M61.944,-44.9378C39.4945,-28.6855 2.98735,-2.25604 -19.4586,13.9938"/>
</g>
<!-- n14&#45;&#45;n19 -->
<g id="edge22" class="edge"><title>n14&#45;&#45;n19</title>
<path fill="none" stroke="black" d="M82.7119,-34.7855C83.1813,-24.4036 83.7273,-12.3276 84.1952,-1.97848"/>
</g>
<!-- n13 -->
<g id="node12" class="node"><title>n13</title>
<ellipse fill="none" stroke="black" cx="303.058" cy="84.6722" rx="24.0958" ry="24.0958"/>
<text text-anchor="middle" x="303.058" y="88.3722" font-family="Times,serif" font-size="14.00">n13</text>
</g>
<!-- n10 -->
<g id="node13" class="node"><title>n10</title>
<ellipse fill="none" stroke="black" cx="220.135" cy="138.739" rx="24.0958" ry="24.0958"/>
<text text-anchor="middle" x="220.135" y="142.439" font-family="Times,serif" font-size="14.00">n10</text>
</g>
<!-- n13&#45;&#45;n10 -->
<g id="edge25" class="edge"><title>n13&#45;&#45;n10</title>
<path fill="none" stroke="black" d="M282.56,98.0371C269.707,106.418 253.206,117.177 240.397,125.528"/>
</g>
<!-- n12 -->
<g id="node14" class="node"><title>n12</title>
<ellipse fill="none" stroke="black" cx="-125.377" cy="-207.749" rx="24.0958" ry="24.0958"/>
<text text-anchor="middle" x="-125.377" y="-204.049" font-family="Times,serif" font-size="14.00">n12</text>
</g>
<!-- n12&#45;&#45;n22 -->
<g id="edge26" class="edge"><title>n12&#45;&#45;n22</title>
<path fill="none" stroke="black" d="M-115.353,-185.678C-103.3,-159.141 -83.1963,-114.878 -71.175,-88.4103"/>
</g>
<!-- n11 -->
<g id="node15" class="node"><title>n11</title>
<ellipse fill="none" stroke="black" cx="237.416" cy="-88.5429" rx="24.0958" ry="24.0958"/>
<text text-anchor="middle" x="237.416" y="-84.8429" font-family="Times,serif" font-size="14.00">n11</text>
</g>
<!-- n11&#45;&#45;n14 -->
<g id="edge27" class="edge"><title>n11&#45;&#45;n14</title>
<path fill="none" stroke="black" d="M213.753,-84.0825C184.468,-78.5625 134.883,-69.2161 105.496,-63.6769"/>
</g>
<!-- n9 -->
<g id="node16" class="node"><title>n9</title>
<ellipse fill="none" stroke="black" cx="313.414" cy="172.354" rx="19.4965" ry="19.4965"/>
<text text-anchor="middle" x="313.414" y="176.054" font-family="Times,serif" font-size="14.00">n9</text>
</g>
<!-- n9&#45;&#45;n13 -->
<g id="edge28" class="edge"><title>n9&#45;&#45;n13</title>
<path fill="none" stroke="black" d="M311.116,152.894C309.578,139.878 307.545,122.656 305.905,108.773"/>
</g>
<!-- n9&#45;&#45;n10 -->
<g id="edge29" class="edge"><title>n9&#45;&#45;n10</title>
<path fill="none" stroke="black" d="M294.985,165.713C280.012,160.317 258.827,152.682 242.814,146.912"/>
</g>
<!-- n8 -->
<g id="node17" class="node"><title>n8</title>
<ellipse fill="none" stroke="black" cx="397.614" cy="117.513" rx="19.4965" ry="19.4965"/>
<text text-anchor="middle" x="397.614" y="121.213" font-family="Times,serif" font-size="14.00">n8</text>
</g>
<!-- n8&#45;&#45;n13 -->
<g id="edge30" class="edge"><title>n8&#45;&#45;n13</title>
<path fill="none" stroke="black" d="M378.933,111.025C363.756,105.753 342.28,98.2943 326.048,92.6567"/>
</g>
<!-- n8&#45;&#45;n9 -->
<g id="edge31" class="edge"><title>n8&#45;&#45;n9</title>
<path fill="none" stroke="black" d="M380.979,128.348C366.218,137.962 344.766,151.934 330.015,161.541"/>
</g>
<!-- n7 -->
<g id="node18" class="node"><title>n7</title>
<ellipse fill="none" stroke="black" cx="663.011" cy="56.47" rx="19.4965" ry="19.4965"/>
<text text-anchor="middle" x="663.011" y="60.17" font-family="Times,serif" font-size="14.00">n7</text>
</g>
<!-- n5 -->
<g id="node19" class="node"><title>n5</title>
<ellipse fill="none" stroke="black" cx="666.658" cy="-18.2616" rx="19.4965" ry="19.4965"/>
<text text-anchor="middle" x="666.658" y="-14.5616" font-family="Times,serif" font-size="14.00">n5</text>
</g>
<!-- n7&#45;&#45;n5 -->
<g id="edge32" class="edge"><title>n7&#45;&#45;n5</title>
<path fill="none" stroke="black" d="M663.97,36.8352C664.506,25.8508 665.171,12.2052 665.706,1.24209"/>
</g>
<!-- n4 -->
<g id="node20" class="node"><title>n4</title>
<ellipse fill="none" stroke="black" cx="597.859" cy="-38.9351" rx="19.4965" ry="19.4965"/>
<text text-anchor="middle" x="597.859" y="-35.2351" font-family="Times,serif" font-size="14.00">n4</text>
</g>
<!-- n7&#45;&#45;n4 -->
<g id="edge33" class="edge"><title>n7&#45;&#45;n4</title>
<path fill="none" stroke="black" d="M651.959,40.2858C639.978,22.742 620.967,-5.09672 608.965,-22.6715"/>
</g>
<!-- n5&#45;&#45;n4 -->
<g id="edge37" class="edge"><title>n5&#45;&#45;n4</title>
<path fill="none" stroke="black" d="M647.858,-23.9107C638.151,-26.8278 626.34,-30.3767 616.636,-33.2928"/>
</g>
<!-- n6 -->
<g id="node21" class="node"><title>n6</title>
<ellipse fill="none" stroke="black" cx="624.881" cy="141.266" rx="19.4965" ry="19.4965"/>
<text text-anchor="middle" x="624.881" y="144.966" font-family="Times,serif" font-size="14.00">n6</text>
</g>
<!-- n6&#45;&#45;n7 -->
<g id="edge34" class="edge"><title>n6&#45;&#45;n7</title>
<path fill="none" stroke="black" d="M632.967,123.283C639.438,108.893 648.469,88.8106 654.937,74.4272"/>
</g>
<!-- n3 -->
<g id="node22" class="node"><title>n3</title>
<ellipse fill="none" stroke="black" cx="577.245" cy="51.4218" rx="19.4965" ry="19.4965"/>
<text text-anchor="middle" x="577.245" y="55.1218" font-family="Times,serif" font-size="14.00">n3</text>
</g>
<!-- n6&#45;&#45;n3 -->
<g id="edge35" class="edge"><title>n6&#45;&#45;n3</title>
<path fill="none" stroke="black" d="M615.696,123.943C607.261,108.034 594.827,84.5842 586.401,68.6916"/>
</g>
<!-- n2 -->
<g id="node23" class="node"><title>n2</title>
<ellipse fill="none" stroke="black" cx="577.884" cy="114.844" rx="19.4965" ry="19.4965"/>
<text text-anchor="middle" x="577.884" y="118.544" font-family="Times,serif" font-size="14.00">n2</text>
</g>
<!-- n6&#45;&#45;n2 -->
<g id="edge36" class="edge"><title>n6&#45;&#45;n2</title>
<path fill="none" stroke="black" d="M607.648,131.578C603.561,129.28 599.202,126.829 595.115,124.532"/>
</g>
<!-- n3&#45;&#45;n7 -->
<g id="edge38" class="edge"><title>n3&#45;&#45;n7</title>
<path fill="none" stroke="black" d="M597.137,52.5927C611.092,53.414 629.658,54.5068 643.523,55.3229"/>
</g>
<!-- n3&#45;&#45;n5 -->
<g id="edge39" class="edge"><title>n3&#45;&#45;n5</title>
<path fill="none" stroke="black" d="M592.819,39.2839C609.23,26.4939 634.918,6.47441 651.262,-6.2628"/>
</g>
<!-- n3&#45;&#45;n4 -->
<g id="edge40" class="edge"><title>n3&#45;&#45;n4</title>
<path fill="none" stroke="black" d="M581.616,32.2594C585.115,16.9256 589.997,-4.47376 593.493,-19.8003"/>
</g>
<!-- n2&#45;&#45;n7 -->
<g id="edge41" class="edge"><title>n2&#45;&#45;n7</title>
<path fill="none" stroke="black" d="M594.297,103.589C609.372,93.2522 631.59,78.0163 646.648,67.6905"/>
</g>
<!-- n2&#45;&#45;n3 -->
<g id="edge42" class="edge"><title>n2&#45;&#45;n3</title>
<path fill="none" stroke="black" d="M577.685,95.1244C577.609,87.561 577.522,78.9302 577.445,71.3476"/>
</g>
<!-- n1 -->
<g id="node24" class="node"><title>n1</title>
<ellipse fill="none" stroke="black" cx="546.689" cy="176.436" rx="19.4965" ry="19.4965"/>
<text text-anchor="middle" x="546.689" y="180.136" font-family="Times,serif" font-size="14.00">n1</text>
</g>
<!-- n1&#45;&#45;n3 -->
<g id="edge43" class="edge"><title>n1&#45;&#45;n3</title>
<path fill="none" stroke="black" d="M551.329,157.449C557.072,133.952 566.797,94.1668 572.56,70.5875"/>
</g>
<!-- n1&#45;&#45;n2 -->
<g id="edge44" class="edge"><title>n1&#45;&#45;n2</title>
<path fill="none" stroke="black" d="M555.544,158.951C559.724,150.7 564.702,140.87 568.898,132.587"/>
</g>
<!-- n0 -->
<g id="node25" class="node"><title>n0</title>
<ellipse fill="none" stroke="black" cx="499.552" cy="107.48" rx="19.4965" ry="19.4965"/>
<text text-anchor="middle" x="499.552" y="111.18" font-family="Times,serif" font-size="14.00">n0</text>
</g>
<!-- n0&#45;&#45;n8 -->
<g id="edge45" class="edge"><title>n0&#45;&#45;n8</title>
<path fill="none" stroke="black" d="M479.898,109.415C461.847,111.191 435.24,113.81 417.209,115.584"/>
</g>
<!-- n0&#45;&#45;n6 -->
<g id="edge46" class="edge"><title>n0&#45;&#45;n6</title>
<path fill="none" stroke="black" d="M518.587,112.611C542.143,118.962 582.028,129.714 605.667,136.087"/>
</g>
<!-- n0&#45;&#45;n3 -->
<g id="edge47" class="edge"><title>n0&#45;&#45;n3</title>
<path fill="none" stroke="black" d="M515.65,95.8648C528.984,86.2438 547.839,72.6391 561.167,63.0222"/>
</g>
<!-- n0&#45;&#45;n2 -->
<g id="edge48" class="edge"><title>n0&#45;&#45;n2</title>
<path fill="none" stroke="black" d="M519.319,109.338C531.284,110.463 546.481,111.892 558.395,113.012"/>
</g>
<!-- n0&#45;&#45;n1 -->
<g id="edge49" class="edge"><title>n0&#45;&#45;n1</title>
<path fill="none" stroke="black" d="M510.723,123.822C518.237,134.814 528.101,149.244 535.598,160.212"/>
</g>
</g>
</svg>
