<?xml version="1.0" encoding="UTF-8" standalone="no"?>
<!DOCTYPE svg PUBLIC "-//W3C//DTD SVG 1.1//EN"
 "http://www.w3.org/Graphics/SVG/1.1/DTD/svg11.dtd">
<!-- Generated by graphviz version 2.38.0 (20140413.2041)
 -->
<!-- Title: 1 Pages: 1 -->
<svg width="575pt" height="726pt"
 viewBox="0.00 0.00 574.82 726.06" xmlns="http://www.w3.org/2000/svg" xmlns:xlink="http://www.w3.org/1999/xlink">
<g id="graph0" class="graph" transform="scale(1 1) rotate(0) translate(171.973 512.527)">
<title>1</title>
<polygon fill="white" stroke="none" points="-171.973,213.534 -171.973,-512.527 402.846,-512.527 402.846,213.534 -171.973,213.534"/>
<!-- n22 -->
<g id="node1" class="node"><title>n22</title>
<ellipse fill="none" stroke="black" cx="207.941" cy="-385.195" rx="24.0958" ry="24.0958"/>
<text text-anchor="middle" x="207.941" y="-381.495" font-family="Times,serif" font-size="14.00">n22</text>
</g>
<!-- n24 -->
<g id="node2" class="node"><title>n24</title>
<ellipse fill="none" stroke="black" cx="284.576" cy="-449.569" rx="24.0958" ry="24.0958"/>
<text text-anchor="middle" x="284.576" y="-445.869" font-family="Times,serif" font-size="14.00">n24</text>
</g>
<!-- n22&#45;&#45;n24 -->
<g id="edge1" class="edge"><title>n22&#45;&#45;n24</title>
<path fill="none" stroke="black" d="M226.493,-400.778C238.453,-410.825 253.951,-423.844 265.93,-433.906"/>
</g>
<!-- n23 -->
<g id="node3" class="node"><title>n23</title>
<ellipse fill="none" stroke="black" cx="124.446" cy="-335.493" rx="24.0958" ry="24.0958"/>
<text text-anchor="middle" x="124.446" y="-331.793" font-family="Times,serif" font-size="14.00">n23</text>
</g>
<!-- n22&#45;&#45;n23 -->
<g id="edge2" class="edge"><title>n22&#45;&#45;n23</title>
<path fill="none" stroke="black" d="M186.872,-372.653C174.118,-365.061 157.919,-355.419 145.219,-347.859"/>
</g>
<!-- n21 -->
<g id="node4" class="node"><title>n21</title>
<ellipse fill="none" stroke="black" cx="151.165" cy="-465.425" rx="24.0958" ry="24.0958"/>
<text text-anchor="middle" x="151.165" y="-461.725" font-family="Times,serif" font-size="14.00">n21</text>
</g>
<!-- n21&#45;&#45;n22 -->
<g id="edge3" class="edge"><title>n21&#45;&#45;n22</title>
<path fill="none" stroke="black" d="M165.2,-445.593C173.935,-433.249 185.13,-417.429 193.871,-405.077"/>
</g>
<!-- n20 -->
<g id="node5" class="node"><title>n20</title>
<ellipse fill="none" stroke="black" cx="224.745" cy="-484.479" rx="24.0958" ry="24.0958"/>
<text text-anchor="middle" x="224.745" y="-480.779" font-family="Times,serif" font-size="14.00">n20</text>
</g>
<!-- n20&#45;&#45;n22 -->
<g id="edge4" class="edge"><title>n20&#45;&#45;n22</title>
<path fill="none" stroke="black" d="M220.72,-460.698C218.079,-445.094 214.638,-424.76 211.992,-409.126"/>
</g>
<!-- n17 -->
<g id="node6" class="node"><title>n17</title>
<ellipse fill="none" stroke="black" cx="227.619" cy="-199.837" rx="24.0958" ry="24.0958"/>
<text text-anchor="middle" x="227.619" y="-196.137" font-family="Times,serif" font-size="14.00">n17</text>
</g>
<!-- n18 -->
<g id="node7" class="node"><title>n18</title>
<ellipse fill="none" stroke="black" cx="151.791" cy="-140.299" rx="24.0958" ry="24.0958"/>
<text text-anchor="middle" x="151.791" y="-136.599" font-family="Times,serif" font-size="14.00">n18</text>
</g>
<!-- n17&#45;&#45;n18 -->
<g id="edge5" class="edge"><title>n17&#45;&#45;n18</title>
<path fill="none" stroke="black" d="M208.484,-184.813C196.989,-175.787 182.413,-164.343 170.92,-155.318"/>
</g>
<!-- n16 -->
<g id="node8" class="node"><title>n16</title>
<ellipse fill="none" stroke="black" cx="267.151" cy="-108.225" rx="24.0958" ry="24.0958"/>
<text text-anchor="middle" x="267.151" y="-104.525" font-family="Times,serif" font-size="14.00">n16</text>
</g>
<!-- n16&#45;&#45;n17 -->
<g id="edge6" class="edge"><title>n16&#45;&#45;n17</title>
<path fill="none" stroke="black" d="M257.581,-130.402C251.412,-144.7 243.417,-163.227 237.237,-177.547"/>
</g>
<!-- n14 -->
<g id="node9" class="node"><title>n14</title>
<ellipse fill="none" stroke="black" cx="271.799" cy="-298.006" rx="24.0958" ry="24.0958"/>
<text text-anchor="middle" x="271.799" y="-294.306" font-family="Times,serif" font-size="14.00">n14</text>
</g>
<!-- n14&#45;&#45;n22 -->
<g id="edge7" class="edge"><title>n14&#45;&#45;n22</title>
<path fill="none" stroke="black" d="M257.309,-317.79C246.785,-332.16 232.614,-351.508 222.154,-365.789"/>
</g>
<!-- n14&#45;&#45;n17 -->
<g id="edge9" class="edge"><title>n14&#45;&#45;n17</title>
<path fill="none" stroke="black" d="M261.774,-275.73C254.544,-259.664 244.826,-238.07 237.604,-222.025"/>
</g>
<!-- n19 -->
<g id="node10" class="node"><title>n19</title>
<ellipse fill="none" stroke="black" cx="374.798" cy="-284.683" rx="24.0958" ry="24.0958"/>
<text text-anchor="middle" x="374.798" y="-280.983" font-family="Times,serif" font-size="14.00">n19</text>
</g>
<!-- n14&#45;&#45;n19 -->
<g id="edge8" class="edge"><title>n14&#45;&#45;n19</title>
<path fill="none" stroke="black" d="M295.688,-294.916C312.209,-292.779 334.112,-289.946 350.682,-287.802"/>
</g>
<!-- n15 -->
<g id="node11" class="node"><title>n15</title>
<ellipse fill="none" stroke="black" cx="329.225" cy="-228.587" rx="24.0958" ry="24.0958"/>
<text text-anchor="middle" x="329.225" y="-224.887" font-family="Times,serif" font-size="14.00">n15</text>
</g>
<!-- n14&#45;&#45;n15 -->
<g id="edge10" class="edge"><title>n14&#45;&#45;n15</title>
<path fill="none" stroke="black" d="M287.188,-279.403C295.428,-269.443 305.548,-257.209 313.793,-247.242"/>
</g>
<!-- n12 -->
<g id="node12" class="node"><title>n12</title>
<ellipse fill="none" stroke="black" cx="108.413" cy="-403.1" rx="24.0958" ry="24.0958"/>
<text text-anchor="middle" x="108.413" y="-399.4" font-family="Times,serif" font-size="14.00">n12</text>
</g>
<!-- n12&#45;&#45;n22 -->
<g id="edge11" class="edge"><title>n12&#45;&#45;n22</title>
<path fill="none" stroke="black" d="M132.252,-398.811C147.895,-395.997 168.279,-392.33 183.951,-389.511"/>
</g>
<!-- n11 -->
<g id="node13" class="node"><title>n11</title>
<ellipse fill="none" stroke="black" cx="357.33" cy="-351.102" rx="24.0958" ry="24.0958"/>
<text text-anchor="middle" x="357.33" y="-347.402" font-family="Times,serif" font-size="14.00">n11</text>
</g>
<!-- n11&#45;&#45;n14 -->
<g id="edge12" class="edge"><title>n11&#45;&#45;n14</title>
<path fill="none" stroke="black" d="M336.626,-338.249C323.178,-329.901 305.723,-319.065 292.313,-310.741"/>
</g>
<!-- n9 -->
<g id="node14" class="node"><title>n9</title>
<ellipse fill="none" stroke="black" cx="-67.9732" cy="-110.308" rx="19.4965" ry="19.4965"/>
<text text-anchor="middle" x="-67.9732" y="-106.608" font-family="Times,serif" font-size="14.00">n9</text>
</g>
<!-- n10 -->
<g id="node15" class="node"><title>n10</title>
<ellipse fill="none" stroke="black" cx="-85.6451" cy="-183.815" rx="24.0958" ry="24.0958"/>
<text text-anchor="middle" x="-85.6451" y="-180.115" font-family="Times,serif" font-size="14.00">n10</text>
</g>
<!-- n9&#45;&#45;n10 -->
<g id="edge13" class="edge"><title>n9&#45;&#45;n10</title>
<path fill="none" stroke="black" d="M-72.6163,-129.622C-74.8661,-138.98 -77.588,-150.302 -79.9609,-160.172"/>
</g>
<!-- n8 -->
<g id="node16" class="node"><title>n8</title>
<ellipse fill="none" stroke="black" cx="-60.1555" cy="-30.3285" rx="19.4965" ry="19.4965"/>
<text text-anchor="middle" x="-60.1555" y="-26.6285" font-family="Times,serif" font-size="14.00">n8</text>
</g>
<!-- n8&#45;&#45;n9 -->
<g id="edge15" class="edge"><title>n8&#45;&#45;n9</title>
<path fill="none" stroke="black" d="M-62.088,-50.0989C-63.2998,-62.4961 -64.8554,-78.4117 -66.063,-90.7656"/>
</g>
<!-- n13 -->
<g id="node17" class="node"><title>n13</title>
<ellipse fill="none" stroke="black" cx="-143.925" cy="-26.8434" rx="24.0958" ry="24.0958"/>
<text text-anchor="middle" x="-143.925" y="-23.1434" font-family="Times,serif" font-size="14.00">n13</text>
</g>
<!-- n8&#45;&#45;n13 -->
<g id="edge14" class="edge"><title>n8&#45;&#45;n13</title>
<path fill="none" stroke="black" d="M-80.0077,-29.5026C-91.9097,-29.0074 -107.13,-28.3742 -119.732,-27.8499"/>
</g>
<!-- n6 -->
<g id="node18" class="node"><title>n6</title>
<ellipse fill="none" stroke="black" cx="68.2752" cy="-15.1906" rx="19.4965" ry="19.4965"/>
<text text-anchor="middle" x="68.2752" y="-11.4906" font-family="Times,serif" font-size="14.00">n6</text>
</g>
<!-- n7 -->
<g id="node19" class="node"><title>n7</title>
<ellipse fill="none" stroke="black" cx="142.967" cy="-43.1911" rx="19.4965" ry="19.4965"/>
<text text-anchor="middle" x="142.967" y="-39.4911" font-family="Times,serif" font-size="14.00">n7</text>
</g>
<!-- n6&#45;&#45;n7 -->
<g id="edge16" class="edge"><title>n6&#45;&#45;n7</title>
<path fill="none" stroke="black" d="M86.7383,-22.1121C98.2295,-26.4199 112.957,-31.9412 124.457,-36.2522"/>
</g>
<!-- n3 -->
<g id="node20" class="node"><title>n3</title>
<ellipse fill="none" stroke="black" cx="0.0829729" cy="125.35" rx="19.4965" ry="19.4965"/>
<text text-anchor="middle" x="0.0829729" y="129.05" font-family="Times,serif" font-size="14.00">n3</text>
</g>
<!-- n5 -->
<g id="node21" class="node"><title>n5</title>
<ellipse fill="none" stroke="black" cx="56.134" cy="184.638" rx="19.4965" ry="19.4965"/>
<text text-anchor="middle" x="56.134" y="188.338" font-family="Times,serif" font-size="14.00">n5</text>
</g>
<!-- n3&#45;&#45;n5 -->
<g id="edge17" class="edge"><title>n3&#45;&#45;n5</title>
<path fill="none" stroke="black" d="M13.6514,139.702C22.464,149.024 33.9029,161.123 42.6906,170.418"/>
</g>
<!-- n4 -->
<g id="node22" class="node"><title>n4</title>
<ellipse fill="none" stroke="black" cx="-50.087" cy="190.036" rx="19.4965" ry="19.4965"/>
<text text-anchor="middle" x="-50.087" y="193.736" font-family="Times,serif" font-size="14.00">n4</text>
</g>
<!-- n3&#45;&#45;n4 -->
<g id="edge18" class="edge"><title>n3&#45;&#45;n4</title>
<path fill="none" stroke="black" d="M-12.0618,141.009C-19.9497,151.179 -30.1885,164.38 -38.0541,174.521"/>
</g>
<!-- n0 -->
<g id="node23" class="node"><title>n0</title>
<ellipse fill="none" stroke="black" cx="-1.78325" cy="35.2718" rx="19.4965" ry="19.4965"/>
<text text-anchor="middle" x="-1.78325" y="38.9718" font-family="Times,serif" font-size="14.00">n0</text>
</g>
<!-- n0&#45;&#45;n8 -->
<g id="edge19" class="edge"><title>n0&#45;&#45;n8</title>
<path fill="none" stroke="black" d="M-15.0288,20.3861C-24.5818,9.65017 -37.4215,-4.77938 -46.9624,-15.5017"/>
</g>
<!-- n0&#45;&#45;n6 -->
<g id="edge20" class="edge"><title>n0&#45;&#45;n6</title>
<path fill="none" stroke="black" d="M14.1141,23.8211C25.5796,15.5626 40.9898,4.46282 52.4408,-3.78525"/>
</g>
<!-- n0&#45;&#45;n3 -->
<g id="edge21" class="edge"><title>n0&#45;&#45;n3</title>
<path fill="none" stroke="black" d="M-1.37831,54.8175C-1.06528,69.9267 -0.634009,90.7432 -0.32118,105.843"/>
</g>
<!-- n2 -->
<g id="node24" class="node"><title>n2</title>
<ellipse fill="none" stroke="black" cx="69.6819" cy="59.4385" rx="19.4965" ry="19.4965"/>
<text text-anchor="middle" x="69.6819" y="63.1385" font-family="Times,serif" font-size="14.00">n2</text>
</g>
<!-- n0&#45;&#45;n2 -->
<g id="edge22" class="edge"><title>n0&#45;&#45;n2</title>
<path fill="none" stroke="black" d="M16.9934,41.6213C27.4149,45.1455 40.3414,49.5167 50.7825,53.0475"/>
</g>
<!-- n1 -->
<g id="node25" class="node"><title>n1</title>
<ellipse fill="none" stroke="black" cx="-71.5722" cy="66.943" rx="19.4965" ry="19.4965"/>
<text text-anchor="middle" x="-71.5722" y="70.643" font-family="Times,serif" font-size="14.00">n1</text>
</g>
<!-- n0&#45;&#45;n1 -->
<g id="edge23" class="edge"><title>n0&#45;&#45;n1</title>
<path fill="none" stroke="black" d="M-19.7556,43.4279C-30.0946,48.1199 -43.0487,53.9986 -53.4181,58.7044"/>
</g>
</g>
</svg>
