<?xml version="1.0" encoding="UTF-8" standalone="no"?>
<!DOCTYPE svg PUBLIC "-//W3C//DTD SVG 1.1//EN"
 "http://www.w3.org/Graphics/SVG/1.1/DTD/svg11.dtd">
<!-- Generated by graphviz version 2.38.0 (20140413.2041)
 -->
<!-- Title: 1 Pages: 1 -->
<svg width="670pt" height="765pt"
 viewBox="0.00 0.00 669.84 765.31" xmlns="http://www.w3.org/2000/svg" xmlns:xlink="http://www.w3.org/1999/xlink">
<g id="graph0" class="graph" transform="scale(1 1) rotate(0) translate(342.877 380.705)">
<title>1</title>
<polygon fill="white" stroke="none" points="-342.877,384.607 -342.877,-380.705 326.962,-380.705 326.962,384.607 -342.877,384.607"/>
<!-- n22 -->
<g id="node1" class="node"><title>n22</title>
<ellipse fill="none" stroke="black" cx="1.29785" cy="-30.027" rx="24.0958" ry="24.0958"/>
<text text-anchor="middle" x="1.29785" y="-26.327" font-family="Times,serif" font-size="14.00">n22</text>
</g>
<!-- n23 -->
<g id="node2" class="node"><title>n23</title>
<ellipse fill="none" stroke="black" cx="112.728" cy="33.0266" rx="24.0958" ry="24.0958"/>
<text text-anchor="middle" x="112.728" y="36.7266" font-family="Times,serif" font-size="14.00">n23</text>
</g>
<!-- n22&#45;&#45;n23 -->
<g id="edge1" class="edge"><title>n22&#45;&#45;n23</title>
<path fill="none" stroke="black" d="M22.257,-18.1671C42.0529,-6.96546 71.5952,9.75131 91.4839,21.0055"/>
</g>
<!-- n21 -->
<g id="node3" class="node"><title>n21</title>
<ellipse fill="none" stroke="black" cx="-54.7979" cy="-51.0536" rx="24.0958" ry="24.0958"/>
<text text-anchor="middle" x="-54.7979" y="-47.3536" font-family="Times,serif" font-size="14.00">n21</text>
</g>
<!-- n22&#45;&#45;n21 -->
<g id="edge2" class="edge"><title>n22&#45;&#45;n21</title>
<path fill="none" stroke="black" d="M-21.5184,-38.5793C-25.037,-39.8982 -28.6695,-41.2598 -32.1837,-42.577"/>
</g>
<!-- n8 -->
<g id="node4" class="node"><title>n8</title>
<ellipse fill="none" stroke="black" cx="-149.329" cy="-237.361" rx="19.4965" ry="19.4965"/>
<text text-anchor="middle" x="-149.329" y="-233.661" font-family="Times,serif" font-size="14.00">n8</text>
</g>
<!-- n22&#45;&#45;n8 -->
<g id="edge3" class="edge"><title>n22&#45;&#45;n8</title>
<path fill="none" stroke="black" d="M-12.8728,-49.5324C-42.533,-90.359 -110.651,-184.122 -137.827,-221.529"/>
</g>
<!-- n6 -->
<g id="node5" class="node"><title>n6</title>
<ellipse fill="none" stroke="black" cx="-79.0394" cy="-264.764" rx="19.4965" ry="19.4965"/>
<text text-anchor="middle" x="-79.0394" y="-261.064" font-family="Times,serif" font-size="14.00">n6</text>
</g>
<!-- n22&#45;&#45;n6 -->
<g id="edge4" class="edge"><title>n22&#45;&#45;n6</title>
<path fill="none" stroke="black" d="M-6.5515,-52.962C-22.4234,-99.338 -58.0581,-203.459 -72.6373,-246.058"/>
</g>
<!-- n5 -->
<g id="node6" class="node"><title>n5</title>
<ellipse fill="none" stroke="black" cx="19.8411" cy="-241.01" rx="19.4965" ry="19.4965"/>
<text text-anchor="middle" x="19.8411" y="-237.31" font-family="Times,serif" font-size="14.00">n5</text>
</g>
<!-- n22&#45;&#45;n5 -->
<g id="edge5" class="edge"><title>n22&#45;&#45;n5</title>
<path fill="none" stroke="black" d="M3.42499,-54.2294C7.1351,-96.4428 14.718,-182.72 18.121,-221.44"/>
</g>
<!-- n21&#45;&#45;n23 -->
<g id="edge6" class="edge"><title>n21&#45;&#45;n23</title>
<path fill="none" stroke="black" d="M-33.2398,-40.2337C-1.16101,-24.1336 58.803,5.96199 90.9873,22.115"/>
</g>
<!-- n21&#45;&#45;n8 -->
<g id="edge7" class="edge"><title>n21&#45;&#45;n8</title>
<path fill="none" stroke="black" d="M-65.8268,-72.79C-84.7725,-110.129 -123.131,-185.728 -140.467,-219.895"/>
</g>
<!-- n21&#45;&#45;n6 -->
<g id="edge8" class="edge"><title>n21&#45;&#45;n6</title>
<path fill="none" stroke="black" d="M-57.5316,-75.1535C-62.3731,-117.836 -72.3632,-205.908 -76.8147,-245.151"/>
</g>
<!-- n6&#45;&#45;n8 -->
<g id="edge71" class="edge"><title>n6&#45;&#45;n8</title>
<path fill="none" stroke="black" d="M-97.5072,-257.564C-107.757,-253.568 -120.471,-248.611 -130.741,-244.608"/>
</g>
<!-- n6&#45;&#45;n5 -->
<g id="edge72" class="edge"><title>n6&#45;&#45;n5</title>
<path fill="none" stroke="black" d="M-59.9743,-260.184C-42.4648,-255.978 -16.6565,-249.778 0.834457,-245.576"/>
</g>
<!-- n5&#45;&#45;n21 -->
<g id="edge73" class="edge"><title>n5&#45;&#45;n21</title>
<path fill="none" stroke="black" d="M12.6844,-222.796C-1.03487,-187.881 -30.9976,-111.625 -45.9473,-73.5783"/>
</g>
<!-- n5&#45;&#45;n8 -->
<g id="edge75" class="edge"><title>n5&#45;&#45;n8</title>
<path fill="none" stroke="black" d="M0.10404,-240.584C-32.4933,-239.881 -97.2031,-238.485 -129.718,-237.784"/>
</g>
<!-- n10 -->
<g id="node12" class="node"><title>n10</title>
<ellipse fill="none" stroke="black" cx="-154.124" cy="-51.2964" rx="24.0958" ry="24.0958"/>
<text text-anchor="middle" x="-154.124" y="-47.5964" font-family="Times,serif" font-size="14.00">n10</text>
</g>
<!-- n5&#45;&#45;n10 -->
<g id="edge74" class="edge"><title>n5&#45;&#45;n10</title>
<path fill="none" stroke="black" d="M6.47915,-226.439C-24.9482,-192.166 -103.474,-106.533 -137.721,-69.1849"/>
</g>
<!-- n20 -->
<g id="node7" class="node"><title>n20</title>
<ellipse fill="none" stroke="black" cx="5.67831" cy="81.2879" rx="24.0958" ry="24.0958"/>
<text text-anchor="middle" x="5.67831" y="84.9879" font-family="Times,serif" font-size="14.00">n20</text>
</g>
<!-- n20&#45;&#45;n22 -->
<g id="edge9" class="edge"><title>n20&#45;&#45;n22</title>
<path fill="none" stroke="black" d="M4.72782,57.1342C3.99307,38.463 2.98077,12.7389 2.24649,-5.92045"/>
</g>
<!-- n20&#45;&#45;n21 -->
<g id="edge10" class="edge"><title>n20&#45;&#45;n21</title>
<path fill="none" stroke="black" d="M-4.44404,59.1369C-15.6076,34.7074 -33.4658,-4.372 -44.6425,-28.8303"/>
</g>
<!-- n19 -->
<g id="node8" class="node"><title>n19</title>
<ellipse fill="none" stroke="black" cx="76.1408" cy="131.95" rx="24.0958" ry="24.0958"/>
<text text-anchor="middle" x="76.1408" y="135.65" font-family="Times,serif" font-size="14.00">n19</text>
</g>
<!-- n20&#45;&#45;n19 -->
<g id="edge11" class="edge"><title>n20&#45;&#45;n19</title>
<path fill="none" stroke="black" d="M25.306,95.4001C34.9163,102.31 46.4676,110.615 56.1287,117.561"/>
</g>
<!-- n18 -->
<g id="node9" class="node"><title>n18</title>
<ellipse fill="none" stroke="black" cx="-65.6262" cy="156.638" rx="24.0958" ry="24.0958"/>
<text text-anchor="middle" x="-65.6262" y="160.338" font-family="Times,serif" font-size="14.00">n18</text>
</g>
<!-- n20&#45;&#45;n18 -->
<g id="edge12" class="edge"><title>n20&#45;&#45;n18</title>
<path fill="none" stroke="black" d="M-10.8596,98.7641C-22.2967,110.85 -37.4599,126.874 -48.931,138.996"/>
</g>
<!-- n17 -->
<g id="node10" class="node"><title>n17</title>
<ellipse fill="none" stroke="black" cx="10.0385" cy="215.798" rx="24.0958" ry="24.0958"/>
<text text-anchor="middle" x="10.0385" y="219.498" font-family="Times,serif" font-size="14.00">n17</text>
</g>
<!-- n20&#45;&#45;n17 -->
<g id="edge13" class="edge"><title>n20&#45;&#45;n17</title>
<path fill="none" stroke="black" d="M6.45782,105.336C7.24655,129.668 8.45944,167.085 9.25101,191.505"/>
</g>
<!-- n14 -->
<g id="node11" class="node"><title>n14</title>
<ellipse fill="none" stroke="black" cx="-144.178" cy="114.218" rx="24.0958" ry="24.0958"/>
<text text-anchor="middle" x="-144.178" y="117.918" font-family="Times,serif" font-size="14.00">n14</text>
</g>
<!-- n20&#45;&#45;n14 -->
<g id="edge14" class="edge"><title>n20&#45;&#45;n14</title>
<path fill="none" stroke="black" d="M-18.0669,86.5057C-46.1272,92.6718 -92.5323,102.869 -120.544,109.025"/>
</g>
<!-- n20&#45;&#45;n10 -->
<g id="edge15" class="edge"><title>n20&#45;&#45;n10</title>
<path fill="none" stroke="black" d="M-12.9659,65.8193C-43.7582,40.2717 -104.885,-10.4436 -135.599,-35.9263"/>
</g>
<!-- n4 -->
<g id="node13" class="node"><title>n4</title>
<ellipse fill="none" stroke="black" cx="62.1046" cy="-79.8362" rx="19.4965" ry="19.4965"/>
<text text-anchor="middle" x="62.1046" y="-76.1362" font-family="Times,serif" font-size="14.00">n4</text>
</g>
<!-- n20&#45;&#45;n4 -->
<g id="edge16" class="edge"><title>n20&#45;&#45;n4</title>
<path fill="none" stroke="black" d="M13.6431,58.5444C24.8833,26.4484 45.1861,-31.5257 55.5832,-61.2143"/>
</g>
<!-- n2 -->
<g id="node14" class="node"><title>n2</title>
<ellipse fill="none" stroke="black" cx="251.643" cy="-71.762" rx="19.4965" ry="19.4965"/>
<text text-anchor="middle" x="251.643" y="-68.062" font-family="Times,serif" font-size="14.00">n2</text>
</g>
<!-- n20&#45;&#45;n2 -->
<g id="edge17" class="edge"><title>n20&#45;&#45;n2</title>
<path fill="none" stroke="black" d="M26.2261,68.5022C73.9107,38.8307 191.338,-34.2379 234.967,-61.3855"/>
</g>
<!-- n1 -->
<g id="node15" class="node"><title>n1</title>
<ellipse fill="none" stroke="black" cx="113.546" cy="-198.117" rx="19.4965" ry="19.4965"/>
<text text-anchor="middle" x="113.546" y="-194.417" font-family="Times,serif" font-size="14.00">n1</text>
</g>
<!-- n20&#45;&#45;n1 -->
<g id="edge18" class="edge"><title>n20&#45;&#45;n1</title>
<path fill="none" stroke="black" d="M14.5056,58.423C35.3869,4.33511 87.4861,-130.615 106.477,-179.807"/>
</g>
<!-- n19&#45;&#45;n22 -->
<g id="edge20" class="edge"><title>n19&#45;&#45;n22</title>
<path fill="none" stroke="black" d="M66.0472,110.105C51.7629,79.1907 25.7979,22.9966 11.4706,-8.01083"/>
</g>
<!-- n19&#45;&#45;n23 -->
<g id="edge19" class="edge"><title>n19&#45;&#45;n23</title>
<path fill="none" stroke="black" d="M84.6266,109.006C90.5374,93.025 98.3876,71.7998 104.288,55.8458"/>
</g>
<!-- n19&#45;&#45;n21 -->
<g id="edge21" class="edge"><title>n19&#45;&#45;n21</title>
<path fill="none" stroke="black" d="M62.1281,112.365C36.992,77.2346 -15.4817,3.89584 -40.688,-31.3332"/>
</g>
<!-- n19&#45;&#45;n18 -->
<g id="edge22" class="edge"><title>n19&#45;&#45;n18</title>
<path fill="none" stroke="black" d="M52.4122,136.082C26.2428,140.64 -15.6199,147.93 -41.8202,152.492"/>
</g>
<!-- n19&#45;&#45;n17 -->
<g id="edge23" class="edge"><title>n19&#45;&#45;n17</title>
<path fill="none" stroke="black" d="M61.1412,150.976C50.3231,164.699 35.7832,183.142 24.9788,196.847"/>
</g>
<!-- n19&#45;&#45;n14 -->
<g id="edge24" class="edge"><title>n19&#45;&#45;n14</title>
<path fill="none" stroke="black" d="M52.1434,130.019C9.87466,126.617 -77.3904,119.593 -119.875,116.174"/>
</g>
<!-- n19&#45;&#45;n10 -->
<g id="edge25" class="edge"><title>n19&#45;&#45;n10</title>
<path fill="none" stroke="black" d="M57.2972,116.954C14.1183,82.5922 -91.5914,-1.53222 -135.021,-36.0933"/>
</g>
<!-- n19&#45;&#45;n4 -->
<g id="edge26" class="edge"><title>n19&#45;&#45;n4</title>
<path fill="none" stroke="black" d="M74.5307,107.655C71.7223,65.2815 65.9825,-21.324 63.4066,-60.191"/>
</g>
<!-- n18&#45;&#45;n22 -->
<g id="edge27" class="edge"><title>n18&#45;&#45;n22</title>
<path fill="none" stroke="black" d="M-57.42,133.749C-44.5406,97.826 -19.7268,28.6152 -6.87069,-7.24321"/>
</g>
<!-- n18&#45;&#45;n21 -->
<g id="edge28" class="edge"><title>n18&#45;&#45;n21</title>
<path fill="none" stroke="black" d="M-64.3629,132.407C-62.2764,92.3868 -58.1344,12.9419 -56.0532,-26.9765"/>
</g>
<!-- n18&#45;&#45;n17 -->
<g id="edge29" class="edge"><title>n18&#45;&#45;n17</title>
<path fill="none" stroke="black" d="M-46.5328,171.567C-35.0626,180.535 -20.5179,191.907 -9.04882,200.874"/>
</g>
<!-- n18&#45;&#45;n14 -->
<g id="edge30" class="edge"><title>n18&#45;&#45;n14</title>
<path fill="none" stroke="black" d="M-87.0909,145.047C-98.2655,139.012 -111.881,131.66 -123.011,125.649"/>
</g>
<!-- n18&#45;&#45;n10 -->
<g id="edge31" class="edge"><title>n18&#45;&#45;n10</title>
<path fill="none" stroke="black" d="M-75.0971,134.386C-92.0859,94.4688 -127.552,11.1389 -144.588,-28.8894"/>
</g>
<!-- n18&#45;&#45;n4 -->
<g id="edge32" class="edge"><title>n18&#45;&#45;n4</title>
<path fill="none" stroke="black" d="M-54.0657,135.236C-29.0103,88.8493 29.8824,-20.1816 52.7737,-62.5615"/>
</g>
<!-- n17&#45;&#45;n22 -->
<g id="edge33" class="edge"><title>n17&#45;&#45;n22</title>
<path fill="none" stroke="black" d="M9.16843,191.328C7.49303,144.209 3.83699,41.3849 2.16437,-5.65661"/>
</g>
<!-- n17&#45;&#45;n21 -->
<g id="edge34" class="edge"><title>n17&#45;&#45;n21</title>
<path fill="none" stroke="black" d="M4.28468,192.116C-8.01913,141.477 -36.7647,23.1669 -49.057,-27.4254"/>
</g>
<!-- n17&#45;&#45;n14 -->
<g id="edge35" class="edge"><title>n17&#45;&#45;n14</title>
<path fill="none" stroke="black" d="M-10.1227,202.518C-39.6782,183.05 -94.4538,146.971 -124.012,127.501"/>
</g>
<!-- n17&#45;&#45;n4 -->
<g id="edge36" class="edge"><title>n17&#45;&#45;n4</title>
<path fill="none" stroke="black" d="M14.2113,192.104C24.2256,135.242 49.4711,-8.10227 58.6773,-60.3755"/>
</g>
<!-- n14&#45;&#45;n22 -->
<g id="edge46" class="edge"><title>n14&#45;&#45;n22</title>
<path fill="none" stroke="black" d="M-126.919,97.1048C-98.9208,69.3436 -43.9227,14.8109 -15.939,-12.936"/>
</g>
<!-- n14&#45;&#45;n21 -->
<g id="edge47" class="edge"><title>n14&#45;&#45;n21</title>
<path fill="none" stroke="black" d="M-132.676,92.95C-115.514,61.2157 -83.3921,1.8196 -66.2557,-29.8672"/>
</g>
<!-- n14&#45;&#45;n10 -->
<g id="edge48" class="edge"><title>n14&#45;&#45;n10</title>
<path fill="none" stroke="black" d="M-145.624,90.1508C-147.51,58.7704 -150.79,4.19459 -152.676,-27.2001"/>
</g>
<!-- n14&#45;&#45;n4 -->
<g id="edge49" class="edge"><title>n14&#45;&#45;n4</title>
<path fill="none" stroke="black" d="M-126.591,97.6731C-86.5463,60.0026 10.8,-31.573 47.6479,-66.2365"/>
</g>
<!-- n10&#45;&#45;n22 -->
<g id="edge61" class="edge"><title>n10&#45;&#45;n22</title>
<path fill="none" stroke="black" d="M-130.18,-48.0196C-100.974,-44.0227 -51.8926,-37.306 -22.6735,-33.3074"/>
</g>
<!-- n10&#45;&#45;n21 -->
<g id="edge62" class="edge"><title>n10&#45;&#45;n21</title>
<path fill="none" stroke="black" d="M-129.826,-51.237C-114.435,-51.1993 -94.5992,-51.1509 -79.1893,-51.1132"/>
</g>
<!-- n10&#45;&#45;n8 -->
<g id="edge63" class="edge"><title>n10&#45;&#45;n8</title>
<path fill="none" stroke="black" d="M-153.498,-75.621C-152.535,-112.955 -150.713,-183.642 -149.832,-217.847"/>
</g>
<!-- n10&#45;&#45;n6 -->
<g id="edge64" class="edge"><title>n10&#45;&#45;n6</title>
<path fill="none" stroke="black" d="M-146.089,-74.1412C-131.145,-116.626 -99.3522,-207.015 -85.6021,-246.107"/>
</g>
<!-- n4&#45;&#45;n22 -->
<g id="edge76" class="edge"><title>n4&#45;&#45;n22</title>
<path fill="none" stroke="black" d="M46.7605,-67.2673C38.7389,-60.6964 28.8461,-52.5929 20.3394,-45.6247"/>
</g>
<!-- n4&#45;&#45;n21 -->
<g id="edge77" class="edge"><title>n4&#45;&#45;n21</title>
<path fill="none" stroke="black" d="M43.062,-75.1478C22.7467,-70.1459 -9.45711,-62.217 -31.3265,-56.8325"/>
</g>
<!-- n4&#45;&#45;n8 -->
<g id="edge79" class="edge"><title>n4&#45;&#45;n8</title>
<path fill="none" stroke="black" d="M46.2127,-91.6762C6.93332,-120.941 -94.3714,-196.416 -133.541,-225.598"/>
</g>
<!-- n4&#45;&#45;n6 -->
<g id="edge80" class="edge"><title>n4&#45;&#45;n6</title>
<path fill="none" stroke="black" d="M50.0708,-95.6031C23.4047,-130.541 -40.3982,-214.136 -67.036,-249.037"/>
</g>
<!-- n4&#45;&#45;n5 -->
<g id="edge81" class="edge"><title>n4&#45;&#45;n5</title>
<path fill="none" stroke="black" d="M57.0905,-98.9579C48.9565,-129.977 32.9785,-190.91 24.8487,-221.913"/>
</g>
<!-- n4&#45;&#45;n10 -->
<g id="edge78" class="edge"><title>n4&#45;&#45;n10</title>
<path fill="none" stroke="black" d="M42.5344,-77.2532C2.82222,-72.0116 -87.1033,-60.1424 -130.208,-54.453"/>
</g>
<!-- n2&#45;&#45;n5 -->
<g id="edge85" class="edge"><title>n2&#45;&#45;n5</title>
<path fill="none" stroke="black" d="M235.71,-83.3951C193.364,-114.314 78.3591,-198.284 35.8853,-229.296"/>
</g>
<!-- n2&#45;&#45;n4 -->
<g id="edge86" class="edge"><title>n2&#45;&#45;n4</title>
<path fill="none" stroke="black" d="M232.073,-72.5956C195.753,-74.1429 118.306,-77.4421 81.8522,-78.995"/>
</g>
<!-- n1&#45;&#45;n22 -->
<g id="edge87" class="edge"><title>n1&#45;&#45;n22</title>
<path fill="none" stroke="black" d="M102.579,-181.694C81.8921,-150.716 37.1768,-83.7551 14.7283,-50.1389"/>
</g>
<!-- n1&#45;&#45;n6 -->
<g id="edge88" class="edge"><title>n1&#45;&#45;n6</title>
<path fill="none" stroke="black" d="M95.0804,-204.508C58.3635,-217.214 -23.4445,-245.525 -60.3464,-258.295"/>
</g>
<!-- n1&#45;&#45;n4 -->
<g id="edge89" class="edge"><title>n1&#45;&#45;n4</title>
<path fill="none" stroke="black" d="M105.733,-180.153C96.0647,-157.921 79.6936,-120.279 69.991,-97.9696"/>
</g>
<!-- n1&#45;&#45;n2 -->
<g id="edge90" class="edge"><title>n1&#45;&#45;n2</title>
<path fill="none" stroke="black" d="M128.064,-184.834C154.517,-160.63 210.288,-109.6 236.904,-85.2477"/>
</g>
<!-- n16 -->
<g id="node16" class="node"><title>n16</title>
<ellipse fill="none" stroke="black" cx="170.499" cy="174.432" rx="24.0958" ry="24.0958"/>
<text text-anchor="middle" x="170.499" y="178.132" font-family="Times,serif" font-size="14.00">n16</text>
</g>
<!-- n16&#45;&#45;n22 -->
<g id="edge38" class="edge"><title>n16&#45;&#45;n22</title>
<path fill="none" stroke="black" d="M154.884,155.563C122.569,116.514 48.7024,27.2554 16.6305,-11.4994"/>
</g>
<!-- n16&#45;&#45;n23 -->
<g id="edge37" class="edge"><title>n16&#45;&#45;n23</title>
<path fill="none" stroke="black" d="M161.345,152.026C150.528,125.548 132.638,81.7597 121.839,55.3278"/>
</g>
<!-- n16&#45;&#45;n21 -->
<g id="edge39" class="edge"><title>n16&#45;&#45;n21</title>
<path fill="none" stroke="black" d="M153.195,157.113C111.155,115.037 4.03857,7.83202 -37.7427,-33.9842"/>
</g>
<!-- n16&#45;&#45;n20 -->
<g id="edge40" class="edge"><title>n16&#45;&#45;n20</title>
<path fill="none" stroke="black" d="M149.289,162.445C117.641,144.561 58.4073,111.086 26.8069,93.2281"/>
</g>
<!-- n16&#45;&#45;n19 -->
<g id="edge41" class="edge"><title>n16&#45;&#45;n19</title>
<path fill="none" stroke="black" d="M148.138,164.364C133.096,157.592 113.35,148.702 98.3419,141.945"/>
</g>
<!-- n16&#45;&#45;n18 -->
<g id="edge42" class="edge"><title>n16&#45;&#45;n18</title>
<path fill="none" stroke="black" d="M146.119,172.594C100.754,169.176 3.88581,161.876 -41.3787,158.465"/>
</g>
<!-- n16&#45;&#45;n17 -->
<g id="edge43" class="edge"><title>n16&#45;&#45;n17</title>
<path fill="none" stroke="black" d="M147.167,180.447C116.745,188.289 63.8351,201.929 33.399,209.775"/>
</g>
<!-- n15 -->
<g id="node17" class="node"><title>n15</title>
<ellipse fill="none" stroke="black" cx="133.191" cy="356.559" rx="24.0958" ry="24.0958"/>
<text text-anchor="middle" x="133.191" y="360.259" font-family="Times,serif" font-size="14.00">n15</text>
</g>
<!-- n15&#45;&#45;n20 -->
<g id="edge44" class="edge"><title>n15&#45;&#45;n20</title>
<path fill="none" stroke="black" d="M122.972,334.498C99.096,282.956 39.87,155.1 15.9463,103.454"/>
</g>
<!-- n15&#45;&#45;n17 -->
<g id="edge45" class="edge"><title>n15&#45;&#45;n17</title>
<path fill="none" stroke="black" d="M117.343,338.445C93.8261,311.566 49.9228,261.385 26.2166,234.289"/>
</g>
<!-- n13 -->
<g id="node18" class="node"><title>n13</title>
<ellipse fill="none" stroke="black" cx="-134.473" cy="347.114" rx="24.0958" ry="24.0958"/>
<text text-anchor="middle" x="-134.473" y="350.814" font-family="Times,serif" font-size="14.00">n13</text>
</g>
<!-- n13&#45;&#45;n20 -->
<g id="edge50" class="edge"><title>n13&#45;&#45;n20</title>
<path fill="none" stroke="black" d="M-123.24,325.809C-96.9983,276.036 -31.9022,152.567 -5.60741,102.694"/>
</g>
<!-- n13&#45;&#45;n14 -->
<g id="edge51" class="edge"><title>n13&#45;&#45;n14</title>
<path fill="none" stroke="black" d="M-135.475,323.067C-137.335,278.439 -141.3,183.275 -143.167,138.483"/>
</g>
<!-- n12 -->
<g id="node19" class="node"><title>n12</title>
<ellipse fill="none" stroke="black" cx="-206.668" cy="144.064" rx="24.0958" ry="24.0958"/>
<text text-anchor="middle" x="-206.668" y="147.764" font-family="Times,serif" font-size="14.00">n12</text>
</g>
<!-- n12&#45;&#45;n23 -->
<g id="edge52" class="edge"><title>n12&#45;&#45;n23</title>
<path fill="none" stroke="black" d="M-183.698,136.079C-124.767,115.591 31.2642,61.3473 89.9659,40.9397"/>
</g>
<!-- n12&#45;&#45;n20 -->
<g id="edge53" class="edge"><title>n12&#45;&#45;n20</title>
<path fill="none" stroke="black" d="M-183.539,137.226C-142.693,125.151 -58.2486,100.187 -17.4222,88.1171"/>
</g>
<!-- n12&#45;&#45;n17 -->
<g id="edge54" class="edge"><title>n12&#45;&#45;n17</title>
<path fill="none" stroke="black" d="M-183.477,151.741C-141.767,165.548 -54.5746,194.41 -12.9862,208.176"/>
</g>
<!-- n12&#45;&#45;n10 -->
<g id="edge56" class="edge"><title>n12&#45;&#45;n10</title>
<path fill="none" stroke="black" d="M-200.33,120.499C-190.204,82.8484 -170.492,9.5591 -160.403,-27.9519"/>
</g>
<!-- n11 -->
<g id="node20" class="node"><title>n11</title>
<ellipse fill="none" stroke="black" cx="-258.328" cy="-75.1746" rx="24.0958" ry="24.0958"/>
<text text-anchor="middle" x="-258.328" y="-71.4746" font-family="Times,serif" font-size="14.00">n11</text>
</g>
<!-- n12&#45;&#45;n11 -->
<g id="edge55" class="edge"><title>n12&#45;&#45;n11</title>
<path fill="none" stroke="black" d="M-212.197,120.602C-222.114,78.5149 -242.816,-9.34507 -252.761,-51.5495"/>
</g>
<!-- n11&#45;&#45;n22 -->
<g id="edge58" class="edge"><title>n11&#45;&#45;n22</title>
<path fill="none" stroke="black" d="M-234.368,-71.0081C-184.908,-62.4073 -72.0139,-42.7755 -22.6038,-34.1834"/>
</g>
<!-- n11&#45;&#45;n23 -->
<g id="edge57" class="edge"><title>n11&#45;&#45;n23</title>
<path fill="none" stroke="black" d="M-235.116,-68.4061C-168.48,-48.9746 22.9,6.83239 89.5256,26.2607"/>
</g>
<!-- n11&#45;&#45;n21 -->
<g id="edge59" class="edge"><title>n11&#45;&#45;n21</title>
<path fill="none" stroke="black" d="M-234.181,-72.3128C-195.01,-67.6705 -118.064,-58.5515 -78.9132,-53.9115"/>
</g>
<!-- n11&#45;&#45;n10 -->
<g id="edge60" class="edge"><title>n11&#45;&#45;n10</title>
<path fill="none" stroke="black" d="M-234.682,-69.7562C-217.629,-65.8484 -194.708,-60.5961 -177.676,-56.6932"/>
</g>
<!-- n9 -->
<g id="node21" class="node"><title>n9</title>
<ellipse fill="none" stroke="black" cx="-319.378" cy="57.7152" rx="19.4965" ry="19.4965"/>
<text text-anchor="middle" x="-319.378" y="61.4152" font-family="Times,serif" font-size="14.00">n9</text>
</g>
<!-- n9&#45;&#45;n20 -->
<g id="edge65" class="edge"><title>n9&#45;&#45;n20</title>
<path fill="none" stroke="black" d="M-299.534,59.1543C-242.881,63.2627 -80.5093,75.0377 -18.653,79.5234"/>
</g>
<!-- n9&#45;&#45;n10 -->
<g id="edge68" class="edge"><title>n9&#45;&#45;n10</title>
<path fill="none" stroke="black" d="M-302.929,46.8642C-272.478,26.7767 -207.419,-16.1399 -174.339,-37.9618"/>
</g>
<!-- n9&#45;&#45;n12 -->
<g id="edge66" class="edge"><title>n9&#45;&#45;n12</title>
<path fill="none" stroke="black" d="M-303.707,69.7216C-283.383,85.292 -247.943,112.443 -225.98,129.269"/>
</g>
<!-- n9&#45;&#45;n11 -->
<g id="edge67" class="edge"><title>n9&#45;&#45;n11</title>
<path fill="none" stroke="black" d="M-311.145,39.7931C-300.079,15.7054 -280.418,-27.0891 -268.458,-53.1233"/>
</g>
<!-- n7 -->
<g id="node22" class="node"><title>n7</title>
<ellipse fill="none" stroke="black" cx="103.553" cy="-357.206" rx="19.4965" ry="19.4965"/>
<text text-anchor="middle" x="103.553" y="-353.506" font-family="Times,serif" font-size="14.00">n7</text>
</g>
<!-- n7&#45;&#45;n8 -->
<g id="edge69" class="edge"><title>n7&#45;&#45;n8</title>
<path fill="none" stroke="black" d="M85.7705,-348.779C39.3393,-326.774 -85.1573,-267.773 -131.566,-245.779"/>
</g>
<!-- n7&#45;&#45;n4 -->
<g id="edge70" class="edge"><title>n7&#45;&#45;n4</title>
<path fill="none" stroke="black" d="M100.638,-337.702C93.0279,-286.775 72.6225,-150.222 65.0159,-99.3188"/>
</g>
<!-- n3 -->
<g id="node23" class="node"><title>n3</title>
<ellipse fill="none" stroke="black" cx="303.464" cy="6.98892" rx="19.4965" ry="19.4965"/>
<text text-anchor="middle" x="303.464" y="10.6889" font-family="Times,serif" font-size="14.00">n3</text>
</g>
<!-- n3&#45;&#45;n22 -->
<g id="edge83" class="edge"><title>n3&#45;&#45;n22</title>
<path fill="none" stroke="black" d="M284.102,4.6171C231.088,-1.87725 83.6538,-19.9382 25.4124,-27.0729"/>
</g>
<!-- n3&#45;&#45;n23 -->
<g id="edge82" class="edge"><title>n3&#45;&#45;n23</title>
<path fill="none" stroke="black" d="M284.125,9.62883C248.989,14.4254 174.779,24.5559 136.571,29.7718"/>
</g>
<!-- n3&#45;&#45;n4 -->
<g id="edge84" class="edge"><title>n3&#45;&#45;n4</title>
<path fill="none" stroke="black" d="M284.926,0.32006C239.999,-15.8416 125.698,-56.9596 80.7061,-73.1447"/>
</g>
<!-- n0 -->
<g id="node24" class="node"><title>n0</title>
<ellipse fill="none" stroke="black" cx="202.217" cy="-162.183" rx="19.4965" ry="19.4965"/>
<text text-anchor="middle" x="202.217" y="-158.483" font-family="Times,serif" font-size="14.00">n0</text>
</g>
<!-- n0&#45;&#45;n21 -->
<g id="edge91" class="edge"><title>n0&#45;&#45;n21</title>
<path fill="none" stroke="black" d="M184.144,-154.368C138.325,-134.557 17.7086,-82.4042 -32.4365,-60.7223"/>
</g>
<!-- n0&#45;&#45;n20 -->
<g id="edge92" class="edge"><title>n0&#45;&#45;n20</title>
<path fill="none" stroke="black" d="M189.923,-146.953C155.551,-104.374 58.5224,15.825 20.8744,62.463"/>
</g>
<!-- n0&#45;&#45;n4 -->
<g id="edge94" class="edge"><title>n0&#45;&#45;n4</title>
<path fill="none" stroke="black" d="M185.316,-152.25C158.386,-136.422 106.033,-105.654 79.0654,-89.8044"/>
</g>
<!-- n0&#45;&#45;n2 -->
<g id="edge95" class="edge"><title>n0&#45;&#45;n2</title>
<path fill="none" stroke="black" d="M211.747,-144.749C220.499,-128.737 233.399,-105.137 242.142,-89.1425"/>
</g>
<!-- n0&#45;&#45;n1 -->
<g id="edge96" class="edge"><title>n0&#45;&#45;n1</title>
<path fill="none" stroke="black" d="M183.844,-169.628C168.626,-175.796 147.107,-184.516 131.895,-190.681"/>
</g>
<!-- n0&#45;&#45;n7 -->
<g id="edge93" class="edge"><title>n0&#45;&#45;n7</title>
<path fill="none" stroke="black" d="M193.287,-179.834C174.503,-216.964 131.096,-302.764 112.391,-339.736"/>
</g>
</g>
</svg>
