<?xml version="1.0" encoding="UTF-8" standalone="no"?>
<!DOCTYPE svg PUBLIC "-//W3C//DTD SVG 1.1//EN"
 "http://www.w3.org/Graphics/SVG/1.1/DTD/svg11.dtd">
<!-- Generated by graphviz version 2.38.0 (20140413.2041)
 -->
<!-- Title: 1 Pages: 1 -->
<svg width="1147pt" height="1050pt"
 viewBox="0.00 0.00 1147.25 1049.82" xmlns="http://www.w3.org/2000/svg" xmlns:xlink="http://www.w3.org/1999/xlink">
<g id="graph0" class="graph" transform="scale(1 1) rotate(0) translate(623.612 470.728)">
<title>1</title>
<polygon fill="white" stroke="none" points="-623.612,579.091 -623.612,-470.728 523.638,-470.728 523.638,579.091 -623.612,579.091"/>
<!-- n22 -->
<g id="node1" class="node"><title>n22</title>
<ellipse fill="none" stroke="black" cx="23.0583" cy="-130.586" rx="24.0958" ry="24.0958"/>
<text text-anchor="middle" x="23.0583" y="-126.886" font-family="Times,serif" font-size="14.00">n22</text>
</g>
<!-- n23 -->
<g id="node2" class="node"><title>n23</title>
<ellipse fill="none" stroke="black" cx="266.409" cy="-395.684" rx="24.0958" ry="24.0958"/>
<text text-anchor="middle" x="266.409" y="-391.984" font-family="Times,serif" font-size="14.00">n23</text>
</g>
<!-- n22&#45;&#45;n23 -->
<g id="edge1" class="edge"><title>n22&#45;&#45;n23</title>
<path fill="none" stroke="black" d="M39.4031,-148.391C83.7348,-196.685 205.887,-329.753 250.135,-377.956"/>
</g>
<!-- n21 -->
<g id="node3" class="node"><title>n21</title>
<ellipse fill="none" stroke="black" cx="-79.4033" cy="-138.989" rx="24.0958" ry="24.0958"/>
<text text-anchor="middle" x="-79.4033" y="-135.289" font-family="Times,serif" font-size="14.00">n21</text>
</g>
<!-- n22&#45;&#45;n21 -->
<g id="edge2" class="edge"><title>n22&#45;&#45;n21</title>
<path fill="none" stroke="black" d="M-0.964401,-132.556C-17.2897,-133.895 -38.8077,-135.66 -55.1761,-137.002"/>
</g>
<!-- n8 -->
<g id="node4" class="node"><title>n8</title>
<ellipse fill="none" stroke="black" cx="-105.821" cy="-419.303" rx="19.4965" ry="19.4965"/>
<text text-anchor="middle" x="-105.821" y="-415.603" font-family="Times,serif" font-size="14.00">n8</text>
</g>
<!-- n22&#45;&#45;n8 -->
<g id="edge3" class="edge"><title>n22&#45;&#45;n8</title>
<path fill="none" stroke="black" d="M13.1594,-152.762C-11.4786,-207.956 -75.1898,-350.683 -97.7533,-401.231"/>
</g>
<!-- n6 -->
<g id="node5" class="node"><title>n6</title>
<ellipse fill="none" stroke="black" cx="-6.14796" cy="-394.196" rx="19.4965" ry="19.4965"/>
<text text-anchor="middle" x="-6.14796" y="-390.496" font-family="Times,serif" font-size="14.00">n6</text>
</g>
<!-- n22&#45;&#45;n6 -->
<g id="edge4" class="edge"><title>n22&#45;&#45;n6</title>
<path fill="none" stroke="black" d="M20.363,-154.913C14.6155,-206.789 1.25333,-327.393 -3.98552,-374.678"/>
</g>
<!-- n5 -->
<g id="node6" class="node"><title>n5</title>
<ellipse fill="none" stroke="black" cx="-239.891" cy="-340.933" rx="19.4965" ry="19.4965"/>
<text text-anchor="middle" x="-239.891" y="-337.233" font-family="Times,serif" font-size="14.00">n5</text>
</g>
<!-- n22&#45;&#45;n5 -->
<g id="edge5" class="edge"><title>n22&#45;&#45;n5</title>
<path fill="none" stroke="black" d="M4.14759,-145.713C-45.5462,-185.466 -179.108,-292.309 -224.527,-328.642"/>
</g>
<!-- n21&#45;&#45;n23 -->
<g id="edge6" class="edge"><title>n21&#45;&#45;n23</title>
<path fill="none" stroke="black" d="M-59.8201,-153.526C1.04656,-198.707 186.468,-336.344 247.04,-381.306"/>
</g>
<!-- n21&#45;&#45;n8 -->
<g id="edge7" class="edge"><title>n21&#45;&#45;n8</title>
<path fill="none" stroke="black" d="M-81.7015,-163.375C-86.8608,-218.12 -99.2789,-349.889 -103.978,-399.746"/>
</g>
<!-- n21&#45;&#45;n6 -->
<g id="edge8" class="edge"><title>n21&#45;&#45;n6</title>
<path fill="none" stroke="black" d="M-72.6429,-162.541C-58.227,-212.763 -24.7119,-329.523 -11.5718,-375.301"/>
</g>
<!-- n6&#45;&#45;n8 -->
<g id="edge61" class="edge"><title>n6&#45;&#45;n8</title>
<path fill="none" stroke="black" d="M-25.3659,-399.037C-43.0156,-403.483 -69.0306,-410.036 -86.6617,-414.477"/>
</g>
<!-- n6&#45;&#45;n5 -->
<g id="edge62" class="edge"><title>n6&#45;&#45;n5</title>
<path fill="none" stroke="black" d="M-25.2762,-389.837C-69.2164,-379.825 -176.948,-355.276 -220.827,-345.277"/>
</g>
<!-- n5&#45;&#45;n21 -->
<g id="edge63" class="edge"><title>n5&#45;&#45;n21</title>
<path fill="none" stroke="black" d="M-227.565,-325.422C-198.572,-288.94 -126.13,-197.786 -94.5361,-158.031"/>
</g>
<!-- n5&#45;&#45;n8 -->
<g id="edge65" class="edge"><title>n5&#45;&#45;n8</title>
<path fill="none" stroke="black" d="M-222.911,-350.858C-197.122,-365.933 -148.37,-394.431 -122.663,-409.458"/>
</g>
<!-- n10 -->
<g id="node12" class="node"><title>n10</title>
<ellipse fill="none" stroke="black" cx="-243.34" cy="-95.2992" rx="24.0958" ry="24.0958"/>
<text text-anchor="middle" x="-243.34" y="-91.5992" font-family="Times,serif" font-size="14.00">n10</text>
</g>
<!-- n5&#45;&#45;n10 -->
<g id="edge64" class="edge"><title>n5&#45;&#45;n10</title>
<path fill="none" stroke="black" d="M-240.168,-321.247C-240.794,-276.62 -242.321,-167.882 -243.003,-119.362"/>
</g>
<!-- n20 -->
<g id="node7" class="node"><title>n20</title>
<ellipse fill="none" stroke="black" cx="4.76845" cy="207.21" rx="24.0958" ry="24.0958"/>
<text text-anchor="middle" x="4.76845" y="210.91" font-family="Times,serif" font-size="14.00">n20</text>
</g>
<!-- n20&#45;&#45;n22 -->
<g id="edge9" class="edge"><title>n20&#45;&#45;n22</title>
<path fill="none" stroke="black" d="M6.06915,183.187C9.43152,121.088 18.3834,-44.2454 21.752,-106.46"/>
</g>
<!-- n20&#45;&#45;n21 -->
<g id="edge10" class="edge"><title>n20&#45;&#45;n21</title>
<path fill="none" stroke="black" d="M-0.95084,183.686C-16.3065,120.528 -58.3114,-52.2379 -73.6761,-115.433"/>
</g>
<!-- n19 -->
<g id="node8" class="node"><title>n19</title>
<ellipse fill="none" stroke="black" cx="20.8212" cy="81.9369" rx="24.0958" ry="24.0958"/>
<text text-anchor="middle" x="20.8212" y="85.6369" font-family="Times,serif" font-size="14.00">n19</text>
</g>
<!-- n20&#45;&#45;n19 -->
<g id="edge11" class="edge"><title>n20&#45;&#45;n19</title>
<path fill="none" stroke="black" d="M7.82564,183.352C10.6638,161.203 14.8687,128.389 17.7207,106.133"/>
</g>
<!-- n18 -->
<g id="node9" class="node"><title>n18</title>
<ellipse fill="none" stroke="black" cx="-117.068" cy="184.12" rx="24.0958" ry="24.0958"/>
<text text-anchor="middle" x="-117.068" y="187.82" font-family="Times,serif" font-size="14.00">n18</text>
</g>
<!-- n20&#45;&#45;n18 -->
<g id="edge12" class="edge"><title>n20&#45;&#45;n18</title>
<path fill="none" stroke="black" d="M-19.012,202.703C-40.4798,198.635 -71.8978,192.68 -93.3471,188.615"/>
</g>
<!-- n17 -->
<g id="node10" class="node"><title>n17</title>
<ellipse fill="none" stroke="black" cx="154.816" cy="183.268" rx="24.0958" ry="24.0958"/>
<text text-anchor="middle" x="154.816" y="186.968" font-family="Times,serif" font-size="14.00">n17</text>
</g>
<!-- n20&#45;&#45;n17 -->
<g id="edge13" class="edge"><title>n20&#45;&#45;n17</title>
<path fill="none" stroke="black" d="M28.544,203.416C56.4748,198.96 102.559,191.607 130.655,187.124"/>
</g>
<!-- n14 -->
<g id="node11" class="node"><title>n14</title>
<ellipse fill="none" stroke="black" cx="-185.418" cy="94.0421" rx="24.0958" ry="24.0958"/>
<text text-anchor="middle" x="-185.418" y="97.7421" font-family="Times,serif" font-size="14.00">n14</text>
</g>
<!-- n20&#45;&#45;n14 -->
<g id="edge14" class="edge"><title>n20&#45;&#45;n14</title>
<path fill="none" stroke="black" d="M-15.9468,194.884C-52.5308,173.115 -128.162,128.111 -164.728,106.353"/>
</g>
<!-- n20&#45;&#45;n10 -->
<g id="edge15" class="edge"><title>n20&#45;&#45;n10</title>
<path fill="none" stroke="black" d="M-10.7519,188.287C-55.3088,133.96 -183.276,-22.0655 -227.826,-76.383"/>
</g>
<!-- n4 -->
<g id="node13" class="node"><title>n4</title>
<ellipse fill="none" stroke="black" cx="129.157" cy="-106.941" rx="19.4965" ry="19.4965"/>
<text text-anchor="middle" x="129.157" y="-103.241" font-family="Times,serif" font-size="14.00">n4</text>
</g>
<!-- n20&#45;&#45;n4 -->
<g id="edge16" class="edge"><title>n20&#45;&#45;n4</title>
<path fill="none" stroke="black" d="M13.7141,184.617C37.2217,125.247 100.403,-34.3214 121.889,-88.5851"/>
</g>
<!-- n2 -->
<g id="node14" class="node"><title>n2</title>
<ellipse fill="none" stroke="black" cx="370.25" cy="225.006" rx="19.4965" ry="19.4965"/>
<text text-anchor="middle" x="370.25" y="228.706" font-family="Times,serif" font-size="14.00">n2</text>
</g>
<!-- n20&#45;&#45;n2 -->
<g id="edge17" class="edge"><title>n20&#45;&#45;n2</title>
<path fill="none" stroke="black" d="M29.0318,208.391C96.9495,211.698 288.065,221.005 350.352,224.038"/>
</g>
<!-- n1 -->
<g id="node15" class="node"><title>n1</title>
<ellipse fill="none" stroke="black" cx="324.934" cy="83.7116" rx="19.4965" ry="19.4965"/>
<text text-anchor="middle" x="324.934" y="87.4116" font-family="Times,serif" font-size="14.00">n1</text>
</g>
<!-- n20&#45;&#45;n1 -->
<g id="edge18" class="edge"><title>n20&#45;&#45;n1</title>
<path fill="none" stroke="black" d="M27.2818,198.526C87.4903,175.301 251.379,112.084 306.536,90.808"/>
</g>
<!-- n19&#45;&#45;n22 -->
<g id="edge19" class="edge"><title>n19&#45;&#45;n22</title>
<path fill="none" stroke="black" d="M21.0778,57.5578C21.5094,16.563 22.3752,-65.6878 22.8047,-106.491"/>
</g>
<!-- n19&#45;&#45;n21 -->
<g id="edge20" class="edge"><title>n19&#45;&#45;n21</title>
<path fill="none" stroke="black" d="M10.8449,59.946C-8.36613,17.5989 -50.2882,-74.8102 -69.4673,-117.087"/>
</g>
<!-- n19&#45;&#45;n18 -->
<g id="edge21" class="edge"><title>n19&#45;&#45;n18</title>
<path fill="none" stroke="black" d="M1.35757,96.3605C-24.9222,115.835 -71.4742,150.333 -97.7029,169.77"/>
</g>
<!-- n19&#45;&#45;n17 -->
<g id="edge22" class="edge"><title>n19&#45;&#45;n17</title>
<path fill="none" stroke="black" d="M40.0194,96.4552C65.3472,115.609 109.692,149.144 135.218,168.447"/>
</g>
<!-- n19&#45;&#45;n14 -->
<g id="edge23" class="edge"><title>n19&#45;&#45;n14</title>
<path fill="none" stroke="black" d="M-3.24065,83.3492C-42.8745,85.6755 -121.448,90.2874 -161.19,92.62"/>
</g>
<!-- n19&#45;&#45;n10 -->
<g id="edge24" class="edge"><title>n19&#45;&#45;n10</title>
<path fill="none" stroke="black" d="M0.531513,68.3238C-48.7606,35.2518 -174.354,-49.0139 -223.343,-81.8823"/>
</g>
<!-- n19&#45;&#45;n4 -->
<g id="edge25" class="edge"><title>n19&#45;&#45;n4</title>
<path fill="none" stroke="black" d="M32.8289,61.002C54.4245,23.3511 99.4173,-55.092 119.321,-89.794"/>
</g>
<!-- n18&#45;&#45;n22 -->
<g id="edge26" class="edge"><title>n18&#45;&#45;n22</title>
<path fill="none" stroke="black" d="M-107.214,161.99C-81.4859,104.208 -12.5003,-50.7255 13.2158,-108.481"/>
</g>
<!-- n18&#45;&#45;n21 -->
<g id="edge27" class="edge"><title>n18&#45;&#45;n21</title>
<path fill="none" stroke="black" d="M-114.267,160.098C-107.295,100.281 -89.2142,-54.8244 -82.2219,-114.809"/>
</g>
<!-- n18&#45;&#45;n17 -->
<g id="edge28" class="edge"><title>n18&#45;&#45;n17</title>
<path fill="none" stroke="black" d="M-92.9396,184.044C-41.345,183.883 79.1961,183.505 130.743,183.344"/>
</g>
<!-- n18&#45;&#45;n14 -->
<g id="edge29" class="edge"><title>n18&#45;&#45;n14</title>
<path fill="none" stroke="black" d="M-131.898,164.574C-143.442,149.362 -159.375,128.363 -170.85,113.24"/>
</g>
<!-- n18&#45;&#45;n10 -->
<g id="edge30" class="edge"><title>n18&#45;&#45;n10</title>
<path fill="none" stroke="black" d="M-126.976,162.194C-150.523,110.09 -209.628,-20.6989 -233.303,-73.0889"/>
</g>
<!-- n18&#45;&#45;n4 -->
<g id="edge31" class="edge"><title>n18&#45;&#45;n4</title>
<path fill="none" stroke="black" d="M-101.291,165.47C-55.756,111.644 75.2605,-43.2307 116.542,-92.0293"/>
</g>
<!-- n17&#45;&#45;n22 -->
<g id="edge32" class="edge"><title>n17&#45;&#45;n22</title>
<path fill="none" stroke="black" d="M145.341,160.697C121.03,102.788 56.6639,-50.5356 32.4481,-108.219"/>
</g>
<!-- n17&#45;&#45;n21 -->
<g id="edge33" class="edge"><title>n17&#45;&#45;n21</title>
<path fill="none" stroke="black" d="M140.517,163.595C98.7031,106.064 -23.0392,-61.439 -64.9939,-119.164"/>
</g>
<!-- n17&#45;&#45;n14 -->
<g id="edge34" class="edge"><title>n17&#45;&#45;n14</title>
<path fill="none" stroke="black" d="M131.431,177.135C69.2753,160.835 -99.5262,116.567 -161.868,100.218"/>
</g>
<!-- n17&#45;&#45;n4 -->
<g id="edge35" class="edge"><title>n17&#45;&#45;n4</title>
<path fill="none" stroke="black" d="M152.673,159.024C147.698,102.762 135.448,-35.7888 130.896,-87.2655"/>
</g>
<!-- n14&#45;&#45;n22 -->
<g id="edge41" class="edge"><title>n14&#45;&#45;n22</title>
<path fill="none" stroke="black" d="M-168.71,76.0395C-129.578,33.8758 -32.3634,-70.8702 6.56005,-112.809"/>
</g>
<!-- n14&#45;&#45;n21 -->
<g id="edge42" class="edge"><title>n14&#45;&#45;n21</title>
<path fill="none" stroke="black" d="M-175.444,72.1191C-155.239,27.7053 -109.675,-72.4476 -89.4276,-116.955"/>
</g>
<!-- n14&#45;&#45;n10 -->
<g id="edge43" class="edge"><title>n14&#45;&#45;n10</title>
<path fill="none" stroke="black" d="M-192.52,70.8251C-203.667,34.3867 -225.144,-35.8163 -236.271,-72.1888"/>
</g>
<!-- n14&#45;&#45;n4 -->
<g id="edge44" class="edge"><title>n14&#45;&#45;n4</title>
<path fill="none" stroke="black" d="M-164.778,80.855C-106.412,43.5648 59.0417,-62.1443 112.369,-96.2153"/>
</g>
<!-- n10&#45;&#45;n22 -->
<g id="edge51" class="edge"><title>n10&#45;&#45;n22</title>
<path fill="none" stroke="black" d="M-219.229,-98.4929C-168.51,-105.211 -51.3094,-120.735 -0.806251,-127.425"/>
</g>
<!-- n10&#45;&#45;n21 -->
<g id="edge52" class="edge"><title>n10&#45;&#45;n21</title>
<path fill="none" stroke="black" d="M-219.852,-101.559C-188.688,-109.864 -133.99,-124.441 -102.848,-132.741"/>
</g>
<!-- n10&#45;&#45;n8 -->
<g id="edge53" class="edge"><title>n10&#45;&#45;n8</title>
<path fill="none" stroke="black" d="M-233.888,-117.569C-208.159,-178.189 -137.216,-345.334 -113.59,-400.999"/>
</g>
<!-- n10&#45;&#45;n6 -->
<g id="edge54" class="edge"><title>n10&#45;&#45;n6</title>
<path fill="none" stroke="black" d="M-228.142,-114.451C-184.278,-169.727 -58.0671,-328.771 -18.3,-378.883"/>
</g>
<!-- n4&#45;&#45;n22 -->
<g id="edge66" class="edge"><title>n4&#45;&#45;n22</title>
<path fill="none" stroke="black" d="M109.697,-111.278C91.9887,-115.224 65.7986,-121.061 46.8523,-125.283"/>
</g>
<!-- n4&#45;&#45;n21 -->
<g id="edge67" class="edge"><title>n4&#45;&#45;n21</title>
<path fill="none" stroke="black" d="M109.536,-109.956C71.1042,-115.862 -13.9592,-128.933 -55.559,-135.325"/>
</g>
<!-- n4&#45;&#45;n8 -->
<g id="edge69" class="edge"><title>n4&#45;&#45;n8</title>
<path fill="none" stroke="black" d="M117.181,-122.861C76.8725,-176.444 -53.5967,-349.88 -93.8691,-403.416"/>
</g>
<!-- n4&#45;&#45;n6 -->
<g id="edge70" class="edge"><title>n4&#45;&#45;n6</title>
<path fill="none" stroke="black" d="M120.693,-124.91C96.3938,-176.497 26.6076,-324.655 2.31275,-376.234"/>
</g>
<!-- n4&#45;&#45;n5 -->
<g id="edge71" class="edge"><title>n4&#45;&#45;n5</title>
<path fill="none" stroke="black" d="M112.34,-117.603C50.7195,-156.673 -162.31,-291.743 -223.398,-330.475"/>
</g>
<!-- n4&#45;&#45;n10 -->
<g id="edge68" class="edge"><title>n4&#45;&#45;n10</title>
<path fill="none" stroke="black" d="M109.654,-106.332C46.9316,-104.371 -149.536,-98.2309 -218.84,-96.0649"/>
</g>
<!-- n2&#45;&#45;n4 -->
<g id="edge73" class="edge"><title>n2&#45;&#45;n4</title>
<path fill="none" stroke="black" d="M358.622,208.996C317.799,152.79 181.308,-35.1368 140.668,-91.0912"/>
</g>
<!-- n1&#45;&#45;n22 -->
<g id="edge74" class="edge"><title>n1&#45;&#45;n22</title>
<path fill="none" stroke="black" d="M308.703,72.1901C257.39,35.7635 98.7623,-76.8444 42.8287,-116.551"/>
</g>
<!-- n1&#45;&#45;n4 -->
<g id="edge75" class="edge"><title>n1&#45;&#45;n4</title>
<path fill="none" stroke="black" d="M310.854,70.0004C274.819,34.9089 179.554,-57.8623 143.372,-93.0979"/>
</g>
<!-- n1&#45;&#45;n2 -->
<g id="edge76" class="edge"><title>n1&#45;&#45;n2</title>
<path fill="none" stroke="black" d="M330.951,102.475C339.619,129.499 355.527,179.098 364.208,206.166"/>
</g>
<!-- n16 -->
<g id="node16" class="node"><title>n16</title>
<ellipse fill="none" stroke="black" cx="19.0009" cy="474.93" rx="24.0958" ry="24.0958"/>
<text text-anchor="middle" x="19.0009" y="478.63" font-family="Times,serif" font-size="14.00">n16</text>
</g>
<!-- n16&#45;&#45;n20 -->
<g id="edge36" class="edge"><title>n16&#45;&#45;n20</title>
<path fill="none" stroke="black" d="M17.7128,450.7C15.0099,399.858 8.77318,282.541 6.06394,231.579"/>
</g>
<!-- n16&#45;&#45;n19 -->
<g id="edge37" class="edge"><title>n16&#45;&#45;n19</title>
<path fill="none" stroke="black" d="M19.1134,450.643C19.4398,380.191 20.3841,176.309 20.7095,106.062"/>
</g>
<!-- n16&#45;&#45;n18 -->
<g id="edge38" class="edge"><title>n16&#45;&#45;n18</title>
<path fill="none" stroke="black" d="M8.77369,453.072C-16.4428,399.179 -81.3809,260.391 -106.722,206.232"/>
</g>
<!-- n16&#45;&#45;n17 -->
<g id="edge39" class="edge"><title>n16&#45;&#45;n17</title>
<path fill="none" stroke="black" d="M29.2092,453.008C54.3788,398.957 119.196,259.762 144.49,205.445"/>
</g>
<!-- n15 -->
<g id="node17" class="node"><title>n15</title>
<ellipse fill="none" stroke="black" cx="192.571" cy="551.043" rx="24.0958" ry="24.0958"/>
<text text-anchor="middle" x="192.571" y="554.743" font-family="Times,serif" font-size="14.00">n15</text>
</g>
<!-- n15&#45;&#45;n20 -->
<g id="edge40" class="edge"><title>n15&#45;&#45;n20</title>
<path fill="none" stroke="black" d="M180.965,529.794C147.297,468.154 49.8669,289.777 16.2972,228.317"/>
</g>
<!-- n13 -->
<g id="node18" class="node"><title>n13</title>
<ellipse fill="none" stroke="black" cx="-219.902" cy="489.72" rx="24.0958" ry="24.0958"/>
<text text-anchor="middle" x="-219.902" y="493.42" font-family="Times,serif" font-size="14.00">n13</text>
</g>
<!-- n13&#45;&#45;n20 -->
<g id="edge45" class="edge"><title>n13&#45;&#45;n20</title>
<path fill="none" stroke="black" d="M-204.812,470.745C-163.883,419.279 -51.1079,277.471 -10.256,226.102"/>
</g>
<!-- n13&#45;&#45;n14 -->
<g id="edge46" class="edge"><title>n13&#45;&#45;n14</title>
<path fill="none" stroke="black" d="M-217.797,465.564C-211.633,394.841 -193.674,188.772 -187.517,118.133"/>
</g>
<!-- n12 -->
<g id="node19" class="node"><title>n12</title>
<ellipse fill="none" stroke="black" cx="-405.411" cy="225.499" rx="24.0958" ry="24.0958"/>
<text text-anchor="middle" x="-405.411" y="229.199" font-family="Times,serif" font-size="14.00">n12</text>
</g>
<!-- n12&#45;&#45;n20 -->
<g id="edge47" class="edge"><title>n12&#45;&#45;n20</title>
<path fill="none" stroke="black" d="M-381.284,224.424C-308.557,221.181 -92.0149,211.525 -19.3284,208.284"/>
</g>
<!-- n12&#45;&#45;n10 -->
<g id="edge49" class="edge"><title>n12&#45;&#45;n10</title>
<path fill="none" stroke="black" d="M-394.526,203.953C-365.072,145.653 -284.039,-14.742 -254.392,-73.4239"/>
</g>
<!-- n11 -->
<g id="node20" class="node"><title>n11</title>
<ellipse fill="none" stroke="black" cx="-595.564" cy="-100.48" rx="24.0958" ry="24.0958"/>
<text text-anchor="middle" x="-595.564" y="-96.7801" font-family="Times,serif" font-size="14.00">n11</text>
</g>
<!-- n12&#45;&#45;n11 -->
<g id="edge48" class="edge"><title>n12&#45;&#45;n11</title>
<path fill="none" stroke="black" d="M-417.595,204.612C-451.859,145.874 -548.796,-20.3056 -583.235,-79.3448"/>
</g>
<!-- n11&#45;&#45;n10 -->
<g id="edge50" class="edge"><title>n11&#45;&#45;n10</title>
<path fill="none" stroke="black" d="M-571.354,-100.124C-507.008,-99.1775 -332.259,-96.6071 -267.72,-95.6578"/>
</g>
<!-- n9 -->
<g id="node21" class="node"><title>n9</title>
<ellipse fill="none" stroke="black" cx="-437.913" cy="82.0925" rx="19.4965" ry="19.4965"/>
<text text-anchor="middle" x="-437.913" y="85.7925" font-family="Times,serif" font-size="14.00">n9</text>
</g>
<!-- n9&#45;&#45;n20 -->
<g id="edge55" class="edge"><title>n9&#45;&#45;n20</title>
<path fill="none" stroke="black" d="M-418.892,87.4687C-347.647,107.605 -96.6916,178.534 -18.6027,200.604"/>
</g>
<!-- n9&#45;&#45;n10 -->
<g id="edge58" class="edge"><title>n9&#45;&#45;n10</title>
<path fill="none" stroke="black" d="M-423.288,68.7593C-388.202,36.771 -299.337,-44.2474 -261.187,-79.0286"/>
</g>
<!-- n9&#45;&#45;n12 -->
<g id="edge56" class="edge"><title>n9&#45;&#45;n12</title>
<path fill="none" stroke="black" d="M-433.597,101.136C-427.726,127.041 -417.223,173.382 -410.829,201.595"/>
</g>
<!-- n9&#45;&#45;n11 -->
<g id="edge57" class="edge"><title>n9&#45;&#45;n11</title>
<path fill="none" stroke="black" d="M-450.814,67.1518C-479.494,33.9381 -548.468,-45.9392 -579.71,-82.1199"/>
</g>
<!-- n7 -->
<g id="node22" class="node"><title>n7</title>
<ellipse fill="none" stroke="black" cx="254.677" cy="-447.23" rx="19.4965" ry="19.4965"/>
<text text-anchor="middle" x="254.677" y="-443.53" font-family="Times,serif" font-size="14.00">n7</text>
</g>
<!-- n7&#45;&#45;n8 -->
<g id="edge59" class="edge"><title>n7&#45;&#45;n8</title>
<path fill="none" stroke="black" d="M235.039,-445.708C172.3,-440.848 -22.8704,-425.729 -85.9439,-420.843"/>
</g>
<!-- n7&#45;&#45;n4 -->
<g id="edge60" class="edge"><title>n7&#45;&#45;n4</title>
<path fill="none" stroke="black" d="M247.928,-428.934C226.134,-369.849 157.78,-184.541 135.938,-125.327"/>
</g>
<!-- n3 -->
<g id="node23" class="node"><title>n3</title>
<ellipse fill="none" stroke="black" cx="500.14" cy="-252.654" rx="19.4965" ry="19.4965"/>
<text text-anchor="middle" x="500.14" y="-248.954" font-family="Times,serif" font-size="14.00">n3</text>
</g>
<!-- n3&#45;&#45;n4 -->
<g id="edge72" class="edge"><title>n3&#45;&#45;n4</title>
<path fill="none" stroke="black" d="M481.743,-245.428C418.583,-220.62 210.994,-139.085 147.665,-114.211"/>
</g>
<!-- n0 -->
<g id="node24" class="node"><title>n0</title>
<ellipse fill="none" stroke="black" cx="375.277" cy="-60.2862" rx="19.4965" ry="19.4965"/>
<text text-anchor="middle" x="375.277" y="-56.5862" font-family="Times,serif" font-size="14.00">n0</text>
</g>
<!-- n0&#45;&#45;n20 -->
<g id="edge77" class="edge"><title>n0&#45;&#45;n20</title>
<path fill="none" stroke="black" d="M359.357,-48.7923C299.797,-5.79191 90.1746,145.549 24.5576,192.923"/>
</g>
<!-- n0&#45;&#45;n4 -->
<g id="edge79" class="edge"><title>n0&#45;&#45;n4</title>
<path fill="none" stroke="black" d="M355.965,-63.9472C309.956,-72.6686 194.297,-94.593 148.38,-103.297"/>
</g>
<!-- n0&#45;&#45;n2 -->
<g id="edge80" class="edge"><title>n0&#45;&#45;n2</title>
<path fill="none" stroke="black" d="M374.932,-40.6769C374.013,11.4416 371.519,152.985 370.598,205.26"/>
</g>
<!-- n0&#45;&#45;n1 -->
<g id="edge81" class="edge"><title>n0&#45;&#45;n1</title>
<path fill="none" stroke="black" d="M368.799,-41.7558C359.132,-14.1064 341.039,37.6443 331.387,65.2524"/>
</g>
<!-- n0&#45;&#45;n7 -->
<g id="edge78" class="edge"><title>n0&#45;&#45;n7</title>
<path fill="none" stroke="black" d="M369.46,-78.9493C349.087,-144.317 281.078,-362.52 260.576,-428.301"/>
</g>
</g>
</svg>
